<svg xmlns="http://www.w3.org/2000/svg" fill-rule="evenodd" stroke-linejoin="round" stroke-miterlimit="1.414" clip-rule="evenodd" viewBox="0 0 560 400"><path fill="#d4a10f" fill-rule="nonzero" d="M132.145 260.428c-3.66-1.206-7.133-4.619-9.592-9.425-.57-1.113-1.035-2.104-1.035-2.204 0-.282 1.714-1.225 1.794-.987.038.113.522.931 1.077 1.82 4.164 6.662 9.864 7.394 12.564 1.614.758-1.621 1.12-3.117 1.555-6.426.623-4.74 1.584-10.547 2.015-12.17 1.207-4.551 3.794-8.142 10.27-14.262 5.636-5.326 8.353-9.47 8.67-13.228.064-.757.056-1.377-.018-1.377s-.685.485-1.358 1.077c-.673.593-2.246 1.842-3.494 2.776-3.198 2.394-4.582 3.628-5.529 4.931-.452.622-.881 1.131-.954 1.131-.073 0-.483-1.053-.911-2.341-.614-1.844-.781-2.614-.785-3.627-.007-1.518.263-2.121 1.808-4.039 2.005-2.489 3.034-5.258 3.035-8.17.003-3.1-1.36-5.8-5.335-10.579-1.772-2.13-6.903-7.598-7.13-7.598-.074 0-.114 1.218-.088 2.708.106 6.188-1.082 10.912-4.454 17.705-2.153 4.337-2.606 5.382-3.467 7.993-.906 2.752-1.191 4.268-1.312 6.971l-.108 2.42-.797.782c-.439.43-.845.735-.903.676-.255-.255-.481-3.949-.385-6.298.176-4.324 1.197-8.194 3.705-14.046 4.744-11.074 5.976-15.186 5.721-19.114-.105-1.628-.252-2.135-1.878-6.499-1.385-3.72-.993-7.352 1.158-10.737.545-.858.611-1.074.448-1.469-.106-.255-.526-1.22-.935-2.146-1.255-2.842-1.566-4.323-1.575-7.498-.01-2.944.21-4.184 1.079-6.08.753-1.647 2.846-3.559 3.894-3.559.742 0 .63.314-.387 1.081-2.161 1.632-2.935 4.465-2.195 8.045.767 3.714 2.294 6.343 7.354 12.659 11.955 14.92 17.967 23.668 22.682 33.006 2.998 5.938 4.207 9.043 5.451 14 1.281 5.102 1.691 9.335 1.321 13.65-.804 9.385-4.565 15.932-11.025 19.189-4.44 2.239-10.264 2.616-15.486 1.003-1.891-.584-1.833-.454-1.391-3.083.437-2.608.753-3.626 1.11-3.587.139.016 1.037.17 1.996.343 4.245.766 8.826-.18 12.302-2.54 1.123-.764 3.171-2.744 4.16-4.023 1.698-2.197 3.051-5.103 3.846-8.258.585-2.325.808-7.072.447-9.54-.277-1.894-1.244-5.116-2.332-7.774-3.813-9.314-10.46-19.292-24.826-37.273a153.179 153.179 0 0 1-2.642-3.442c-.808-1.086-1.53-1.974-1.604-1.974-.247 0-1.077 1.419-1.39 2.375-.222.678-.286 1.343-.227 2.364.16 2.747 1.316 4.461 7.114 10.54 3.538 3.71 5.539 6.122 7.304 8.81 3.279 4.996 4.463 9.993 3.348 14.134-.11.407-.164.775-.12.82.248.247 3.784-2.96 4.848-4.4.362-.487.725-.813.811-.727.223.223 1.376 4.885 1.805 7.295.595 3.35.8 5.747.687 8.018-.122 2.438-.459 3.636-1.702 6.038-1.266 2.448-2.945 4.503-7.812 9.56-4.814 5-6.511 7.075-7.119 8.699-.606 1.62-1.33 5.65-1.752 9.74-.618 6.009-1.208 10.174-1.652 11.677-.664 2.242-1.836 3.768-3.537 4.604-1.08.532-1.421.607-2.978.654-1.477.044-1.983-.021-3.16-.408zm18.433-7.639c-1.39-.688-2.394-2.195-3.452-5.179-.37-1.046-.452-1.487-.305-1.635.317-.318.672.09 1.113 1.28.554 1.493 1.149 2.47 1.69 2.773.401.225.542.226 1.007.004.434-.207.552-.392.597-.945.108-1.296.82-.62 1.393 1.32.403 1.365.376 1.612-.242 2.23-.64.64-.79.653-1.8.152zm-14.658-4.935l-4.075-3.333-3.899 4.768 4.076 3.333zm-11.383-78.004c0 1.998 1.655 3.695 3.695 3.695a3.68 3.68 0 0 0 2.398-.89l.482-.343-.074 1.279c-.095 1.68-.727 2.965-2.29 4.653-1.689 1.825-3.334 3.007-8.698 6.249-7.329 4.429-9.818 6.172-12.457 8.721-3.392 3.277-5.757 7.247-6.793 11.407-1.416 5.68-.962 11.142 1.44 17.43.686 1.8.699 1.902.803 4.959.276 8.124 2.314 13.714 6.53 17.907 2.14 2.13 4.1 3.144 6.655 3.46.64.079 1.573.111 2.077.07 6.122-.518 8.798-5.583 10.11-19.142.171-1.768.404-3.476.517-3.799.14-.395 1.348-1.627 3.717-3.792 3.73-3.408 4.476-4.377 4.476-5.801 0-.88-.75-6.13-.9-6.3-.067-.075-.49.373-.941.992-.754 1.036-3.157 3.372-6.3 6.123-2.062 1.803-2.446 2.75-3.145 7.723-1.218 8.665-2.764 13.233-5.359 15.83-2.397 2.4-6.297 3.005-9.364 1.452-3.116-1.58-5.424-6.314-5.704-11.693l-.108-2.112 1.417 1.325c1.886 1.762 3.42 2.53 5.06 2.53 1.547.001 2.055-.15 2.858-.855 1.18-1.036 1.739-2.697 1.739-5.186 0-4.974-2.67-10.935-5.583-12.463-1.176-.616-2.742-.556-3.867.144-1.087.676-2.16 2.16-2.715 3.764-.227.657-.495 1.235-.596 1.285-.34.166-.66-2.09-.666-4.682-.004-1.905.095-3.055.379-4.441 1.06-5.182 3.11-8.877 7.16-12.916 2.74-2.733 5.57-4.885 11.907-9.06 4.899-3.227 6.992-4.97 8.153-6.782.512-.8.616-.883.665-.539.175 1.225-1.305 5.02-4.705 12.072-2.786 5.778-3.658 7.796-5.06 11.67-1.768 4.889-2.865 9.25-3.506 13.943-.41 3.005-.556 9.2-.304 13.145.224 3.514 1.001 9.017 1.314 9.33.126.126.383-.017.803-.447l.626-.637-.333-2.02c-1.23-7.446-.764-15.396 1.382-23.553 1.518-5.769 3.338-10.367 7.66-19.32 3.808-7.886 4.49-10.553 4.31-16.891-.151-5.259-.848-8.328-2.25-9.886-.765-.852-1.576-1.297-2.645-1.297-2.598 0-3.97 1.687-3.97 3.689zm12.309 69.707l-4.075-3.333-3.9 4.768 4.076 3.333zm.262-3.756c-2.33-2.238-4.654-5.51-6.338-8.928l-.701-1.421.813-.828c.446-.455.904-.828 1.018-.828s.53.476.925 1.056c.885 1.3 3.944 4.487 5.638 5.873 1.116.913 1.243 1.08 1.132 1.503-.069.26-.318 1.413-.554 2.56-.236 1.15-.471 2.13-.523 2.182-.052.051-.686-.475-1.41-1.17zm24.827-9.732l-4.74-2.292-2.65 5.48 4.74 2.29zm-51.146-6.656c.355.01.695.098 1.015.264.664.343 1.638 1.802 1.636 2.456-.001.258-.247.892-.545 1.411-.423.737-.753 1.048-1.504 1.423a4.747 4.747 0 0 1-4.102.052c-1.407-.656-1.455-.777-.832-2.095 1.036-2.19 2.792-3.553 4.332-3.51zm35.607-3.284l-4.74-2.291-2.649 5.479 4.74 2.291zm-34.13-9.02c-.666-.695-.847-1.578-.648-3.161.115-.908.362-1.672.836-2.572 1.21-2.306 5.025-5.657 5.025-4.417 0 .073-.775.93-1.722 1.903-2.56 2.632-3.4 4.563-2.487 5.723.637.81 1.823.577 1.823-.36 0-.519.608-1.275.888-1.103.285.176.268.785-.049 1.84-.706 2.345-2.48 3.384-3.666 2.147zm25.42-2.545c-.467-1.68-.324-1.91 4.192-6.78 1.856-2.003 3.61-3.96 3.898-4.352.561-.763.587-.747.869.557.127.586.096.916-.133 1.419-.164.36-1.827 2.32-3.695 4.357-1.868 2.036-3.686 4.1-4.04 4.584-.353.485-.7.888-.771.893s-.215-.3-.32-.678zm-10.552-28.423a3.713 3.713 0 0 1-3.695 3.695c-2.027 0-3.695-1.668-3.695-3.695s1.668-3.695 3.695-3.695a3.713 3.713 0 0 1 3.695 3.695z"/><path fill="#00529c" d="M257.873 202.592v35.287s.566 5.44-3.165 9.52c-5.181 5.67-14.42.893-14.42.893l1.966-7.173s1.157.81 2.777.81c2.158 0 4.28-2.366 4.28-5.09l-.115-34.247zm77.501.084h21.99v7.22h-13.538v6.73h11.406v6.973h-11.488v6.483h14.688v7.056h-23.058zm30.689 0h21.99v7.22h-13.539v6.73h11.406v6.973h-11.488v6.483h14.688v7.056h-23.057zm-38.976 8.697l-12.472 18.298h12.8v7.467h-24.37v-8.697l12.72-18.544h-12.228v-7.221h23.55zm-133.246-8.731h9.72l11.824 34.33h-9.394l-1.729-6.148H192.78l-2.087 6.148h-8.888zm219.162.033c5.293 0 8.366 4.7 8.366 9.459s-2.381 6.214-2.381 6.214-1.615 1.322-2.936 2.234c1.236 0 2.365 2.772 2.365 2.772l5.333 13.618-8.872-.015s-4.123-10.708-5.17-11.955c-.888-1.058-2.319-.832-4.339-.832v12.802h-8.61v-34.297zm-137.527-.033h9.72l11.824 34.33h-9.394l-1.729-6.148h-11.482l-2.087 6.148h-8.888zm162.98 0h9.72L460 236.972h-9.394l-1.73-6.148h-11.48l-2.088 6.148h-8.889zm-216.973.034h8.452v26.995h10.995v7.221H221.4zm-19.683 20.19l-3.246-10.177-3.262 10.176zm81.635 0l-3.246-10.177-3.262 10.176zm162.98 0l-3.246-10.177-3.262 10.176zm-36.935-12.869h-4.159v6.768h4.224c1.58 0 3.066-1.574 3.066-3.359 0-1.786-1.58-3.408-3.131-3.409z"/></svg>