<svg xmlns="http://www.w3.org/2000/svg" viewBox="0 0 186.324 60.387"><defs><clipPath id="a" clipPathUnits="userSpaceOnUse"><path d="M36.609 536.081h149.06v48.311H36.609v-48.311z"/></clipPath></defs><g clip-path="url(#a)" transform="matrix(1.25 0 0 -1.25 -45.762 730.49)"><path fill="#f03f1e" d="M84.92 560.237c0-13.34-10.814-24.155-24.154-24.155-13.341 0-24.156 10.814-24.156 24.155 0 13.341 10.815 24.155 24.156 24.155 13.34 0 24.155-10.814 24.155-24.155"/><path fill="#fff" d="M51.688 560.794c-5.455-.526-6.6-2.014-6.6-3.532 0-1.209.804-1.984 2.2-1.984 1.612 0 3.16.806 4.4 2.078v3.438zm.525-7.496l-.308 1.98c-1.177-1.207-2.788-2.292-5.206-2.292-2.665 0-4.337 1.612-4.337 4.122 0 3.686 3.159 5.142 9.326 5.792v.62c0 1.859-1.116 2.509-2.82 2.509-1.797 0-3.502-.558-5.112-1.27l-.372 2.385c1.765.712 3.439 1.239 5.733 1.239 3.593 0 5.329-1.455 5.329-4.739v-10.346h-2.232zm8.653 8.735v-8.735h-2.76v14.775h2.202l.465-3.005c1.054 1.674 2.758 3.191 5.175 3.315l.433-2.633c-2.447-.124-4.524-1.766-5.515-3.717m12.477-9.047c-1.952 0-4.12.683-5.392 1.395l.403 2.602c1.394-.96 3.192-1.705 5.206-1.705 1.89 0 3.006.713 3.006 1.951 0 1.364-.837 1.861-3.502 2.51-3.47.868-4.865 1.921-4.865 4.555 0 2.354 1.983 4.09 5.206 4.09 1.828 0 3.47-.374 4.864-.992l-.433-2.602c-1.3.743-2.944 1.27-4.493 1.27-1.674 0-2.54-.65-2.54-1.705 0-.99.743-1.548 3.066-2.137 3.656-.929 5.3-1.983 5.3-4.8 0-2.697-2.016-4.432-5.826-4.432"/><path fill="#1d1b1a" d="M117.22 553c-3.57 0-6.335 2.677-6.335 7.316 0 4.728 2.855 7.346 6.424 7.346 1.904 0 3.42-.595 4.58-1.428l-.328-1.963c-1.367 1.13-2.675 1.695-4.311 1.695-2.677 0-4.371-2.171-4.371-5.62 0-3.48 1.724-5.62 4.579-5.62 1.487 0 2.824.416 4.282 1.664l.267-1.784c-1.367-1.07-2.884-1.606-4.787-1.606m-9.765 3.42c-1.456-1.25-2.796-1.666-4.282-1.666-2.588 0-4.242 1.764-4.529 4.685h8.336l.297 1.843h-8.638c.276 2.916 1.893 4.713 4.326 4.713 1.636 0 2.943-.564 4.312-1.695l.327 1.963c-1.159.833-2.676 1.428-4.579 1.428-3.569 0-6.423-2.617-6.423-7.345 0-4.64 2.765-7.316 6.333-7.316 1.903 0 3.42.536 4.789 1.606l-.269 1.784zm27.279-3.122v9.694c0 1.814-.833 2.914-2.617 2.914-1.487 0-3.003-.92-4.55-2.438v-10.17h-1.962v20.994l1.961.358v-9.28c1.458 1.28 3.035 2.291 4.938 2.291 2.794 0 4.193-1.606 4.193-4.283v-10.08h-1.963zm14.809 0v9.694c0 1.814-.833 2.914-2.617 2.914-1.487 0-3.003-.92-4.55-2.438v-10.17h-1.963v14.065h1.518l.326-2.08c1.546 1.367 3.152 2.378 5.056 2.378 2.795 0 4.192-1.606 4.192-4.313v-10.05h-1.962zm5.678 14.065h1.933v-14.065h-1.933v14.065zm.98 3.361c-.771 0-1.426.655-1.426 1.427 0 .773.655 1.428 1.426 1.428.774 0 1.398-.655 1.398-1.428 0-.772-.624-1.427-1.398-1.427M167.203 553c-3.568 0-6.333 2.677-6.333 7.316 0 4.728 2.855 7.346 6.424 7.346 1.902 0 3.418-.595 4.579-1.428l-.328-1.963c-1.367 1.13-2.676 1.695-4.312 1.695-2.676 0-4.371-2.171-4.371-5.62 0-3.48 1.726-5.62 4.579-5.62 1.487 0 2.827.416 4.284 1.664l.267-1.784c-1.369-1.07-2.885-1.606-4.789-1.606m16.534 7.762c-5.532-.565-7.078-1.904-7.078-3.807 0-1.515 1.04-2.29 2.527-2.29 1.518 0 3.183.833 4.55 2.112v3.985zm.446-7.464l-.328 1.873c-1.308-1.22-2.944-2.17-4.966-2.17-2.438 0-4.193 1.338-4.193 3.835 0 3.301 2.677 4.847 9.04 5.472v.922c0 1.903-1.13 2.706-2.914 2.706-1.666 0-3.3-.506-4.847-1.249l-.268 1.754c1.636.714 3.24 1.22 5.233 1.22 3.125 0 4.73-1.458 4.73-4.342V553.3h-1.487zm-91.295-.272c-2.21 0-3.675.866-3.675 3.466v9.232h-2.18v1.673h2.18v4.9l1.942.329v-5.23h3.256l.27-1.672h-3.526v-8.903c0-1.435.567-2.063 2.091-2.063.448 0 .986.09 1.315.15l.3-1.644c-.419-.118-1.137-.238-1.973-.238"/></g></svg>