<svg xmlns="http://www.w3.org/2000/svg" viewBox="0 0 1200 600"><path fill="#231f20" fill-rule="evenodd" d="M740.94 239.97c7.94-20.67 15.95-41.31 23.87-61.99 3.99.01 7.98.02 11.98.02 10.14 27.29 20.26 54.59 30.4 81.88 1.21 3.33 3.39 6.62 6.92 7.77 5.17 1.68 10.8 1.66 16.08.54 2.53-.57 5.65-2.13 5.53-5.15.05-26.97.04-53.94 0-80.91-5.75-.36-11.07 2.61-14.8 6.8-6.19 6.56-10.05 14.8-14.8 22.34-.54.04-1.6.14-2.14.18.15-10.57.39-21.15.83-31.71 28.22.02 56.44.01 84.66 0 .05 10.48.74 20.96.44 31.43-.48.1-1.45.3-1.94.4-5.49-9.07-10.05-19.23-18.56-25.96-3.11-2.6-7.17-3.59-11.14-3.45-.05 26.29.01 52.57-.03 78.86-.12 2.27.38 4.97 2.66 6.07 3.81 1.9 8.23 1.7 12.39 2.01-.02.54-.05 1.61-.06 2.15H770.6c-.07-.51-.2-1.53-.27-2.04 4.09-.62 8.63-.36 12.21-2.74 2.1-1.34 1.97-4.12 1.19-6.18-2.71-7.97-5.69-15.83-8.45-23.78-9.81-.03-19.62-.03-29.43.01-2.01 5.67-4.4 11.21-6.21 16.96-1.04 3.61-1.94 7.95.55 11.2 2.56 3.14 6.84 3.61 10.51 4.64-.09.49-.25 1.46-.33 1.94-37.2-.03-74.39 0-111.58-.01-.03-.53-.07-1.6-.1-2.13 4.56-.57 12.7.28 13.27-6.05.1-24.7 0-49.41.05-74.12.18-2.29-.85-4.8-3.06-5.73-3.24-1.32-6.8-1.34-10.22-1.57.01-.48.02-1.44.03-1.93 27.08.06 54.16.01 81.24.03 0 10.93-.01 21.85 0 32.78-2.87.63-3.37-2.54-4.41-4.42-3-6.33-6.13-12.73-10.6-18.18-3.43-4.22-8.49-6.99-13.92-7.47-5.51-.46-11.06-.12-16.58-.2.03 13.42 0 26.84.02 40.26 6.69.33 14.45-.43 18.86-6.15 3.43-3.54 3.68-8.91 6.95-12.48.56 3.02.43 6.11.44 9.17-.04 10.12.04 20.24-.05 30.36-2.38-.43-2.49-3.04-3.29-4.84-1.81-5.19-5.32-10.18-10.6-12.23-3.9-1.6-8.2-1.35-12.32-1.36 0 14.5.01 29.01 0 43.52 9.85-.28 20.89 1.5 29.43-4.65 8.87-6.81 12.63-17.82 17.38-27.53.55.14 1.64.41 2.19.54.02 10.2-.05 20.41.03 30.61 10.13-5.63 13.43-17.46 17.41-27.51zm5.97-6.19c9.14-.07 18.28-.01 27.42-.04-4.58-12.33-8.83-24.79-13.48-37.09-4.81 12.32-9.38 24.73-13.94 37.13zm-178.28-54.03c13.78.04 27.56-.08 41.34.06 8.84.55 18.43 1.89 25.4 7.84 5.68 4.74 7.28 13.1 4.98 19.94-1.47 4.07-4.66 7.31-8.34 9.48-6.09 3.54-13.14 5.05-20.11 5.56 9.08.98 18.97 1.95 26.11 8.27 5.48 4.54 7.49 12.17 6.2 19.02-.88 7.32-6.22 13.48-12.77 16.53-9.58 4.7-20.54 4.68-30.97 4.84-.3-.69-.89-2.06-1.19-2.74 5.9.01 12.59.21 17.29-3.97 4.58-4.15 4.87-10.8 5.18-16.56.21-7.05-.7-15.35-6.82-19.86-6.03-4.69-14.08-3.55-21.2-3.65.04 9.17.02 18.33.01 27.5-8.47-24.05-16.77-48.17-25.11-72.26zm25.11 2.52c0 13.23.02 26.47-.01 39.7 6.64-.05 14.19.93 19.8-3.43 4.81-3.97 5.3-10.75 5.47-16.54-.1-5.96-.86-13.08-6.18-16.8-5.55-3.95-12.69-2.81-19.08-2.93z"/><path fill="#f15a2b" fill-rule="evenodd" d="M533.13 179.26c10.06 0 20.12-.03 30.19.02 10.55 30.68 21.27 61.3 31.85 91.97-10.16 0-20.31.02-30.46-.01-1.29-4.41-2.64-8.8-3.97-13.19-8.57-.09-17.13-.05-25.7-.02-1.34 4.4-2.69 8.8-3.89 13.25-9.99-.05-19.97-.02-29.95-.02 10.64-30.67 21.26-61.34 31.93-92zm14.78 34.6c-2.23 7.69-4.41 15.4-6.67 23.08 4.44.08 8.89.07 13.34.04-2.16-7.72-4.58-15.38-6.67-23.12zm-240.62 57.45c-.03-30.54-.15-61.08.06-91.62 15.2.17 30.4 0 45.6.08 8.23.32 17.1 2.24 23.06 8.33 5.55 5.75 6.35 14.62 4.36 22.03-1.76 6.31-7.07 10.73-12.79 13.43 4.48 2.21 9.3 4.36 12.3 8.55 4.14 5.4 4.58 12.66 3.37 19.13-1.29 6.29-5.64 11.72-11.22 14.79-7.25 4.16-15.81 5.03-24.01 5.2-13.58.1-27.15-.06-40.73.08zm27.75-69.04c-.05 4.51-.03 9.02-.03 13.53 4.89-.26 9.99.6 14.69-1.13 4.53-1.55 4.86-8.89.62-11.01-4.76-2.22-10.2-1.2-15.28-1.39zm.01 32.24c-.09 4.65-.09 9.31.01 13.97 5.55-.32 11.51 1.05 16.74-1.37 4.44-1.93 4.52-9.1.15-11.15-5.27-2.51-11.29-1.11-16.9-1.45zm49.99-54.8c22.57.12 45.15 0 67.72.07-.02 8.06-.02 16.13.01 24.2-13.1.07-26.19-.04-39.28.06 0 3.4 0 6.81.02 10.22 12.16-.02 24.32-.01 36.49 0-.02 7.42.06 14.85-.05 22.27-12.14-.06-24.28 0-36.42-.03-.02 3.49-.03 6.97-.05 10.46 13.34.13 26.69-.05 40.04.09-.06 8.07.02 16.15-.04 24.22-22.85-.02-45.7-.02-68.54 0 .19-30.52-.02-61.04.1-91.56zm72.22 24.28c0-8.09-.06-16.19.04-24.28 23.54.14 47.08-.04 70.62.1-2.71 8.04-5.29 16.12-7.93 24.19-7.42.01-14.83-.02-22.24.03-.01 22.4.01 44.8-.01 67.21-9.58.06-19.15-.04-28.73.05-.02-22.42-.02-44.84.01-67.26-3.92-.02-7.84-.02-11.76-.04z"/></svg>