<svg xmlns="http://www.w3.org/2000/svg" id="layer" x="0" y="0" version="1.1" viewBox="0 0 652 652" xml:space="preserve"><style>.st0{fill:#33a9e1}</style><path d="M749.1 531.8h-4v-1.2h9.4v1.2h-4v10.7h-1.4zm7.9-1.2h1.4l4.3 6.5 4.4-6.5h1.3v11.9h-1.3v-9.7l-4.3 6.4h-.1l-4.4-6.3v9.6H757zM151.7 370.1l-6.6 24.8c1.3-4.8 6.6-24.7 6.6-24.8" class="st0"/><path d="M615.7 146.8c-32.8-8.1-67.2-14-102.3-18C498 98.4 460 76.3 385.8 76.5l-156.2.4-17.7 66.7c-46.9 11-88.2 26.3-120.2 45.6-13.3 8-27.4 17.3-38.8 29.3-11.3 12-21.7 28.8-23.2 45.6-2 22.1 2.9 36.3 10.3 49.6 4.7 8.4 10.4 15.7 16.1 22 18.3 20.2 40.8 35.1 64.8 48.5 7.7 4.3 15.7 8.3 23.9 12L129.7 453l194.9-.5c116.5-.3 170.6-49.8 170.4-114.8-.1-38.7-23.8-63.3-57.1-75 52.6-13 84.1-48.5 84-96.3 0-3.7-.2-7.4-.7-11-12.2 0-24.1.3-35.4.7-24.8 1-50.5 1.7-75.8 4.3-5.6.5-11.1 1.2-16.5 1.8 17.6 3.7 25.3 13 25.4 26 .1 23.6-19.8 38.2-56.8 38.3l-70.3.2 13-50.4c-34.4 7.4-67.1 17.2-99.5 30.8-3.9 1.6-7.7 3.3-11.5 5.1l-42 158.2s-.8 3-1.9 7c-4.4-3.7-8.8-7.6-13-11.6-14.7-14.1-27.9-29.6-36.6-49.6-4.4-10.2-7.7-19.1-6.4-34.8 2-23.8 18.5-41.1 34.4-53.8 16.9-13.7 35.5-23.6 55.3-31.9 63.8-26.7 128.7-38.8 204.9-46.6 25.2-2.5 51-3.3 75.7-4.3 47.4-1.8 103.8-.2 149.2 6.2 3 .4 9.5 1.7 9.2 0 .6-2.6-4.7-3.7-6.9-4.2M272.1 299.6l71.9-.2c30.6-.1 46.2 10.1 46.3 29.4.1 23.6-21.9 39.8-57.9 39.9l-78.9.2 18.6-69.3zM-97.4 500.8h30.9c20.3 0 26.9 8.4 26.9 17.9 0 9.5-6.3 16.5-16.7 19 6.6 2.3 11.3 7.2 11.3 14.9 0 12.9-10.7 22.6-33.8 22.6h-38.6l20-74.4zm20.2 57.8c7.1 0 11.5-3.2 11.5-7.9 0-3.8-3.1-5.8-9.1-5.8H-89l-3.7 13.7h15.5zm6-28.1c7.3 0 11.3-2.9 11.3-7.5 0-3.4-2.7-5.5-8.9-5.5h-12.9l-3.4 13.1h13.9zm30.6 19c0-18.4 15-34.9 35-34.9 17.5 0 29.6 11.7 29.6 26.9 0 18.4-15 34.9-35 34.9-17.5 0-29.6-11.7-29.6-26.9M4 543.2C4 537 .2 532-7 532c-8.3 0-13.7 8.2-13.7 15.6 0 6.3 3.8 11.2 11 11.2 8.4.1 13.7-8.1 13.7-15.6m32.7-27.5h21.1c11.6 0 18.8 3.1 23.3 7.6 4.4 4.4 6.5 10.2 6.5 17.4 0 8.9-3.4 17.1-9.8 23.5-7.1 7.1-17.4 11-31.2 11H20.7l16-59.5zm12.1 42.2c6 0 11.2-1.8 14.3-4.8 2.5-2.5 4.2-6.5 4.2-10.1 0-3.2-.9-5.4-2.5-6.9-1.9-1.9-4.8-3-9.6-3h-3.3l-6.6 24.8h3.5zm49.4-5.4l-11.6-36.8h20.9l4.8 19.9 15.5-19.9h23.5L117.5 555l-5.4 20.2H92.2zm54.9-36.8h26.3c18.3 0 22.7 6.7 22.7 14 0 7.2-4.8 13.3-13.9 15.6 5.6 1.4 9.7 5.6 9.7 11.7 0 10-8 18.1-28.4 18.1h-32.4l16-59.4zm17 44.5c4.8 0 7.7-2.1 7.7-5.1 0-2.5-2.1-3.7-6.4-3.7h-8.6l-2.4 8.8h9.7zm5.3-21.1c5.1 0 7.4-2.3 7.4-4.8s-1.9-3.5-6.1-3.5h-8.2l-2.2 8.3h9.1zm27.5 15.9c0-3.1.4-6.4 1.3-9.6l8-29.7h20.2l-8.3 30.9c-.4 1.7-.7 3.3-.7 4.7 0 4.9 2.9 7.5 8.2 7.5 2.5 0 4.8-.9 6.4-2.5 1.8-1.8 3-4.1 4.2-8.7l8.6-31.9H271l-9.4 35c-2.1 7.9-5.2 13.7-9.3 17.8-5.6 5.6-14.1 7.8-23.5 7.8-16.9.1-25.9-7.9-25.9-21.3m74.2-39.3H297l-16 59.5h-19.9zm26.5 0h19.9l-11.4 42.5h27.1l-4.6 17h-46.9zm51.8 0h21.1c11.6 0 18.8 3.1 23.3 7.6 4.4 4.4 6.5 10.2 6.5 17.4 0 8.9-3.4 17.1-9.8 23.5-7.1 7.1-17.4 11-31.2 11h-25.8l15.9-59.5zm12 42.2c6 0 11.2-1.8 14.3-4.8 2.5-2.5 4.2-6.5 4.2-10.1 0-3.2-.9-5.4-2.5-6.9-1.9-1.9-4.8-3-9.6-3h-3.3l-6.6 24.8h3.5zm50.2-42.2h19.9l-16 59.5h-19.9zm26.5 0h18.6l13.5 28.4 7.7-28.4h19.7l-16 59.5h-17.7l-14.1-29.6-8 29.6h-19.7zm55.1 34.3c0-19.5 15.3-35.5 39.3-35.5 11.2 0 20.8 4.8 24.9 9.9L550.9 537c-3.4-3.1-8.5-5.4-13.8-5.4-11.3 0-18 7.7-18 17.3 0 7.4 5.4 11 11.6 11 2.1 0 3.8-.3 5.2-.9l2-6.4H528l3.2-12.7h28.6l-8.5 30.3c-5.9 3.5-14.3 6.1-22.9 6.1-14.6.2-29.2-7.6-29.2-26.3m61.2 10.5h14.8l-3.9 14.7h-14.8zm19.5-3.9c0-12.2 9.4-27 28.6-27 9.6 0 16.4 5.1 18.3 13l-13.3 5.8c-1-3.6-3.6-5.4-6.9-5.4-6.7 0-11 6.1-11 12.2 0 4.9 3.1 7.7 7 7.7 3.4 0 6.2-1.7 8.7-4.7l10.3 8.2c-4.5 5.9-11 9.8-20.5 9.8-12.5 0-21.2-7.6-21.2-19.6m45.9-.7c0-13.8 11.3-26.2 26.3-26.2 13.1 0 22.2 8.8 22.2 20.2 0 13.8-11.3 26.2-26.3 26.2-13.2 0-22.2-8.8-22.2-20.2m33.4-4.7c0-4.7-2.9-8.4-8.2-8.4-6.2 0-10.3 6.1-10.3 11.7 0 4.7 2.9 8.4 8.2 8.4 6.3.1 10.3-6.1 10.3-11.7m26.2-20.6h14.7l5.3 15.7 13.8-15.7h16.4l-12 44.6h-14.8l5.9-22.1-14.5 15.9h-.3l-6-15.9-5.9 22.1h-14.6z" class="st0"/></svg>