<svg xmlns="http://www.w3.org/2000/svg" version="1.0" viewBox="0 0 546 129"><path d="M455.2 4c-6.2 1.3-10.9 4.6-13.5 9.4-1.9 3.6-2.2 5.6-2.2 16.6 0 11.9.1 12.8 3.1 19 1.7 3.6 6.8 11.2 11.3 17 11.2 14.3 13.2 17.8 13.8 24.9 1 10.5-1.2 16.1-6.2 16.1-4.4 0-5.5-3.2-5.5-16.7V78h-18v13.8c0 16.7 1.4 22.6 6.5 27.1 4.3 3.7 9 5.1 18 5.1 17.3-.1 24.1-8.9 23.9-31-.2-16.2-1.1-18.4-17.2-39-9.4-12-12.2-17.7-12.2-25 0-6.4 2-10 5.5-10 4.2 0 5.5 3.4 5.5 14.2 0 5.4.1 9.8.3 9.8.1 0 3.8-1.1 8.2-2.4l8-2.3V26.4c0-13.9-1.3-17.2-8-20.4-4.7-2.3-15.3-3.3-21.3-2zM334 63.5V123h41v-18h-23V71.1l9.3-.3 9.2-.3.3-8.8.3-8.7H352V22h22V4h-40v59.5zM7 63.9V123h15.8c17.3 0 22.4-.9 26.4-4.8 6.1-5.7 6.3-7.3 6.3-55.2V19.5L53 14.6c-4.4-8.7-5.3-9.1-27.1-9.4L7 4.9v59zm28.7-41.3c1 1.4 1.3 10.2 1.3 40.6 0 37.5-.1 38.9-2 40.8-1.3 1.3-3.3 2-6 2h-4V19.7l4.7.6c2.9.3 5.2 1.2 6 2.3zM78.9 5.2c0 .2-3.3 26.6-7.3 58.8l-7.2 58.5 7.5.3c5 .2 7.7-.1 8.2-.9.4-.7 1-5.6 1.4-11.1l.7-9.8h13.5l.6 4.7c.4 2.7.9 7.6 1.3 11l.7 6.3h8.3c7.9 0 8.4-.1 8.4-2.1 0-2.4-13.7-108.9-14.6-113.2L99.8 5H89.4c-5.7 0-10.4.1-10.5.2zm14.5 73.5L94 83h-4.5c-4 0-4.5-.3-4.5-2.3 0-3.9 3.2-35.1 3.8-36.7.3-.8 1.3 5.7 2.3 14.5 1 8.8 2 17.9 2.3 20.2zM127 64v59h18V5h-18v59zm33 0v59h43v-18h-25V5h-18v59zm37.4-57.3c.3 1 3.9 16.3 8 34.1L213 73v50h18V74.3l7.5-33.4c4.2-18.4 7.7-34 8-34.7.3-.9-1.6-1.2-7.8-1.2h-8.3l-3.3 19.2c-1.9 10.6-3.7 20.2-4.1 21.3-.4 1.2-1.9-4.3-4-15.5-1.8-9.6-3.5-19.1-3.9-21l-.7-3.5-8.8-.3c-8-.3-8.7-.1-8.2 1.5zM274 64v59h16.3c18.6 0 22.1-.7 26.4-5.2 4.7-5.1 5.3-8.3 5.3-29 0-20.9-.6-23.6-5.9-28.1-3.1-2.6-3.1-2.6-1-3.7 4.5-2.4 5.9-8.2 5.9-24.5 0-18-1.3-22.1-7.9-25.4-3.6-1.9-5.8-2.1-21.6-2.1H274v59zm27.8-41.8c1.5 1.5 1.7 24.1.2 26.9-.8 1.4-2.1 1.9-5.5 1.9H292V21h4.3c2.4 0 4.8.5 5.5 1.2zm.4 48.5c1.6 1.4 1.8 3.3 1.8 16.6 0 17.5-.5 18.7-7.7 18.7H292V69h4.2c2.4 0 4.9.7 6 1.7zm93.4-64.5c-.2.7-3.4 26.3-7 56.8-3.7 30.5-6.9 56.5-7.1 57.8-.5 2.1-.3 2.2 7.4 2.2 9.2 0 8.5.9 9.6-13.3l.7-8.7h13.5l.7 6.2c.4 3.5.9 8.4 1.3 11l.6 4.8h8.3c7.4 0 8.4-.2 8.4-1.8 0-1.8-13.6-107.2-14.5-113l-.6-3.2h-10.5c-7.5 0-10.6.4-10.8 1.2zm12.8 55c.9 9.5 1.9 18.3 2.2 19.5.4 2.1.1 2.3-4.1 2.3-4.2 0-4.5-.2-4.5-2.8 0-5.3 3.4-36.2 4-36.2.3 0 1.4 7.8 2.4 17.2zm83.8-48l.3 8.3 7.3.3 7.2.3V123h18V22h14V5h-47.1l.3 8.2z"/></svg>