<svg xmlns="http://www.w3.org/2000/svg" viewBox="0 0 1260 209"><path fill="#010101" d="M624.39 1.61c1.99.03 3.99.03 5.99.01-.09 4.06-.07 8.12.1 12.18 4-.07 8.01-.08 12.02-.1-.08-3.97-.12-7.94-.12-11.91l5.83.03c-.14 9.67-.25 19.35.12 29.02-2.16-.01-4.31 0-6.46.03.42-4.07.54-8.15.55-12.24-4.06-.03-8.11-.02-12.16.07-.01 3.97-.01 7.93.06 11.89-1.97.08-3.93.15-5.88.23-.06-9.74-.03-19.47-.05-29.21zm-85.24.32c7.22-.23 14.45-.25 21.68.02 0 1.56.02 3.12.04 4.68-2.68-.02-5.35-.01-8.02.03-.1 7.99-.16 15.99.13 23.99-1.96 0-3.92-.01-5.87-.03.26-7.99.19-15.98.09-23.96-2.7-.04-5.4-.04-8.1-.02.02-1.57.03-3.14.05-4.71zm172.35-.15c4.91 0 9.82.01 14.74.02.02 1.6.04 3.19.08 4.78-3.06-.03-6.11-.06-9.16-.08-.02 2.38-.04 4.77-.07 7.15 2.72.05 5.44.09 8.17.13l.03 4.63c-2.72.03-5.44.05-8.15.07-.01 2.51-.01 5.01-.01 7.51 3.21.14 6.42.2 9.64.24-.05 1.49-.09 2.99-.11 4.49-5.13.07-10.25.06-15.38.05.31-9.66.03-19.32.22-28.99z"/><path d="M1.83 14.29c149.72.06 299.44 0 449.17.03 7.93.01 15.86-.14 23.79.16-.13.86-.4 2.58-.54 3.44-6.08-.11-12.17-.05-18.25-.07-151.44 0-302.88.01-454.31 0 .04-1.19.08-2.38.14-3.56zm789.21.18c9.32-.31 18.64-.11 27.96-.16h412c8.92.05 17.85-.16 26.77.17-.14.86-.42 2.57-.55 3.43-145.08-.13-290.15-.02-435.22-.06-10.13.04-20.26-.09-30.38.1-.15-.87-.44-2.61-.58-3.48z"/><path fill="#050608" d="M208.42 70.79c1.38-2.44 2.82-6.63 6.4-5.16 1.28 1.3 2.15 2.92 3 4.53 18.14 38.19 36.21 76.43 54.84 114.39 3.07 6.34 6.45 12.53 9.86 18.7-12 .33-24.01.18-36.02.09-1.41-9.51-6.37-17.89-9.9-26.68-16.77-.17-33.54-.09-50.31-.04-3.44 8.81-8.83 17.03-9.97 26.6-11.26.36-22.53.29-33.79.03 7.07-11.83 12.97-24.3 19.13-36.62 15.79-31.85 31.24-63.86 46.76-95.84m3.4 46.2c-4.3 13.33-11.14 25.62-16.09 38.7 10.57.05 21.14.09 31.71-.03-1.71-4.85-3.74-9.58-5.85-14.26-3.6-8-6.69-16.2-9.77-24.41zM2.11 68.4c15.61-.98 31.25-1.42 46.89-1.25 16.89.15 34.11 3.48 48.87 11.96 13.74 7.84 24 21.44 27.82 36.79 3.24 12.98 2.48 26.84-1.44 39.59-5.45 16.84-18.59 30.48-34.15 38.51-13.02 6.44-27.58 9.48-42.05 9.76-15.3.29-30.6-.22-45.89-.44 1.5-5.6 2.19-11.38 2.18-17.17.14-34.06.21-68.12.01-102.18.01-5.27-.78-10.51-2.24-15.57m31.86 22.44c-.22 29.55-.12 59.1-.05 88.64 10.51 1.56 21.42 1.1 31.6-2.07 10.24-3.1 19.11-10.24 24.65-19.35 5.89-9.64 7.49-21.43 5.83-32.49-2.3-13.23-11.33-25.31-23.79-30.55-12-5.19-25.42-5.29-38.24-4.18zm286.45-22.92c11.44-.14 22.88-.06 34.33-.06-2.52 9.17-2.04 18.74-2.17 28.14.03 28-.06 55.99.05 83.98.02 7.85.08 15.8 2.24 23.42-11.53.01-23.06.12-34.58-.07 1.46-4.27 2.3-8.74 2.32-13.26.42-21.68.15-43.38.23-65.07-.04-15.03.13-30.06-.25-45.09-.06-4.09-.91-8.11-2.17-11.99zm90.73-.04c11.25-.05 22.51-.05 33.77 0-1.33 5.62-1.83 11.39-1.78 17.15-.61 21.65-.21 43.31-.32 64.97.09 10.39-.23 20.79.22 31.18 10.32.5 20.66.14 30.99.26 6.38.11 12.8-.64 18.81-2.85-.19 8.25-.19 16.51-.5 24.75-27.09.13-54.18.14-81.27 0 2.45-8.56 2.23-17.53 2.27-26.35.13-30 .13-60.01-.04-90.01-.01-6.42-.47-12.88-2.15-19.1zm91.54.13c12.27-.21 24.56-.38 36.83.11.98 3.81 2.4 7.52 4.45 10.9 8.69 14.64 17.72 29.08 26.03 43.93 6.32-11.78 13.78-22.89 20.61-34.37 3.88-6.53 8.54-12.84 10.17-20.41 11.6-.57 23.24-.39 34.85-.14-15.78 22.99-30.13 46.9-45.34 70.26-1.69 2.6-3.54 5.1-4.92 7.88-1.22 2.39-.98 5.16-1.05 7.76.12 11.7.07 23.41.28 35.11.05 4.85.81 9.68 2.25 14.31-11.54.13-23.07.1-34.6.02 1.45-4.32 2.27-8.83 2.29-13.39.2-12.34.07-24.69.16-37.03.13-2.93-.83-5.75-2.46-8.16-13.94-21.48-27.32-43.33-41.23-64.84-2.65-4.07-5.54-7.97-8.32-11.94zm181.09-.05c11.56-.17 23.13-.22 34.69.04-.25 9.64 3.85 18.58 6.61 27.62 5.18 16.78 10.46 33.53 15.24 50.43 9.34-22.03 20.54-43.24 32.68-63.85 2.6-4.23 4.28-9.08 7.56-12.86 1.36-.16 3.19-.39 4.02 1.02 2.46 3.45 4.1 7.39 6.22 11.05 5.27 9.29 10.51 18.59 15.87 27.83 6.39 11.66 11.36 24.01 17.42 35.83 3.11-13.92 7.74-27.43 11.81-41.09 2.53-8.37 5.3-16.67 7.73-25.07 1.05-3.57 1.51-7.27 1.73-10.98 10.62-.13 21.24-.15 31.86.02-4.73 9.54-7.73 19.78-11.14 29.84-10.24 31.13-20.33 62.3-30.61 93.42-1.7 4.87-2.78 9.98-5.06 14.63-1.07.24-2.14.33-3.21.25-1.93-1.96-3.13-4.48-4.42-6.86-10.19-19.56-20.41-39.11-30.42-58.77-3.99-7.76-7.54-15.73-11.23-23.63-3.3 8.44-7.36 16.54-11.61 24.54-10.66 20.94-22.09 41.49-33.04 62.28-.85 2.32-3.34 2.6-5.44 3-12.46-37.98-25.17-75.89-37.91-113.78-2.75-8.43-5.44-16.92-9.35-24.91zm241.32-.04c11.26-.13 22.52-.08 33.79-.04-2.1 9.21-1.7 18.72-2.09 28.1.01 26.35-.04 52.71.03 79.06.5 9.47-.07 19.06 2.11 28.36-11.33.01-22.66.11-33.98-.07.62-3.09 1.3-6.18 1.54-9.33.78-12.99.79-26 .78-39-.07-21.33.15-42.67-.16-64-.34-7.71-.08-15.54-2.02-23.08zm92.63.28c6.43-.23 12.85-.57 19.28-.62 13.96-.2 28.18-.82 41.83 2.64 10.15 2.59 19.91 8.44 25.43 17.55 8.06 13.44 6.6 31.97-3.64 43.88-5.02 6.04-12.14 9.69-18.96 13.31 6.66 8.74 13.76 17.12 20.71 25.62 8.89 11.05 17.89 22 27.36 32.55-8.57.57-17.17.16-25.74.35-3.18-.08-6.48.26-9.52-.8-1.77-1.3-3.04-3.12-4.36-4.84-10.72-14.57-21.87-28.82-32.79-43.24-1.2-1.49-2.38-3.05-3.91-4.19-1.62-.54-3.33-.69-4.99-.94-.1 9.19-.02 18.39-.04 27.58.07 8.8-.08 17.66 1.56 26.35-10.56.04-21.11.05-31.66-.01 1.95-7.98 1.87-16.24 1.97-24.39 0-29.67.01-59.33-.01-89-.15-7.31.1-14.85-2.52-21.8m30.65 21.19c0 13.84.04 27.67-.03 41.5 7.8.31 16.14-.22 22.79-4.76 7.56-4.89 11.07-15.1 8.09-23.61-1.8-5.87-7.03-10.09-12.73-11.91-5.85-1.88-12.09-1.3-18.12-1.22zm126.88-21.47c21.91-.17 43.83 0 65.74-.08 4.88-.04 9.76.01 14.65.26-.1 7.92-.21 15.84-.09 23.76-6.39-1.53-12.96-2.19-19.52-2.17-9.76.01-19.52-.06-29.28.08-.11 11.32-.19 22.64.05 33.96 14.46-.21 28.97.55 43.4-.7.09 7.9.11 15.81-.03 23.71-4.21-.75-8.47-1.23-12.74-1.25-10.19-.11-20.39.04-30.59-.08-.19 11.91-.49 23.85.2 35.75 11.51.59 23.04.2 34.57.27 5.28.08 10.55-.61 15.7-1.79.01 7.89 0 15.79-.1 23.69-27.34.18-54.68.1-82.02.04 1.54-5.31 2.12-10.85 2.07-16.36.07-31 .01-62 .03-93-.13-8.72.15-17.58-2.04-26.09z"/></svg>