<svg xmlns="http://www.w3.org/2000/svg" viewBox="0 0 464 189"><g fill="none"><path fill="#000" d="M166 1.9c-6.9 2.4-11.8 7.8-15.1 16.3-2.2 5.7-2.4 7.8-2.4 21.3.1 13.3.3 15.6 2.4 20.5 3.3 8 6.3 11.4 12.8 14.5 5 2.4 7.1 2.8 14.8 2.9 8.1 0 9.5-.3 14.2-2.8 8.9-4.9 9.7-6.3 10.3-17.4.5-9.1.6-9.7 2.8-10 1.4-.2 2.2-1 2.2-2.3 0-1.8-.8-1.9-12.5-1.9H183v2.5c0 2.2.4 2.5 4 2.5h4v9.4c0 10.2-.7 11.8-5.9 13.7-3.5 1.4-9.6 1.4-12.9 0-7-2.9-11.7-18.2-10.9-35 1-22.9 8.2-32.9 21.9-30.6 5.2.9 10.7 5.8 11.7 10.5.6 3 1.1 3.5 3.9 3.8 3.3.3 3.3.3 2.8-3.2-.3-2-.8-5.1-1.1-7-.5-2.8-1.4-3.8-5.8-6.2-7-3.8-20.2-4.5-28.7-1.5z"/><path fill="#D12801" d="M0 39v38h49V1H0z"/><path fill="#000" d="M58 3.5c0 2 .5 2.5 2.5 2.5H63v65h-2.5c-2 0-2.5.5-2.5 2.5V76h18.5c16 0 19.1-.3 23.8-2 6.5-2.5 9.8-5.7 13.3-13.4 4.7-10.3 4.5-35.4-.3-45.1-.8-1.6-3.4-4.9-5.6-7.3C101.6 2 97.4 1 75.8 1H58v2.5zm36.2 5.2c2 1.1 4.5 4.1 6.3 7.3l3 5.5v17c0 16.6-.1 17.1-2.7 22-5.2 9.4-7 10.5-17.9 10.5H76V39.2c0-17.5.3-32.2.8-32.6 1.3-1.5 13.9 0 17.4 2.1zM120 3.4c0 1.9.6 2.5 2.8 2.8l2.7.3.3 32.2.2 32.3h-3c-2.5 0-3 .4-3 2.5V76h25v-2.5c0-2.1-.5-2.5-3-2.5h-3l.2-32.3.3-32.2 2.8-.3c2.1-.3 2.7-.9 2.7-2.8V1h-25v2.4zm88 0c0 2.1.6 2.5 3.3 2.8l3.2.3.3 32.2.2 32.3h-3.5c-3.1 0-3.5.3-3.5 2.5V76h26v-2.4c0-2.1-.6-2.5-3.2-2.8l-3.3-.3v-64l3.3-.3c2.6-.3 3.2-.7 3.2-2.8V1h-26v2.4zm29.5 2.3c-1.1 8.7-1.1 8.8 1.2 9.1 1.7.3 2.5-.4 3.6-3 2.1-5 3.8-5.9 10.4-5.6l5.8.3.3 32.2.2 32.3h-3c-2.5 0-3 .4-3 2.5V76h24v-2.5c0-2-.5-2.5-2.5-2.5H272V5.9l6.8.3 6.7.3 2 4.2c1.4 3.2 2.5 4.3 4.2 4.3 2.9 0 3.1-.5 2-7.8l-.9-6.2h-54.7l-.6 4.7zm77-3.5c-.2.7-1.6 5.3-3 10.3-1.5 4.9-4.9 15.7-7.5 24-2.6 8.2-6.1 19.4-7.6 24.7-2.7 9.4-2.9 9.8-5.6 9.8-2.3 0-2.8.4-2.8 2.5 0 2.4.2 2.5 7.5 2.5s7.5-.1 7.5-2.5c0-1.6-.6-2.5-1.5-2.5-2.1 0-1.9-1.4 1.3-11l2.9-8.5 9-.3 9-.3 3.1 9.5c1.8 5.3 3.2 9.8 3.2 10.1 0 .3-.9.5-2 .5-1.5 0-2 .7-2 2.5V76h23v-2.5c0-2.1-.5-2.5-2.8-2.5-2.4 0-3-.6-3.9-3.8-.6-2-2.5-7.8-4.1-12.7-1.7-5-6.3-19-10.2-31.3L320.8 1h-2.9c-1.6 0-3.2.6-3.4 1.2zm4.4 33.1c1.7 5.3 3.1 9.9 3.1 10.2 0 .3-3.2.5-7.1.5h-7.1l.7-2.8c2.1-8.8 5.8-19.3 6.5-18.6.4.5 2.2 5.3 3.9 10.7zM354 3.5c0 2 .5 2.5 2.5 2.5h2.5v65h-2.5c-2 0-2.5.5-2.5 2.5V76h26c20 0 26.2-.3 26.5-1.3.2-.6.6-3.6 1-6.5.5-5 .5-5.2-1.9-5.2-1.9 0-2.7.8-3.6 3.4-.6 1.9-1.8 3.7-2.6 4-.9.3-7.4.6-14.5.6H372V6h2.5c2 0 2.5-.5 2.5-2.5V1h-23v2.5zM105.5 94.4c-6.2 2.8-9.6 6.7-12.6 14.3-2.1 5.2-2.4 7.5-2.4 21.3 0 17.2 1.1 22.4 6.5 29.9 4.9 6.7 9.7 8.6 21.5 8.6 14.4 0 19.6-3.1 25.2-15 2.7-5.8 2.8-6.5 2.8-22.5 0-13.9-.3-17.3-1.9-21.5-3.2-8.4-5.7-11.3-12-14.5-5.1-2.6-7-3-14-3-6.4 0-9.2.5-13.1 2.4zm19.5 4.1c1.8.9 3.9 3.6 5.6 7.2 2.6 5.2 2.8 6.7 3.2 20.5.8 26.8-3.7 37.8-15.2 37.8-6.7 0-10.5-3.5-13.7-12.5-2.2-6.3-2-36.5.4-43 2.9-8.3 6.5-11.4 13-11.5 2.1 0 5.1.7 6.7 1.5zm-63-3.1c0 1.9.6 2.5 2.8 2.8l2.7.3v74l-2.5 4.9c-2.1 4.2-3.3 5.5-6.8 7.3-1.1.5 1.2 4.3 2.6 4.3 9.7 0 17.2-7.9 19.1-20 .6-3.6 1.1-21 1.1-38.8V98h2.5c2 0 2.5-.5 2.5-2.5V93H62v2.4zm88 .1c0 2 .5 2.5 2.4 2.5h2.4l.4 26.3.3 26.3 3 5.9c2.3 4.5 4.2 6.6 7.9 8.9 4.4 2.8 5.7 3.1 13.5 3.1 14.2 0 20.3-4.4 23.6-17.2 1.1-4.3 1.5-11.7 1.5-29.5V98h3c2.5 0 3-.4 3-2.5 0-2.5-.1-2.5-8.5-2.5s-8.5 0-8.5 2.5c0 2 .5 2.5 2.6 2.5h2.6l-.4 26.2-.3 26.3-2.8 4.6c-3.7 6.2-5.8 8-10.5 8.6-6 .8-10.5-1.2-13.8-5.9l-2.9-4.1-.3-27.9-.3-27.8h2.5c2.1 0 2.6-.5 2.6-2.5V93h-23v2.5zm66-.1c0 2.2.4 2.6 3 2.6h3v65h-3c-2.5 0-3 .4-3 2.5v2.5h24v-2.5c0-2-.5-2.5-2.5-2.5H235v-30h8l4.6 9.2c2.5 5.1 7.1 13 10.2 17.6l5.6 8.2h8.3c8.2 0 8.3 0 8.3-2.5 0-2-.5-2.5-2.7-2.6-2.2 0-3.9-1.4-7.8-6.4-4.3-5.6-13.5-21.6-13.5-23.6 0-.4 1-.9 2.3-1.3 3.4-.8 11.2-8 12.7-11.6.7-1.7 1.1-5.4.8-8.8-.5-7.1-3.1-11.1-9.6-14.9-4.7-2.8-4.9-2.8-25.4-3.1l-20.8-.3v2.5zm36.3 3.8c4.1 3.1 6.7 8.2 6.7 13 0 5.8-1.8 9.6-6 13.2-2.8 2.3-4 2.6-10.6 2.6H235V98h7.8c4.7 0 8.5.5 9.5 1.2zm31.7-3.7c0 2 .5 2.5 2.5 2.5h2.5v65h-2.5c-2 0-2.5.5-2.5 2.5 0 2.5.1 2.5 8.5 2.5s8.5 0 8.5-2.5c0-2-.5-2.5-2.5-2.5H296v-53.5l6.9 12c3.8 6.6 8.4 14.5 10.1 17.5 1.8 3 5.9 10.2 9.2 15.9 7.4 13.1 7.3 13.1 11.4 13.1h3.4V98h2.5c2 0 2.5-.5 2.5-2.5 0-2.5-.1-2.5-8.6-2.5-8.3 0-8.5.1-8.2 2.2.2 1.7 1.1 2.4 3.1 2.6l2.7.3v22.7c0 13.2-.4 22.2-.9 21.6-.8-.9-4.3-6.7-19.1-32.4-10.8-18.7-8.9-17-18.6-17-8.3 0-8.4 0-8.4 2.5zm87.5-1.3c-.7 1.9-7.8 24.6-14 44.8-7.2 23.3-7.5 24-10.2 24-1.8 0-2.3.6-2.3 2.5 0 2.4.2 2.5 7.5 2.5s7.5-.1 7.5-2.5c0-1.6-.6-2.5-1.5-2.5-1.9 0-1.9-1.2 0-7.5.9-2.8 2-6.7 2.6-8.8l1-3.7h18.7l2.6 8.4c3 9.7 3.2 11.6 1.1 11.6-.9 0-1.5.9-1.5 2.5v2.5h23v-2.5c0-2.1-.5-2.5-2.9-2.5-2.9 0-3-.2-7.1-13.3-2.3-7.2-5.9-18.4-8-24.7-2.1-6.3-5.3-16.1-7-21.8-3-10-3.2-10.2-6.1-10.2-1.6 0-3.2.6-3.4 1.2zm1.5 25.5c.7 2.1 2.3 6.6 3.6 10 1.3 3.4 2.4 6.6 2.4 7.2 0 .7-2.7 1.1-7 1.1-3.9 0-7-.4-7-1 0-.9 4.4-16.8 5.5-19.8.7-2 1.3-1.4 2.5 2.5zm36.2-24.5c.2 1.7 1.1 2.4 3.1 2.6l2.7.3V163h-3c-2.5 0-3 .4-3 2.5v2.5h26.4c29.7 0 26.8.9 28.1-8.2.6-4.8.6-4.8-2.3-4.8-2.3 0-3.1.5-3.6 2.4-1.3 5.1-2.7 5.6-16.7 5.6H428V98.1l2.3-.3c1.4-.2 2.3-1.1 2.5-2.6.3-2.2.2-2.2-11.8-2.2s-12.1 0-11.8 2.2z"/></g></svg>