<svg xmlns="http://www.w3.org/2000/svg" viewBox="0 0 499.16 84.381"><path stroke-width=".997" d="M157.05 82.88c-16.095-4.35-26.635-16.433-29.085-33.342-2.026-13.984 1.473-26.789 9.876-36.146 14.91-16.602 49.097-18.041 66.223-2.788l3.795 3.38-18.594 15.221-3.326-2.792c-4.084-3.43-11.532-5.357-17.07-4.415-12.52 2.128-18.599 19.44-11.283 32.139 4.073 7.068 14.421 10.309 23.15 7.248 2.684-.941 3.13-1.583 3.13-4.5v-3.402h-12.923v-20h39.764v36.589l-4.722 3.588c-6.36 4.834-13.564 8.34-19.931 9.698-7.25 1.548-22.436 1.297-29.004-.478zM2.94 41.983V.483l19.633.008c10.798.004 22.541.478 26.095 1.052C61.754 3.66 72.083 10.417 77.309 20.28c8.886 16.77 5.38 42.41-7.202 52.668-10.614 8.654-18.763 10.495-46.54 10.518l-20.628.018zm44.374 15.921c5.683-4.268 6.822-6.897 6.822-15.745 0-6.387-.44-8.943-2.01-11.677-2.805-4.88-9.274-8-16.592-8H29.78v38.219l7.405-.376c5.491-.28 8.11-.905 10.128-2.421zm43.107-15.921V.483h27.835v83H90.421zm130.23 0V.483h27.835v83h-27.835zm39.764 0V.483h19.795c22.4 0 32.136 1.372 39.902 5.624 7.056 3.863 14.12 11.768 16.689 18.676 6.272 16.862 2.037 38.986-9.219 48.163-10.614 8.654-18.763 10.496-46.54 10.52l-20.628.017zm44.374 15.921c5.683-4.268 6.822-6.897 6.822-15.745 0-6.387-.44-8.943-2.011-11.677-2.804-4.88-9.273-8-16.591-8h-5.754v38.219l7.405-.376c5.491-.28 8.11-.905 10.128-2.421zm37.593 13.355c2.397-6.752 8.98-25.434 14.629-41.516L367.281.504l30.817.01 14.414 40.546c7.928 22.3 14.564 40.968 14.746 41.484.197.557-5.729.938-14.593.938H397.74l-3.619-11.5h-23.788l-3.293 11-29.017.553zm46.272-20.308c0-.865-5.964-20.801-6.335-21.174-.465-.468-5.594 17.867-5.594 19.996 0 1.423 1 1.71 5.964 1.71 3.28 0 5.965-.24 5.965-.532zm53.681 16.358V51.135l-14.414-24.754c-7.928-13.614-14.414-25.023-14.414-25.352 0-.33 6.767-.474 15.038-.322l15.038.276 5.93 13.5c3.26 7.425 6.035 13.61 6.164 13.745.13.134 3.059-6.053 6.509-13.75L468.459.483h30.704l-1.98 3.25c-1.09 1.787-7.837 13.346-14.994 25.684L469.177 51.85v31.63h-26.84z"/></svg>