<svg xmlns="http://www.w3.org/2000/svg" viewBox="0 0 1154.227 105.893"><path fill="#969db6" fill-rule="evenodd" d="M257.384 105.893H123.263c-3.261 0-5.93-2.668-5.93-5.929V5.924c0-3.26 2.669-5.929 5.93-5.929h134.121c3.261 0 5.93 2.669 5.93 5.93v94.04c0 3.26-2.669 5.928-5.93 5.928"/><path fill="#e964b9" fill-rule="evenodd" d="M565.376 105.893H396.641c-3.261 0-5.929-2.668-5.929-5.929V5.924c0-3.26 2.668-5.929 5.93-5.929h168.734c3.261 0 5.93 2.669 5.93 5.93v94.04c0 3.26-2.669 5.928-5.93 5.928"/><path fill="#a9a9a7" fill-rule="evenodd" d="M722.421 105.893H587.752c-3.261 0-5.93-2.668-5.93-5.929V5.924c0-3.26 2.669-5.929 5.93-5.929h134.67c3.26 0 5.929 2.669 5.929 5.93v94.04c0 3.26-2.67 5.928-5.93 5.928"/><path fill="#e4684f" fill-rule="evenodd" d="M859.852 105.893H744.739c-3.262 0-5.93-2.668-5.93-5.929V5.924c0-3.26 2.668-5.929 5.93-5.929h115.113c3.26 0 5.93 2.669 5.93 5.93v94.04c0 3.26-2.67 5.928-5.93 5.928"/><path fill="#94995f" fill-rule="evenodd" d="M1021.497 105.893H884.641c-3.261 0-5.929-2.668-5.929-5.929V5.924c0-3.26 2.668-5.929 5.93-5.929h136.855c3.262 0 5.93 2.669 5.93 5.93v94.04c0 3.26-2.668 5.928-5.93 5.928"/><path fill="#bf9e3a" fill-rule="evenodd" d="M1148.296 105.893h-103.655c-3.261 0-5.929-2.668-5.929-5.929V5.924c0-3.26 2.668-5.929 5.93-5.929h103.654c3.261 0 5.93 2.669 5.93 5.93v94.04c0 3.26-2.669 5.928-5.93 5.928"/><path fill="#b69e7d" fill-rule="evenodd" d="M373.555 105.893h-91.411c-3.261 0-5.93-2.668-5.93-5.929V5.924c0-3.26 2.669-5.929 5.93-5.929h91.41c3.262 0 5.93 2.669 5.93 5.93v94.04c0 3.26-2.668 5.928-5.93 5.928"/><path fill="#36416a" d="M241.35 6.776v37.729h-2.366c-7.847-13.366-20.236-34.581-47.94-34.581-34.193 0-35.563 32.426-35.563 48.14 0 21.612 2.747 40.884 35.166 40.884 8.648 0 24.764-2.948 26.732-10.628V66.318l-6.878-7.266H196.16v-3.161h67.005v3.161h-12.381l-8.843 7.46v21.03c0 1.774.588 3.726 1.572 6.092l-1.175 1.167c-.988-.973-2.754-1.564-5.508-1.564-10.608 0-27.713 8.838-49.714 8.838-38.515 0-57.973-23.768-57.973-45.186 0-33.21 31.249-50.113 60.922-50.113 15.52 0 29.081 7.076 37.137 7.076 6.874 0 10.016-4.334 11.998-7.076h2.15"/><path fill="#595b5d" d="M611.823 18.526l-8.15-8.356h-12.905V6.99h56.228v3.18h-5.17l-6.155 6.372v37.352l38.94-29.212-10.523-14.512h-7.356V6.99h64.376v3.18h-17.084l-35.57 25.433 34.777 51.866 7.557 7.947h13.108V98.6h-61.599v-3.184h10.734l2.18-9.542-25.231-37.148-14.31 11.323v28.417l6.562 6.95h9.527V98.6h-60.991v-3.184h13.31l7.745-7.947V18.526"/><path fill="#d81e27" d="M768.127 18.348l-9.263-8.259h-13.472V6.894H857.66l1.41 35.019h-3.225l-23.33-31.824h-31.799l-7.441 7.66v29.98h14.682l18.106-20.932h2.41v45.079h-2.41L807.75 51.545h-14.476v37.423l6.626 7.452h30.602l26.549-32.192h2.415v35.417H745.392V96.42h14.687l8.048-8.246V18.348"/><path fill="#41421b" d="M933.07 49.123c26.367 0 47.494 0 47.494-20.13 0-9.454-3.621-18.916-21.337-18.916h-16.502l-9.656 7.647zm-24.149-30.8l-9.276-8.246H884.96V6.853h81.509c17.113 0 41.055 2.843 41.055 22.334 0 16.322-22.135 19.133-33.399 20.519-9.26 1.24-10.677 1.434-10.677 3.43 0 3.826 8.66 6.856 24.354 6.856l7.859 26.546c2.417 7.857 7.44 9.882 9.457 9.882h6.842v3.225h-37.835L962.05 62.203c-1.409-4.237-5.828-9.848-16.1-9.848h-12.88v36.613l8.45 7.452h13.074v3.225H884.96V96.42h15.894l8.068-8.246v-69.85"/><path fill="#d63b3e" fill-rule="evenodd" d="M100.891 105.893H5.93c-3.26 0-5.929-2.668-5.929-5.929V5.924C0 2.665 2.668-.004 5.93-.004h94.961c3.262 0 5.93 2.669 5.93 5.93v94.04c0 3.26-2.668 5.928-5.93 5.928"/><g clip-path="url(#a)" transform="matrix(.13333 0 0 -.13333 0 105.893)"><path fill="#774f1b" d="M2567.76 289.34L2450.2 562.633c-1.49 1.609-4.37 4.344-8.81 4.344-4.37 0-7.35-1.457-11.72-7.231L2276.84 289.34zm73.52-173.399l-57.36 141.079h-324.67l-41.2-72.055 54.35-113.13h54.38v-23.51H2037.4v23.51c48.39 13.306 95.48 41.192 126.22 95.509l329.17 576.035h72.03l257.14-602.465c29.35-69.078 114.65-69.078 142.5-69.078V48.324h-461.34v23.512h104.29l33.87 44.105"/></g><g clip-path="url(#a)" transform="matrix(.13333 0 0 -.13333 0 105.893)"><path fill="#db048c" d="M2916.6 742.195h477.84v-23.664h-92.02l-44.44-72.726 170.6-369.465c2.95-4.559 5.9-8.992 8.87-8.992 4.5 0 5.96 4.433 7.45 8.992l200.31 465.855h62.27l201.92-473.332c1.46-4.433 7.35-8.867 10.33-8.867 3 0 7.41 4.434 8.93 8.867l157.24 314.641-111.25 135.027h-93.44v23.664h442.18v-23.664h-84.6l-123.13-139.617-273.03-538.61h-34.18l-201.73 480.743c-1.55 4.375-7.48 9.051-11.97 9.051-4.44 0-8.93-3.098-11.85-9.051L3385.6 40.305h-40.13l-267.08 575.761-86.06 102.465h-75.73v23.664"/></g></svg>