<svg xmlns="http://www.w3.org/2000/svg" viewBox="0 0 251 45"><g fill="none"><path fill="#18ADE5" d="M154.5 22.2c0-13 9.8-22.2 22.9-22.2 13.1 0 22.9 9.2 22.9 22.2 0 12.9-9.7 22.1-22.9 22.1-13.1.1-22.9-9.1-22.9-22.1m34.4 0c0-7.1-4.6-12.4-11.6-12.4-7.1 0-11.7 5.4-11.7 12.4 0 6.9 4.6 12.3 11.7 12.3 7.1.1 11.6-5.4 11.6-12.3"/><path fill="#3B5157" d="M234.3 1.4L225.6 24l-8.7-22.6H201v1.3c4.4 5.4 7 12.1 7 19.6 0 7.5-2.6 14.3-7 19.6v1.3h11.7V16.1l10.4 27.1h4.7l10.5-27.1V43h11.8V1.4h-15.8zm-184.6 0h10.7V43H49.7zM141.9 43l-2.1-6h-16.3l-2.1 6h-12.1l15.6-41.6h13.4L154 43h-12.1zm-10.3-31l-5.3 15.6h10.5L131.6 12zm-87.5 7H22.6v8.7h9.8c-1.7 4-5.3 6.3-9.6 6.3-6.4 0-11.5-5.1-11.5-11.7 0-6.7 4.8-11.7 11.1-11.7 3.7 0 6.5 1.3 9.1 4.6l.2.3 8.1-6.3-.3-.3C35.3 3.7 29 .7 22.1.7 9.9.7.6 10 .6 22.3c0 12.1 9.3 21.3 21.6 21.3 5.6 0 11-2.1 15.2-5.8 4.6-4.2 6.9-9.6 6.9-16.3 0-.4 0-1.3-.1-2.1V19h-.1zm65.2 0H87.9v8.7h9.8c-1.7 4-5.3 6.3-9.6 6.3-6.4 0-11.5-5.1-11.5-11.7 0-6.7 4.7-11.7 11.1-11.7 3.7 0 6.5 1.3 9.1 4.6l.2.3 8-6.3-.2-.3C100.6 3.7 94.3.7 87.4.7 75.2.7 65.9 10 65.9 22.3c0 12.1 9.3 21.3 21.6 21.3 5.6 0 11-2.1 15.1-5.8 4.6-4.2 6.9-9.6 6.9-16.3v-2.1l-.2-.4z"/></g></svg>