<svg xmlns="http://www.w3.org/2000/svg" version="1.0" viewBox="0 0 408 83"><path d="M244.6 2.7c-.3 1-5 18-10.6 37.8-5.5 19.8-10.5 37.3-11 38.8l-.9 2.8 5.2-.3 5.2-.3 1.6-6 1.6-6 9.6-.3 9.5-.3 1.6 5.5c.9 3 1.6 5.9 1.6 6.5 0 .7 2 1.1 5 1.1 2.8 0 5-.4 5-1 0-1.1-22-79.4-22.5-79.8-.2-.2-.6.5-.9 1.5zm1 57.1c-3.7.2-7 .2-7.1 0-.1-.2 1.4-6.7 3.3-14.5l3.6-14.2 3.5 14.2 3.6 14.2-6.9.3zM388.2 1.7c1.2.3 1.8 1.7 2.1 4.6l.4 4.2.1-4.2c.2-3 .7-4.3 2-4.6.9-.3-.1-.5-2.3-.5-2.2 0-3.2.2-2.3.5zm7.5-.1c-.4.4-.6 2.6-.6 4.8.1 3.9.2 3.9.9 1.1l.7-3 1.2 3c1 2.3 1.4 2.6 2.1 1.5.6-.8.9-2.2.9-3 0-1.2-.2-1.3-.6-.1-.4 1-1.1.4-2.2-1.8-.9-1.7-2-2.9-2.4-2.5zm5.9.5c-.4.8 0 3.1.8 5l1.5 3.4v-3c0-1.7-.4-3.9-.9-5-.7-1.7-.9-1.7-1.4-.4zm-376.2 1C18 5.2 9.6 16.2 7.1 27.1c-1.5 6.3-1.3 22.5.3 28.5 4.2 15.9 14.2 24.9 29.9 27l4.7.7V45h-9v12.9c0 7.2-.4 13.2-.9 13.5-.4.3-2.9-.8-5.3-2.3-3.6-2.3-5.3-4.4-7.9-9.7-3.3-6.6-3.4-7.3-3.4-18.4 0-11.2.1-11.8 3.5-18.5 4.3-8.6 8.4-11.7 14.9-11.4 4.1.3 4.4.1 6.3-3.4L42.1 4l-2.6-1c-3.2-1.2-9.8-1.2-14.1.1zM59 42v40h9V56.2l2.5-.4c2.8-.6 2.3-1.5 10 16.9l3.9 9.3h4.8c2.6 0 4.8-.4 4.8-.8 0-.5-2.9-7.2-6.5-15.1L81 51.9l2.9-2.5c7.9-6.7 10.2-22.5 4.8-33.5C84.5 7.2 75.2 2 63.8 2H59v40zm16.7-27.9C79.6 16.5 82 22.2 82 29c0 9.6-3.9 15.7-11.3 17.5l-2.7.7V11.1l2.8.8c1.6.5 3.8 1.4 4.9 2.2zM178 42.4c0 46.2-1.1 41.8 9.5 39.1 7.3-1.9 14.5-6.4 18.5-11.5 12.2-15.4 11.5-42.5-1.5-56.9-4.6-5-14.2-9.9-21.3-10.8l-5.2-.6v40.7zm13.8-28c4.1 2.1 7.8 6.5 10.4 12.1 1.9 4.2 2.3 6.7 2.3 16 0 10-.2 11.5-2.8 16.7-2.8 5.7-8.1 11.2-11.8 12.1-1.8.5-1.9-.6-1.9-28.9 0-16.2.2-29.4.5-29.4.4 0 1.8.6 3.3 1.4zM108 42.5V82h9V3h-9v39.5zM131 7v4h12v71h9V11h13V3h-34v4zm149 35.5V82h10V3h-10v39.5zm28 0V82h30v-9h-20V3h-10v39.5zm36-38.9c0 .4 3.6 12.1 8 26.1l8 25.4V82h9V56.2l8-25.5c4.4-14 8-25.9 8-26.6 0-.8-1.5-1.1-4.7-.9l-4.7.3-5.3 18.4c-2.9 10.1-5.4 18.5-5.6 18.7-.2.2-2.7-8.2-5.6-18.6l-5.3-19h-4.9c-2.7 0-4.9.3-4.9.6z"/></svg>