<svg xmlns="http://www.w3.org/2000/svg" id="layer" x="0" y="0" version="1.1" viewBox="0 0 652 652" xml:space="preserve"><style>.st0{fill:#e12527}</style><path d="M620.5 254.5c.3-1.2-.1-1.9-1-1.9h-23.1c-.9 0-1.5.6-1.5 1.4 0 .7.4 1.1 1 1.1h10.6l-12.4 40.6c-.6-7.5-5.3-12.9-12.9-12.9-18.2 0-37.8 22.9-37.8 44.6 0 17.1 9.6 24.7 18.3 24.7 7.2 0 15.1-6 21.2-17.9-2.3 12.3 2.8 17.9 10.8 17.9 5.9 0 11.8-4.4 19.8-23.6.4-1-.1-1.6-1.1-1.6-.7 0-1.2.3-1.5 1.1-7.3 16.9-11.5 20.2-14.4 20.2-2.4 0-3.8-2-1.1-11.1l25.1-82.6zm-30 52.9l-3.1 10c-6.7 22-18.1 31.9-25 31.9-4.8 0-7.1-3.6-7.1-11.3 0-23.3 15.4-52.1 27.9-52.1 6.1.1 11.1 8.9 7.3 21.5zm-51.3 2.4c0-15.8-11.1-26.8-23.1-26.8-20.1 0-37.5 21-37.5 42.5 0 15.8 11.1 26.8 23.1 26.8 20.2 0 37.5-21 37.5-42.5zm-48.6 25.9c0-12 6.2-34.2 15.4-44.6 3.2-3.6 6.8-5.6 10.9-5.6 6.2 0 10.5 4 10.5 14 0 12-6.2 34.2-15.4 44.6-3.2 3.6-6.8 5.6-10.9 5.6-6.3 0-10.5-4-10.5-14zm-53.8 16.6c20.1 0 37.5-21 37.5-42.5 0-15.8-11.1-26.8-23.1-26.8-20.1 0-37.5 21-37.5 42.5 0 15.8 11.1 26.8 23.1 26.8zm4.2-61.2c3.2-3.6 6.8-5.6 10.9-5.6 6.2 0 10.5 4 10.5 14 0 12-6.2 34.2-15.4 44.6-3.2 3.6-6.8 5.6-10.9 5.6-6.2 0-10.5-4-10.5-14 0-12 6.2-34.2 15.4-44.6zm-38.4-7.8c-4.5 0-7.6 3.6-7.6 7.6 0 4.1 3.5 7.4 7.5 7.4 2.7 0 4.9-1.6 5.9-3.5.2 1.1.3 2.2.3 3.3 0 23.2-20 50.6-32.4 50.6-4.6 0-7.6-3-3.6-14.7l15.2-49.4H374l-8.8 28.7c-7.6 24.1-18.8 35.3-25.5 35.3-4.1 0-6.4-3.2-3.3-13.1l14.9-49.1c.3-1.2-.1-1.9-1-1.9h-22.2c-.9 0-1.5.6-1.5 1.4 0 .7.4 1.1 1 1.1h9.7l-12.4 40.6c-4.9 15.9 2.5 24.4 13.5 24.4 7.9 0 16-8.1 21.9-20.3-2 12.5 4.3 20.3 13.5 20.3 20.1 0 38.2-32.8 38.2-54.7-.2-10.3-4.1-14-9.4-14zM248.9 327c-.7 0-1.2.3-1.5 1.1-7.3 16.9-11.5 20.2-14.4 20.2-2.4 0-3.8-2-1.1-11.1l25.3-82.8c.3-1.2-.1-1.9-1-1.9H234c-.9 0-1.5.6-1.5 1.4 0 .7.4 1.1 1 1.1h9.7l-23.3 76.1c-3.8 13.9 1.3 20.9 10.5 20.9 5.9 0 11.9-4.4 19.8-23.6.1-.7-.4-1.4-1.3-1.4zm-36.1 0c-.7 0-1.2.3-1.5 1.1-7.3 16.9-11.5 20.2-14.4 20.2-2.4 0-3.8-2-1.1-11.1l25.3-82.8c.3-1.2-.1-1.9-1-1.9h-22.2c-.9 0-1.5.6-1.5 1.4 0 .7.4 1.1 1 1.1h9.7l-23.3 76.1C180 345 185.1 352 194.3 352c5.9 0 11.9-4.4 19.8-23.6.1-.7-.3-1.4-1.3-1.4zm-56.2-44c-20.1 0-37.5 21-37.5 42.5 0 15.8 11.1 26.8 23.1 26.8 20.2 0 37.5-21 37.5-42.5 0-15.8-11-26.8-23.1-26.8zm-4.2 61.1c-3.2 3.6-6.8 5.6-10.9 5.6-6.2 0-10.5-4-10.5-14 0-12 6.2-34.2 15.4-44.6 3.2-3.6 6.8-5.6 10.9-5.6 6.2 0 10.5 4 10.5 14 0 12.1-6.2 34.3-15.4 44.6z" class="st0"/><path d="M114.1 348H102l28.3-92.7h11.8c.9 0 1.5-.6 1.5-1.4 0-.7-.4-1.1-1-1.1h-38.3c-.9 0-1.5.6-1.5 1.4 0 .7.4 1.1 1 1.1h11.7L102 299.4H63.6L77 255.3h11.3c.9 0 1.5-.6 1.5-1.4 0-.7-.4-1.1-1-1.1H50.6c-.9 0-1.5.6-1.5 1.4 0 .7.4 1.1 1 1.1h12.1L33.8 348H22.1c-.9 0-1.5.6-1.5 1.4 0 .7.4 1.1 1 1.1h38.3c.9 0 1.5-.6 1.5-1.4 0-.7-.4-1.1-1-1.1H48.7l14.1-46.1h38.4L87.1 348H75.8c-.9 0-1.5.6-1.5 1.4 0 .7.4 1.1 1 1.1h38.3c.9 0 1.5-.6 1.5-1.4 0-.7-.4-1.1-1-1.1zm192.3-63.3l-6.4 20.7c-.3 1.1-1.9 6-2.2 7-8 24.7-18.3 35.6-25.1 36.2h-1.4c-3.7-.4-5.3-4-3.2-11.3l15.3-50.8c.1-.5 0-.9-.2-1 0-.5-1.7-.8-2.2-.8h-19.9c-.3 0-1.5.1-1.7.3-.5.2-.8.6-.8 1.2 0 .3.1.6.3.7.1.3 1.4.5 1.7.5h8l.4.7-12.2 39.8c-4.8 15.9 2.4 24.1 12.8 24.4h1.5c6.9-.5 14.4-7.1 20.5-19.5v.1l-10.1 32.7c-5 16.5-11.2 22.3-18.1 23-1.4.1-2.8.1-4.1 0-5.1-.5-8.6-2.1-10.7-4.8 1.5.5 3.2.6 4.9.1 2.1-.7 3.8-2.3 4.5-4.3.6-1.5.6-3.2.2-4.8-.6-2.3-2.4-4.2-4.7-4.9-1.4-.5-2.9-.5-4.4-.1-2.6.7-4.7 2.8-5.4 5.8-.3 1.3-.4 2.7-.1 4.1 1 6.4 7.4 11.2 16.4 11.7.9.1 1.9.1 2.8.1 13.6-.4 27.2-7.6 34.3-30.9l23.1-75.6-13.8-.3zm62.3 94l1.9-6h-14.4l1.7-5.7h18l1.9-6.1h-26.5l-9.1 29.9h26.5l1.8-6.2h-18l1.8-5.9zM332 360.9h-17.1l-9.1 29.8h8.4l3.1-10.3h6.8l4.5 10.3h8.9l-5.3-11.1c5-1 8.2-3.5 9.4-7.7l.2-.7c1.9-6-1.3-10.3-9.8-10.3zm1.3 9.7l-.1.3c-.9 3-3.1 4-6.5 4H319l2.5-8.3h8.3c3.3-.1 4.3 1.3 3.5 4zm140.1-9.7h-17.1l-9.1 29.8h8.4l3.1-10.3h6.8l4.5 10.3h8.9l-5.3-11.1c5-1 8.2-3.5 9.4-7.7l.2-.7c1.9-6-1.3-10.3-9.8-10.3zm1.2 9.7l-.1.3c-.9 3-2.9 4-6.4 4h-7.7l2.6-8.3h8.3c3.2-.1 4.1 1.3 3.3 4zm100.2-9.7h-17.1l-9.1 29.8h8.4l3.1-10.3h6.8l4.5 10.3h8.9l-5.3-11.1c5-1 8.2-3.5 9.4-7.7l.2-.7c2-6-1.2-10.3-9.8-10.3zm1.4 9.7l-.1.3c-.9 3-3.1 4-6.5 4h-7.7l2.5-8.3h8.3c3.2-.1 4.3 1.3 3.5 4zm-34.1 8.1l1.9-6h-14.4l1.7-5.7h18.1l1.8-6.1h-26.4l-9.2 29.9h26.5l1.9-6.2h-18.1l1.8-5.9zM400 360.9h-15.7l-9.1 29.8h8.4l2.9-9.4h9.7c8.2 0 12.4-2.8 14.2-8.8l.3-1.1c1.8-5.9-1.2-10.5-10.7-10.5zm2 10.2l-.2.7c-.9 2.8-3 4-6.6 4h-7.1l2.8-9.2h7.5c3.7-.1 4.6 1.2 3.6 4.5zm117-10.2h-29.5l-1.9 6.1h11l-7.3 23.8h8.5l7.3-23.8h10zm-85.4-.6c-10.3 0-16 3.5-18.6 12l-1.1 3.6c-3.1 10.2 2.6 15.5 12.3 15.5 10.3 0 16-3.5 18.6-12l1.1-3.6c3.1-10.2-2.6-15.5-12.3-15.5zm4.5 13.6l-1.5 4.7c-1.3 4.3-4 6.5-8.8 6.5-5.3 0-7.5-2.8-6.1-7.3l1.5-4.7c1.3-4.3 4-6.5 8.8-6.5 5.3 0 7.4 2.8 6.1 7.3zm-140.8-98.6l2.8-9.2h8.8l-2.8 9.2h6.7l6.9-22.6h-6.6l-2.7 8.6h-8.8l2.7-8.6h-6.7l-6.9 22.6zm-24.3 0h6.6l5.4-17.7h7.3l1.5-4.9h-22.2l-1.5 4.9h8.3zm64.9 0l1.5-4.9H326l1.3-4h10.9l1.5-4.8h-10.9l1.2-4h13.3l1.5-4.9h-19.9l-7 22.6z" class="st0"/></svg>