<svg xmlns="http://www.w3.org/2000/svg" fill-rule="evenodd" clip-rule="evenodd" image-rendering="optimizeQuality" shape-rendering="geometricPrecision" text-rendering="geometricPrecision" viewBox="0 0 330 49.998"><defs><style>.fil1{fill:#000;fill-rule:nonzero}</style></defs><g id="Capa_x0020_1"><path fill="none" d="M.053.03h329.894v50.004H.053z"/><g id="_48208512"><path id="_48318696" d="M11.917 6.566h4.558c.235 0 .42-.02.554-.058.134-.04.268-.136.403-.292l.478-.846c.1-.135.151-.243.151-.32 0-.194-.167-.293-.503-.293H4.917c-.235 0-.42.02-.554.06-.133.039-.268.135-.403.291l-.478.846c-.1.136-.151.242-.151.32 0 .195.167.292.504.292h5.64v15.75c0 .447-.122.797-.365 1.05a1.74 1.74 0 0 1-.919.496l-.05.028c-.22.06-.362.186-.428.38l-.152.467a.292.292 0 0 1-.024.116v.059c0 .097.033.165.099.204a.5.5 0 0 0 .253.058h5.287c.202 0 .345-.068.428-.204l.202-.525a.542.542 0 0 0 .05-.204c0-.175-.11-.282-.326-.321-.656-.156-1.088-.326-1.298-.51-.21-.185-.315-.55-.315-1.094V6.566z" class="fil1"/><path id="_483186961" d="M23.652 7.616c0-.467.122-.826.365-1.079.244-.252.551-.408.92-.467l.05-.029c.218-.059.36-.185.428-.379l.151-.466c0-.04.008-.078.025-.117v-.06c0-.096-.033-.163-.1-.202a.496.496 0 0 0-.252-.06H19.95c-.2 0-.344.069-.428.205l-.2.525a.511.511 0 0 0-.051.204c0 .176.11.282.328.32.655.157 1.087.327 1.296.511.21.185.315.55.315 1.094v14.7c0 .447-.121.797-.365 1.05s-.55.418-.919.496l-.05.028c-.219.06-.362.186-.43.38l-.15.467a.292.292 0 0 1-.025.116v.059c0 .097.033.165.1.204a.496.496 0 0 0 .252.058h5.288c.202 0 .343-.068.428-.204l.201-.525a.52.52 0 0 0 .051-.204c0-.175-.109-.282-.327-.321-.655-.156-1.087-.326-1.297-.51-.21-.185-.315-.55-.315-1.094v-7.642h8.586v7.642c0 .447-.12.797-.365 1.05a1.74 1.74 0 0 1-.919.496l-.05.028c-.218.06-.36.186-.428.38l-.151.467a.292.292 0 0 1-.025.116v.059c0 .097.033.165.1.204a.496.496 0 0 0 .252.058h5.288c.202 0 .343-.068.429-.204l.2-.525a.542.542 0 0 0 .051-.204c0-.175-.109-.282-.327-.321-.654-.156-1.087-.326-1.297-.51-.21-.185-.315-.55-.315-1.094v-14.7c0-.467.123-.826.365-1.079.243-.252.549-.408.92-.467l.05-.029c.218-.059.36-.185.428-.379l.15-.466a.28.28 0 0 1 .026-.117v-.06c0-.096-.033-.163-.1-.202a.497.497 0 0 0-.253-.06h-5.288c-.2 0-.344.069-.427.205l-.202.525a.528.528 0 0 0-.05.204c0 .176.11.282.327.32.656.157 1.087.327 1.297.511.21.185.314.55.314 1.094v5.396h-8.586V7.616z" class="fil1"/><path id="_4831869612" d="M42.865 6.333h3.675c.47 0 .848.14 1.133.423.286.281.563.646.831 1.094.185.33.32.496.403.496h.05a.457.457 0 0 1 .027-.03l.452-.438c.084-.097.125-.184.125-.262V5.487c0-.486-.242-.73-.73-.73h-9.844c-.202 0-.344.108-.429.322l-.2.496c0 .019-.01.048-.026.087v.058c0 .156.168.273.504.35.554.098.957.282 1.208.555.252.271.378.68.378 1.225v15.31c0 .894.1 1.454.302 1.678.201.223.546.335 1.032.335h7.78c.354 0 .635-.064.844-.19a.596.596 0 0 0 .315-.539V21.79c0-.155-.05-.242-.15-.262l-.63-.233c-.068 0-.185.146-.354.437a5.445 5.445 0 0 1-1.106 1.328c-.42.359-1.034.54-1.84.54H44.4c-.587 0-.99-.166-1.208-.496-.219-.331-.327-1.07-.327-2.217v-6.009h4.985c.403 0 .672-.135.807-.408l.35-.73a.343.343 0 0 0 .052-.174c0-.175-.126-.262-.379-.262h-5.815V6.333z" class="fil1"/><path id="_48987432" d="M60.144 9.346c0-.733.183-1.3.55-1.696a2.36 2.36 0 0 1 1.39-.733l.075-.047c.33-.09.546-.29.647-.595l.23-.733c0-.062.011-.123.037-.183v-.092c0-.153-.05-.26-.152-.322a.736.736 0 0 0-.382-.09H54.55c-.303 0-.52.106-.647.32L53.6 6a.856.856 0 0 0-.077.321c0 .274.165.443.496.503.988.245 1.642.513 1.958.804.318.289.476.862.476 1.718v27.546c0 .947-.064 1.879-.19 2.795-.128.917-.292 1.635-.495 2.155a3.793 3.793 0 0 1-.78 1.238c-.342.366-.716.61-1.121.733v1.88c.81 0 1.583-.161 2.32-.483.735-.32 1.401-.855 1.996-1.604.597-.748 1.073-1.78 1.427-3.093.356-1.315.534-2.903.534-4.767v-26.4z" class="fil1"/><path id="_49938264" d="M71.399 7.541h4.884c.626 0 1.128.222 1.507.665.378.443.746 1.016 1.103 1.719.246.52.425.78.536.78h.067a.799.799 0 0 0 .032-.047l.604-.687c.11-.152.166-.29.166-.412V6.213c0-.765-.322-1.146-.97-1.146H66.245c-.267 0-.457.168-.568.504l-.268.779a.5.5 0 0 1-.033.138v.09c0 .245.222.43.669.551.735.152 1.272.443 1.606.87.334.43.502 1.07.502 1.926v24.062c0 1.406.135 2.285.401 2.637.269.35.726.526 1.373.526h10.34c.467 0 .841-.099 1.12-.297.28-.199.418-.482.418-.848v-4.17c0-.245-.066-.383-.2-.414l-.837-.366c-.088 0-.245.229-.469.687-.424.825-.914 1.52-1.471 2.086-.558.565-1.372.847-2.443.847H73.44c-.782 0-1.317-.259-1.607-.779-.29-.52-.434-1.68-.434-3.483V20.97h6.625c.535 0 .891-.213 1.07-.64l.469-1.147a.621.621 0 0 0 .067-.275c0-.275-.168-.412-.502-.412h-7.73V7.541z" class="fil1"/><path id="_499382641" d="M89.769 7.541h2.978c1.272 0 2.264.452 2.979 1.353.713.9 1.082 2.421 1.103 4.56 0 2.383-.44 4.187-1.32 5.408-.881 1.223-2.026 1.834-3.431 1.834h-2.31V7.541zm13.318 28.28c-.669-.428-1.511-1.688-2.527-3.781-1.014-2.093-2.492-5.355-4.434-9.786l-.166-.412c1.203-.947 2.19-2.223 2.96-3.828.77-1.604 1.156-3.26 1.156-4.972-.022-2.72-.614-4.728-1.774-6.027-1.16-1.298-2.789-1.948-4.885-1.948h-8.802c-.267 0-.457.168-.568.504l-.268.779c0 .03-.01.076-.033.138v.09c0 .245.223.43.669.551.737.152 1.272.443 1.606.87.335.43.502 1.07.502 1.926v22.734c0 .702-.16 1.253-.486 1.65-.323.397-.73.656-1.22.78l-.067.045c-.29.091-.48.29-.57.596l-.2.733c0 .061-.01.122-.033.183v.092c0 .153.045.26.133.32.09.062.201.092.335.092h7.027c.268 0 .457-.107.568-.32l.27-.825a.95.95 0 0 0 .066-.322c0-.275-.146-.442-.435-.504-.87-.244-1.444-.511-1.724-.802-.278-.29-.419-.863-.419-1.718V23.17h3.481l5.087 12.88.032.045c.112.306.23.558.352.757a.58.58 0 0 0 .519.297h3.848v-1.328z" class="fil1"/><path id="_4993826412" d="M108.777 9.559c0-.734.16-1.3.484-1.696a2.015 2.015 0 0 1 1.222-.734l.067-.046c.29-.09.48-.29.568-.595l.202-.734a.51.51 0 0 1 .033-.183V5.48c0-.152-.045-.26-.135-.321a.58.58 0 0 0-.334-.091h-7.027c-.267 0-.456.106-.569.32l-.268.826a.948.948 0 0 0-.067.32c0 .275.146.444.436.504.87.244 1.444.513 1.723.803.279.29.418.862.418 1.719v15.354c0 1.833.151 3.514.451 5.04.303 1.53.787 2.873 1.457 4.034a7.258 7.258 0 0 0 2.727 2.728c1.148.657 2.538.986 4.166.986a7.42 7.42 0 0 0 3.18-.688c.98-.458 1.862-1.191 2.642-2.2.781-1.009 1.395-2.346 1.84-4.011.447-1.665.67-3.674.67-6.027V9.559c0-.734.162-1.3.486-1.696a2.01 2.01 0 0 1 1.22-.734l.067-.046c.29-.09.48-.29.57-.595l.2-.734c0-.061.01-.122.033-.183V5.48c0-.152-.045-.26-.133-.321a.586.586 0 0 0-.334-.091h-5.856c-.269 0-.459.106-.57.32l-.267.826a.948.948 0 0 0-.067.32c0 .275.144.444.435.504.87.245 1.444.513 1.723.803.279.29.418.862.418 1.719v15.308c0 3.27-.49 5.706-1.472 7.311-.982 1.604-2.554 2.406-4.718 2.406-1.004 0-1.869-.282-2.593-.848-.725-.566-1.31-1.329-1.757-2.291a12.692 12.692 0 0 1-.971-3.163 20.28 20.28 0 0 1-.3-3.507V9.559z" class="fil1"/><path id="_49938264123" d="M139.93 11.07l.067-.09c.089-.184.134-.322.134-.413V7.175c0-.397-.117-.718-.351-.962-.235-.245-.608-.505-1.12-.78-1.117-.61-2.367-.916-3.75-.916a6.116 6.116 0 0 0-2.911.71 7.367 7.367 0 0 0-2.275 1.856 8.807 8.807 0 0 0-1.438 2.476c-.335.886-.502 1.74-.502 2.566 0 .947.115 1.818.35 2.613.235.795.547 1.497.938 2.108.39.61.791 1.139 1.205 1.582.412.443.953.985 1.623 1.626.334.306.535.504.6.596.068.062.236.23.503.505a56.54 56.54 0 0 1 1.807 1.787c.469.489.937 1.077 1.405 1.764a9.277 9.277 0 0 1 1.121 2.27 8.24 8.24 0 0 1 .418 2.658c-.043 1.65-.473 3.018-1.287 4.102-.815 1.084-1.88 1.627-3.196 1.627a3.762 3.762 0 0 1-2.276-.733c-.669-.489-1.16-1.222-1.473-2.2-.244-.582-.49-1.39-.735-2.43-.223-.886-.413-1.329-.569-1.329l-.903.413c-.156.092-.234.305-.234.64 0 .093.01.216.033.368v4.813c0 .61.078 1 .234 1.168.156.168.658.436 1.506.802 1.294.55 2.733.826 4.317.826.959 0 1.895-.184 2.81-.55.915-.367 1.752-.925 2.51-1.673.759-.749 1.361-1.689 1.806-2.82.447-1.13.67-2.413.67-3.85-.066-2.383-.54-4.307-1.422-5.774-.881-1.467-2.359-3.148-4.434-5.042-1.45-1.344-2.504-2.505-3.162-3.483-.658-.978-.987-2.093-.987-3.346v-.413a5.12 5.12 0 0 0 .033-.458c.135-1.131.559-2.033 1.272-2.705.713-.672 1.506-1.008 2.376-1.008.78 0 1.422.2 1.923.596.502.397.92 1.054 1.256 1.972a2.3 2.3 0 0 1 .134.366c.267.733.495 1.321.685 1.764.19.443.34.665.453.665.022 0 .033-.015.033-.046h.034l.769-.825z" class="fil1"/><path id="_499382641234" d="M150.202 24.913l3.948-13.842 3.883 13.842h-7.831zM166.7 35.776c0-.368-.157-.612-.47-.734a9.179 9.179 0 0 1-.569-.229c-.668-.214-1.092-.428-1.272-.641a2.31 2.31 0 0 1-.367-.643 12.765 12.765 0 0 1-.402-1.236 13.453 13.453 0 0 1-.268-.872 1265.35 1265.35 0 0 1-3.948-13.36A326.203 326.203 0 0 1 156.26 6.35c-.135-.855-.414-1.283-.838-1.283h-4.818c-.447 0-.715.152-.804.458l-.166.642a.756.756 0 0 0-.1.367c0 .152.066.274.2.366.134.092.345.198.636.321.557.214.936.443 1.137.688l.134.137c.2.244.363.497.485.756.123.26.184.588.184.986 0 .397-.066.84-.2 1.329l-6.158 21.176c-.356 1.038-.658 1.71-.902 2.016-.247.306-.725.565-1.44.78h-.033c-.491.182-.77.396-.837.64l-.167.596a1.385 1.385 0 0 0-.067.367c0 .306.368.458 1.104.458h5.02c.178 0 .312-.053.4-.16.09-.106.168-.252.235-.435l.033-.138.201-.458a.45.45 0 0 1 .034-.137.163.163 0 0 0 .034-.092c0-.183-.224-.397-.67-.642a3.703 3.703 0 0 1-.787-.55c-.189-.183-.284-.443-.284-.78 0-.213.034-.427.101-.641l1.64-5.73h9.168l1.406 5.272c.111.397.166.764.166 1.1 0 .428-.088.741-.266.94a1.893 1.893 0 0 1-.737.48c-.312.184-.49.337-.536.458l-.3.872a.618.618 0 0 0-.068.275c0 .245.168.366.502.366h6.626c.178 0 .334-.022.469-.068a.506.506 0 0 0 .3-.298l.403-1.008z" class="fil1"/><path id="_4993826412345" d="M169.978 36.463c0 .061-.01.122-.033.183v.092c0 .153.044.26.133.32a.574.574 0 0 0 .336.092h14.222c.467 0 .84-.099 1.12-.297.28-.199.419-.482.419-.848v-4.17c0-.245-.068-.383-.201-.414l-.836-.366c-.09 0-.246.229-.47.687-.423.825-.914 1.52-1.472 2.086-.558.565-1.371.847-2.443.847h-2.944c-.78 0-1.316-.259-1.607-.779-.29-.52-.434-1.68-.434-3.483V9.56c0-.734.16-1.3.485-1.696a2.01 2.01 0 0 1 1.22-.734l.068-.046c.29-.09.48-.29.568-.595l.202-.734c0-.061.01-.122.033-.183V5.48c0-.152-.045-.26-.134-.321a.586.586 0 0 0-.334-.091h-7.027c-.269 0-.458.106-.57.32l-.268.826a.973.973 0 0 0-.066.32c0 .275.145.444.435.504.87.245 1.444.513 1.724.803.278.29.418.862.418 1.719v23.1c0 .702-.163 1.253-.485 1.65a2.243 2.243 0 0 1-1.222.78l-.067.045c-.29.091-.48.29-.57.596l-.2.733z" class="fil1"/><path id="_49938264123456" d="M192.399 7.541h4.884c.626 0 1.128.222 1.507.665.378.443.746 1.016 1.103 1.719.246.52.425.78.536.78h.068a.799.799 0 0 0 .032-.047l.603-.687c.111-.152.167-.29.167-.412V6.213c0-.765-.323-1.146-.97-1.146h-13.084c-.267 0-.457.168-.568.504l-.269.779c0 .03-.011.076-.033.138v.09c0 .245.222.43.669.551.736.152 1.272.443 1.606.87.334.43.502 1.07.502 1.926v24.062c0 1.406.135 2.285.402 2.637.268.35.725.526 1.372.526h10.34c.467 0 .842-.099 1.12-.297.28-.199.419-.482.419-.848v-4.17c0-.245-.067-.383-.201-.414l-.837-.366c-.088 0-.245.229-.468.687-.424.825-.915 1.52-1.472 2.086-.558.565-1.371.847-2.443.847h-2.944c-.782 0-1.317-.259-1.606-.779-.29-.52-.435-1.68-.435-3.483V20.97h6.625c.535 0 .892-.213 1.07-.64l.469-1.147a.621.621 0 0 0 .067-.275c0-.275-.168-.412-.502-.412H192.4V7.541z" class="fil1"/><path id="_499382641234567" d="M230.946 9.925c0-.855.145-1.467.436-1.833.29-.366.713-.626 1.27-.78l.068-.046c.424-.152.68-.366.77-.641l.2-.825c0-.061.012-.122.034-.184V5.48c0-.275-.168-.412-.502-.412h-3.85c-.266 0-.517.1-.752.298-.233.198-.45.588-.652 1.169l-8.632 24.383-8.132-23.97c-.29-.857-.541-1.384-.752-1.582-.213-.199-.598-.298-1.156-.298h-4.45c-.268 0-.458.106-.57.32l-.266.826a.948.948 0 0 0-.068.32c0 .275.224.474.67.596.402.123.87.382 1.406.78.535.396 1.06.978 1.572 1.74v23.01c0 .702-.162 1.253-.486 1.65-.323.397-.73.656-1.221.78l-.067.045c-.29.091-.479.29-.568.596l-.201.733c0 .061-.01.122-.033.183v.092c0 .153.043.26.133.32a.572.572 0 0 0 .334.092h5.856c.267 0 .457-.107.57-.32l.267-.825a.954.954 0 0 0 .067-.322c0-.275-.144-.442-.435-.504-.87-.244-1.444-.511-1.723-.802-.28-.29-.418-.863-.418-1.718v-19.8h.066l7.697 22.824c.312.978.558 1.467.735 1.467h.67c.18 0 .39-.336.636-1.008l8.165-23.283h.066v19.8c0 .702-.16 1.253-.485 1.65-.324.397-.73.656-1.221.78l-.068.045a.822.822 0 0 0-.568.596l-.2.733a.515.515 0 0 1-.034.183v.092c0 .153.045.26.134.32.09.062.2.092.334.092h7.028c.268 0 .457-.107.568-.32l.268-.825a.954.954 0 0 0 .067-.322c0-.275-.145-.442-.434-.504-.87-.244-1.445-.511-1.725-.802-.279-.29-.418-.863-.418-1.718V9.925z" class="fil1"/><path id="_49326768" d="M250.817 7.331h2.869c1.395 0 2.537.543 3.426 1.628.888 1.084 1.334 2.742 1.334 4.972 0 2.323-.49 4.163-1.468 5.524-.98 1.36-2.381 2.039-4.204 2.039-.247 0-.37.092-.37.275a.95.95 0 0 0 .067.321l.472 1.054h.81a7.522 7.522 0 0 0 2.938-.596 7.466 7.466 0 0 0 2.547-1.78c.755-.794 1.351-1.817 1.79-3.063.439-1.252.67-2.697.692-4.347 0-1.458-.192-2.734-.574-3.82-.382-1.075-.9-1.962-1.553-2.65a6.376 6.376 0 0 0-2.228-1.527 6.87 6.87 0 0 0-2.6-.504h-9.147c-.27 0-.462.167-.574.504l-.27.778a.443.443 0 0 1-.034.139v.09c0 .245.225.43.676.55.743.153 1.281.444 1.62.871.338.43.506 1.07.506 1.926v22.733c0 .703-.163 1.254-.49 1.65a2.26 2.26 0 0 1-1.232.78l-.068.046a.831.831 0 0 0-.574.595l-.202.734a.555.555 0 0 1-.033.183v.092c0 .152.044.26.135.32.09.061.202.092.338.092h7.088c.27 0 .461-.107.575-.321l.27-.824a.954.954 0 0 0 .066-.322c0-.275-.145-.443-.439-.504-.878-.245-1.456-.511-1.737-.802-.283-.29-.422-.863-.422-1.719V7.331z" class="fil1"/><path id="_493267681" d="M276.335 37.49c1.756 0 3.41-.42 4.963-1.26 1.553-.84 2.914-2.032 4.084-3.575 1.17-1.544 2.077-3.37 2.718-5.478.641-2.108.961-4.415.961-6.92 0-2.2-.287-4.27-.86-6.211-.573-1.94-1.384-3.644-2.43-5.11-1.047-1.467-2.273-2.605-3.68-3.415a9.02 9.02 0 0 0-4.574-1.215c-1.936 0-3.697.459-5.283 1.375-1.586.917-2.931 2.185-4.034 3.804-1.102 1.62-1.947 3.47-2.532 5.547a23.913 23.913 0 0 0-.877 6.508c0 2.475.342 4.714 1.029 6.714.687 2.002 1.593 3.69 2.717 5.065 1.126 1.376 2.37 2.414 3.73 3.117 1.362.703 2.718 1.055 4.068 1.055zm.878-2.475c-1.373 0-2.61-.366-3.713-1.1-1.103-.733-2.037-1.772-2.801-3.117-.766-1.344-1.345-2.925-1.74-4.743-.393-1.819-.59-3.797-.59-5.936 0-2.016.207-3.858.624-5.523.417-1.665 1.008-3.078 1.772-4.239.766-1.162 1.666-2.048 2.701-2.659a6.455 6.455 0 0 1 3.343-.916c2.61 0 4.709 1.26 6.295 3.78 1.586 2.521 2.38 5.922 2.38 10.198 0 1.681-.17 3.362-.507 5.042-.336 1.681-.85 3.217-1.535 4.607-.687 1.39-1.56 2.506-2.616 3.346a5.652 5.652 0 0 1-3.613 1.26z" class="fil1"/><path id="_4932676812" d="M303.579 10.86l.067-.09c.09-.184.136-.322.136-.413V6.965c0-.397-.12-.718-.354-.963-.236-.244-.613-.504-1.132-.78-1.125-.61-2.386-.916-3.78-.916a6.215 6.215 0 0 0-2.938.711 7.419 7.419 0 0 0-2.295 1.856 8.823 8.823 0 0 0-1.451 2.475c-.338.886-.506 1.741-.506 2.567 0 .947.117 1.818.353 2.613.238.794.552 1.497.946 2.108.394.61.799 1.138 1.216 1.581.416.443.961.985 1.637 1.627.338.306.54.504.607.596.067.062.236.23.507.504.743.703 1.35 1.298 1.822 1.787.472.49.945 1.078 1.419 1.765a9.26 9.26 0 0 1 1.13 2.269c.281.826.423 1.711.423 2.659-.046 1.65-.48 3.017-1.3 4.102-.823 1.084-1.896 1.627-3.224 1.627a3.82 3.82 0 0 1-2.296-.733c-.674-.49-1.17-1.223-1.486-2.2-.247-.582-.495-1.39-.742-2.43-.225-.886-.416-1.329-.574-1.329l-.911.412c-.157.092-.237.306-.237.642 0 .092.012.215.033.367v4.813c0 .61.08 1 .238 1.168.157.168.664.436 1.519.802 1.305.55 2.756.826 4.354.826a7.65 7.65 0 0 0 2.836-.55c.923-.367 1.766-.926 2.531-1.673.766-.75 1.374-1.69 1.824-2.82.449-1.13.674-2.414.674-3.85-.067-2.383-.545-4.307-1.433-5.774-.89-1.467-2.382-3.148-4.474-5.043-1.463-1.344-2.526-2.505-3.19-3.483-.663-.978-.996-2.092-.996-3.346v-.412a4.69 4.69 0 0 0 .034-.458c.135-1.132.563-2.033 1.283-2.705.72-.672 1.519-1.009 2.397-1.009.787 0 1.434.2 1.94.597.506.397.93 1.053 1.266 1.971.068.153.113.274.136.366.269.734.5 1.322.692 1.765.191.443.343.665.456.665.022 0 .033-.015.033-.046h.034l.776-.826z" class="fil1"/><path id="_49326768123" d="M318.533 7.698h6.111c.314 0 .562-.03.743-.092.18-.061.359-.213.54-.458l.641-1.329c.135-.213.202-.382.202-.504 0-.306-.224-.458-.674-.458h-16.947c-.315 0-.563.03-.743.09-.18.062-.36.216-.54.459l-.64 1.33c-.136.214-.204.381-.204.504 0 .305.226.458.676.458h7.56v24.75c0 .703-.162 1.254-.49 1.65a2.258 2.258 0 0 1-1.23.78l-.068.046a.831.831 0 0 0-.574.595l-.202.734a.499.499 0 0 1-.035.183v.092c0 .152.046.26.136.32.09.061.202.092.337.092h7.089c.27 0 .462-.107.574-.321l.27-.825a.954.954 0 0 0 .068-.32c0-.276-.147-.444-.439-.505-.877-.245-1.457-.512-1.738-.802-.281-.29-.423-.863-.423-1.719V7.698z" class="fil1"/><path id="_46581040" fill="#bc141a" d="M7.137 27.083h43.998v11.004H7.137z"/></g></g></svg>