<svg xmlns="http://www.w3.org/2000/svg" viewBox="0 0 652 652"><path fill="#94b330" d="M43 395.3H20V248.5l23 1.5v145.3zm26.2-136.6c7.2 0 13.2 6 13.2 13.2 0 7.3-5.9 13.2-13.2 13.2-7.2 0-13.2-6-13.2-13.2s5.9-13.2 13.2-13.2zm11.5 136.6h-23V290.6l23 1.3v103.4zm54.9-83.6v23.1h-17.3v60.4h-23V280.4c0-17.5 14.5-33.4 31.6-33.4 5.8 0 10.4 1.7 11.5 2.4l-.9 22.2h-10.6c-4.6 0-8.5 3.9-8.5 8.8v31.3h17.2zm9.3 9.3c0-17.5 14.1-31.9 31.7-31.9 17.4 0 31.5 14.3 31.5 31.9v22.4c0 6.5-5.2 11.5-11.5 11.5h-28.8V365c0 4.8 3.9 8.8 8.7 8.8h22.1l.7 19.6-20.8 3.2c-20 3.4-33.8-14-33.8-31.5l.2-44.1zm23 10.8h17.2V321c0-4.8-3.9-8.8-8.5-8.8-4.8 0-8.7 3.9-8.7 8.8v10.8zm60 63.5V249.4h14.8v44.3c4.1-1.3 10.6-1.9 15-1.9 15.8 0 28 14.3 28 30.6v72.8h-14.5v-72.8c0-8-6.5-14.4-14.5-14.4h-14.1v87.2l-14.7.1zM340.1 320c0-8.4-3.9-15.1-14.5-14h.2c-5.9.2-13.5.9-19.9 1.3-.2-5.4-.4-7.5-.6-11.6 5-1.9 12.2-3.7 18.4-3.9 18.6-.4 30.8 14.7 30.8 30.9V367c0 16-12.8 29.2-28.8 29.2S296.6 383 296.6 367v-9.1c0-16 10.9-28.1 29.1-28.1 6.9 0 10.4.7 14.3 1.9l.1-11.7zm0 47.2V342h-14.3c-8 0-14.3 6.3-14.3 14.3v10.8c0 8 6.3 14.5 14.3 14.5 8 .1 14.3-6.4 14.3-14.4zm56.1-75.3c16 0 29.1 13 29.1 29.2v1.9c-5.7.2-10.4.2-14.7.4v-2.2c0-7.8-6.5-14.3-14.5-14.3-7.8 0-14.1 6.5-14.1 14.3v46.6c0 8.2 6.3 14.3 14.1 14.3s14.3-6 14.5-13.8c7.2.6 14.1.9 14.7.9-.7 15.4-13.7 27.8-29.1 27.8-16 0-29-13-29-29.2v-46.6c0-16.2 13-29.3 29-29.3zm40.8-42.1h14.8v145.5H437V249.8zm46.8 145.5l-28.2-49.4c-2.8-4.8-2.8-5.4.6-11.2l24.9-41.4H498L470 341l30.3 54.2c-.2.1-16.5.1-16.5.1zm19.4-73.9c0-16.2 13-29.4 29.1-29.4 16 0 28.9 13.2 28.9 29.4v22.9c0 4.3-3.3 7.5-7.4 7.5H518v15.8c0 8 6.3 14.5 14.3 14.5H551c.2 4.8.4 8.2.8 11.5l-17.8 2.8c-18.2 3.2-30.8-12.7-30.8-28.9v-46.1zm14.9 15.6h28.6v-15.7c0-8-6.5-14.5-14.3-14.5-8 0-14.3 6.5-14.3 14.5V337zm71.1 58.3h-14.8v-72.7c0-16.2 12.6-31.3 31.2-30.9 6.3.2 10.2 1.7 14.5 3.7-.2 4.5-.4 8.2-.6 11.6l-16.1-.4c-7.8 0-14.1 8.4-14.1 16l-.1 72.7z"/></svg>