<svg xmlns="http://www.w3.org/2000/svg" viewBox="0 0 73 26"><g fill="none" fill-rule="evenodd"><path fill="#940000" d="M1.585 5.835H71.13a1.59 1.59 0 0 1 1.585 1.585v16.433a1.59 1.59 0 0 1-1.585 1.585H1.585A1.59 1.59 0 0 1 0 23.853V7.42a1.59 1.59 0 0 1 1.585-1.585"/><path fill="#FFF" d="M37.437 7.03h31.842a1.87 1.87 0 0 1 1.864 1.864v13.484a1.87 1.87 0 0 1-1.864 1.864H37.437a1.87 1.87 0 0 1-1.864-1.864V8.894a1.87 1.87 0 0 1 1.864-1.863"/><path fill="#940000" d="M43.796 20.392c0 .123-.006.225-.018.305a.767.767 0 0 1-.059.209.32.32 0 0 1-.098.126.24.24 0 0 1-.142.04h-5.16a.65.65 0 0 1-.395-.138c-.122-.095-.184-.259-.184-.493V9.637a.21.21 0 0 1 .037-.126.235.235 0 0 1 .126-.087 1.33 1.33 0 0 1 .243-.055c.122-.016.246-.023.37-.022.15 0 .273.006.375.022.098.015.178.034.237.055.061.022.101.05.126.087a.208.208 0 0 1 .037.126v10.088h4.188a.24.24 0 0 1 .142.04c.037.027.07.067.098.116.028.053.046.12.059.207.012.083.018.184.018.304"/><path fill="#000" fill-rule="nonzero" d="M13.435 4.984c0 .01-.002.018-.006.025-.004.007-.012.012-.025.017a.277.277 0 0 1-.06.009 1.77 1.77 0 0 1-.196 0 .198.198 0 0 1-.054-.01.056.056 0 0 1-.027-.019.112.112 0 0 1-.014-.028l-.157-.391a1.675 1.675 0 0 0-.056-.118.368.368 0 0 0-.06-.086.225.225 0 0 0-.077-.052.264.264 0 0 0-.1-.018h-.111v.668c0 .009-.003.017-.01.024a.06.06 0 0 1-.028.018.301.301 0 0 1-.054.01.805.805 0 0 1-.226-.01.058.058 0 0 1-.028-.018.042.042 0 0 1-.008-.024V3.394c0-.04.01-.068.03-.086a.112.112 0 0 1 .075-.026h.453c.064 0 .13.003.194.009a.75.75 0 0 1 .19.052.442.442 0 0 1 .143.095c.039.039.07.085.09.139.02.053.03.114.03.184a.548.548 0 0 1-.022.16.424.424 0 0 1-.172.226.605.605 0 0 1-.144.068.375.375 0 0 1 .138.112 1.01 1.01 0 0 1 .11.2l.148.345a.688.688 0 0 1 .027.075.13.13 0 0 1 .007.037zm-.46-1.187a.257.257 0 0 0-.039-.146.211.211 0 0 0-.128-.083.837.837 0 0 0-.157-.015h-.16v.495h.182c.05 0 .094-.006.132-.018a.26.26 0 0 0 .095-.052.207.207 0 0 0 .057-.079.266.266 0 0 0 .019-.102m1.72.55c0 .041-.009.072-.027.091a.099.099 0 0 1-.077.03h-.734c0 .051.006.098.02.14.01.039.03.075.056.105.027.03.061.052.103.067a.44.44 0 0 0 .15.023.8.8 0 0 0 .274-.042c.032-.01.06-.02.081-.028a.144.144 0 0 1 .053-.013.04.04 0 0 1 .02.004c.006.004.01.01.014.017.003.008.006.02.007.035a.885.885 0 0 1-.003.142.076.076 0 0 1-.008.024.105.105 0 0 1-.014.02.186.186 0 0 1-.049.026.882.882 0 0 1-.1.033 1.343 1.343 0 0 1-.306.039.88.88 0 0 1-.281-.04.506.506 0 0 1-.202-.123.521.521 0 0 1-.12-.208.992.992 0 0 1-.04-.295.92.92 0 0 1 .042-.289.605.605 0 0 1 .121-.218.526.526 0 0 1 .194-.137.671.671 0 0 1 .257-.048c.102 0 .188.015.26.045a.462.462 0 0 1 .277.31c.022.072.032.15.032.236v.054zm-.329-.097a.354.354 0 0 0-.057-.225c-.041-.055-.104-.082-.19-.082a.247.247 0 0 0-.113.024.222.222 0 0 0-.08.066.288.288 0 0 0-.049.097.5.5 0 0 0-.02.12h.51m1.676.734a.045.045 0 0 1-.007.025.045.045 0 0 1-.022.017.166.166 0 0 1-.043.009.742.742 0 0 1-.136 0 .174.174 0 0 1-.043-.01.053.053 0 0 1-.023-.016.04.04 0 0 1-.008-.026V4.85a.755.755 0 0 1-.19.156.453.453 0 0 1-.222.055.451.451 0 0 1-.228-.054.435.435 0 0 1-.152-.144.622.622 0 0 1-.086-.21 1.208 1.208 0 0 1-.026-.255c0-.107.01-.203.033-.289a.667.667 0 0 1 .099-.218.44.44 0 0 1 .161-.14.488.488 0 0 1 .223-.048c.066 0 .125.014.18.041a.648.648 0 0 1 .16.12v-.65c0-.01.002-.017.007-.024a.052.052 0 0 1 .026-.019.231.231 0 0 1 .051-.01.589.589 0 0 1 .211.01c.013.005.022.011.027.019a.041.041 0 0 1 .008.024v1.77zm-.33-.805a.773.773 0 0 0-.137-.141.229.229 0 0 0-.137-.048.188.188 0 0 0-.112.033.237.237 0 0 0-.076.088.501.501 0 0 0-.042.123.895.895 0 0 0-.002.287.46.46 0 0 0 .04.128.235.235 0 0 0 .072.09.181.181 0 0 0 .113.033.223.223 0 0 0 .133-.043.443.443 0 0 0 .07-.06c.027-.029.053-.059.077-.09v-.4m1.743.168c0 .041-.009.072-.027.091a.099.099 0 0 1-.077.03h-.733c0 .051.006.098.018.14a.253.253 0 0 0 .16.172.44.44 0 0 0 .151.023.802.802 0 0 0 .273-.042c.033-.01.06-.02.082-.028a.146.146 0 0 1 .052-.013c.008 0 .015.001.02.004.006.004.01.01.014.017.004.008.006.02.008.035a.885.885 0 0 1-.004.142.068.068 0 0 1-.008.024.09.09 0 0 1-.014.02.186.186 0 0 1-.048.026.89.89 0 0 1-.1.033 1.343 1.343 0 0 1-.306.039.88.88 0 0 1-.282-.04.509.509 0 0 1-.202-.123.516.516 0 0 1-.12-.208.973.973 0 0 1-.04-.295c0-.106.014-.203.042-.289a.606.606 0 0 1 .122-.218.524.524 0 0 1 .194-.137.668.668 0 0 1 .257-.048c.1 0 .187.015.258.045.137.054.24.169.278.31.022.072.032.15.032.236v.054zm-.328-.097a.354.354 0 0 0-.058-.225c-.041-.055-.104-.082-.19-.082a.248.248 0 0 0-.113.024.226.226 0 0 0-.08.066.295.295 0 0 0-.049.097.48.48 0 0 0-.02.12h.51m1.28-.93a.566.566 0 0 1-.004.063.16.16 0 0 1-.008.036.038.038 0 0 1-.012.018.022.022 0 0 1-.015.004.045.045 0 0 1-.02-.004.299.299 0 0 0-.122-.025.15.15 0 0 0-.063.012.1.1 0 0 0-.044.036.171.171 0 0 0-.025.065.504.504 0 0 0-.009.097v.103h.599a.04.04 0 0 1 .022.007.053.053 0 0 1 .017.022.191.191 0 0 1 .01.043c.002.018.003.04.003.067 0 .05-.004.092-.013.113-.009.022-.022.032-.04.032h-.598v.975c0 .009-.002.016-.008.024a.054.054 0 0 1-.027.016.248.248 0 0 1-.053.01.945.945 0 0 1-.165 0 .259.259 0 0 1-.052-.01.055.055 0 0 1-.028-.016.039.039 0 0 1-.007-.024v-.975h-.15c-.018 0-.03-.01-.039-.032a.359.359 0 0 1-.013-.113c0-.027.001-.049.003-.067a.194.194 0 0 1 .01-.043.045.045 0 0 1 .016-.022.038.038 0 0 1 .024-.007h.15v-.094c0-.082.007-.154.023-.216a.399.399 0 0 1 .076-.153.321.321 0 0 1 .133-.093.514.514 0 0 1 .19-.031c.06 0 .118.009.174.028.018.007.03.013.037.019a.066.066 0 0 1 .015.026.197.197 0 0 1 .01.043l.002.066"/><path fill="#000" fill-rule="nonzero" d="M18.847 4.984a.036.036 0 0 1-.008.024.055.055 0 0 1-.028.016.251.251 0 0 1-.051.01.87.87 0 0 1-.217-.01.055.055 0 0 1-.028-.016.038.038 0 0 1-.008-.024V3.78c0-.009.003-.017.008-.023a.058.058 0 0 1 .028-.018.203.203 0 0 1 .052-.011.631.631 0 0 1 .165 0c.02.002.038.006.051.01.01.004.02.01.028.019a.035.035 0 0 1 .008.023v1.203zm.028-1.615c0 .069-.014.116-.042.142-.028.026-.08.04-.156.04s-.129-.013-.155-.039c-.026-.025-.04-.07-.04-.136 0-.069.014-.116.042-.143.027-.026.079-.04.156-.04.076 0 .127.013.154.04.027.025.041.07.041.136m1.406 1.615a.04.04 0 0 1-.008.024.053.053 0 0 1-.026.016.236.236 0 0 1-.05.01.873.873 0 0 1-.16 0 .236.236 0 0 1-.051-.01.053.053 0 0 1-.026-.016.037.037 0 0 1-.008-.024v-.688a.585.585 0 0 0-.013-.137.272.272 0 0 0-.035-.086.168.168 0 0 0-.148-.075.212.212 0 0 0-.126.047.693.693 0 0 0-.133.138v.8a.04.04 0 0 1-.008.025.055.055 0 0 1-.027.016.233.233 0 0 1-.05.01.86.86 0 0 1-.16 0 .233.233 0 0 1-.05-.01.052.052 0 0 1-.027-.016.04.04 0 0 1-.008-.024V3.778c0-.009.003-.016.007-.023a.048.048 0 0 1 .023-.018.201.201 0 0 1 .044-.01c.018-.002.04-.002.068-.002.023 0 .046 0 .069.003a.183.183 0 0 1 .043.01c.008.003.015.01.02.017a.042.042 0 0 1 .008.023v.14a.745.745 0 0 1 .196-.162.435.435 0 0 1 .209-.054.45.45 0 0 1 .2.04.356.356 0 0 1 .133.11c.033.047.057.102.072.164a.99.99 0 0 1 .022.224v.744m.66 0a.038.038 0 0 1-.008.024.053.053 0 0 1-.027.016.25.25 0 0 1-.052.01.916.916 0 0 1-.165 0 .25.25 0 0 1-.052-.01.057.057 0 0 1-.027-.016.04.04 0 0 1-.009-.024V3.78c0-.009.003-.017.009-.023a.06.06 0 0 1 .027-.018.209.209 0 0 1 .052-.011.623.623 0 0 1 .165 0 .22.22 0 0 1 .052.01c.01.004.02.01.027.019a.035.035 0 0 1 .009.023v1.203zm.028-1.615c0 .069-.014.116-.042.142-.028.026-.08.04-.155.04-.077 0-.13-.013-.155-.039-.027-.025-.04-.07-.04-.136 0-.069.013-.116.041-.143.027-.026.08-.04.156-.04s.128.013.155.04c.027.025.04.07.04.136m1.39 1.615a.04.04 0 0 1-.007.024.055.055 0 0 1-.026.016.236.236 0 0 1-.051.01.857.857 0 0 1-.16 0 .226.226 0 0 1-.05-.01.055.055 0 0 1-.027-.016.04.04 0 0 1-.007-.024v-.688a.585.585 0 0 0-.013-.137.263.263 0 0 0-.036-.086.164.164 0 0 0-.147-.075.214.214 0 0 0-.127.047.702.702 0 0 0-.133.138v.8a.04.04 0 0 1-.008.025.052.052 0 0 1-.026.016.238.238 0 0 1-.05.01.815.815 0 0 1-.21-.01.052.052 0 0 1-.027-.016.037.037 0 0 1-.008-.024V3.778a.04.04 0 0 1 .007-.023.048.048 0 0 1 .023-.018.196.196 0 0 1 .044-.01c.018-.002.04-.002.067-.002.028 0 .051 0 .07.003a.176.176 0 0 1 .042.01.05.05 0 0 1 .021.017.042.042 0 0 1 .007.023v.14a.74.74 0 0 1 .197-.162.433.433 0 0 1 .209-.054c.079 0 .146.014.2.04a.356.356 0 0 1 .132.11c.033.047.058.102.072.164a.971.971 0 0 1 .023.224v.744m1.404-1.121a.222.222 0 0 1-.015.095c-.01.021-.021.032-.036.032h-.142a.2.2 0 0 1 .043.073.279.279 0 0 1 .013.086c0 .07-.012.132-.035.186a.367.367 0 0 1-.101.138.431.431 0 0 1-.158.085.685.685 0 0 1-.206.029.41.41 0 0 1-.192-.047.161.161 0 0 0-.029.042.108.108 0 0 0-.013.054c0 .026.012.048.035.065a.173.173 0 0 0 .097.027l.292.01c.069.004.13.013.183.03a.39.39 0 0 1 .136.07c.036.03.064.067.083.109a.373.373 0 0 1-.128.45.625.625 0 0 1-.196.091c-.079.023-.17.034-.276.034-.102 0-.19-.009-.263-.025a.583.583 0 0 1-.178-.067.275.275 0 0 1-.101-.103.289.289 0 0 1-.02-.216.34.34 0 0 1 .088-.15.564.564 0 0 1 .074-.064.226.226 0 0 1-.122-.202c0-.053.013-.101.037-.145a.468.468 0 0 1 .095-.118.363.363 0 0 1-.104-.278c0-.07.012-.133.037-.188a.388.388 0 0 1 .103-.14.455.455 0 0 1 .158-.088.645.645 0 0 1 .203-.03c.037 0 .074.002.109.006a.96.96 0 0 1 .096.019h.382c.015 0 .028.01.037.03a.254.254 0 0 1 .014.1zm-.436.285a.205.205 0 0 0-.054-.151.206.206 0 0 0-.152-.054.21.21 0 0 0-.088.017.177.177 0 0 0-.1.113.267.267 0 0 0-.012.08c0 .062.018.11.054.146a.203.203 0 0 0 .15.053.224.224 0 0 0 .089-.016.174.174 0 0 0 .062-.045.197.197 0 0 0 .039-.065.24.24 0 0 0 .012-.078zm.08.96a.105.105 0 0 0-.049-.092.254.254 0 0 0-.133-.035l-.242-.007a.351.351 0 0 0-.09.094.14.14 0 0 0-.017.042.203.203 0 0 0-.004.042c0 .045.022.079.069.102a.43.43 0 0 0 .192.036.467.467 0 0 0 .13-.016.248.248 0 0 0 .084-.041.151.151 0 0 0 .06-.124m2.323-1.681a.61.61 0 0 1-.003.067.187.187 0 0 1-.01.044.057.057 0 0 1-.017.025.035.035 0 0 1-.022.008h-.438v1.409c0 .009-.002.017-.008.024a.066.066 0 0 1-.03.018.297.297 0 0 1-.054.01.834.834 0 0 1-.226-.01.066.066 0 0 1-.03-.018.037.037 0 0 1-.008-.024V3.572h-.437a.035.035 0 0 1-.023-.008.064.064 0 0 1-.016-.025.21.21 0 0 1-.01-.044.535.535 0 0 1 .01-.181.058.058 0 0 1 .016-.025.035.035 0 0 1 .023-.007h1.23c.008 0 .016.002.023.007a.052.052 0 0 1 .017.025.19.19 0 0 1 .01.045.555.555 0 0 1 .003.069m1.289 1.556a.04.04 0 0 1-.008.024.058.058 0 0 1-.028.016.244.244 0 0 1-.052.01.932.932 0 0 1-.165 0 .248.248 0 0 1-.052-.01.058.058 0 0 1-.027-.016.04.04 0 0 1-.008-.024v-.688a.56.56 0 0 0-.013-.137.255.255 0 0 0-.037-.086.17.17 0 0 0-.152-.075.226.226 0 0 0-.131.047.723.723 0 0 0-.138.138v.8c0 .01-.002.017-.008.025a.055.055 0 0 1-.028.016.251.251 0 0 1-.051.01.912.912 0 0 1-.165 0 .246.246 0 0 1-.051-.01.055.055 0 0 1-.028-.016.037.037 0 0 1-.009-.024V3.207c0-.01.003-.017.009-.024a.058.058 0 0 1 .028-.018.24.24 0 0 1 .051-.012.69.69 0 0 1 .165 0c.021.003.038.007.051.012.011.003.02.01.028.018a.039.039 0 0 1 .008.024v.667a.648.648 0 0 1 .18-.13.449.449 0 0 1 .19-.042c.08 0 .15.014.207.04a.362.362 0 0 1 .136.112c.035.046.06.1.075.163a.965.965 0 0 1 .023.228v.739m1.395-.637c0 .041-.01.072-.028.091a.098.098 0 0 1-.076.03h-.734c0 .051.006.098.018.14a.267.267 0 0 0 .058.105c.027.03.061.052.103.067a.44.44 0 0 0 .15.023.803.803 0 0 0 .273-.042c.033-.01.06-.02.082-.028a.146.146 0 0 1 .053-.013.04.04 0 0 1 .02.004c.005.004.01.01.014.017.003.008.006.02.007.035a.885.885 0 0 1-.004.142.076.076 0 0 1-.022.044.174.174 0 0 1-.048.026.87.87 0 0 1-.1.033 1.313 1.313 0 0 1-.306.039.877.877 0 0 1-.281-.04.506.506 0 0 1-.202-.123.512.512 0 0 1-.121-.208.983.983 0 0 1-.04-.295.92.92 0 0 1 .042-.289.596.596 0 0 1 .122-.218.523.523 0 0 1 .194-.137.671.671 0 0 1 .257-.048c.101 0 .187.015.259.045a.462.462 0 0 1 .278.31c.02.072.032.15.032.236v.054zm-.33-.097a.349.349 0 0 0-.057-.225c-.04-.055-.104-.082-.19-.082a.247.247 0 0 0-.112.024.222.222 0 0 0-.08.066.288.288 0 0 0-.049.097.467.467 0 0 0-.02.12h.509m3.16.73a.04.04 0 0 1-.007.025.053.053 0 0 1-.027.018.266.266 0 0 1-.05.01.726.726 0 0 1-.211-.01.056.056 0 0 1-.026-.018.04.04 0 0 1-.008-.024V3.558h-.003L30.42 4.98a.07.07 0 0 1-.017.029.09.09 0 0 1-.033.018.23.23 0 0 1-.051.009 1.05 1.05 0 0 1-.153-.001.238.238 0 0 1-.053-.011.115.115 0 0 1-.032-.019.054.054 0 0 1-.016-.025l-.475-1.421h-.003V4.98a.04.04 0 0 1-.008.024.053.053 0 0 1-.026.018.303.303 0 0 1-.052.01.712.712 0 0 1-.21-.01.057.057 0 0 1-.027-.018.044.044 0 0 1-.006-.024V3.424c0-.046.011-.081.035-.106a.127.127 0 0 1 .095-.036h.227c.04 0 .076.003.105.01.055.01.102.046.128.096a.455.455 0 0 1 .037.095l.368 1.041h.005l.381-1.038a.55.55 0 0 1 .037-.096.23.23 0 0 1 .048-.063.161.161 0 0 1 .064-.035.336.336 0 0 1 .086-.01h.234c.024 0 .044.003.061.01.016.005.03.014.042.027.012.012.02.027.026.044a.188.188 0 0 1 .008.06v1.558m1.44-.634c0 .041-.01.072-.028.091a.099.099 0 0 1-.076.03h-.734c0 .051.006.098.019.14.01.039.03.075.057.105.027.03.06.052.103.067a.44.44 0 0 0 .15.023.803.803 0 0 0 .273-.042c.033-.01.06-.02.082-.028a.146.146 0 0 1 .052-.013c.007 0 .014 0 .02.004s.01.01.015.017c.003.008.006.02.007.035a.885.885 0 0 1-.004.142.076.076 0 0 1-.008.024.09.09 0 0 1-.014.02.186.186 0 0 1-.048.026.882.882 0 0 1-.1.033 1.322 1.322 0 0 1-.306.039.88.88 0 0 1-.282-.04.509.509 0 0 1-.202-.123.521.521 0 0 1-.12-.208.983.983 0 0 1-.04-.295c0-.106.014-.203.042-.289a.6.6 0 0 1 .122-.218.523.523 0 0 1 .194-.137.67.67 0 0 1 .257-.048c.101 0 .187.015.259.045.136.054.239.169.277.31.022.072.033.15.033.236v.054zm-.33-.097a.35.35 0 0 0-.057-.225c-.04-.055-.104-.082-.19-.082a.248.248 0 0 0-.113.024.226.226 0 0 0-.08.066.295.295 0 0 0-.048.097.5.5 0 0 0-.02.12h.509m1.679.734c0 .01-.003.018-.007.025a.045.045 0 0 1-.022.017.162.162 0 0 1-.043.009.733.733 0 0 1-.134 0 .174.174 0 0 1-.043-.01.053.053 0 0 1-.023-.016.043.043 0 0 1-.007-.026V4.85a.744.744 0 0 1-.19.156.445.445 0 0 1-.22.055.445.445 0 0 1-.225-.054.431.431 0 0 1-.15-.144.629.629 0 0 1-.085-.21 1.182 1.182 0 0 1-.026-.255c0-.107.01-.203.033-.289a.666.666 0 0 1 .098-.218.436.436 0 0 1 .38-.188c.065 0 .125.014.177.041a.631.631 0 0 1 .159.12v-.65c0-.01.002-.017.007-.024a.053.053 0 0 1 .027-.019.576.576 0 0 1 .26 0c.01.004.02.01.026.019a.041.041 0 0 1 .008.024v1.77zm-.328-.805a.757.757 0 0 0-.135-.141.226.226 0 0 0-.136-.048.184.184 0 0 0-.11.033.231.231 0 0 0-.075.088.477.477 0 0 0-.042.123.713.713 0 0 0-.014.14c0 .05.004.1.012.147a.46.46 0 0 0 .038.128c.016.035.041.066.072.09a.18.18 0 0 0 .113.033.216.216 0 0 0 .131-.043.454.454 0 0 0 .07-.06 1.16 1.16 0 0 0 .076-.09v-.4m.967.805a.036.036 0 0 1-.009.024.055.055 0 0 1-.028.016.25.25 0 0 1-.051.01.87.87 0 0 1-.217-.01.053.053 0 0 1-.027-.016.038.038 0 0 1-.009-.024V3.78c0-.009.003-.017.009-.023a.057.057 0 0 1 .027-.018.208.208 0 0 1 .052-.011.624.624 0 0 1 .165 0 .223.223 0 0 1 .051.01c.011.004.021.01.028.019a.035.035 0 0 1 .009.023v1.203zm.027-1.615c0 .069-.014.116-.042.142-.028.026-.08.04-.156.04s-.128-.013-.154-.039c-.027-.025-.04-.07-.04-.136 0-.069.013-.116.041-.143.027-.026.08-.04.156-.04s.128.013.155.04c.026.025.04.07.04.136m1.335 1.62a.038.038 0 0 1-.014.029.09.09 0 0 1-.043.015.593.593 0 0 1-.086.005.563.563 0 0 1-.088-.005.078.078 0 0 1-.04-.015.04.04 0 0 1-.011-.03v-.096a.545.545 0 0 1-.17.124.493.493 0 0 1-.21.044.598.598 0 0 1-.177-.025.396.396 0 0 1-.139-.074.34.34 0 0 1-.09-.122.42.42 0 0 1-.033-.17c0-.071.014-.132.04-.183a.336.336 0 0 1 .124-.129.606.606 0 0 1 .203-.074c.093-.018.187-.026.282-.025h.117v-.073a.392.392 0 0 0-.012-.1.155.155 0 0 0-.108-.113.555.555 0 0 0-.26.006.837.837 0 0 0-.203.084.13.13 0 0 1-.056.019.04.04 0 0 1-.026-.009.066.066 0 0 1-.019-.027.344.344 0 0 1-.009-.166.102.102 0 0 1 .026-.044.249.249 0 0 1 .066-.043.936.936 0 0 1 .403-.09c.095 0 .176.01.243.028a.414.414 0 0 1 .165.085.33.33 0 0 1 .095.149c.02.06.03.131.03.213v.811zm-.335-.518h-.13a.73.73 0 0 0-.14.012.272.272 0 0 0-.094.037.146.146 0 0 0-.053.059.175.175 0 0 0-.017.078.151.151 0 0 0 .048.12c.031.028.076.042.132.042a.248.248 0 0 0 .132-.036c.04-.024.08-.06.122-.107V4.47"/><path fill="#940000" d="M52.226 16.435c0 .233-.059.4-.176.501a.61.61 0 0 1-.403.148h-5.33c0 .452.046.858.135 1.218.09.364.24.674.453.933.21.258.483.456.819.594.338.139.75.21 1.237.21.384 0 .729-.031 1.028-.096.265-.052.526-.122.781-.21.183-.063.364-.132.542-.208a.845.845 0 0 1 .32-.096c.04-.001.08.01.114.03.034.024.06.057.074.096a.61.61 0 0 1 .043.172 2.394 2.394 0 0 1-.019.628.39.39 0 0 1-.046.123.573.573 0 0 1-.08.102c-.034.034-.132.086-.292.16a4.271 4.271 0 0 1-.631.221c-.259.071-.557.136-.895.191-.358.06-.72.089-1.084.087-.668 0-1.25-.093-1.751-.28a3.225 3.225 0 0 1-1.265-.828c-.341-.37-.6-.828-.772-1.382-.176-.551-.262-1.194-.262-1.93 0-.695.09-1.323.27-1.88a4 4 0 0 1 .78-1.416c.338-.387.75-.683 1.23-.892a4.057 4.057 0 0 1 1.613-.31c.637 0 1.179.1 1.625.307.45.203.816.48 1.105.825.286.344.498.75.634 1.218.135.465.203.963.203 1.493v.27zm-1.496-.44c.019-.782-.154-1.398-.52-1.844-.366-.446-.904-.668-1.622-.668-.369 0-.692.068-.969.207-.27.132-.506.32-.696.553-.192.237-.339.507-.433.797-.103.309-.161.63-.173.955h4.413m9.829 4.862a.2.2 0 0 1-.07.163.513.513 0 0 1-.2.08 1.83 1.83 0 0 1-.37.028c-.154 0-.28-.01-.372-.028a.455.455 0 0 1-.203-.08c-.044-.037-.065-.09-.065-.163v-.813c-.354.379-.726.674-1.163.883a3.206 3.206 0 0 1-1.385.312c-.427 0-.815-.056-1.16-.167a2.518 2.518 0 0 1-.883-.483 2.179 2.179 0 0 1-.57-.775 2.57 2.57 0 0 1-.202-1.047c0-.459.092-.855.28-1.19a2.28 2.28 0 0 1 .802-.84c.348-.222.776-.392 1.281-.502a7.996 7.996 0 0 1 1.705-.166h1.098v-.635c0-.31-.034-.587-.099-.83a1.443 1.443 0 0 0-.32-.6 1.361 1.361 0 0 0-.572-.36 2.607 2.607 0 0 0-.865-.124c-.366 0-.695.043-.985.132-.292.09-.547.185-.766.293a7.66 7.66 0 0 0-.55.292c-.146.09-.256.132-.327.132a.21.21 0 0 1-.126-.036.274.274 0 0 1-.095-.108.528.528 0 0 1-.06-.182 1.576 1.576 0 0 1-.018-.249c0-.148.01-.268.031-.354a.53.53 0 0 1 .154-.246c.08-.077.221-.169.419-.277.22-.115.45-.213.686-.292.277-.092.56-.165.846-.219.306-.058.616-.087.927-.086.581 0 1.077.065 1.486.197.41.132.739.33.991.585.252.255.434.572.547.95.114.38.173.823.173 1.327v5.478zm-1.477-3.718h-1.249c-.406 0-.76.034-1.062.105a2.185 2.185 0 0 0-.747.308 1.286 1.286 0 0 0-.438.486c-.092.19-.138.41-.138.656 0 .421.132.757.4 1.006.268.25.64.375 1.123.375.388 0 .751-.098 1.083-.298.333-.197.662-.502 1.028-.911v-1.727m10.838 3.7a.21.21 0 0 1-.037.126.27.27 0 0 1-.12.092 1.085 1.085 0 0 1-.24.052 4.742 4.742 0 0 1-.788.006 1.357 1.357 0 0 1-.264-.046.468.468 0 0 1-.175-.089.677.677 0 0 1-.123-.141l-3.423-4.494v4.503a.2.2 0 0 1-.037.123.303.303 0 0 1-.117.086.955.955 0 0 1-.227.052 3.024 3.024 0 0 1-.37.019c-.147 0-.267-.007-.363-.019a.997.997 0 0 1-.23-.052.275.275 0 0 1-.12-.086.22.22 0 0 1-.031-.124V8.806a.23.23 0 0 1 .03-.126.238.238 0 0 1 .12-.093.993.993 0 0 1 .231-.052c.096-.013.216-.019.363-.019.151 0 .274.006.37.02a.95.95 0 0 1 .227.051c.047.019.088.051.117.093a.21.21 0 0 1 .037.126v7.333l3.056-3.373a.876.876 0 0 1 .154-.15.945.945 0 0 1 .459-.154 4.18 4.18 0 0 1 .37-.012c.15 0 .276.002.377.012.102.009.185.024.247.046.061.022.108.049.135.08a.2.2 0 0 1 .04.132.435.435 0 0 1-.059.215 1.17 1.17 0 0 1-.194.253l-2.923 2.942 3.293 4.284c.077.104.132.184.166.249.034.064.05.123.05.176"/><path fill="#FFF" d="M10.892 20.392c0 .123-.006.225-.018.305a.75.75 0 0 1-.059.209.319.319 0 0 1-.098.126.239.239 0 0 1-.142.04H5.402a.65.65 0 0 1-.395-.138c-.123-.095-.185-.259-.185-.493V9.637a.21.21 0 0 1 .037-.126.237.237 0 0 1 .126-.087 1.33 1.33 0 0 1 .244-.055c.102-.016.225-.022.37-.022.151 0 .275.006.377.022.098.015.178.034.237.055.062.022.102.05.126.087a.21.21 0 0 1 .038.126v10.088h4.198a.24.24 0 0 1 .142.04.37.37 0 0 1 .098.116c.028.053.046.12.058.207.013.083.02.184.02.304m3.244-10.418c0 .377-.073.631-.215.766-.142.136-.404.206-.787.206-.378 0-.636-.067-.775-.199s-.208-.383-.208-.752c0-.377.072-.632.215-.766.142-.136.404-.206.788-.206.376 0 .635.067.774.199s.208.383.208.752m-.252 10.874a.201.201 0 0 1-.038.123.303.303 0 0 1-.116.086.963.963 0 0 1-.229.052 3.024 3.024 0 0 1-.37.019c-.148 0-.268-.007-.364-.019a1 1 0 0 1-.231-.052.277.277 0 0 1-.12-.086.222.222 0 0 1-.031-.124V12.73c0-.043.009-.083.03-.117a.243.243 0 0 1 .12-.092.98.98 0 0 1 .232-.052c.121-.014.243-.02.364-.018.151 0 .275.006.37.018.099.012.173.03.229.052.047.019.087.05.116.092a.196.196 0 0 1 .038.117v8.118m9.362-8.136c0 .025 0 .05-.003.077-.004.027-.01.055-.013.086-.006.03-.015.061-.024.098l-.031.117-2.758 7.712a.478.478 0 0 1-.095.164.37.37 0 0 1-.175.098 1.376 1.376 0 0 1-.297.052c-.12.01-.27.013-.452.013-.177 0-.328-.007-.448-.019a1.669 1.669 0 0 1-.291-.052.42.42 0 0 1-.276-.255l-2.749-7.713c-.025-.07-.043-.135-.058-.187a.823.823 0 0 1-.028-.123c-.003-.028-.003-.05-.003-.068 0-.045.011-.088.033-.126a.244.244 0 0 1 .123-.087.804.804 0 0 1 .224-.04c.093-.006.209-.008.347-.008.175 0 .313.002.417.012.104.009.187.028.243.052a.25.25 0 0 1 .125.09c.028.036.052.08.077.135l2.283 6.693.037.108.027-.108 2.255-6.693a.292.292 0 0 1 .194-.225.79.79 0 0 1 .233-.052 4.5 4.5 0 0 1 .392-.012c.138 0 .252.002.34.009.09.006.16.021.212.046a.236.236 0 0 1 .108.083c.022.037.033.08.03.123m8.386 3.724c0 .233-.058.4-.175.501a.609.609 0 0 1-.402.148h-5.314c0 .452.046.858.135 1.218.09.364.24.674.451.933.209.258.482.456.816.594.338.139.749.21 1.234.21.383 0 .727-.031 1.025-.096a6.02 6.02 0 0 0 .779-.21c.182-.063.362-.133.54-.208a.839.839 0 0 1 .319-.096c.043 0 .08.009.113.03.034.024.06.057.074.096.018.04.033.099.043.172a2.313 2.313 0 0 1-.018.628.397.397 0 0 1-.047.123.56.56 0 0 1-.08.102c-.033.034-.131.086-.29.16a4.234 4.234 0 0 1-.63.221c-.257.071-.555.136-.893.191-.356.06-.718.089-1.08.087-.665 0-1.245-.093-1.745-.28-.5-.185-.92-.462-1.261-.828a3.55 3.55 0 0 1-.77-1.382c-.175-.551-.261-1.194-.261-1.93 0-.695.089-1.323.27-1.88a3.99 3.99 0 0 1 .776-1.416 3.427 3.427 0 0 1 1.227-.892 4.031 4.031 0 0 1 1.608-.31c.635 0 1.175.1 1.62.307.448.203.813.48 1.102.825.285.344.497.75.631 1.218.135.465.203.963.203 1.493v.27zm-1.49-.44c.017-.782-.155-1.398-.52-1.844-.365-.446-.902-.668-1.617-.668-.368 0-.69.068-.966.207a2.069 2.069 0 0 0-.693.553 2.504 2.504 0 0 0-.433.797c-.102.309-.16.63-.172.955h4.4"/><path fill="#940000" d="M2.711 5.835h6.125v-.689h.602V3.387h-.602V2.373H5.179l.01-.015L3.212.981l-.43-.969L1.506 1.81H2.79l.81.564h-.89v3.462zm3.831-2.259a.673.673 0 1 1 0 1.347.673.673 0 0 1 0-1.347zm-1.564 0a.673.673 0 1 1 0 1.346.673.673 0 0 1 0-1.346zm5.962 2.172l-1.223-.681V3.375l1.223-.642v3.015zm-6.78-.492h3.2v-2.1h-3.2v2.1"/><path fill="#FFF" d="M11.013 7.147l-.153-.196a.029.029 0 0 0-.037-.008A2.884 2.884 0 0 0 9.422 8.73a3.41 3.41 0 0 0-.056 1.542c.075.373.241.74.46 1.05.205.292.471.554.784.73a.029.029 0 0 0 .035-.004l.175-.17a.029.029 0 0 0 .009-.022.027.027 0 0 0-.01-.021 3.025 3.025 0 0 1-.604-.703 2.688 2.688 0 0 1-.32-.904 4.062 4.062 0 0 1-.065-.753c0-.236.025-.472.075-.702.069-.304.217-.594.395-.849.197-.28.436-.527.708-.734a.028.028 0 0 0 .01-.02.03.03 0 0 0-.005-.022"/><path fill="#FFF" d="M11.626 7.496l-.09-.115a.03.03 0 0 0-.037-.008 2.412 2.412 0 0 0-1.162 1.485 2.818 2.818 0 0 0-.047 1.283c.062.31.201.616.383.875.17.241.39.459.65.606a.03.03 0 0 0 .035-.004l.14-.137a.026.026 0 0 0 .008-.022.028.028 0 0 0-.01-.02 2.503 2.503 0 0 1-.499-.582 2.245 2.245 0 0 1-.266-.752 3.4 3.4 0 0 1-.054-.627c0-.197.02-.392.063-.584.057-.253.18-.495.328-.706.16-.228.353-.43.573-.6.043-.033.018-.05-.015-.092m3.595.692c.148.21.271.453.328.706.043.19.061.389.063.584 0 .209-.017.421-.055.627a2.232 2.232 0 0 1-.266.752c-.131.222-.307.41-.499.582a.027.027 0 0 0-.01.021c0 .008.004.016.01.022l.141.136a.03.03 0 0 0 .035.004 2.07 2.07 0 0 0 .647-.606c.187-.263.317-.56.384-.875a2.797 2.797 0 0 0-.047-1.283 2.437 2.437 0 0 0-.438-.872 2.388 2.388 0 0 0-.725-.613.029.029 0 0 0-.037.008l-.122.157a.028.028 0 0 0-.005.022c0 .007.005.014.011.019.225.171.423.377.585.609"/><path fill="#FFF" d="M15.989 7.923c.178.255.326.545.394.849.052.229.074.468.076.702a4.08 4.08 0 0 1-.066.753c-.058.32-.152.623-.32.904-.159.27-.371.495-.604.703a.028.028 0 0 0-.01.022c0 .008.004.016.01.02l.177.171c.01.01.023.011.034.005.312-.177.578-.44.783-.73.219-.312.385-.678.46-1.051a3.41 3.41 0 0 0-.056-1.542 2.916 2.916 0 0 0-.527-1.047 2.872 2.872 0 0 0-.875-.738.03.03 0 0 0-.037.007l-.152.197a.03.03 0 0 0-.005.022.028.028 0 0 0 .011.019c.271.208.51.455.707.734"/></g></svg>