<svg xmlns="http://www.w3.org/2000/svg" viewBox="0 0 595.276 841.89"><path fill="#de2020" fill-rule="evenodd" d="M163.929 344.58h267.418v152.73H163.929z"/><path fill="#fff" fill-rule="evenodd" d="M202.595 370.5h199.16c-5.8 30.16-11.7 60.3-17.79 90.4 2.94 3.23 5.93 6.43 8.95 9.6h-199.03c6.03-30.04 11.69-60.16 17.86-90.16-3.04-3.29-6.11-6.56-9.15-9.84zm3.88 90.38c4.88-.02 9.75 0 14.63-.01 4.25-21.66 8.5-43.33 12.79-64.98 3.63-.03 7.27-.04 10.9.02-4.53 21.59-8.4 43.33-12.98 64.92 4.91.05 9.82.1 14.72-.02 4.18-21.67 8.35-43.35 12.78-64.97 3.63.06 7.27.01 10.9.05-4.63 21.6-8.47 43.37-12.97 64.99 4.83-.02 9.67 0 14.5-.01 5.44-26.84 10.5-53.75 15.96-80.59-21.75.03-43.5.03-65.24.01-5.41 26.85-10.4 53.78-15.99 80.59zm76.09.02c13.33-.1 26.67.04 40.01-.07 5.17-26.87 10.47-53.73 15.81-80.57-4.86.07-9.72.02-14.58.04-4.21 21.69-8.43 43.38-12.79 65.05-3.61-.09-7.23-.05-10.85-.05 4.43-21.66 8.41-43.41 12.91-65.05-4.86.09-9.73.03-14.59.05-5.35 26.86-10.47 53.76-15.92 80.6zm50.68-.05c13.3.05 26.61 0 39.91.03 5.32-26.87 10.6-53.74 15.86-80.62-13.24.04-26.49.1-39.73-.03-5.56 26.83-10.46 53.8-16.04 80.62zm27.26-64.92c3.68-.1 7.36-.08 11.04-.01-3.36 16.43-6.53 32.9-9.75 49.36-3.67.02-7.35.05-11.02-.04 3.45-16.4 6.62-32.86 9.73-49.31z"/></svg>