<svg xmlns="http://www.w3.org/2000/svg" id="layer" x="0" y="0" version="1.1" viewBox="0 0 652 652" xml:space="preserve"><style>.st0{fill:#2e2e2f}</style><path d="M171.1 318.9l-1 5.1h-.3c-1.3-2.8-4.9-6.8-12.9-6.8-12.9 0-26.1 10-29 25.7-2.5 13.8 4.1 25.9 19.4 25.9 5.6 0 12-2.2 15.4-6.9h.3l-.9 5.2h14.3l8.9-48.2h-14.2zm-4.7 24c-.9 4.7-5.4 12.4-14.4 12.4-8.8 0-10.6-7.7-9.8-12.2 1-5.5 5.9-12.4 14.3-12.4 8.2.1 11 6.6 9.9 12.2zm27-24h13.4l-.9 5.1h.3c1.7-2.3 5.1-6.8 13.3-6.8l-2.7 14.6c-6.8.1-11.7 1.5-13 8.9l-4.9 26.4h-14.4l8.9-48.2zm35.7-18.8h14.5l-6.8 36.3h.2l16.7-17.5h17l-22 21.2 12.6 27H245l-9.3-23.2h-.3l-4.2 23.2h-14.5z" class="st0"/><path d="M293.8 317.2c-14.6 0-27.6 12.6-30 26-2.7 14.3 7 25.5 20.8 25.5 4.9 0 10-1.5 14.4-4.4 4.6-2.8 8.8-6.9 12-12.3h-14.7c-2.4 2.5-5.2 4.5-9.6 4.5-5.6 0-9.8-3.4-9.5-9.1h36.1c.4-1.1.7-2 1-3.8 2.8-14.7-5.8-26.4-20.5-26.4zm-14.6 20.5c1.1-2.8 5.1-8.3 12.6-8.3s9.3 5.4 9.3 8.3h-21.9zm-170.4-37.6l-25.4 38.2h-.2v-38.2H70.9l-45.1 67h17.5l25.3-38.2h.2v38.2h12.4l25.3-38.2h.2v38.2h14.5v-67zm242.1 18.8h-9.1l2.7-14.3h-12.6l-1 5.5c-1.1 6.3-5.1 8.2-10.3 8.8h-.1l-2.2 10.9h7.1l-6.9 37.2h14.4l6.9-37.2h9.2l1.9-10.9z" class="st0"/><path fill="#00ac4e" d="M573.8 348.9c-4.7 10.9-16 19.9-29 19.9-14.6 0-23.7-11.5-21.1-25.9 2.7-14.1 15.7-25.6 30.2-25.6 12.7 0 21.5 8.5 21.8 20.3h-14.6c-.9-3.4-3.1-6.8-9.2-6.8-6.8-.3-12.4 5.2-13.7 12.2-1.3 7.1 2.3 12.3 9.2 12.3 5.9 0 9.5-3.4 11.6-6.5l14.8.1zM454.5 283l-28 17.1h7.9L409 338.3h-.3v-38.2h-12.4L371 338.3h-.3v-38.2h-14.4v67h12.6l25.4-38.2h.3v38.2H407l44.9-67h7.1l-4.5-17.1zm27.3 84.1h-14.3l.9-5.2h-.3c-3.4 4.7-9.8 6.9-15.4 6.9-15.3 0-21.9-12-19.4-25.9 2.8-15.7 16.1-25.7 29-25.7 7.9 0 11.6 3.9 12.9 6.8h.3l1-5.1h14.3l-9 48.2zm-24.2-11.7c8.9 0 13.4-7.7 14.4-12.4 1-5.8-1.7-12.2-9.9-12.2-8.3 0-13.2 6.9-14.3 12.4-.8 4.5 1 12.2 9.8 12.2zm69.2-36.5h-9l2.7-14.3h-12.6l-1 5.5c-1.1 6.3-5.1 8.2-10.3 8.8h-.2l-2.1 10.9h7.1l-6.9 37.2h14.4l6.9-37.2h9.2l1.8-10.9zm60.6-18.8h14.4l-4.4 23.9h.3c3.1-4.5 7.2-6.8 13.6-6.8 4.6 0 9.8 1.7 12.2 5.4 3.1 4.7 2.8 8.9 1.1 17.5l-4.9 26.9h-14.4l4.8-26.2c.4-2.3 1.8-10.1-5.8-10.1-8.1 0-9.5 7.2-9.9 9.6l-4.9 26.7h-14.4l12.3-66.9z"/></svg>