<svg xmlns="http://www.w3.org/2000/svg" xmlns:xlink="http://www.w3.org/1999/xlink" viewBox="0 0 437 132"><defs><path id="a" d="M0 132h438V0H0z"/></defs><g fill="none" fill-rule="evenodd"><path fill="#000" fill-rule="nonzero" d="M86 0c-.009.586-.025 130.237-.025 130.905h-19.32v-84.59c-.101-.01-9.636 56.36-14.312 84.62H33.269c-5.019-28.907-15.34-86.562-15.4-86.555V131H0V0h28.577c.024.358 14.448 90.698 14.799 92.799C43.76 92.209 56.303 7.612 57.423 0H86zm65 0v18.691h-35.352v36.41h28v18.76h-27.985v38.454h35.268V131H95V0h56zm29.459 0v112.311H214V131h-54V0h20.459z"/><mask id="b" fill="#fff"><use xlink:href="#a"/></mask><path fill="#000" fill-rule="nonzero" d="M223 132h214V0H223z" mask="url(#b)"/></g></svg>