<svg xmlns="http://www.w3.org/2000/svg" width="602.362" height="161.787" version="1.0"><path fill="#362e2b" d="M455.86 20.948c-.272.513-.04 1.533-.117 2.24v4.2c1.632.072 3.313-.167 4.912.173 1.385.497 1.273 2.207 1.293 3.417-.008 34.114.017 68.228-.012 102.341 0 .998-.11 2.382-1.354 2.522-.879.09-1.77.014-2.653.039v6.44h28.84v-6.44c-1.686-.087-3.417.184-5.074-.156-1.355-.355-1.486-2.038-1.444-3.216V19.114c-8.13.594-16.26 1.226-24.39 1.834zm68.764 0c-.273.513-.04 1.533-.117 2.24v4.2c1.526.111 3.132-.254 4.6.25 1.392.533 1.569 2.518 1.566 3.965-.01 33.98.018 67.963-.014 101.942-.055 1.114-.624 2.156-1.781 2.257-.736.12-1.483.066-2.225.078v6.44h26.382v-6.44c-1.178-.094-2.463.245-3.552-.312-.753-.965-.36-2.347-.468-3.497.014-19.456-.028-38.912.02-58.367.085-3.196.192-6.605 1.797-9.45.447-.734.956-1.439 1.617-1.86 2.036-1.436 4.854-1.679 7.142-.741 1.014.485 1.53 1.497 1.868 2.62.767 3.693.373 7.503.474 11.25-.01 19.418.02 38.84-.016 58.256-.03 1.061-.766 2.089-1.903 2.08-.853.05-1.713.006-2.57.02v6.44h27.007v-6.44c-1.26-.105-2.87.376-3.786-.74-.68-1.552-.277-3.326-.39-4.973-.013-21.612.027-43.225-.02-64.837-.18-3.94-.84-8.129-3.375-11.287-1.646-2.063-4.14-3.38-6.73-3.94-4.028-.842-8.41-.789-12.15 1.093-3.152 1.471-5.604 4.088-7.73 6.774-.41.475-.992 1.567-1.255 1.685v-40.54c-8.13.594-16.26 1.226-24.391 1.834zm-505.542.118v6.322c1.535.112 3.305-.38 4.605.663.524.296.954.911 1.306 1.498 1.49 2.507 1.549 5.569 1.543 8.415-.01 29.615.02 59.231-.014 88.846-.032 2.6-.506 5.47-1.976 7.548-.752.988-1.905 1.648-3.224 1.522-.708.077-1.727-.156-2.24.117v6.322h24.392v-6.44c-1.66-.084-3.365.182-4.996-.155-1.305-.495-2.074-1.514-2.618-2.798-1.5-3.768-.94-7.904-1.05-11.86V50.1c6.408 30.688 12.858 61.371 19.24 92.062h9.522c6.381-30.795 12.832-61.582 19.24-92.374-.01 26.519.02 53.039-.016 79.558-.08 2.074-.164 4.503-1.819 5.986-.69.455-1.742.636-2.653.547H74.46v6.44h35.045v-6.44c-1.56-.14-3.329.392-4.705-.543-1.108-.666-1.488-2.292-1.704-3.579-.429-3.62-.141-7.28-.225-10.919.01-28.972-.02-57.946.016-86.918.156-2.068.17-4.521 1.857-5.987.77-.529 2.017-.595 3.029-.546.627-.156 2.013.447 1.732-.617v-5.823H80.197c-4.978 25.305-10.022 50.604-15.025 75.906-5.315-25.302-10.673-50.6-15.962-75.906H19.082v.118zm249.337 0v6.322c1.813.113 3.703-.268 5.46.285 1.64.578 1.77 2.546 1.91 4.085.104 7.28.015 14.565.045 21.847-.008 26.53.015 53.06-.012 79.59-.007 1.254-.767 2.423-2.057 2.529-1.762.299-3.566.096-5.346.156v6.44h35.357v-6.44c-1.881-.102-3.816.233-5.658-.234-1.56-.494-1.888-2.43-2.01-3.926-.134-5.934-.022-11.875-.059-17.812V84.756h23.26c-.016 15.412.03 30.826-.023 46.237-.11 1.596-.235 3.624-1.773 4.497-1.696.712-3.598.262-5.385.39-.994-.232-.376 1.149-.546 1.74v4.7h35.2v-6.44c-1.798-.123-3.692.298-5.418-.336-1.672-.79-1.761-2.936-1.818-4.565-.138-6.146-.023-12.297-.061-18.445.01-26.386-.02-52.773.015-79.16.106-1.815-.088-4.197 1.39-5.4 1.617-.976 3.61-.45 5.401-.586.945.16.305-1.266.492-1.866v-4.574h-35.201v6.44c1.855.1 3.763-.23 5.58.234 1.589.467 1.977 2.45 2.08 3.97.154 4.544.024 9.098.067 13.646v32.025h-23.26c.015-14.996-.029-29.993.022-44.989.06-1.384.179-3.064 1.07-4.067 1.47-1.266 3.569-.682 5.34-.82.867.106 1.608.084 1.295-.99v-5.449H268.42v.118zm-47.221-.04c-2.28.196-4.318 1.491-5.698 3.24-.863.997-1.6 2.501-1.773 3.948-.494 3.126 1.092 6.22 3.347 8.274 1.685 1.652 3.738 2.904 5.919 3.817-3.075 3.45-6.416 6.646-9.718 9.874 1.347 1.437 2.673 2.895 4.02 4.332 3.918-2.99 7.753-6.179 10.922-10.001 2.455-2.815 4.456-6.285 4.868-10.073.387-4.265-1.608-8.63-4.94-11.225-.97-.768-2.336-1.545-3.673-1.865-1.058-.294-2.178-.427-3.274-.32zm282.352 6.206c-2.017 5.924-3.975 11.935-6.96 17.449-1.042 1.847-2.2 3.693-3.85 4.913-1.778 1.415-4.115 1.628-6.307 1.522-1.116-.33-1.071.5-.991 1.365v5.542h6.205c.013 22.908-.026 45.817.02 68.724.145 3.802.34 7.77 2.068 11.233 1.094 2.152 3.045 3.86 5.368 4.619 3.882 1.375 8.094 1.387 12.157 1.127 3.385-.36 6.901-1.537 9.117-4.23 1.725-1.799 2.663-4.278 3.179-6.705 1.002-4.43.526-9.004.639-13.505v-6.275h-6.869c-.04 5.639.086 11.284-.074 16.92-.164 1.685-.26 3.825-1.877 4.778-1.545.813-3.95.534-4.722-1.21-1.038-2.644-.6-5.572-.703-8.351V58.179h13.932v-7.063h-13.776V27.154h-6.517l-.04.078zm-370.16 22.4c-5.047.299-9.893 2.675-13.33 6.343-2.585 2.591-4.621 5.688-6.135 9.025-3.561 7.654-5.013 16.107-5.587 24.477-.59 9.694-.26 19.485 1.475 29.052 1.136 5.631 2.915 11.246 6.164 16.029 1.945 2.66 4.318 5.062 7.265 6.63 4.231 2.332 9.19 2.907 13.956 2.625 4.152-.265 8.509-1.026 11.919-3.562 1.967-1.562 3.651-3.54 4.655-5.877 2.141-4.836 2.503-10.23 2.427-15.455-.019-1.764-.127-3.525-.253-5.284h-6.712c.012 4.936.147 9.933-.859 14.79-.526 2.077-1.292 4.257-3.083 5.582-1.25.775-2.98 1.239-4.557 1.24-2.69.123-5.772.022-7.97-1.514-1.27-1.006-2.018-2.235-2.595-3.744-1.698-4.964-1.81-10.285-2.024-15.48-.223-6.715-.174-13.435-.181-20.153h29.542c-.066-8.076-.29-16.206-1.796-24.16-1.003-5.023-2.488-10.186-5.697-14.241-1.826-2.212-4.113-4.03-6.826-5.018-3.12-1.163-6.494-1.45-9.799-1.304zm62.948 0c-4.064.271-7.979 2.13-10.83 5.001-1.66 1.53-3.071 3.26-4.312 5.146v-9.717c-8.066.54-16.13 1.138-24.196 1.678v6.44c1.45.072 2.946-.156 4.365.133 1.401.394 1.787 2.099 1.801 3.457.091 7.823.013 15.652.039 23.478-.017 15.94.033 31.882-.025 47.821.003 1.147-.377 2.515-1.617 2.689-1.45.25-2.94.064-4.407.122v6.44h28.372v-6.44c-1.178-.094-2.462.245-3.552-.312-.784-1.093-.347-2.6-.468-3.872.014-19.33-.028-38.662.021-57.992.077-3.196.195-6.606 1.81-9.439.38-.727.93-1.336 1.603-1.91.902-.552 2.108-1.111 3.285-1.187 1.695-.203 3.967.03 4.91 1.382 1.434 2.084 1.17 4.77 1.289 7.18-.01 21.35.02 42.702-.016 64.05-.066 1.049-.693 2.033-1.78 2.06-.892.09-1.795.015-2.692.04v6.44h27.006v-6.44c-1.26-.106-2.87.375-3.786-.742-.68-1.551-.277-3.325-.39-4.972-.013-21.612.027-43.225-.02-64.837-.18-3.94-.84-8.129-3.375-11.287-1.476-1.845-3.636-3.127-5.94-3.74-2.29-.641-4.728-.788-7.095-.67zm43.319.04c-5.119.355-10.228 2.569-13.5 6.583-1.846 2.036-3.035 4.62-3.838 7.25-1.377 4.578-1.214 9.452-.714 14.155.677 5.49 2.928 10.712 6.285 15.092 3.5 4.74 7.616 9.02 11.435 13.527 1.783 2.047 3.639 4.052 5.192 6.179 2.3 2.967 4.416 6.227 5.034 10.003.51 3.027.469 6.223-.46 9.166-.481 1.326-1.156 2.41-2.375 3.193-2.257 1.537-5.188 1.5-7.804 1.222-1.523-.266-3.053-.876-4.124-1.866-1.357-1.052-2.109-2.568-2.88-4.106-2.177-5.093-2.49-10.697-3.418-16.097-.128-.72-1.404-.162-2.024-.338h-5.073v28.684h5.97c.371-1.71.905-3.587 2.29-4.752.826-.7 1.491.434 2.053.938 3.36 3.456 8.196 5.317 13.008 5.357 4.8.072 9.797-1.118 13.597-4.158 2.348-1.975 4.322-4.45 5.473-7.334 2.34-5.434 2.393-11.528 1.71-17.312-.557-5.412-2.734-10.554-5.857-14.974-4.761-6.586-10.657-12.279-15.89-18.502-1.677-2.177-3.591-4.486-4.76-7.102-1.62-3.503-2.047-7.51-1.491-11.31.238-1.642 1.044-3.327 2.317-4.171 2.362-1.633 5.463-1.42 8.168-.974 1.532.339 2.962 1.169 3.969 2.262.278.417.701.839.94 1.39 1.806 3.057 1.974 6.724 2.44 10.169.234 1.936.508 3.87.718 5.807h7.024V51.116h-5.776c-.22 1.55-.021 3.268-.741 4.683-.583.116-.918-.735-1.41-.968a23.687 23.687 0 0 0-3.63-2.53c-3.6-2.007-7.721-3.074-11.858-2.63zm131.01-.04c-4.867.297-9.565 2.509-12.959 5.973-4.542 4.396-7.289 10.296-9.116 16.286-2.592 8.715-3.292 17.874-3.235 26.93.102 7.117.548 14.273 2.076 21.239 1.113 5.002 2.798 9.976 5.675 14.246 2.603 3.806 6.345 6.94 10.807 8.335 4.502 1.503 9.38 1.457 14.035.808 3.59-.542 7.273-1.771 9.84-4.42 2.526-2.354 3.922-5.63 4.699-8.96 1.283-5.372 1.117-10.962.735-16.434h-6.713c.075 4.785.13 9.624-.765 14.343-.41 2.086-1.198 4.285-2.747 5.677-2.354 1.894-5.592 1.679-8.436 1.544-2.163-.186-4.373-.91-5.7-2.63-1.24-1.648-1.957-3.904-2.343-6.016-.907-4.534-.95-9.186-1.16-13.79-.132-6.135-.122-12.271-.118-18.407h29.543c-.066-8.076-.291-16.206-1.796-24.16-1.007-5.021-2.483-10.192-5.697-14.241-1.827-2.212-4.114-4.03-6.826-5.018-3.116-1.173-6.496-1.445-9.8-1.304zm51.436 0c-5.13.193-10.348 1.665-14.44 4.84-1.755 1.591-3.454 3.356-4.404 5.57-1.929 4.08-1.29 9.003.894 12.835a10.417 10.417 0 0 0 3.354 3.527c2.187 1.243 4.966 1.347 7.215.179 1.668-.764 3.022-2.116 3.947-3.691 1.42-2.81.578-6.383-1.578-8.552-1.848-2.194-4.265-3.795-6.813-5.068 2.245-1.601 5.078-2.14 7.774-2.427 2.427-.14 5.036-.116 7.234 1.019.973.574 1.705 1.357 2.061 2.498 1 3.276.538 6.76.649 10.134v13.48c-5.388 1.81-10.79 3.682-15.857 6.282-4.122 2.097-7.897 5.104-10.271 9.126-2.796 5.012-3.54 10.844-3.78 16.499-.25 5.984-.073 12.124 1.856 17.85.91 2.59 2.272 5.03 4.347 6.852 2.712 2.589 6.686 3.499 10.373 3.244 3.661-.195 7.285-1.64 9.93-4.171a24.72 24.72 0 0 0 5.04-6.705c.574 2.513 1.231 5.135 2.81 7.22 1.422 1.757 3.49 2.918 5.743 3.3 3.745.622 7.765.648 11.304-.864 2.743-1.268 4.533-3.881 5.35-6.735 1.11-3.694 1.193-7.599 1.253-11.429h-5.814c-.053 2.938.148 5.938-.476 8.82-.239 1.245-1.774 1.51-2.764 1.054-.863-.872-.58-2.25-.688-3.372-.047-19.798.023-39.599-.035-59.397-.072-5.296-1.039-10.883-4.35-15.166-1.646-1.964-3.682-3.628-6.066-4.64-4.304-1.895-9.147-2.28-13.798-2.111zM134.794 57.4c1.618-.05 3.406.33 4.095 1.921 1.038 2.07 1.045 4.485 1.205 6.757.29 7.186.117 14.378.164 21.567h-12.293c.15-6.943.168-13.904.83-20.821.35-2.595.529-5.381 1.934-7.653.817-1.445 2.458-1.841 4.065-1.771zm237.278 0c1.618-.05 3.406.33 4.095 1.921 1.307 2.733 1.09 5.889 1.301 8.848.142 6.49.033 12.984.067 19.476h-12.293c.161-7.783.181-15.596 1.152-23.33.411-2.27.818-4.9 2.712-6.33.918-.487 1.94-.605 2.966-.585zm55.924 64.392c-.014 2.781-.068 5.746-1.381 8.252-.739 1.475-2.046 2.402-3.665 2.76-1.467.288-3.245.23-4.477-.475-.984-.717-1.488-1.8-1.797-3.056-.726-3.387-.594-6.89-.661-10.337.115-5.94-.182-11.971 1.14-17.803.46-1.995 1.247-3.905 2.45-5.566.575-.84 1.575-1.855 2.405-2.452 1.162-1.028 2.528-1.837 3.915-2.694.697-.393 1.38-.811 2.07-1.215v32.586zm-56.9-64.783c-2.064-.03-3.649 1.542-4.215 3.396-1.362 4.104-1.353 8.467-1.678 12.683-.25 4.921-.315 9.869-.39 14.79v.196h13.152v-.195c-.047-6.744.116-13.502-.078-20.255-.198-2.93-.043-6.125-1.522-8.858v-.04c-.56-.914-1.43-1.381-2.381-1.6-.95-.218-1.963-.183-2.888-.117zm0 .39c.91-.065 1.927-.085 2.81.118.882.203 1.65.633 2.146 1.444 1.391 2.599 1.245 5.75 1.444 8.703.192 6.673.036 13.333.078 20.02h-12.37c.074-4.857.143-9.71.39-14.557.326-4.239.303-8.544 1.638-12.566l.04-.04c.523-1.714 1.97-3.15 3.824-3.121zM221.198 20.832c-2.344.201-4.445 1.532-5.854 3.318-.899 1.04-1.669 2.584-1.835 4.097-.522 3.382 1.311 6.63 3.786 8.742 1.532 1.469 3.418 2.54 5.346 3.395-3.016 3.363-6.285 6.475-9.522 9.64l-.117.156.117.117c1.346 1.435 2.671 2.893 4.02 4.332l.117.156.156-.117c3.922-2.994 7.782-6.188 10.966-10.03 2.473-2.836 4.5-6.341 4.918-10.186.393-4.338-1.647-8.757-5.035-11.395-.99-.784-2.367-1.583-3.746-1.912a9.057 9.057 0 0 0-3.317-.313zm0 .39c1.067-.103 2.2.024 3.239.313 1.296.31 2.64 1.082 3.59 1.834 3.277 2.553 5.259 6.853 4.878 11.044-.405 3.733-2.402 7.158-4.839 9.952-3.118 3.761-6.903 6.916-10.771 9.874-1.25-1.337-2.494-2.681-3.747-4.02 3.263-3.188 6.556-6.38 9.6-9.796l.196-.195-.273-.117c-1.997-.863-3.95-1.945-5.503-3.434-2.394-2.043-4.124-5.187-3.63-8.39.155-1.411.875-2.928 1.718-3.903 1.35-1.711 3.327-2.971 5.542-3.161zm327.817-2.302c-8.132.607-16.261 1.252-24.391 1.873h-.117l-.078.117c-.173.326-.132.717-.117 1.132.015.415.035.849 0 1.171v4.371h.195c1.568.118 3.132-.253 4.527.234.565.211.911.73 1.132 1.366.22.636.31 1.367.312 2.03-.01 34.105.032 68.221 0 102.325a2.7 2.7 0 0 1-.469 1.405c-.265.373-.609.618-1.131.664h-.04c-.703.118-1.43.064-2.185.078h-.195v6.828h26.772V135.685h-.195c-1.2-.096-2.404.154-3.395-.313-.3-.42-.421-.918-.43-1.483-.009-.592.057-1.229 0-1.834.014-19.456-.01-38.889.04-58.343.083-3.196.182-6.578 1.755-9.367.487-.745.857-1.302 1.561-1.834.774-.441 1.747-.953 2.693-1.054 1.51-.242 3.32-.186 4.527.547.849.646 1.312 1.578 1.561 2.614.25 1.037.305 2.158.352 3.2.11 7.431.007 14.886.039 22.323-.01 14.549-.003 29.085-.04 43.631-.013.487-.17.977-.468 1.327a1.51 1.51 0 0 1-1.21.547c-.838.05-1.71.024-2.575.039h-.195v6.829h27.396V135.685h-.195c-.662-.056-1.38.031-2.03 0-.63-.03-1.152-.157-1.56-.625-.006-.012.004-.027 0-.039-.62-1.455-.285-3.176-.391-4.839v-.039c-.013-21.599.047-43.223 0-64.822-.182-3.956-.857-8.183-3.434-11.396-1.654-2.075-4.132-3.395-6.713-3.98-4.05-.862-8.488-.871-12.293 1.014-3.252 1.484-5.766 4.14-7.922 6.869-.224.26-.475.67-.703 1.015-.072.109-.13.181-.195.273V18.919h-.195zm-.195.39v40.665l.273-.156c.145-.065.208-.138.312-.273.105-.134.236-.332.352-.507.23-.35.477-.721.663-.937 2.141-2.71 4.608-5.35 7.766-6.79 3.695-1.832 8.067-1.826 12.06-.976 2.507.568 4.893 1.837 6.478 3.825 2.49 3.104 3.136 7.237 3.317 11.16.046 21.612.025 43.25.039 64.862.11 1.605-.323 3.405.39 5.034l.039.04c.503.613 1.213.785 1.912.819.633.03 1.275-.023 1.835 0v6.049H557.64v-6.05c.785-.005 1.578.048 2.38 0 .63.006 1.16-.314 1.522-.74.363-.427.57-.987.586-1.562.036-14.547-.01-29.083 0-43.63-.031-7.434.072-14.886-.04-22.323-.046-1.04-.089-2.188-.35-3.279-.262-1.09-.738-2.132-1.679-2.848h-.039c-1.336-.83-3.226-.912-4.8-.664-.012.002-.027-.002-.039 0-1.051.123-2.083.734-2.849 1.17-.76.574-1.19 1.205-1.678 1.952-1.637 2.9-1.75 6.365-1.834 9.562-.049 19.455.014 38.888 0 58.343v.04c.051.544-.01 1.167 0 1.794.01.628.092 1.264.507 1.796l.04.039.038.039c1.111.569 2.348.269 3.435.312v6.049h-25.992v-6.05c.658-.001 1.342.033 2.03-.077h.039a2.013 2.013 0 0 0 1.444-.82c.322-.452.478-1.051.507-1.639.032-34.104-.01-68.22 0-102.326-.003-.69-.069-1.483-.312-2.185-.244-.702-.66-1.297-1.366-1.561-1.473-.514-3.057-.204-4.488-.273v-3.983c.036-.376.014-.784 0-1.17a2.38 2.38 0 0 1 .117-.86c8.002-.611 16-1.275 24.001-1.873zm-68.569-.39c-8.131.607-16.26 1.252-24.39 1.873h-.118l-.078.117c-.173.326-.132.717-.117 1.132.015.415.035.849 0 1.171v4.371h.195c1.771.11 3.557-.227 5.152.312.012.004.026-.004.039 0 .536.442.718 1.06.78 1.756.063.704-.003 1.476.04 2.186 0 .012-.002.026 0 .039-.01 33.81.028 67.62 0 101.428v.04c.018.486-.024 1.039-.196 1.482-.172.443-.471.758-1.015.82-.851.119-1.719.063-2.614.078h-.195v6.789h29.23V135.685h-.195c-1.714-.088-3.425.174-5.035-.156-.634-.187-.918-.656-1.092-1.25-.174-.592-.196-1.306-.195-1.912V18.92h-.196zm-.195.39v113.058c0 .61 0 1.36.195 2.03.197.67.63 1.294 1.405 1.522 1.639.336 3.317.1 4.918.156v6.049h-28.45v-6.01c.813-.004 1.657.04 2.497-.078.688-.079 1.082-.522 1.288-1.054.207-.531.255-1.162.234-1.678.03-33.822-.008-67.645 0-101.467-.043-.671.03-1.456-.039-2.225-.068-.769-.295-1.538-.975-2.068l-.04-.04c-1.675-.582-3.492-.242-5.15-.311v-3.983c.035-.376.013-.784 0-1.17-.013-.353.044-.66.116-.86 8.002-.611 16-1.275 24.001-1.873zm-211.832 1.483v6.791h.195c1.85.115 3.692-.26 5.385.273.643.197 1.066.688 1.327 1.327.257.628.357 1.401.43 2.068v.04c.229 5.256.062 10.528.117 15.805-.007 28.538.024 57.086 0 85.623.018.6-.104 1.307-.39 1.834-.288.527-.743.881-1.406.937-1.756.366-3.609.11-5.463.195h-.195v6.828h35.747V135.685h-.195c-1.899-.103-3.803.205-5.58-.234-.729-.236-1.165-.8-1.444-1.523-.28-.723-.419-1.584-.469-2.341-.119-6.513-.005-13.03-.039-19.552V84.951h22.87c-.015 15.335.013 30.679-.04 46.012v.039c-.051.788-.086 1.685-.312 2.458-.224.767-.646 1.427-1.327 1.834-1.55.672-3.347.276-5.112.39-.026.002-.052-.001-.078 0-.26-.06-.508-.05-.663.079-.174.144-.225.341-.235.546-.02.41.086.888.04 1.132v5.073h35.591V135.685h-.195c-1.839-.126-3.692.296-5.347-.313-.774-.366-1.175-1.028-1.405-1.834-.23-.806-.247-1.762-.273-2.575-.138-6.14-.04-12.27-.078-18.42.01-26.374-.035-52.773 0-79.145v-.04c.048-.91.05-1.952.195-2.887.148-.947.45-1.778 1.132-2.342 1.517-.915 3.44-.416 5.269-.546h.039c.122.016.21.034.312 0a.569.569 0 0 0 .273-.234c.118-.188.127-.404.117-.625-.01-.22-.02-.455-.039-.663-.018-.208-.03-.37 0-.468v-4.801h-35.592v6.791h.196c1.875.105 3.752-.21 5.502.234.732.207 1.183.73 1.483 1.444.3.713.419 1.59.468 2.342.154 4.535.036 9.067.079 13.62v31.845h-22.87c.014-14.919-.01-29.847.04-44.763v-.039c.085-1.492.164-3.257 1.248-4.137 1.519-.913 3.438-.423 5.269-.546.025-.002.052.002.078 0 .256.069.482.102.663.039.202-.07.328-.25.39-.43.124-.36.06-.775.04-1.17v-5.23h-35.748zm.39.39h34.967v4.84c.022.41.033.846-.039 1.054-.036.103-.075.128-.156.156-.08.028-.215.039-.468-.04h-.078c-1.754.135-3.824-.408-5.542.625-1.28 1.039-1.358 2.955-1.444 4.449-.05 14.996.015 30.001 0 44.997v.195h23.65V45.224c-.043-4.543.076-9.068-.078-13.62v-.04c-.051-.775-.179-1.677-.508-2.458-.328-.781-.845-1.432-1.717-1.678h-.039c-1.794-.455-3.63-.165-5.385-.234v-6.01h34.81v4.332c-.05.19-.057.376-.038.585.02.223.07.472.078.663.008.191-.005.337-.04.39-.016.028-.045.029-.077.04a.446.446 0 0 1-.195 0h-.04c-1.74.132-3.796-.405-5.502.624-.787.65-1.133 1.62-1.288 2.615-.155.995-.146 2.029-.195 2.927-.035 26.386.01 52.797 0 79.183.038 6.145-.1 12.309.039 18.46.026.815.064 1.743.312 2.614.249.872.742 1.683 1.64 2.108 1.732.636 3.6.272 5.307.35v6.05h-34.811v-4.605c.002-.013-.002-.026 0-.04.061-.388-.054-.823-.04-1.13a.374.374 0 0 1 .118-.274c.034-.029.111-.07.35 0h.079c1.7-.127 3.577.359 5.307-.39l.04-.04c.823-.468 1.236-1.223 1.483-2.068.246-.845.338-1.777.39-2.575.053-15.413-.015-30.834 0-46.246v-.195h-23.65v27.474c.033 6.517-.08 13.03.04 19.552v.039c.05.774.162 1.668.467 2.459.306.79.814 1.477 1.679 1.756h.039c1.831.465 3.709.165 5.502.234v6.049h-34.967v-6.05c1.731-.055 3.538.166 5.308-.194.02-.002.018-.037.039-.04.767-.085 1.354-.497 1.678-1.092.332-.611.45-1.368.429-2.03.024-28.537-.007-57.084 0-85.622-.055-5.278.115-10.555-.117-15.845-.073-.687-.18-1.52-.468-2.224-.288-.704-.78-1.322-1.561-1.561-1.757-.553-3.585-.2-5.308-.273v-6.01zm-249.61-.312v6.595h2.694c1.467 0 2.644.858 3.472 2.458.829 1.6 1.288 3.952 1.288 6.791v89.72c0 2.765-.457 5.13-1.288 6.791-.83 1.661-2.012 2.576-3.473 2.576h-2.693v6.595h24.548v-6.595h-3.903c-1.624 0-2.8-.917-3.59-2.576-.792-1.659-1.171-4.022-1.171-6.79V50.842l19.083 91.243.04.156h9.599l.039-.156 19.084-91.36v77.233c0 2.775-.227 4.787-.82 6.049-.592 1.262-1.472 1.795-2.966 1.795h-4.566v6.595h35.201v-6.595h-2.808c-1.495 0-2.412-.533-3.005-1.795-.594-1.262-.82-3.274-.82-6.05V35.31c0-2.773.226-4.75.82-6.01.593-1.26 1.51-1.834 3.005-1.834h2.809V20.87H80.158l-.04.196-14.946 75.437-15.884-75.476-.039-.157H19.004zm.43.43h29.503l16.04 76.256.39-.039v-.078L80.47 21.3h28.723v5.777h-2.42c-1.6 0-2.712.661-3.356 2.029-.644 1.368-.858 3.41-.858 6.205v92.648c0 2.797.214 4.836.858 6.205.644 1.369 1.756 2.068 3.357 2.068h2.42v5.776H74.81v-5.776h4.137c1.6 0 2.675-.7 3.317-2.068.643-1.37.898-3.408.898-6.205V48.617h-.195l-.195-.038v.039h-.04v.156L63.3 141.851h-8.976L34.888 48.93v-.04l-.195.04h-.195v77.505c0 2.805.377 5.2 1.21 6.946.832 1.746 2.16 2.849 3.941 2.849h3.512v5.776H19.434v-5.776h2.263c1.634 0 2.953-1.106 3.825-2.849.87-1.743 1.327-4.138 1.326-6.946v-89.72c0-2.882-.453-5.26-1.326-6.947-.873-1.686-2.198-2.692-3.825-2.692h-2.263V21.3zm484.038 5.658l-.078.118-.04.078c-2.066 6.076-4.053 12.26-7.14 17.873-1.007 1.671-2.1 3.323-3.591 4.41-1.79 1.468-4.237 1.564-6.518 1.483h-.039c-.28-.063-.514-.04-.663.117-.157.167-.195.41-.195.625-.001.215.021.415.039.624.017.21.028.396 0 .508v5.424h6.205c.013 22.843-.046 45.687 0 68.53.186 4.047.36 8.372 2.459 12.02h.039c1.406 2.095 3.519 3.718 6.01 4.332 3.806 1.104 7.812 1.092 11.707.78h.04c3.412-.43 6.886-1.748 9.092-4.527 1.975-2.351 2.906-5.436 3.318-8.43.497-4.33.188-8.684.273-12.995v-5.114h-7.259v.196c-.04 5.643.082 11.27-.078 16.898-.082.847-.152 1.778-.39 2.615-.234.818-.644 1.544-1.366 1.99a3.945 3.945 0 0 1-2.537.351c-.843-.176-1.555-.638-1.912-1.444-1.012-2.58-.599-5.468-.703-8.273V58.374h13.933V50.92h-13.776V26.958h-6.83zm.273.39h6.166v23.963h13.776v6.673h-13.932v67.163c.102 2.753-.36 5.72.703 8.43.415.938 1.286 1.481 2.224 1.677.938.196 1.952.08 2.77-.35v-.04h.04c.864-.508 1.306-1.331 1.56-2.224.256-.894.31-1.855.391-2.693.159-5.577.042-11.171.078-16.742H524v4.722c-.086 4.335.218 8.636-.274 12.917-.406 2.95-1.336 6.008-3.239 8.274-2.109 2.656-5.486 3.945-8.82 4.37-.012.002-.026 0-.039 0-3.86.308-7.83.3-11.551-.78h-.04c-2.386-.587-4.42-2.118-5.775-4.136-2.035-3.538-2.195-7.777-2.38-11.825-.046-22.907-.027-45.817-.04-68.725v-.195h-6.205v-4.957c.04-.192.018-.417 0-.624-.019-.22-.04-.409-.039-.585 0-.177.044-.316.078-.351.034-.036.12-.061.351 0h.04c2.31.083 4.86.021 6.79-1.561 1.573-1.148 2.658-2.85 3.668-4.527v-.04c3.106-5.645 5.159-11.772 7.22-17.834zm-307.407 22.09c-4.07.28-8.021 2.088-10.888 4.956a26.893 26.893 0 0 0-4.02 4.839v-9.366h-.195c-8.08.54-16.157 1.138-24.235 1.678h-.195v6.828H157c1.58.115 3.155-.248 4.566.234.577.234.92.732 1.132 1.366.212.635.268 1.384.273 2.03.055 18.314.023 36.632.039 54.948-.034 5.529.082 11.069-.04 16.586a2.725 2.725 0 0 1-.467 1.405c-.266.374-.61.621-1.132.664h-.04c-1.369.161-2.755.038-4.175.078h-.195v6.829h28.801V135.685h-.195c-1.213-.098-2.43.157-3.434-.313-.317-.51-.423-1.107-.43-1.756-.007-.663.052-1.358 0-2.03v-.038c.014-19.276-.01-38.562.04-57.836.113-3.195.16-6.594 1.755-9.367.38-.657.983-1.409 1.562-1.795 1.905-1.33 4.488-1.578 6.673-.82.707.266 1.226.846 1.6 1.562.374.716.61 1.556.702 2.341.377 3.682.12 7.43.196 11.162-.01 19.002-.003 37.977-.04 56.977h.04c-.037.533-.23.995-.508 1.327-.277.332-.637.523-1.17.547-.852.05-1.737.024-2.615.039h-.195v6.829h27.396V135.685h-.195c-.662-.054-1.379.032-2.03 0-.632-.032-1.159-.16-1.56-.625-.006-.012.004-.027 0-.039-.62-1.455-.285-3.176-.391-4.839v-.039c-.013-21.599.047-43.223 0-64.822-.188-3.77-.758-7.814-3.083-10.966-2.257-3.218-6.27-4.662-10.069-4.879-1.166-.124-2.31-.106-3.473-.039zm0 .39c1.148-.067 2.297-.083 3.434.039l.04.039c3.713.211 7.594 1.601 9.756 4.683v.039c2.246 3.045 2.78 6.948 2.966 10.693.046 21.611.025 43.248.039 64.861.11 1.605-.323 3.405.39 5.034l.04.04c.496.61 1.21.784 1.911.819.634.032 1.273-.022 1.835 0v6.049h-26.616v-6.05c.798-.005 1.604.049 2.42 0a2.028 2.028 0 0 0 1.482-.74c.345-.413.545-.925.586-1.523v-.039c.036-19-.01-38.014 0-57.016-.075-3.709.186-7.435-.195-11.162-.097-.824-.337-1.723-.742-2.498-.405-.774-.972-1.447-1.795-1.756-2.303-.8-5.04-.516-7.064.898-.673.449-1.239 1.22-1.639 1.912-1.662 2.889-1.76 6.371-1.873 9.562-.049 19.289.014 38.586 0 57.875.053.63-.008 1.321 0 2.03.008.707.092 1.448.507 2.068l.04.039.038.039c1.125.572 2.374.267 3.474.312v6.049h-28.02v-6.05c1.327-.023 2.699.083 4.058-.077a1.912 1.912 0 0 0 1.444-.82c.321-.453.477-1.054.507-1.639.121-5.528.006-11.064.04-16.586-.016-18.315.054-36.633 0-54.948-.006-.67-.079-1.446-.313-2.147-.234-.7-.653-1.312-1.366-1.6-1.486-.508-3.08-.205-4.527-.273v-6.049c7.95-.533 15.896-1.146 23.845-1.678v10.225l.351-.586c1.174-1.943 2.688-3.615 4.332-5.19 2.798-2.799 6.647-4.605 10.615-4.878zm225.804-.39c-5.18.178-10.446 1.675-14.596 4.878-1.922 1.731-3.82 3.712-4.722 6.244h.04c-1.83 4.432-.856 9.66 1.833 13.503 1.215 1.564 2.842 2.93 4.879 3.356 2.88.699 5.968-.506 7.922-2.615 2.123-2.03 2.692-5.416 1.405-8.078-1.077-2.445-3.174-4.217-5.269-5.698v-.039a26.25 26.25 0 0 0-2.888-1.717c1.905-1.302 4.295-1.792 6.596-2.186h.039c2.638-.187 5.455-.264 7.805.937.943.557 1.65 1.288 1.99 2.38.983 3.222.513 6.712.625 10.108V83.82c-5.852 2.019-11.774 4.022-17.21 7.064-3.913 2.252-7.426 5.398-9.484 9.483-2.251 4.634-2.939 9.8-3.2 14.87-.277 6.154-.157 12.524 1.795 18.458.976 2.743 2.459 5.35 4.722 7.26 2.755 2.467 6.645 3.33 10.264 3.082 4.181-.211 8.268-2.094 11.044-5.23 1.51-1.607 2.773-3.431 3.825-5.385.715 2.982 1.524 6.231 4.098 8.235 2.446 2.08 5.863 2.343 8.897 2.42 3.473-.017 7.42-.634 9.874-3.396 2.02-2.064 2.8-4.996 3.317-7.727.446-2.818.532-5.673.547-8.508v-.195h-6.206v.195c-.038 2.857.103 5.723-.39 8.508-.129.85-.852 1.478-1.717 1.366h-.039c-.426.068-.712-.106-.937-.39a1.706 1.706 0 0 1-.35-1.093c-.246-4.218-.059-8.478-.118-12.723-.018-16.273.023-32.547-.039-48.821-.094-5.238-1.073-10.76-4.37-15.025-1.663-1.984-3.71-3.695-6.128-4.722-4.334-1.914-9.2-2.272-13.854-2.108zm0 .39c4.623-.164 9.447.23 13.698 2.107 2.349.997 4.341 2.621 5.971 4.566 3.219 4.163 4.2 9.599 4.293 14.79.062 16.273.021 32.548.039 48.822.059 4.23-.13 8.478.117 12.723-.023.486.094.991.39 1.366.278.352.77.517 1.288.468.033-.003.045.044.078.039.004 0-.004-.04 0-.039a1.915 1.915 0 0 0 2.068-1.64c.493-2.778.362-5.613.39-8.39h5.425c-.017 2.763-.116 5.514-.546 8.235-.512 2.709-1.278 5.566-3.2 7.532h-.04c-2.332 2.624-6.134 3.262-9.56 3.278-3.019-.076-6.307-.37-8.625-2.342-2.557-1.99-3.357-5.334-4.098-8.43l-.117-.546-.273.508a25.01 25.01 0 0 1-4.02 5.698c-2.699 3.048-6.694 4.867-10.771 5.073-3.537.242-7.342-.632-9.99-3.005-2.191-1.847-3.606-4.403-4.567-7.103-1.926-5.859-2.071-12.126-1.795-18.264.26-5.046.986-10.194 3.2-14.752 2.014-3.996 5.426-7.064 9.288-9.288 5.429-3.037 11.397-5.03 17.289-7.064l.117-.039V70.473c-.11-3.351.352-6.856-.664-10.185-.37-1.192-1.142-1.984-2.146-2.576v-.04c-2.48-1.267-5.377-1.166-8.04-.975h-.038c-2.43.415-5.047.874-7.103 2.42l-.273.195.312.156a25.471 25.471 0 0 1 3.161 1.873c2.074 1.466 4.123 3.207 5.152 5.542 1.208 2.5.66 5.748-1.327 7.65h-.04c-1.862 2.01-4.815 3.155-7.531 2.497-1.913-.401-3.468-1.684-4.644-3.2-2.618-3.741-3.564-8.83-1.796-13.113.865-2.43 2.661-4.372 4.566-6.088 4.069-3.14 9.25-4.624 14.362-4.8zm-51.475-.39c-5.31.327-10.385 2.913-13.893 6.868-3.472 3.569-5.75 8.1-7.454 12.722-3.267 9.135-4.118 18.909-4.176 28.528.12 8.971.62 18.1 3.2 26.772 1.248 4.056 2.94 8.008 5.542 11.396 2.043 2.512 4.55 4.742 7.532 6.127 4.68 2.25 10.038 2.525 15.103 1.99 4.138-.446 8.53-1.652 11.512-4.761 1.067-1.044 1.877-2.053 2.615-3.395 2.415-4.433 2.924-9.588 3.044-14.518a92.227 92.227 0 0 0-.273-7.532v-.195h-7.103v.195c.075 4.784.11 9.63-.78 14.323-.407 2.064-1.157 4.196-2.654 5.541-2.279 1.834-5.465 1.618-8.313 1.483-2.016-.159-4.048-.81-5.385-2.341-.584-.744-1.26-1.884-1.6-2.966-1.535-4.496-1.636-9.307-1.913-14.05-.229-7.018-.25-14.049-.234-21.074h29.543v-.195c-.06-9.654-.343-19.433-2.849-28.84v-.039c-1.177-3.717-2.607-7.524-5.347-10.42-2.562-2.976-6.285-4.752-10.146-5.307-1.974-.345-3.986-.386-5.971-.313zm0 .39c1.97-.074 3.999-.026 5.932.312 3.777.543 7.383 2.298 9.873 5.19 2.66 2.81 4.099 6.573 5.269 10.264.003.012-.004.027 0 .04 2.464 9.273 2.786 18.956 2.849 28.527h-29.543v.195c-.018 7.092.003 14.178.234 21.27.276 4.732.352 9.632 1.912 14.205.364 1.153 1.07 2.268 1.679 3.044 1.43 1.637 3.574 2.372 5.658 2.536h.04c2.84.135 6.117.355 8.546-1.6 1.602-1.44 2.395-3.668 2.81-5.775v-.04c.889-4.68.854-9.443.78-14.166h6.323c.182 2.436.285 4.894.273 7.337-.12 4.908-.64 9.983-3.005 14.323-.72 1.31-1.491 2.293-2.537 3.317h-.039c-2.882 3.005-7.147 4.202-11.24 4.644-5.022.53-10.283.252-14.868-1.951h-.04c-2.91-1.352-5.36-3.533-7.375-6.01-2.561-3.335-4.224-7.25-5.464-11.279-2.562-8.612-3.08-17.695-3.2-26.655.058-9.597.932-19.3 4.176-28.371 1.693-4.595 3.922-9.096 7.337-12.606h.039c3.44-3.877 8.384-6.43 13.58-6.751zm-128.317-.43c-.882.003-1.792-.025-2.693.078-.013.002-.026-.001-.04 0-5.153.367-10.314 2.58-13.62 6.635-3.155 3.648-4.612 8.55-4.878 13.308-.213 5.01.127 10.143 1.874 14.908 1.618 4.555 4.515 8.538 7.57 12.176 4.206 5.009 8.654 9.782 12.84 14.79.915 1.305 2.11 2.678 2.966 4.098l.04.04c2.332 3.338 3.476 7.44 3.238 11.512-.102 2.278-.377 4.673-1.717 6.517-.74.99-2.12 1.85-3.434 2.147-2.013.532-4.197.524-6.244.117a8.172 8.172 0 0 1-4.527-2.888c-.8-1.17-1.628-2.633-2.108-4.059-1.72-4.827-2.112-9.995-2.966-15.064v-.078l-.117-.078c-.325-.173-.716-.132-1.131-.117-.415.015-.849.035-1.171 0h-5.034v29.074h6.322l.039-.156c.368-1.7.9-3.53 2.224-4.644.178-.144.294-.168.43-.156a.98.98 0 0 1 .468.195c.304.229.594.62.897.898 3.382 3.51 8.302 5.379 13.152 5.424 4.835.07 9.854-1.13 13.698-4.215 2.145-1.786 3.996-4.005 5.152-6.595 2.68-5.548 2.81-11.897 2.185-17.874-.555-5.489-2.651-10.732-5.815-15.22-2.224-3.18-4.798-6.056-7.337-8.976-3.07-3.46-6.304-6.762-9.21-10.342-.953-1.333-2.144-2.793-3.044-4.254-2.096-3.288-3.043-7.263-2.888-11.161.015-1.886.422-3.958 1.483-5.386 1.574-1.952 4.45-2.31 6.947-2.107 1.906.074 3.83.618 5.268 1.873.48.317.94.951 1.288 1.522 1.751 2.668 2.114 6.005 2.498 9.171.292 2.393.63 4.793.898 7.181v.156h7.453V50.92h-6.166l-.039.156c-.194 1.515-.097 3.112-.624 4.45-.063.125-.058.117-.078.117a.52.52 0 0 1-.195-.118c-.097-.08-.204-.202-.312-.312a1.88 1.88 0 0 0-.313-.273c-.013-.012-.025-.027-.039-.039-3.623-3.151-8.316-5.298-13.19-5.503zm0 .39c4.785.202 9.388 2.346 12.956 5.464h.04c.045.025.13.13.233.234.104.106.227.248.352.352a.763.763 0 0 0 .468.195c.185.004.368-.15.468-.351.553-1.402.425-2.953.586-4.371h5.463v26.147h-6.712c-.265-2.342-.574-4.65-.859-6.986-.383-3.162-.716-6.554-2.537-9.327-.36-.59-.826-1.256-1.404-1.639-1.529-1.334-3.534-1.875-5.503-1.951-2.557-.209-5.553.146-7.259 2.263-1.141 1.536-1.546 3.68-1.561 5.62-.158 3.972.782 7.992 2.927 11.357.921 1.494 2.142 2.977 3.083 4.292 2.92 3.599 6.147 6.93 9.21 10.381 2.542 2.923 5.092 5.784 7.298 8.937 3.127 4.437 5.228 9.611 5.776 15.025.622 5.943.484 12.234-2.147 17.679-1.125 2.522-2.926 4.684-5.034 6.44-3.75 3.008-8.699 4.166-13.464 4.097-4.75-.045-9.582-1.846-12.878-5.269v-.039c-.256-.234-.563-.616-.937-.897a1.333 1.333 0 0 0-.663-.273c-.24-.021-.503.04-.742.234-1.404 1.18-1.93 3.043-2.303 4.722h-5.62V113.83h4.645c.376.036.784.014 1.17 0 .369-.013.701.036.898.117.83 4.995 1.2 10.143 2.927 14.986.499 1.482 1.372 2.949 2.186 4.137 1.231 1.532 2.807 2.572 4.722 3.044h.039c2.097.417 4.315.434 6.4-.117 1.414-.32 2.854-1.214 3.668-2.303 1.42-1.954 1.693-4.414 1.796-6.712.243-4.164-.933-8.372-3.318-11.786-.882-1.465-2.11-2.86-3.005-4.137-4.194-5.019-8.642-9.83-12.84-14.83-3.043-3.622-5.9-7.576-7.492-12.059-1.72-4.694-2.086-9.771-1.873-14.751.261-4.692 1.72-9.474 4.8-13.035 3.23-3.963 8.276-6.165 13.347-6.517h.039c.875-.104 1.75-.075 2.654-.078zm-107.556-.273c-7.573 0-14.282 4.029-19.084 12.02-4.801 7.992-7.727 19.909-7.727 35.787.001 17.424 2.684 29.069 7.376 36.372 4.693 7.304 11.42 10.264 19.435 10.264 7.61 0 13.409-1.657 17.054-6.283 3.646-4.626 5.106-12.182 4.176-23.962v-.156h-6.907l.039.195c.234 9.89-.485 15.278-2.108 18.147-.811 1.435-1.84 2.223-3.122 2.693-1.281.47-2.836.585-4.644.585-2.651 0-4.642-.324-6.166-1.327-1.524-1.002-2.6-2.666-3.356-5.385-1.513-5.438-1.717-15.02-1.717-31.416v-2.615h29.542v-.195c0-16.562-1.583-27.717-5.23-34.772-3.645-7.055-9.393-9.952-17.56-9.952zm0 .39c8.074 0 13.622 2.813 17.21 9.757 3.574 6.914 5.177 17.962 5.191 34.382h-29.543v3.005c0 16.4.175 25.988 1.718 31.533.77 2.772 1.89 4.514 3.512 5.58 1.623 1.067 3.714 1.445 6.4 1.445 1.825 0 3.404-.127 4.761-.625 1.358-.497 2.505-1.383 3.357-2.888 1.688-2.985 2.363-8.391 2.146-18.147h6.088c.891 11.61-.573 19.02-4.098 23.494-3.547 4.5-9.188 6.127-16.742 6.127-7.918 0-14.497-2.87-19.123-10.069-4.625-7.199-7.297-18.794-7.297-36.177 0-15.83 2.9-27.69 7.649-35.591 4.748-7.902 11.34-11.825 18.771-11.825zm-.976 7.103c-2.12-.041-3.696 1.658-4.253 3.552-1.33 4.156-1.314 8.54-1.64 12.8-.234 4.838-.318 9.679-.39 14.518v.195h13.152v-.195c-.046-6.744.116-13.502-.078-20.255-.197-2.93-.043-6.125-1.522-8.858v-.04c-.56-.914-1.43-1.381-2.38-1.6-.951-.218-1.963-.183-2.889-.117zm0 .39c.911-.065 1.928-.085 2.81.118.883.203 1.65.633 2.147 1.444 1.39 2.599 1.245 5.75 1.444 8.703.192 6.673.036 13.333.078 20.02h-12.371c.07-4.774.159-9.558.39-14.323.326-4.282.295-8.607 1.6-12.683v-.04c.517-1.757 1.999-3.276 3.902-3.238zm294.607 30.987l-.312.195-.078.04-.117.077c-1.96 1.203-4.058 2.25-5.815 3.786-1.111.726-2.125 1.97-3.005 3.005h-.04c-2.63 3.828-2.991 8.63-3.277 13.074-.187 5.697-.344 11.428-.04 17.132.19 1.967.314 4.192 1.445 5.932.953 1.489 2.76 1.828 4.37 1.756h.04c1.856.003 3.763-.707 4.878-2.263 1.612-2.163 1.82-5.047 1.951-7.61.043-11.592-.012-23.182 0-34.773v-.35zm-.39.703c-.011 11.474.003 22.948-.04 34.42-.13 2.558-.314 5.338-1.833 7.376-1.031 1.44-2.84 2.12-4.605 2.108-1.549.075-3.207-.27-4.06-1.6-1.05-1.617-1.136-3.756-1.326-5.737-.303-5.684-.187-11.399 0-17.093.284-4.421.674-9.092 3.2-12.8.012-.014.027-.026.04-.04.873-1.028 1.912-2.264 2.926-2.927 1.67-1.46 3.754-2.523 5.698-3.707z"/><path fill="#e2001a" d="M547.805 17.71l-.195.038-24.274 1.835-.195.039v6.556h3.278c.975 0 1.67.22 2.147.82.476.599.741 1.637.741 3.317v100.843c0 1.377-.138 2.216-.546 2.692-.409.477-1.124.664-2.342.664h-1.132v6.4h.195v.195h26.343v-6.595h-1.873c-.99 0-1.532-.111-1.795-.39-.264-.28-.352-.8-.352-1.718v-59.24c0-3.78.329-7.12 1.444-9.484 1.116-2.365 2.976-3.786 6.244-3.786 1.178 0 2.092.193 2.771.547.68.354 1.14.868 1.483 1.6.687 1.464.82 3.778.82 6.946v62.95c0 1.128-.276 1.75-.703 2.107-.426.357-1.04.468-1.873.468h-1.911v6.595h27.162v-6.595h-1.6c-1.064 0-1.702-.146-2.069-.546-.367-.401-.507-1.12-.507-2.342V65.594c0-5.592-1.013-9.964-3.434-12.917-2.422-2.954-6.26-4.45-11.786-4.45-7 0-12.048 4.023-16.04 10.108V17.71zm-.39.429v41.484l.39-.585c4.002-6.31 9.002-10.42 16.04-10.42 5.453 0 9.14 1.485 11.474 4.332 2.334 2.847 3.356 7.1 3.356 12.644v66.032c0 1.255.14 2.087.624 2.615.484.527 1.24.663 2.342.663h1.21v5.815h-26.382v-5.815h1.522c.87 0 1.604-.092 2.146-.546.543-.455.82-1.229.82-2.42V68.99c0-3.178-.113-5.513-.859-7.102-.372-.795-.882-1.401-1.639-1.796-.756-.394-1.747-.585-2.966-.585-3.386 0-5.43 1.512-6.595 3.98-1.165 2.47-1.483 5.878-1.483 9.68v59.24c0 .94.075 1.574.468 1.99.394.418 1.048.508 2.069.508h1.483v5.815h-25.718v-5.815h.702c1.26 0 2.134-.174 2.654-.78.52-.607.663-1.56.663-2.966V30.315c0-1.722-.29-2.838-.858-3.552-.568-.713-1.423-.975-2.459-.975h-2.888v-5.776l23.884-1.873zM420.027 131.788c-4.956 0-5.414-3.254-5.414-14.857 0-20.414 1.391-23.199 12.22-29.236v32.794c0 6.504-1.083 11.299-6.806 11.299M126.543 86.466c.46-27.536 1.393-30.476 6.961-30.476 6.188 0 5.565 3.558 5.565 30.476h-12.526zm6.961 55.995c15.16 0 22.895-6.501 21.034-30.01h-6.493c.46 19.797-2.788 21.657-10.055 21.657-10.674 0-11.448-5.574-11.448-38.364V92.96h29.542c0-33.101-6.343-44.544-22.581-44.544-15.01 0-26.608 15.929-26.608 47.638.002 34.8 10.676 46.407 26.61 46.407zm110.238 0c13.299 0 20.724-8.976 20.724-22.59 0-14.228-4.945-20.41-15.16-31.708-9.74-10.673-13.453-14.693-13.453-23.509 0-5.106 1.701-8.353 7.58-8.353 5.874 0 9.28 2.32 10.36 11.288l1.082 8.667h6.808V49.962h-5.569c-.305 3.245-.305 5.1-1.238 4.633-1.387-1.233-6.8-6.18-14.536-6.18-10.674 0-20.265 6.802-20.265 21.807 0 14.075 4.796 19.642 15.16 31.404 8.973 10.205 13.454 14.691 13.454 23.04 0 6.652-1.852 10.365-8.813 10.365-5.882 0-9.75-2.784-11.602-14.543l-1.238-8.04h-6.806v28.465h5.724c.618-2.944 2.165-5.729 3.558-4.8 2.008 2.322 6.65 6.348 14.23 6.348zm127.043 0c15.161 0 22.895-6.501 21.034-30.01h-6.492c.464 19.797-2.784 21.657-10.056 21.657-10.674 0-11.447-5.574-11.447-38.364V92.96h29.541c0-33.101-6.336-44.544-22.58-44.544-15.006 0-26.607 15.929-26.607 47.638 0 34.8 10.678 46.407 26.607 46.407zm41.508 0c9.127 0 13.612-6.501 16.088-11.142 1.546 7.115 3.553 11.142 12.993 11.142 10.825 0 13.299-6.501 13.299-19.182h-5.564c0 9.128-.314 10.056-2.32 10.056-1.86 0-1.86-.773-1.86-5.883V71.15c0-18.102-9.742-22.735-22.58-22.735-16.4 0-25.68 11.443-19.491 22.89 2.629 4.793 7.734 6.185 12.06 2.94 4.492-3.401 5.265-10.522-6.182-16.24 1.546-1.395 6.032-2.634 9.126-2.634 8.973 0 8.973 3.253 8.973 11.606v15.774c-22.275 7.584-30.01 11.757-30.01 35.738-.002 18.556 7.113 23.971 15.468 23.971zm-256.308-1.546h28.154v-6.188h-1.706c-2.01 0-2.32-.468-2.32-2.32V73.164c0-7.58 1.237-13.46 7.889-13.46 4.795 0 5.264 2.94 5.264 9.281v62.954c0 2.32-1.088 2.788-2.79 2.788h-1.7v6.188h26.757v-6.188h-1.387c-2.166 0-2.784-.62-2.784-3.094v-66.05c0-11.14-4.022-17.169-15-17.169-7.121 0-12.535 4.175-16.558 10.514V48.874l-23.972 1.701v6.188h3.094c2.011 0 3.095.93 3.095 4.33v70.071c0 2.789-.624 3.563-3.095 3.563h-2.94v6.188zm334.473-18.722c0 14.7 2.01 20.268 16.552 20.268 9.432 0 15.775-4.027 15.775-17.48v-13.148h-6.647v14.54c0 5.416-.773 7.581-3.868 7.581-3.094 0-3.713-2.165-3.713-6.96v-70.23h13.919v-6.802h-13.764V25.983h-6.341c-7.116 21.5-10.366 23.98-16.244 23.98h-1.856v6.648h6.188v65.582zM17.926 140.915h24.138v-6.188H38.35c-3.408 0-4.95-4.027-4.95-9.596V47.638l19.486 93.117h9.281l19.49-93.426v79.348c0 5.57-.927 8.05-4.022 8.05h-4.33v6.187h34.8v-6.188h-2.63c-3.093 0-4.017-2.479-4.017-8.049v-92.65c0-5.568.924-8.044 4.018-8.044h2.63v-6.188H79.03L63.87 96.213 47.781 19.795H17.926v6.188h2.48c3.095 0 4.95 3.713 4.95 9.439v89.71c0 5.57-1.855 9.597-4.95 9.597h-2.48v6.186zm249.329 0h35.11v-6.188h-3.557c-3.253 0-4.176-1.087-4.176-6.501V83.374h23.513v44.852c0 5.414-1.088 6.501-4.181 6.501h-3.555v6.188h34.956v-6.188h-3.094c-3.25 0-4.173-1.087-4.173-6.501V32.482c0-5.574.923-6.499 4.173-6.499h3.094v-6.188H310.41v6.188h3.555c3.093 0 4.18.925 4.18 6.499v43.617h-23.512V32.482c0-5.574.923-6.499 4.176-6.499h3.558v-6.188h-35.111v6.188h3.244c3.249 0 4.176.925 4.176 6.499v98.838c0 2.634-.927 3.409-4.176 3.409h-3.244v6.186zm189.485 0h28.613v-6.188h-3.713c-2.01 0-2.784-.773-2.784-3.253V17.941l-24.282 1.853v6.188h3.4c2.015 0 2.788.618 2.788 3.092v102.714c0 2.319-.315 2.94-2.475 2.94h-1.546v6.187h-.001zm68.755 0h26.143v-6.188h-1.706c-2.005 0-2.319-.468-2.319-2.32V73.164c0-7.58 1.238-13.46 7.893-13.46 4.792 0 5.255 2.94 5.255 9.281v62.954c0 2.32-1.082 2.788-2.784 2.788h-1.696v6.188h26.753v-6.188h-1.391c-2.162 0-2.782-.62-2.782-3.094v-66.05c0-11.14-4.022-17.169-15.005-17.169-7.115 0-12.217 4.175-16.243 10.514V17.941l-24.287 1.853v6.188h3.098c2.006 0 3.095.925 3.095 4.33v100.852c0 2.789-.618 3.563-3.095 3.563h-.928v6.188zM216.002 53.05c15.464-11.595 18.559-20.26 13.457-28.15-2.784-4.33-9.126-7.113-13.767-3.247-5.574 4.64-4.176 12.836 6.188 17.321-1.86 2.168-6.188 6.5-9.746 9.901l3.868 4.175zm147.821 33.417c.468-27.536 1.393-30.476 6.961-30.476 6.188 0 5.569 3.558 5.569 30.476h-12.53zM196.377 48.228c-6.988 0-12.345 4.004-16.352 10.068v-9.639l-.234.039-23.962 1.678h-.195v6.595h3.278c.973 0 1.67.22 2.147.82.477.6.78 1.638.78 3.317v70.052c0 1.377-.176 2.216-.585 2.692-.41.477-1.127.664-2.342.664h-3.122v6.595h28.567v-6.595h-1.912c-.99 0-1.532-.111-1.795-.39-.264-.28-.352-.8-.352-1.718v-59.24c0-3.78.328-7.12 1.444-9.484 1.117-2.365 2.977-3.786 6.244-3.786 1.179 0 2.092.193 2.771.547.68.354 1.14.868 1.483 1.6.686 1.464.82 3.778.82 6.946v62.95c0 1.128-.238 1.75-.664 2.107-.425.357-1.08.468-1.912.468h-1.912v6.595h27.162v-6.595h-1.6c-1.064 0-1.663-.146-2.03-.546-.367-.401-.546-1.12-.546-2.342V65.594c0-5.592-1.013-9.964-3.434-12.917-2.422-2.954-6.221-4.45-11.747-4.45zm0 .39c5.453 0 9.1 1.485 11.435 4.332 2.334 2.847 3.356 7.1 3.356 12.644v66.032c0 1.255.14 2.087.624 2.615.484.527 1.24.663 2.342.663h1.21v5.815h-26.382v-5.815h1.522c.869 0 1.605-.092 2.147-.546.54-.455.82-1.229.82-2.42V68.99c0-3.178-.076-5.513-.82-7.102-.373-.795-.922-1.401-1.679-1.796-.756-.394-1.746-.585-2.966-.585-3.384 0-5.43 1.512-6.595 3.98-1.165 2.47-1.483 5.878-1.483 9.68v59.24c0 .94.074 1.574.468 1.99.394.418 1.048.508 2.069.508h1.483v5.815H156.18v-5.815h2.732c1.257 0 2.133-.174 2.654-.78.52-.607.663-1.56.663-2.966V61.106c0-1.721-.29-2.877-.858-3.59-.568-.714-1.425-.937-2.459-.937h-2.888v-5.815l23.572-1.678v10.537l.39-.585c4-6.306 9.348-10.42 16.391-10.42zm-62.87-.39c-7.576 0-14.282 4.028-19.084 12.02-4.803 7.991-7.728 19.908-7.728 35.786 0 17.422 2.683 29.07 7.376 36.372 4.694 7.303 11.42 10.264 19.435 10.264 7.609 0 13.41-1.657 17.055-6.283 3.645-4.626 5.108-12.182 4.175-23.962v-.195h-6.907l.039.234c.232 9.89-.484 15.279-2.108 18.147-.811 1.435-1.84 2.224-3.122 2.693-1.281.47-2.836.585-4.644.585-2.65 0-4.641-.324-6.166-1.326-1.524-1.003-2.6-2.667-3.356-5.386-1.513-5.438-1.717-15.06-1.717-31.455v-2.576h29.542v-.195c0-16.563-1.585-27.717-5.23-34.772-3.643-7.055-9.395-9.951-17.56-9.951zm0 .39c8.072 0 13.623 2.812 17.21 9.756 3.571 6.915 5.177 17.961 5.19 34.382h-29.542v2.966c0 16.399.174 25.988 1.717 31.533.771 2.773 1.89 4.553 3.512 5.62 1.623 1.067 3.715 1.444 6.4 1.444 1.825 0 3.404-.127 4.761-.625 1.358-.497 2.505-1.383 3.357-2.888 1.686-2.98 2.358-8.422 2.146-18.147h6.088c.894 11.61-.572 19.02-4.098 23.494-3.546 4.5-9.19 6.088-16.742 6.088-7.918 0-14.496-2.831-19.122-10.03-4.627-7.198-7.298-18.796-7.298-36.177 0-15.83 2.9-27.689 7.649-35.591 4.749-7.903 11.337-11.825 18.771-11.825zm0 7.18c-1.41 0-2.585.191-3.513.937-.928.746-1.57 1.989-2.068 4.098-.997 4.219-1.33 11.871-1.561 25.64v.195h12.917v-.195c0-13.455.155-21.075-.468-25.367-.312-2.146-.814-3.49-1.678-4.293-.865-.803-2.064-1.014-3.63-1.014zm0 .39c1.527 0 2.596.232 3.356.938.759.705 1.254 1.911 1.56 4.02.609 4.19.47 11.825.469 25.132h-12.137c.232-13.61.59-21.219 1.56-25.328.489-2.067 1.125-3.237 1.952-3.903.827-.665 1.865-.858 3.24-.858zm237.277-.39c-1.41 0-2.585.19-3.513.937-.927.747-1.57 2.027-2.068 4.137-.996 4.22-1.327 11.83-1.56 25.601l-.04.195h12.957v-.195c0-13.458.156-21.074-.469-25.367-.312-2.146-.813-3.49-1.678-4.293-.865-.803-2.063-1.014-3.63-1.014zm0 .39c1.528 0 2.597.232 3.356.938.76.705 1.255 1.911 1.561 4.02.61 4.19.47 11.823.468 25.132h-12.137c.234-13.612.592-21.218 1.561-25.328.488-2.067 1.125-3.237 1.952-3.903.826-.665 1.864-.858 3.239-.858zm-151.42-36.45c-1.325.222-2.6.768-3.786 1.757-2.838 2.362-3.936 5.673-2.966 8.937.954 3.21 3.876 6.372 8.937 8.625-1.906 2.192-6.077 6.343-9.562 9.678l-.117.117.117.156 3.864 4.176.117.117.156-.078c7.746-5.81 12.426-10.918 14.518-15.571 2.092-4.654 1.564-8.889-1.015-12.879-1.418-2.204-3.719-3.992-6.283-4.761a8.856 8.856 0 0 0-3.98-.273zm.077.39c1.258-.208 2.554-.095 3.786.274 2.463.739 4.684 2.484 6.049 4.605 2.523 3.904 3.021 7.938.976 12.488-2.033 4.52-6.62 9.519-14.245 15.26l-3.59-3.903c3.527-3.382 7.755-7.607 9.6-9.756l.195-.196-.234-.117c-5.144-2.227-8.05-5.35-8.976-8.468-.926-3.118.074-6.23 2.81-8.508a7.529 7.529 0 0 1 3.63-1.678zm259.6-2.419l-.194.04-24.275 1.834-.195.039v6.556h3.591c.986 0 1.642.142 2.029.546.388.405.585 1.126.585 2.342v102.716c0 1.151-.099 1.852-.39 2.225-.146.186-.359.304-.663.39-.305.086-.717.117-1.25.117h-1.755v6.4h.234v.195h28.801v-6.595h-3.903c-.98 0-1.597-.18-1.99-.625-.393-.444-.624-1.202-.624-2.42V17.71zm-.39.43v113.33c0 1.26.207 2.133.703 2.694.496.56 1.272.741 2.302.741h3.513v5.815h-28.216v-5.815h1.327c.55 0 1.003-.014 1.366-.117.362-.102.656-.288.858-.546.405-.518.469-1.29.469-2.459V29.066c0-1.258-.202-2.092-.703-2.615-.5-.523-1.275-.663-2.302-.663h-3.2v-5.776l23.883-1.873zm-211.598 1.444v6.595h3.435c.802 0 1.478.07 1.99.234.511.163.875.43 1.17.859.59.856.82 2.418.82 5.19v98.853c0 1.29-.205 2.066-.78 2.536-.576.47-1.592.664-3.2.664h-3.435v6.595h35.514v-6.595h-3.747c-.8 0-1.441-.06-1.951-.234-.51-.175-.914-.459-1.21-.898-.591-.878-.82-2.456-.82-5.151V83.546h23.104v44.685c0 2.693-.287 4.27-.898 5.151a2.25 2.25 0 0 1-1.17.898c-.505.174-1.15.234-1.913.234h-3.746v6.595h35.357v-6.595h-3.317c-.801 0-1.441-.06-1.951-.234a2.193 2.193 0 0 1-1.171-.898c-.59-.878-.82-2.456-.82-5.151V32.46c0-2.773.232-4.334.82-5.19a2.12 2.12 0 0 1 1.17-.859c.511-.163 1.149-.234 1.952-.234h3.317v-6.594h-35.357v6.595h3.746c.764 0 1.408.07 1.912.234.505.163.867.43 1.171.859.61.859.898 2.42.898 5.19v43.436h-23.104V32.461c0-2.772.231-4.334.82-5.19.294-.429.66-.696 1.17-.859.511-.163 1.19-.234 1.991-.234h3.747v-6.595h-35.514zm.39.429h34.733v5.776h-3.356c-.82 0-1.531.05-2.107.234a2.538 2.538 0 0 0-1.366 1.015c-.687.998-.898 2.63-.898 5.424v43.826h23.884V32.462c0-2.797-.23-4.43-.937-5.425a2.7 2.7 0 0 0-1.405-1.015c-.569-.184-1.245-.234-2.029-.234h-3.356v-5.776h34.577v5.776h-2.927c-.822 0-1.492.05-2.069.234-.576.184-1.062.515-1.404 1.015-.686.998-.898 2.63-.898 5.424v95.77c0 2.718.214 4.369.898 5.385.341.508.828.857 1.404 1.054.577.197 1.245.234 2.069.234h2.927v5.815h-34.577v-5.815h3.356c.785 0 1.46-.037 2.03-.234a2.79 2.79 0 0 0 1.404-1.054c.704-1.014.937-2.665.937-5.385V83.156h-23.884v45.075c0 2.718.214 4.369.898 5.385.342.508.79.857 1.366 1.054.576.197 1.285.234 2.107.234h3.356v5.815h-34.733v-5.815h3.044c1.64 0 2.732-.167 3.435-.741.702-.575.975-1.511.975-2.85V32.462c0-2.795-.248-4.426-.936-5.424a2.538 2.538 0 0 0-1.366-1.015c-.577-.184-1.286-.234-2.108-.234h-3.044v-5.776zm-249.727-.43v6.596h2.693c1.468 0 2.644.859 3.474 2.459.829 1.6 1.287 3.949 1.287 6.79v89.72c0 2.763-.456 5.13-1.287 6.791-.832 1.66-2.013 2.576-3.474 2.576h-2.693v6.595h24.548v-6.595H38.36c-1.626 0-2.798-.918-3.59-2.576-.792-1.658-1.171-4.025-1.171-6.79V49.554l19.084 91.243.039.156h9.601l.04-.156 19.083-91.36v77.233c0 2.773-.226 4.787-.82 6.049-.593 1.26-1.472 1.795-2.966 1.795h-4.566v6.595h35.202v-6.595h-2.81c-1.495 0-2.413-.534-3.005-1.795-.593-1.262-.82-3.275-.82-6.05V34.023c0-2.772.227-4.75.82-6.01.592-1.26 1.511-1.834 3.005-1.834h2.81v-6.596H78.87l-.039.156-14.947 75.476-15.922-75.476v-.156H17.716zm.43.43h29.503l16.04 76.14v.077h.39v-.078l15.103-76.14h28.723v5.777h-2.42c-1.6 0-2.713.662-3.356 2.03-.642 1.367-.858 3.41-.858 6.204v92.648c0 2.796.216 4.837.858 6.205.643 1.368 1.756 2.03 3.357 2.03h2.42v5.814H73.522v-5.815h4.137c1.6 0 2.673-.661 3.317-2.03.644-1.367.898-3.408.898-6.204V47.33h-.195l-.195-.039v.039h-.04v.156L62.01 140.563h-8.976L33.6 47.643v-.04l-.195.04h-.195v77.505c0 2.802.376 5.201 1.21 6.946.833 1.745 2.159 2.81 3.941 2.81h3.512v5.815H18.146v-5.815h2.263c1.633 0 2.952-1.067 3.825-2.81.872-1.742 1.327-4.14 1.327-6.946v-89.72c0-2.885-.453-5.301-1.327-6.987-.874-1.685-2.198-2.653-3.825-2.653h-2.263v-5.776zm484.077 5.776l-.039.117c-3.558 10.743-6.138 16.752-8.547 20.02-2.408 3.268-4.584 3.825-7.493 3.825h-2.068v7.063h6.205v65.369c0 7.354.48 12.469 2.849 15.766 2.37 3.298 6.6 4.722 13.893 4.722 4.747 0 8.737-1.05 11.552-3.785 2.815-2.736 4.41-7.135 4.41-13.893v-13.347h-7.064v14.712c0 2.698-.188 4.577-.741 5.737-.553 1.16-1.426 1.64-2.927 1.64-1.501 0-2.296-.48-2.81-1.562-.514-1.082-.703-2.798-.703-5.19V56.969h13.933V49.75h-13.776V25.788h-6.675zm.312.39h5.971V50.14h13.776v6.44H508.35v70.402c0 2.409.173 4.188.742 5.385.568 1.198 1.567 1.757 3.16 1.757 1.594 0 2.672-.56 3.279-1.835.607-1.273.82-3.215.82-5.932v-14.322h6.244v12.957c0 6.695-1.578 10.981-4.293 13.62-2.715 2.638-6.588 3.629-11.279 3.629-7.243 0-11.31-1.368-13.58-4.527-2.27-3.16-2.772-8.196-2.772-15.532V56.423h-6.205V50.14h1.678c2.965 0 5.34-.636 7.806-3.98 2.45-3.326 5.055-9.344 8.585-19.982zm-80.198 22.05c-8.245 0-14.699 2.87-18.342 7.22-3.644 4.348-4.454 10.177-1.327 15.961 1.337 2.437 3.336 4.01 5.542 4.566 2.205.557 4.625.093 6.83-1.561 2.293-1.74 3.66-4.453 2.965-7.454-.68-2.938-3.352-6.104-8.859-8.937.773-.605 2.06-1.232 3.63-1.678 1.685-.479 3.552-.78 5.073-.78 2.231 0 3.923.2 5.151.624 1.229.423 2 1.062 2.537 1.951 1.074 1.778 1.093 4.643 1.093 8.82v15.688c-11.037 3.76-18.562 6.66-23.299 11.67-4.763 5.037-6.712 12.149-6.712 24.156-.001 9.308 1.782 15.359 4.644 19.084 2.862 3.725 6.824 5.112 11.044 5.112 4.61 0 8.054-1.673 10.654-3.902 2.475-2.121 4.117-4.727 5.347-6.986.753 3.345 1.637 6.067 3.473 7.922 1.923 1.942 4.855 2.966 9.6 2.966 5.453 0 8.88-1.687 10.889-4.956 2.008-3.27 2.615-8.084 2.615-14.44v-.195h-5.971v.195c0 4.561-.073 7.065-.39 8.391-.16.663-.366 1.019-.625 1.21-.26.191-.607.273-1.093.273-.451 0-.764-.072-.975-.195-.211-.123-.36-.316-.469-.703-.216-.772-.234-2.247-.234-4.8V71.136c0-9.084-2.463-14.837-6.556-18.303-4.094-3.467-9.791-4.605-16.235-4.605zm0 .39c6.396 0 12.013 1.15 16 4.527 3.988 3.377 6.4 8.978 6.4 17.99v56.315c0 2.553-.014 4.027.235 4.917.125.445.351.755.663.937.313.182.692.234 1.171.234.517 0 .964-.083 1.327-.351.364-.268.61-.695.78-1.405.333-1.387.388-3.943.39-8.312h5.191c-.014 6.219-.663 10.936-2.575 14.049-1.935 3.15-5.165 4.722-10.537 4.722-4.69 0-7.498-.962-9.328-2.81-1.829-1.848-2.701-4.609-3.473-8.156l-.117-.547-.273.508c-1.232 2.31-2.96 5.08-5.503 7.259-2.542 2.179-5.865 3.746-10.38 3.746-4.135 0-7.949-1.294-10.733-4.917-2.784-3.623-4.528-9.593-4.527-18.85 0-11.965 1.923-18.942 6.596-23.884 4.672-4.941 12.125-7.88 23.26-11.668l.116-.04V66.96c0-4.177.037-7.08-1.132-9.015-.584-.967-1.475-1.66-2.77-2.107-1.296-.447-3.014-.664-5.269-.664-1.574 0-3.473.293-5.19.78-1.717.489-3.234 1.175-4.06 1.913l-.194.195.234.117c5.69 2.848 8.318 6.02 8.976 8.86.658 2.839-.613 5.397-2.81 7.063-2.123 1.592-4.431 2.01-6.517 1.483-2.086-.527-3.976-2.015-5.269-4.371-3.06-5.662-2.261-11.296 1.288-15.532 3.55-4.237 9.878-7.064 18.03-7.064zm-51.553-.39c-7.571 0-14.28 4.028-19.084 12.02-4.804 7.991-7.727 19.908-7.727 35.786 0 17.422 2.682 29.07 7.376 36.372 4.694 7.303 11.423 10.264 19.435 10.264 7.608 0 13.409-1.657 17.054-6.283 3.646-4.626 5.108-12.182 4.176-23.962v-.195h-6.869v.234c.232 9.89-.484 15.279-2.107 18.147-.812 1.435-1.84 2.224-3.122 2.693-1.282.47-2.835.585-4.644.585-2.651 0-4.642-.324-6.166-1.326-1.525-1.003-2.6-2.667-3.357-5.386-1.512-5.438-1.717-15.06-1.717-31.455v-2.576h29.543v-.195c0-16.563-1.586-27.717-5.23-34.772-3.643-7.055-9.393-9.951-17.561-9.951zm0 .39c8.074 0 13.624 2.812 17.21 9.756 3.571 6.915 5.177 17.961 5.19 34.382h-29.542v2.966c0 16.399.175 25.988 1.717 31.533.771 2.773 1.89 4.553 3.513 5.62 1.622 1.067 3.714 1.444 6.4 1.444 1.826 0 3.403-.127 4.76-.625 1.359-.497 2.506-1.383 3.357-2.888 1.686-2.98 2.358-8.422 2.147-18.147h6.088c.893 11.61-.573 19.02-4.098 23.494-3.547 4.5-9.19 6.088-16.742 6.088-7.916 0-14.496-2.831-19.123-10.03-4.627-7.198-7.297-18.796-7.298-36.177 0-15.83 2.9-27.689 7.65-35.591 4.75-7.903 11.34-11.825 18.77-11.825zm-130.425-.39c-5.379 0-10.51 1.69-14.283 5.307-3.774 3.617-6.205 9.122-6.205 16.664 0 7.062 1.197 12.054 3.707 16.703 2.51 4.65 6.33 8.953 11.513 14.83 4.487 5.106 7.841 8.795 10.068 12.215 2.228 3.42 3.318 6.592 3.318 10.732 0 3.308-.467 5.83-1.757 7.532-1.29 1.703-3.383 2.615-6.83 2.615-2.91 0-5.287-.651-7.18-2.77-1.892-2.12-3.33-5.73-4.254-11.591l-1.21-8.04-.039-.195h-7.18v28.879h6.088l.039-.156c.305-1.45.83-2.872 1.444-3.785.307-.457.635-.785.936-.937.301-.152.565-.158.859.039 2.057 2.355 6.748 6.4 14.361 6.4 6.695 0 11.935-2.294 15.494-6.283 3.558-3.99 5.424-9.666 5.424-16.508 0-7.139-1.256-12.289-3.785-17.054-2.529-4.766-6.329-9.145-11.435-14.791-4.87-5.337-8.212-8.993-10.342-12.41-2.13-3.417-3.044-6.587-3.044-10.966 0-2.532.406-4.576 1.522-5.971 1.117-1.396 2.952-2.186 5.854-2.186 2.91 0 5.156.57 6.83 2.225 1.673 1.654 2.78 4.434 3.317 8.897l1.093 8.664.039.156h7.181V49.75h-5.972v.195c-.153 1.627-.24 2.882-.39 3.668-.076.393-.185.677-.274.78-.044.053-.079.073-.117.079a.398.398 0 0 1-.156-.04c-.004-.003-.035.004-.04 0-1.4-1.249-6.796-6.204-14.595-6.204zm0 .39c7.65 0 13.009 4.885 14.4 6.127l.04.039a.73.73 0 0 0 .43.078.552.552 0 0 0 .35-.195c.183-.215.272-.557.352-.976.153-.803.25-2.026.39-3.551h5.151v25.913h-6.439l-1.054-8.508c-.541-4.508-1.666-7.344-3.434-9.093-1.768-1.748-4.14-2.341-7.103-2.341-2.976 0-4.962.837-6.166 2.341-1.204 1.505-1.6 3.63-1.6 6.206 0 4.435.922 7.693 3.083 11.16 2.162 3.468 5.55 7.152 10.42 12.49 5.103 5.642 8.858 10.003 11.357 14.712 2.498 4.709 3.746 9.766 3.746 16.86 0 6.77-1.867 12.373-5.346 16.273-3.48 3.9-8.577 6.088-15.182 6.088-7.51 0-12.096-3.95-14.088-6.244l-.039-.04c-.4-.266-.85-.278-1.249-.077-.398.2-.762.563-1.092 1.053-.633.941-1.125 2.361-1.444 3.786h-5.425v-28.06h6.478l1.171 7.845c.929 5.898 2.357 9.573 4.332 11.785 1.975 2.212 4.52 2.927 7.493 2.927 3.516 0 5.804-.953 7.18-2.77 1.377-1.818 1.835-4.422 1.835-7.767 0-4.211-1.14-7.502-3.395-10.966-2.257-3.464-5.623-7.112-10.108-12.215-5.182-5.876-8.995-10.198-11.474-14.79-2.479-4.594-3.668-9.492-3.668-16.509 0-7.457 2.398-12.815 6.088-16.352 3.69-3.536 8.716-5.23 14.01-5.23zM427.02 87.37l-.273.156c-5.423 3.023-8.539 5.27-10.264 9.327-1.725 4.057-2.068 9.845-2.068 20.06 0 5.803.106 9.545.858 11.863.377 1.159.933 1.982 1.717 2.498.785.515 1.785.702 3.044.702 2.918 0 4.725-1.253 5.737-3.317 1.013-2.064 1.25-4.896 1.25-8.156V87.37zm-.39.702v32.43c0 3.239-.25 6.043-1.21 8-.96 1.959-2.58 3.084-5.386 3.084-1.215 0-2.114-.207-2.81-.664-.694-.456-1.202-1.16-1.56-2.263-.717-2.208-.859-5.949-.859-11.747 0-10.205.351-15.956 2.03-19.903 1.638-3.853 4.63-6.033 9.795-8.937z"/></svg>