<svg xmlns="http://www.w3.org/2000/svg" viewBox="0 0 142 133"><g fill="none" fill-rule="nonzero"><path fill="#FFF" d="M.371 131.504h11.23v-6.344c-3.077.305-7 .94-11.23 2.091v4.253z"/><path fill="#231F20" d="M82.32 117.5c0-3.077-2.584-4.957-8.41-4.957H60.729v10.033h13.533c5.028 0 8.059-1.551 8.059-4.958v-.117zM79.455 99.27c0-3.008-2.678-4.7-7.471-4.7H60.729v9.634h10.502c5.028 0 8.223-1.434 8.223-4.817v-.117zm-5.192 32.094H49.639v-45.58h24.036c10.572 0 17.08 4.605 17.08 11.771v.141c0 5.146-3.101 8.012-6.79 9.845 5.992 1.997 9.68 5.075 9.68 11.207v.117c0 8.34-7.683 12.5-19.383 12.5m46.214.774c-15.248 0-26.55-10.338-26.55-23.448v-.117c0-12.97 11.09-23.589 26.996-23.589 9.75 0 15.6 2.867 20.417 7.049l-7.26 7.354c-3.994-3.196-8.058-5.146-13.227-5.146-8.74 0-15.037 6.39-15.037 14.191v.141c0 7.824 6.156 14.332 15.037 14.332 5.897 0 9.539-2.091 13.603-5.357l7.237 6.461c-5.31 5.028-11.23 8.13-21.216 8.13zM11.672 119.051v-16.658l25.07 28.97h9.679v-45.58h-11.23v28.077L10.92 85.783H.44v45.557h11.231V119.05z"/><path fill="#FFF" d="M70.879 9.05c1.832-3.031 4.91-6.18 8.2-7.495C84.74-1.053 92.375.05 97.028 4.162c4.487 4.065 6.766 9.633 5.685 15.86 1.128-.212 2.232-.917 3.383-1.316 6.955-1.95 14.332.164 18.772 6.155 3.384 4.253 4.253 10.879 2.232 16.024-1.01 2.584-2.702 4.934-4.91 6.907l.211.212c6.485.329 12.852 5.357 14.826 11.536 2.114 6.226.258 12.875-4.3 17.41-3.736 3.688-8.505 4.957-13.815 4.84H22.621c-7.918.187-14.05-3.337-17.34-10.362-2.584-6.062-1.315-13.815 3.525-18.396 3.03-3.196 6.837-4.511 10.972-5.146-4.652-4.323-6.908-10.243-5.592-16.587.94-5.145 5.31-10.338 10.338-12.147 4.44-1.738 10.432-1.433 14.496.94l.165-.164c-1.246-7.002 1.88-13.299 7.659-17.152 5.169-3.5 13.439-3.43 18.514.306 2.278 1.386 4.158 3.782 5.52 5.967z"/><path fill="#5F53AE" d="M98.203 11.657c2.044 4.182.87 9.657-1.316 13.416L80.135 62.759l-.14.164-6.062-38.226c-.494-3.642 3.453-5.216 5.756-6.978-.118-.54-.728-.517-1.104-.775l-5.64-.047-.164-.188A12.962 12.962 0 0 1 79.69 5.29c4.51-2.608 10.878-1.903 14.802 1.433 1.574 1.434 2.936 3.078 3.712 4.934z"/><path fill="#C81A46" d="M67.355 10.342c1.339 2.537 2.161 5.427 1.668 8.599l-6.814 43.747c.024.07-.023.118-.094.141l-1.762-3.5L43.25 21.101c-1.598-4.934-.118-10.079 3.454-13.58 3.594-3.688 9.562-4.675 14.26-2.678 2.515 1.08 4.888 3.054 6.392 5.498z"/><path fill="#0E88D3" d="M122.966 28.762c2.303 3.947 1.762 9.867-.775 13.51-1.598 2.56-4.23 3.829-6.414 5.52L80.323 72.133h-.094l.4-1.175L99.425 28.55c2.795-5.004 8.176-7.542 13.861-6.766 3.9.704 7.777 3.242 9.68 6.978z"/><path fill="#F25C19" d="M42.403 28.55l19.572 43.583h-.33L22.222 44.949c-4.017-3.383-5.638-8.434-4.276-13.556 1.01-3.853 4.206-7.424 7.965-8.834 6.203-2.28 13.204.117 16.493 5.991z"/><path fill="#33B540" d="M133.234 59.54c1.95 4.135 1.198 9.82-1.622 13.368-2.772 3.384-6.508 5.216-10.878 5.099l-42.032.023 35.219-24.481c3.43-2.232 8.67-2.632 12.405-.846 2.913 1.128 5.639 3.994 6.908 6.837z"/><path fill="#FAB20B" d="M8.759 59.54c-1.974 4.135-1.198 9.82 1.598 13.368 2.795 3.384 6.531 5.216 10.901 5.099l42.056.023L28.072 53.55c-3.43-2.232-8.67-2.632-12.43-.846-2.889 1.128-5.614 3.994-6.883 6.837z"/></g></svg>