<svg xmlns="http://www.w3.org/2000/svg" viewBox="0 0 508.22 166.13"><path fill="#d62021" d="M169.8 166.13V0H0v166.13z"/><path fill="#000005" d="M340.43 166.13V0H169.8v166.13z"/><path fill="#237bbd" d="M508.22 166.13V0H340.43v166.13z"/><path fill="#fff" d="M102.7 128.09V77.74q0-11.14-4.29-16.27t-14-5.13a21.81 21.81 0 0 0-9.61 2.52 22.17 22.17 0 0 0-8 6.27v63H46.45V40.67h14.69l3.75 8.16q8.32-9.62 24.58-9.63 15.57 0 24.6 9.33t9 26v53.56h-20.4zm150.8 1.73q20 0 31.56-11.59t11.56-33q0-46-41.81-46a26.27 26.27 0 0 0-18.84 7.27v-5.83h-20.42v110.64h20.42v-25.34a39.68 39.68 0 0 0 17.57 3.84zm-4.53-73.22q14.09 0 20.2 6.31t6.07 21.76q0 14.5-6.15 21.21t-20.22 6.71a20 20 0 0 1-12.9-4.46V62.29a17.93 17.93 0 0 1 13-5.7zm199.34 3.19a21.89 21.89 0 0 0-11.92-3.44q-7.08 0-12.55 6.43a23.29 23.29 0 0 0-5.49 15.7v49.62h-20.38V40.67h20.4v8.36q8.52-9.82 22.66-9.83 10.39 0 15.91 3.18l-8.62 17.46z"/></svg>