<svg xmlns="http://www.w3.org/2000/svg" viewBox="0 0 787.5 79.73"><path fill="#bf0038" d="M363.31 63.374c.432-1.196.264-2.662.967-2.604.48.053.583 1.697.802 2.492v1.25h-1.77v-1.138zm40.998-.565c.326.225.206.959.326 1.354 0 0 0 .119-.272.35h-35.908l-.261-.286v-1.53c2.244-.394.59-3.292 2.731-3.292 1.335 0 1.499 1.024 2.248 1.869h26.463c1.035 0 .482-1.869 2.37-1.869.474 0 .904.34 1.23.738.157 1.027.268 1.977 1.073 2.666m1.871-16.044V30.708c0-1.009.06-1.19-1.665-1.19v18.494c1.61 0 1.665-.23 1.665-1.247m-22.45-7.541c0 1.53 1.289 2.886 2.738 2.886 1.496 0 2.73-1.356 2.73-2.886 0-1.586-1.234-2.946-2.73-2.946-1.45 0-2.738 1.36-2.738 2.946m2.789 6.685c-3.325 0-6.054-2.442-6.375-5.84h-2.311v6.696c0 .848.692 1.587 1.505 1.587h14.195c.862 0 1.557-.74 1.557-1.587V31.224c0-.847-.695-1.58-1.557-1.58h-14.195c-.813 0-1.505.733-1.505 1.58v7.09h2.353c.435-3.291 3.11-5.841 6.333-5.841 3.479 0 6.322 3.06 6.322 6.751 0 3.621-2.843 6.685-6.322 6.685m14.685 5.448V26.74c0-1.757-1.394-3.231-3.065-3.231h-23.254c-1.657 0-3.051 1.474-3.051 3.231v11.574h2.679V28.96c0-1.536 1.232-2.842 2.68-2.842h18.485c1.448 0 2.683 1.306 2.683 2.842v20.017c0 1.53-1.235 2.826-2.683 2.826h-18.484c-1.449 0-2.681-1.295-2.681-2.826v-8.908h-1.88c-.265 0-.537 0-.8.054v11.233c0 1.754 1.395 3.23 3.052 3.23h23.254c1.671 0 3.065-1.476 3.065-3.23m5.409-23.53c1.022 0 1.928.963 1.928 2.042v17.745c0 1.128-.906 2.037-1.928 2.037h-2.098v1.474c0 3.806-2.931 6.922-6.534 6.922h-22.986c-3.586 0-6.54-3.116-6.54-6.922V41.093c-2.091 1.42-3.375 3.796-3.375 6.631v10.55c0 .572.751.621.751 1.189 0 .795-1.23.845-1.657.845-.431 0-1.34-.223-1.34-.784 0-.576.741-.678.741-1.25V46.82c0-3.517 2.043-6.527 4.88-7.824V26.981c0-3.806 2.954-6.92 6.54-6.92h22.986c3.603 0 6.534 3.114 6.534 6.92v.844h2.098z"/><path d="M771.718 7.794l5.81-6.833h4.506l.519 26.388h-5.627c-2.912-7.579-7.06-13.252-12.43-17.025-5.38-3.769-11.306-5.66-17.806-5.66-5.544 0-10.05 1.25-13.522 3.74-3.48 2.493-5.22 5.48-5.22 8.951 0 2.06.686 3.951 2.048 5.67 1.38 1.727 3.59 3.195 6.644 4.415 3.051 1.22 8.4 2.49 16.043 3.806 8.93 1.56 15.115 2.959 18.535 4.195 5.43 1.989 9.502 4.623 12.212 7.904 2.719 3.28 4.07 7.269 4.07 11.971 0 7.036-2.931 12.654-8.805 16.836-7.08 5.05-15.847 7.578-26.292 7.578-9.623 0-18.414-2.778-26.365-8.335l-7.32 7.525h-4.57V50.68h5.475c5.447 16.147 16.506 24.217 33.175 24.217 6.822 0 12.12-1.3 15.905-3.898 3.78-2.585 5.676-5.83 5.676-9.715 0-2.712-.836-4.994-2.496-6.834-1.66-1.835-4.237-3.323-7.728-4.456-1.906-.623-6.642-1.599-14.212-2.943-10.178-1.857-17.443-3.766-21.793-5.749-4.354-1.976-7.542-4.396-9.592-7.263-2.042-2.87-3.06-6.359-3.06-10.489 0-6.941 2.823-12.599 8.462-16.984C729.606 2.19 737.174 0 746.67 0c9.12 0 17.471 2.597 25.048 7.794m-188.4-7.02h37.874V5.69h-3.567c-2.244 0-3.764.221-4.545.658-.794.435-1.18 1.083-1.18 1.963 0 .628.147 1.343.443 2.148l18.66 45.741 16.273-39.919-2.731-6.667c-.595-1.395-1.422-2.351-2.482-2.876-1.398-.702-3.235-1.048-5.53-1.048h-4.575V.774h43.528V5.69h-4.023c-2.922 0-4.915.274-5.956.829-1.041.549-1.562 1.361-1.562 2.427 0 .445.107.927.316 1.445l18.59 45.81 15.572-40.292c.51-1.224.758-2.411.758-3.566 0-2.129-.685-3.768-2.063-4.922-1.378-1.15-3.192-1.73-5.446-1.73h-2.671V.773h30.691V5.69c-3.402.074-6.112.726-8.129 1.965-2.02 1.243-3.5 3.085-4.433 5.531L681.078 79.73h-7.836l-22.131-54.476-22.196 54.476h-7.897L592.335 9.613c-.587-1.46-1.367-2.484-2.33-3.059-.965-.576-2.207-.865-3.727-.865h-2.96V.774zm-117.572.445v4.97c4.6.25 8.141 1.459 10.637 3.634 2.492 2.174 3.735 5.061 3.735 8.674v36.526L428.562 1.219h-29.517v4.97h4.24c4.457 0 8.113 1.533 10.983 4.588v50.709c0 3.89-1.285 7.075-3.853 9.55-2.57 2.477-5.743 3.714-9.505 3.714h-2.64v4.978h38.42v-4.977h-1.613c-4.036 0-7.42-1.123-10.155-3.367-2.72-2.251-4.082-5.823-4.082-10.743V17.713l58.718 62.015h7.368V18.503c0-3.856 1.05-6.764 3.155-8.726 1.76-1.639 4.489-2.736 8.157-3.304V1.219h-32.492zm112.871 48.578c-1.206 8.356-4.298 14.605-9.285 18.746-4.98 4.142-11.404 6.207-19.265 6.207h-11.473c-2.575 0-4.552-.39-5.921-1.165-.912-.532-1.361-1.44-1.361-2.708V41.841h3.675c5.714 0 9.99 1.235 12.827 3.711 2.838 2.476 4.443 6.738 4.833 12.79h5.792V21.777h-5.792c-.513 5.348-2.188 9.231-4.999 11.64-2.81 2.409-6.77 3.616-11.889 3.616h-4.447V9.898c0-1.165.449-2.073 1.361-2.728.899-.652 2.359-.98 4.376-.98h13.028c5.244 0 9.486.707 12.74 2.12 3.24 1.417 5.869 3.546 7.871 6.385 1.989 2.843 3.661 7.495 4.985 13.965h5.645l-1.854-27.442h-76.938V6.19h1.526c2.602 0 4.416.302 5.424.902 1.007.601 1.513 1.536 1.513 2.813v60.34c0 1.376-.506 2.473-1.513 3.286-1.008.816-2.473 1.219-4.402 1.219h-8.543v4.978h86.488l1.389-29.93h-5.791zM203.223 7.122c.858-.62 2.229-.934 4.12-.934h8.814V1.22h-48.691v4.968h8.475c2.06 0 3.567.354 4.533 1.067.962.702 1.445 1.8 1.445 3.28V70.56c0 1.376-.521 2.43-1.576 3.129-1.051.705-2.861 1.06-5.43 1.06h-1.366c-1.22-.142-2.255-.458-3.095-.957-1.178-.688-2.269-2.01-3.283-3.965L132.103.763h-7.124l-33.563 65.89c-1.353 2.604-3.253 4.74-5.703 6.415-1.729 1.183-3.734 1.775-6.022 1.775h-2.022v4.885h35.518v-4.885h-2.974c-3.509 0-6.272-.708-8.296-2.11-2.024-1.412-3.041-3.243-3.041-5.508 0-1.324.7-3.337 2.092-6.05l3.33-6.525h35.013l7.237 14.3c.506 1.01.763 1.89.763 2.655 0 .975-.614 1.76-1.837 2.353-1.221.593-3.456.885-6.698.885h-4.11v4.885h81.491V74.75h-7.853c-2.182 0-3.86-.39-5.013-1.164-.905-.595-1.353-1.609-1.353-3.025V9.85c0-1.203.426-2.11 1.285-2.728m-96.309 42.399l14.964-29.294 14.836 29.294h-29.8zM220.83 6.19V1.217h48.845v4.971h-8.241c-2.359 0-4.004.37-4.949 1.116-.944.744-1.415 1.945-1.415 3.603v58.329c0 2.367.445 3.882 1.351 4.53.898.662 3.025.982 6.374.982h13.713c5.113 0 9.875-1.994 14.298-5.987 4.419-3.994 7.815-10.365 10.174-19.135h5.796l-2.164 30.102H220.83v-4.98h8.381c1.848 0 3.241-.387 4.19-1.164.943-.78 1.415-1.872 1.415-3.287V10.329c0-1.451-.482-2.497-1.451-3.159-.965-.652-2.63-.98-4.989-.98h-7.546z"/><path d="M283.839 1.219h47.385V6.19h-6.556c-2.317 0-3.917.243-4.822.718-.897.476-1.349 1.103-1.349 1.88 0 .883.388 1.888 1.162 3.022l19.83 28.108 14-22.8c1.171-1.873 1.75-3.61 1.75-5.197 0-1.768-.755-3.166-2.268-4.195-1.509-1.026-3.792-1.536-6.86-1.536h-2.91V1.22h36.791v4.97c-4.246.073-7.652.771-10.226 2.098-2.571 1.322-4.76 3.457-6.562 6.383l-19.155 31.127v24.655c0 1.447.49 2.537 1.451 3.236.966.706 2.482 1.061 4.542 1.061h9.854v4.979h-52.171V74.75h9.791c2.233 0 3.795-.346 4.701-1.034.903-.693 1.352-1.78 1.352-3.263v-21.9l-25.63-36.313c-1.63-2.336-3.359-3.929-5.185-4.775-1.818-.851-4.105-1.275-6.85-1.275h-2.065V1.22zM86.644 20.008C82.65 13.994 77.136 9.353 70.093 6.1c-7.04-3.255-15.214-4.88-24.527-4.88H.016L.001 6.19H1.32c2.446 0 4.181.366 5.209 1.091 1.03.726 1.547 1.879 1.547 3.471v59.065c0 1.563-.495 2.768-1.485 3.635-.981.865-2.439 1.298-4.365 1.298H.015L0 79.729h47.436c8.323 0 16.112-1.723 23.369-5.158 7.255-3.425 12.706-8.033 16.35-13.82 3.649-5.787 5.475-12.593 5.475-20.41 0-7.54-1.995-14.32-5.986-20.333M66.646 61.085c-2.017 4.231-5.304 7.563-9.857 10.008-4.555 2.438-9.774 3.656-15.658 3.656h-6.955c-1.939 0-3.342-.388-4.222-1.164-.883-.781-1.319-2.049-1.319-3.824V10.385c0-1.594.542-2.691 1.642-3.287 1.092-.607 3.81-.91 8.148-.91 7.904 0 13.894 1.056 17.976 3.16 4.083 2.11 7.313 5.64 9.699 10.616 2.384 4.964 3.578 12.117 3.578 21.46 0 8.884-1.014 15.435-3.032 19.661"/></svg>