<svg xmlns="http://www.w3.org/2000/svg" version="1.0" viewBox="0 0 400 246"><path d="M37.2 99.8c-12.3 4.4-18.8 17.4-15.2 30.3 1.3 4.7 7.2 11.4 12.4 14.2 6.1 3.2 16.5 3.1 23.1-.4 9.8-5 15.1-16.2 12.5-26.8-3.4-14.3-18.6-22.3-32.8-17.3zm14.8 9.7c12.6 6.5 9.2 25.9-4.9 27.3-8.7.8-15.1-5.3-15.1-14.5 0-10.5 10.9-17.5 20-12.8zm79.3-10.6c-8 2-11.8 7.4-11 15.5.4 4.1 1 5.5 3.7 7.7 1.7 1.5 5.3 3.3 7.8 3.9 11.5 3.2 14.2 5.2 12.2 9.1-1.6 3-10.1 2.6-15.6-.6l-4.4-2.6-3 3.3c-1.6 1.8-3 3.5-3 3.8 0 1.3 9.1 6 13.5 7 13.4 3 23.5-3.1 23.5-14.4 0-7-3.8-10.5-15.2-14-8.9-2.7-10.6-4.2-8.8-7.7 1.4-2.6 8.3-2.5 13.3.1 2 1.1 3.9 2 4.1 2 .2 0 1.5-1.8 3-4l2.7-4.1-5.3-2.4c-6.1-2.7-12.9-3.7-17.5-2.6zM76 122.6v23.6l15.3-.4c12.3-.3 15.8-.7 18.5-2.1 3.4-1.9 6.2-6.7 6.2-10.8 0-3.3-2.9-8.5-5.5-9.9l-2.4-1.3 2.4-2.9c3.3-3.9 3.4-10.4.3-14.3-3.5-4.5-7.4-5.5-21.8-5.5H76v23.6zm24.8-13c5.5 3.9 1 8.4-8.5 8.4H86v-10h6.3c4 0 7 .5 8.5 1.6zm3.6 19.5c.8 1.2 1.2 2.9.9 3.8-1.1 3.2-3.6 4.1-11.5 4.1H86v-10h8.4c7.5 0 8.7.2 10 2.1zm56.6-6.6V146h35v-9h-25v-10h25v-9h-25v-10h25v-9h-35v23.5zm41-.1V146h10v-15h4.3c4.1 0 4.3.1 9.1 7.5l4.8 7.5h5.9c3.3 0 5.9-.2 5.9-.4 0-.3-2.4-3.9-5.4-8.2l-5.3-7.8 3.1-2.1c8.9-5.9 8.6-20.6-.5-26-2.9-1.7-5.6-2.1-17.6-2.3l-14.3-.4v23.6zm23.2-13.4c2.6.8 3.9 1.8 4.6 3.8 2.1 6.2-2.1 9.5-11.7 9l-5.6-.3-.3-5.4c-.2-2.9-.1-6 .2-6.7.6-1.7 7.4-1.9 12.8-.4zm26.3 13.2l9.3 23.3 4.9.3 4.9.3 8.7-21.8c4.7-12 8.9-22.6 9.3-23.6.6-1.6.1-1.8-5.1-1.5l-5.7.3-5.5 15c-3 8.2-5.8 15.3-6.2 15.7-.3.4-3.2-6.5-6.5-15.2l-5.8-16h-11.6l9.3 23.2zm41.5.3V146l17.8-.2 17.7-.3.3-4.3.3-4.2H304v-9.9l12.3-.3 12.2-.3.3-4.3.3-4.2H304v-10h25.1l-.3-4.3-.3-4.2-17.7-.3L293 99v23.5zm42-.1V146h10v-15h4c3.8 0 4.1.3 9 7.5l5.1 7.5h6c6.9 0 6.9.6-.5-9.9l-4.5-6.5 3.6-2.4c8.5-5.8 8.2-20-.6-25.4-3.2-2.1-5.1-2.3-17.8-2.6l-14.3-.4v23.6zm23.2-13.3c4.1 1.1 5.5 3.8 4.4 8.4-.8 3.2-4.1 4.5-11.7 4.5H345v-6.3c0-3.5.3-6.7.7-7 1-1 8.3-.8 12.5.4z"/></svg>