<svg xmlns="http://www.w3.org/2000/svg" viewBox="0 0 997 1201"><g fill="#e5382f"><path d="M0 0h996.35c-.03 400.33.01 800.67-.02 1201H0V0m595.11 123.05c-17.63 7.29-34.31 17.47-47.6 31.28-16.38 16.43-26.97 38.1-31.58 60.72-3.1 14.09-3.93 28.57-3.62 42.97v496.89c-.4 21.92 2.59 44.17 10.93 64.55 6.21 15.34 15.69 29.38 27.77 40.71 19.07 18.44 43.9 29.68 69.24 36.61 27.28 7.33 55.59 9.99 83.76 10.44 27.13.34 54.51-1.36 80.89-8.06 20.77-5.23 41-13.87 57.7-27.47 16.23-12.91 28.21-30.71 35.29-50.12 7.54-20.62 10.04-42.74 10.03-64.59-.05-64.22.07-128.45-.06-192.68-52.52.06-105.03-.05-157.55.06-.02 64.88-.01 129.75-.01 194.63.14 7.86.17 15.98-2.99 23.33-3.36 7.44-11.41 11.66-19.35 11.91-7.68.4-16.6-.09-22.24-6.02-5.73-5.36-6.96-13.68-7.28-21.13-.04-174.04.01-348.07-.03-522.11-.03-6.24.96-12.77 4.49-18.05 3.95-6.45 11.76-9.62 19.1-9.7 8.04-.63 16.93 1.26 22.39 7.63 5.76 6.97 6.19 16.47 5.91 25.1v100.03c.13 25.49-.26 51 .2 76.49 52.46-.11 104.92.02 157.38-.07.08-58.79.01-117.58.04-176.37-.22-22.93-3.47-46.2-12.63-67.38-7.17-16.48-18.1-31.46-32.22-42.67-16.21-13.4-35.94-21.84-56.12-27.25-25.1-6.57-51.14-8.58-77-8.66-38.87.38-78.53 4.24-114.84 18.98m-486.33-13.1c.01 264.62-.01 529.25.01 793.87 55.36.2 110.73.09 166.09.05-.03-87.27 0-174.54-.01-261.81.15-15.22-.3-30.45.23-45.65 7.61.09 15.22 0 22.84.02 18.33-.15 36.73.66 54.98-1.51 19.04-2.08 38.02-6.27 55.5-14.26 12.05-5.6 23.43-12.95 32.69-22.54 15.52-15.07 25.31-35.2 30.48-56.03 5.41-20.88 6.23-42.58 5.88-64.04V263.01c.21-15.67-.25-31.42-2.94-46.9-4.02-24.78-13.48-49.44-31.04-67.82-13.16-14.14-30.33-24.12-48.54-30.24-25.69-8.64-53.05-10.87-80-10.48-68.51-.09-137.02.18-205.52-.13-.16.62-.49 1.88-.65 2.51m100.45 846.1c-8.47 6-12.37 16.28-14.53 26.05-3.11 15.42-3.37 31.22-3.36 46.89.28 14.57.66 29.4 4.97 43.44 2.63 8.09 7.33 16.26 15.3 20.07 10.57 5.2 23.06 5.24 34.4 2.93 1.47-2.94 4.48-.92 6.65-2.59 8.78-4.34 13.32-13.88 15.09-23.08 1.97-10.94 2.53-22.31.8-33.3-7.98.17-15.94-.55-23.91-.34.77 7.94.96 15.96.38 23.92-.5 4.92-.78 10.2-3.57 14.46-2.77 4.52-9 4.98-13.6 3.46-4.15-1.38-5.86-5.94-6.75-9.82-2.16-9.92-1.6-20.13-2.23-30.18.14-10.99-.32-21.98.34-32.95.25-9.84.21-19.84 2.87-29.4.67-2 1.51-4 2.9-5.6 2.99-2.94 7.97-3.33 11.65-1.57 3.16 1.27 4.09 4.84 5.08 7.77 2.02 9.58 1.85 19.49 1.06 29.21 8.26-.01 16.52-.55 24.78-.76 1.12-12.82 1.55-26.49-3.76-38.51-3.89-9.08-13.41-14.38-22.9-15.49-10.68-1.22-22.51-.97-31.66 5.39m291.9-2.86c-8.87 3.51-14.49 12.09-17.31 20.86-4.3 13.53-5.22 27.85-5.67 41.95-.2 17.68-.57 35.67 3.94 52.92 2.35 8.92 6.73 18.07 14.85 23.06 8.13 4.73 18 5.58 27.17 4.36 7.42-.97 12.62-7.02 16.2-13.11 2.1 3.4 3.75 7.1 6.1 10.35 3.03 1.43 6.72.22 10 .76a5.6 5.6 0 0 0 .85-3.3c-.03-23.62-.1-47.23.03-70.85-12.47-.17-24.95-.14-37.42-.04.07 6.77-.5 13.59.32 20.33 4.62-.13 9.26-.04 13.89-.07-.36 10.79 1.4 22.29-3.38 32.38-2.92 6.03-10.79 6.94-16.56 5.14-3.08-.98-4.53-4.11-5.46-6.94-2.06-6.78-2.28-13.92-2.7-20.94-.49-14.68-.3-29.37-.23-44.05.54-10.9-.08-22.25 3.75-32.64 2.45-7.44 14.92-8.28 17.61-.59 3.58 9.2 2.8 19.38 2.38 29.04 8.29.99 16.69-.48 25.04-.16.65-12.45.91-25.77-5.05-37.11-3.62-7.36-11.21-12.04-19.13-13.47-9.66-1.67-20-1.54-29.22 2.12m126.29 1.01c-8.1 4.05-12.99 12.36-15.63 20.73-3.86 12.31-4.54 25.32-5.21 38.13-.14 16.64-.45 33.43 2.51 49.88 1.7 9.19 4.7 18.75 11.7 25.33 6.45 6.12 15.6 8.27 24.25 8.5 9.54.41 20.08-.62 27.52-7.23 8.84-7.45 10.85-19.7 11.79-30.59.27-7.35.86-14.88-.57-22.12-7.95-.59-16.09-.9-24.1-.54 1.03 6.84.53 13.8.61 20.7-.27 5.91-.52 12.26-3.66 17.46-3.18 5.19-10.68 5.23-15.54 2.62-4.87-3.8-5.19-10.44-5.98-16.06-1.21-11.94-.83-23.98-.91-35.96.05-14.05-.29-28.17 1.49-42.13.68-4.49 1.47-9.25 4.37-12.9 4.5-4.3 13.64-3.33 15.7 3.08 3.84 10.3 2.35 21.6 2.33 32.36 8.17-.11 16.33-.52 24.5-.82 1.49-12.63 1.42-26.01-3.38-37.97-3.77-9.34-13.43-14.77-23.06-16.01-9.61-1.09-19.95-1.03-28.73 3.54m103.71-4.07c-7.47.33-15.3 1.96-21.19 6.83-7.17 5.65-10.76 14.54-12.96 23.14-3.86 16.35-3.96 33.26-3.84 49.97.28 13.78.97 27.73 4.78 41.05 2.32 7.9 6.31 15.95 13.52 20.45 7.18 4.76 16.13 5.34 24.5 5.28 8.73-.14 18.01-2.06 24.56-8.23 7.11-6.85 10.13-16.66 12.11-26.07 2.24-12.72 3.05-25.68 2.85-38.59.17-13.34-.52-26.77-3.06-39.89-2.01-9.66-5.46-19.75-13.12-26.41-7.66-6.71-18.37-7.92-28.15-7.53m-622.22 2.16c-.39 47.05.14 94.13-.27 141.19 2.64 1.22 5.6.62 8.4.74 6.04-.14 12.09.23 18.11-.15.08-.77.25-2.3.33-3.07-.08-16.95.11-33.91-.09-50.86 7.2-.63 14.54.45 21.63-1.36 8.38-1.59 16.17-6.78 20.08-14.48 5.58-10.8 5.94-23.37 5.4-35.26-.76-10.41-3.8-21.61-12.11-28.57-7.03-5.87-16.44-7.84-25.39-8.15-12.03-.07-24.06.01-36.09-.03m172.22-.02c.02 47.29-.08 94.57.05 141.86 5.92.2 11.84 0 17.76.1 2.23-.02 4.55.23 6.66-.67-.3-19.53-.04-39.07-.14-58.61.21-13.79-.54-27.58-.03-41.36.59 4.76.56 9.59 1.3 14.35 3.96 28.82 9.5 57.4 13.99 86.13 7.59.17 15.21.36 22.8-.07 3.49-22.33 7.63-44.56 11.11-66.89 1.91-11.73 2.62-23.62 4.03-35.39-.05 34.15-.27 68.33-.05 102.5 8.07-.02 16.13.06 24.2-.05.16-47.3.01-94.6.07-141.9-11.24.17-22.49-.18-33.72.15-1.5 3.55-1.41 7.63-2.34 11.39-5.01 28.72-9.99 57.45-14.99 86.17-5.72-32.45-11.06-64.98-16.34-97.51-11.45-.38-22.91-.05-34.36-.2m137.52.04c-7.05 38.23-14.47 76.39-21.79 114.57-1.43 9.14-3.94 18.12-4.8 27.34 8.14.09 16.28-.19 24.42.13 2.62-8.44 3.11-17.44 4.95-26.09 7.01-.09 14.02-.12 21.03.01 1.7 8.68 2.9 17.47 5.05 26.05 9.13-.35 18.28.17 27.42-.27-.88-7.84-3.04-15.47-4.44-23.22-8.06-38.92-16.01-77.87-24.11-116.79.03-2.99-3.43-2.12-5.36-2.25-7.45.32-15-.65-22.37.52m367.48-.05c-.04 47.33-.15 94.66.06 141.99 8.1-.44 16.36.75 24.35-.64-.18-33.97-.14-67.95-.13-101.91.59 12.15 2.42 24.19 4.34 36.19 3.55 21.8 7.37 43.56 11.02 65.35.79 1.64 2.81.79 4.23.99 6.17-.32 12.41.55 18.52-.47 3.91-23.91 8.32-47.74 11.93-71.7 1.61-10.13 1.83-20.42 3.21-30.56.36 9.49.12 19-.09 28.49.09 24.71-.15 49.42.11 74.12 8.05.22 16.11.05 24.17.12.12-47.31.09-94.63.01-141.94-11.26.01-22.52.01-33.78.02-2.82 13.81-5.01 27.74-7.42 41.63-.68 4.2-1.7 8.37-1.55 12.66-.22.25-.66.74-.88.99-2.34 14.13-4.89 28.24-7.42 42.34-5.58-32.51-10.88-65.07-16.4-97.59-11.42-.12-22.85.03-34.28-.08m-216.77 110.95c-.06 10.25.03 20.5-.03 30.76 7.88.55 15.8.07 23.7.26 1.79-.09 3.8.34 5.36-.8-.4-10.05-.09-20.12-.14-30.18-9.63-.2-19.26-.17-28.89-.04z"/><path d="M274.99 222.3c12.99-.09 26.87.58 38.33 7.4 7.36 4.24 11.66 12.19 13.55 20.25 2.02 8.2 1.6 16.7 1.66 25.07 0 52.33 0 104.67-.01 157 .16 11.33-.05 23.51-6.22 33.44-5.6 9.23-16.45 13.51-26.7 14.98a99.128 99.128 0 0 1-20.58 1.26c-.35-60.56-.05-121.13-.15-181.7.08-25.9-.15-51.8.12-77.7zm451.93 747.73c2.52-2.77 6.58-2.16 9.76-3.57 1.63 2.1 4.59 2.65 5.99 4.98 2.28 3.39 3.2 7.48 3.72 11.49 1.9 13.6 1.29 27.36 1.4 41.06-.1 13.67.52 27.43-1.53 41-.83 4.44-1.83 9.61-5.84 12.31-3.53 1.89-8.06 1.9-11.68.28-5-3.05-5.8-9.33-6.73-14.58-1.78-15.96-1.29-32.04-1.36-48.05-.07-10 .25-19.99 1.19-29.94.69-5.21 1.37-10.94 5.08-14.98zm-591.48 1.18c5.53-1.07 12.37-.51 15.74 4.64 3.86 6.29 3.95 14.07 3.98 21.24-.33 7.06-.63 14.98-5.73 20.47-3.74 3.51-9.16 2.72-13.85 2.78-.26-16.37-.01-32.75-.14-49.13zm289.65 77.55c1.5-19.66 5.19-39.1 6.43-58.78 2.23 19.59 4.93 39.14 7.23 58.73-4.56.1-9.11.07-13.66.05z"/></g><path fill="#fff" d="M996.35 0h.65v1201h-.67c.03-400.33-.01-800.67.02-1201zM595.11 123.05c36.31-14.74 75.97-18.6 114.84-18.98 25.86.08 51.9 2.09 77 8.66 20.18 5.41 39.91 13.85 56.12 27.25 14.12 11.21 25.05 26.19 32.22 42.67 9.16 21.18 12.41 44.45 12.63 67.38-.03 58.79.04 117.58-.04 176.37-52.46.09-104.92-.04-157.38.07-.46-25.49-.07-51-.2-76.49V249.95c.28-8.63-.15-18.13-5.91-25.1-5.46-6.37-14.35-8.26-22.39-7.63-7.34.08-15.15 3.25-19.1 9.7-3.53 5.28-4.52 11.81-4.49 18.05.04 174.04-.01 348.07.03 522.11.32 7.45 1.55 15.77 7.28 21.13 5.64 5.93 14.56 6.42 22.24 6.02 7.94-.25 15.99-4.47 19.35-11.91 3.16-7.35 3.13-15.47 2.99-23.33 0-64.88-.01-129.75.01-194.63 52.52-.11 105.03 0 157.55-.06.13 64.23.01 128.46.06 192.68.01 21.85-2.49 43.97-10.03 64.59-7.08 19.41-19.06 37.21-35.29 50.12-16.7 13.6-36.93 22.24-57.7 27.47-26.38 6.7-53.76 8.4-80.89 8.06-28.17-.45-56.48-3.11-83.76-10.44-25.34-6.93-50.17-18.17-69.24-36.61-12.08-11.33-21.56-25.37-27.77-40.71-8.34-20.38-11.33-42.63-10.93-64.55V258.02c-.31-14.4.52-28.88 3.62-42.97 4.61-22.62 15.2-44.29 31.58-60.72 13.29-13.81 29.97-23.99 47.6-31.28zm-486.33-13.1c.16-.63.49-1.89.65-2.51 68.5.31 137.01.04 205.52.13 26.95-.39 54.31 1.84 80 10.48 18.21 6.12 35.38 16.1 48.54 30.24 17.56 18.38 27.02 43.04 31.04 67.82 2.69 15.48 3.15 31.23 2.94 46.9v175.04c.35 21.46-.47 43.16-5.88 64.04-5.17 20.83-14.96 40.96-30.48 56.03-9.26 9.59-20.64 16.94-32.69 22.54-17.48 7.99-36.46 12.18-55.5 14.26-18.25 2.17-36.65 1.36-54.98 1.51-7.62-.02-15.23.07-22.84-.02-.53 15.2-.08 30.43-.23 45.65.01 87.27-.02 174.54.01 261.81-55.36.04-110.73.15-166.09-.05-.02-264.62 0-529.25-.01-793.87M274.99 222.3c-.27 25.9-.04 51.8-.12 77.7.1 60.57-.2 121.14.15 181.7 6.88.29 13.8-.12 20.58-1.26 10.25-1.47 21.1-5.75 26.7-14.98 6.17-9.93 6.38-22.11 6.22-33.44.01-52.33.01-104.67.01-157-.06-8.37.36-16.87-1.66-25.07-1.89-8.06-6.19-16.01-13.55-20.25-11.46-6.82-25.34-7.49-38.33-7.4zm-65.76 733.75c9.15-6.36 20.98-6.61 31.66-5.39 9.49 1.11 19.01 6.41 22.9 15.49 5.31 12.02 4.88 25.69 3.76 38.51-8.26.21-16.52.75-24.78.76.79-9.72.96-19.63-1.06-29.21-.99-2.93-1.92-6.5-5.08-7.77-3.68-1.76-8.66-1.37-11.65 1.57-1.39 1.6-2.23 3.6-2.9 5.6-2.66 9.56-2.62 19.56-2.87 29.4-.66 10.97-.2 21.96-.34 32.95.63 10.05.07 20.26 2.23 30.18.89 3.88 2.6 8.44 6.75 9.82 4.6 1.52 10.83 1.06 13.6-3.46 2.79-4.26 3.07-9.54 3.57-14.46.58-7.96.39-15.98-.38-23.92 7.97-.21 15.93.51 23.91.34 1.73 10.99 1.17 22.36-.8 33.3-1.77 9.2-6.31 18.74-15.09 23.08-2.17 1.67-5.18-.35-6.65 2.59-11.34 2.31-23.83 2.27-34.4-2.93-7.97-3.81-12.67-11.98-15.3-20.07-4.31-14.04-4.69-28.87-4.97-43.44-.01-15.67.25-31.47 3.36-46.89 2.16-9.77 6.06-20.05 14.53-26.05zm291.9-2.86c9.22-3.66 19.56-3.79 29.22-2.12 7.92 1.43 15.51 6.11 19.13 13.47 5.96 11.34 5.7 24.66 5.05 37.11-8.35-.32-16.75 1.15-25.04.16.42-9.66 1.2-19.84-2.38-29.04-2.69-7.69-15.16-6.85-17.61.59-3.83 10.39-3.21 21.74-3.75 32.64-.07 14.68-.26 29.37.23 44.05.42 7.02.64 14.16 2.7 20.94.93 2.83 2.38 5.96 5.46 6.94 5.77 1.8 13.64.89 16.56-5.14 4.78-10.09 3.02-21.59 3.38-32.38-4.63.03-9.27-.06-13.89.07-.82-6.74-.25-13.56-.32-20.33 12.47-.1 24.95-.13 37.42.04-.13 23.62-.06 47.23-.03 70.85a5.6 5.6 0 0 1-.85 3.3c-3.28-.54-6.97.67-10-.76-2.35-3.25-4-6.95-6.1-10.35-3.58 6.09-8.78 12.14-16.2 13.11-9.17 1.22-19.04.37-27.17-4.36-8.12-4.99-12.5-14.14-14.85-23.06-4.51-17.25-4.14-35.24-3.94-52.92.45-14.1 1.37-28.42 5.67-41.95 2.82-8.77 8.44-17.35 17.31-20.86zm126.29 1.01c8.78-4.57 19.12-4.63 28.73-3.54 9.63 1.24 19.29 6.67 23.06 16.01 4.8 11.96 4.87 25.34 3.38 37.97-8.17.3-16.33.71-24.5.82.02-10.76 1.51-22.06-2.33-32.36-2.06-6.41-11.2-7.38-15.7-3.08-2.9 3.65-3.69 8.41-4.37 12.9-1.78 13.96-1.44 28.08-1.49 42.13.08 11.98-.3 24.02.91 35.96.79 5.62 1.11 12.26 5.98 16.06 4.86 2.61 12.36 2.57 15.54-2.62 3.14-5.2 3.39-11.55 3.66-17.46-.08-6.9.42-13.86-.61-20.7 8.01-.36 16.15-.05 24.1.54 1.43 7.24.84 14.77.57 22.12-.94 10.89-2.95 23.14-11.79 30.59-7.44 6.61-17.98 7.64-27.52 7.23-8.65-.23-17.8-2.38-24.25-8.5-7-6.58-10-16.14-11.7-25.33-2.96-16.45-2.65-33.24-2.51-49.88.67-12.81 1.35-25.82 5.21-38.13 2.64-8.37 7.53-16.68 15.63-20.73zm103.71-4.07c9.78-.39 20.49.82 28.15 7.53 7.66 6.66 11.11 16.75 13.12 26.41 2.54 13.12 3.23 26.55 3.06 39.89.2 12.91-.61 25.87-2.85 38.59-1.98 9.41-5 19.22-12.11 26.07-6.55 6.17-15.83 8.09-24.56 8.23-8.37.06-17.32-.52-24.5-5.28-7.21-4.5-11.2-12.55-13.52-20.45-3.81-13.32-4.5-27.27-4.78-41.05-.12-16.71-.02-33.62 3.84-49.97 2.2-8.6 5.79-17.49 12.96-23.14 5.89-4.87 13.72-6.5 21.19-6.83m-4.21 19.9c-3.71 4.04-4.39 9.77-5.08 14.98-.94 9.95-1.26 19.94-1.19 29.94.07 16.01-.42 32.09 1.36 48.05.93 5.25 1.73 11.53 6.73 14.58 3.62 1.62 8.15 1.61 11.68-.28 4.01-2.7 5.01-7.87 5.84-12.31 2.05-13.57 1.43-27.33 1.53-41-.11-13.7.5-27.46-1.4-41.06-.52-4.01-1.44-8.1-3.72-11.49-1.4-2.33-4.36-2.88-5.99-4.98-3.18 1.41-7.24.8-9.76 3.57zm-618.01-17.74c12.03.04 24.06-.04 36.09.03 8.95.31 18.36 2.28 25.39 8.15 8.31 6.96 11.35 18.16 12.11 28.57.54 11.89.18 24.46-5.4 35.26-3.91 7.7-11.7 12.89-20.08 14.48-7.09 1.81-14.43.73-21.63 1.36.2 16.95.01 33.91.09 50.86-.08.77-.25 2.3-.33 3.07-6.02.38-12.07.01-18.11.15-2.8-.12-5.76.48-8.4-.74.41-47.06-.12-94.14.27-141.19m26.53 18.92c.13 16.38-.12 32.76.14 49.13 4.69-.06 10.11.73 13.85-2.78 5.1-5.49 5.4-13.41 5.73-20.47-.03-7.17-.12-14.95-3.98-21.24-3.37-5.15-10.21-5.71-15.74-4.64zm145.69-18.94c11.45.15 22.91-.18 34.36.2 5.28 32.53 10.62 65.06 16.34 97.51 5-28.72 9.98-57.45 14.99-86.17.93-3.76.84-7.84 2.34-11.39 11.23-.33 22.48.02 33.72-.15-.06 47.3.09 94.6-.07 141.9-8.07.11-16.13.03-24.2.05-.22-34.17 0-68.35.05-102.5-1.41 11.77-2.12 23.66-4.03 35.39-3.48 22.33-7.62 44.56-11.11 66.89-7.59.43-15.21.24-22.8.07-4.49-28.73-10.03-57.31-13.99-86.13-.74-4.76-.71-9.59-1.3-14.35-.51 13.78.24 27.57.03 41.36.1 19.54-.16 39.08.14 58.61-2.11.9-4.43.65-6.66.67-5.92-.1-11.84.1-17.76-.1-.13-47.29-.03-94.57-.05-141.86zm137.52.04c7.37-1.17 14.92-.2 22.37-.52 1.93.13 5.39-.74 5.36 2.25 8.1 38.92 16.05 77.87 24.11 116.79 1.4 7.75 3.56 15.38 4.44 23.22-9.14.44-18.29-.08-27.42.27-2.15-8.58-3.35-17.37-5.05-26.05-7.01-.13-14.02-.1-21.03-.01-1.84 8.65-2.33 17.65-4.95 26.09-8.14-.32-16.28-.04-24.42-.13.86-9.22 3.37-18.2 4.8-27.34 7.32-38.18 14.74-76.34 21.79-114.57m6.44 96.45c4.55.02 9.1.05 13.66-.05-2.3-19.59-5-39.14-7.23-58.73-1.24 19.68-4.93 39.12-6.43 58.78zm361.04-96.5c11.43.11 22.86-.04 34.28.08 5.52 32.52 10.82 65.08 16.4 97.59 2.53-14.1 5.08-28.21 7.42-42.34.22-.25.66-.74.88-.99-.15-4.29.87-8.46 1.55-12.66 2.41-13.89 4.6-27.82 7.42-41.63 11.26-.01 22.52-.01 33.78-.02.08 47.31.11 94.63-.01 141.94-8.06-.07-16.12.1-24.17-.12-.26-24.7-.02-49.41-.11-74.12.21-9.49.45-19 .09-28.49-1.38 10.14-1.6 20.43-3.21 30.56-3.61 23.96-8.02 47.79-11.93 71.7-6.11 1.02-12.35.15-18.52.47-1.42-.2-3.44.65-4.23-.99-3.65-21.79-7.47-43.55-11.02-65.35-1.92-12-3.75-24.04-4.34-36.19-.01 33.96-.05 67.94.13 101.91-7.99 1.39-16.25.2-24.35.64-.21-47.33-.1-94.66-.06-141.99zm-216.77 110.95c9.63-.13 19.26-.16 28.89.04.05 10.06-.26 20.13.14 30.18-1.56 1.14-3.57.71-5.36.8-7.9-.19-15.82.29-23.7-.26.06-10.26-.03-20.51.03-30.76z"/></svg>