<svg xmlns="http://www.w3.org/2000/svg" viewBox="0 0 115.1 20"><path d="M0 18.1c1.5 0 2.1-.7 2.1-2.3V4.2c0-1.6-.5-2.3-2.1-2.3V.3h8.6c4.7 0 7.8 2.1 7.8 5.8 0 3.4-2.8 5.8-7.9 5.8H7.1v3.8c0 1.8.9 2.3 3.4 2.3v1.6H0v-1.5zM7.1 1.8v8.7h.8c2.4 0 3.7-1.8 3.7-4.4 0-2.7-1.3-4.3-3.8-4.3h-.7zm9.5 16.3c1.4 0 1.9-.6 1.9-2.1v-5.4c0-.8-.6-1.3-1.4-1.2h-.5V7.7l5.3-1.6h1.3v9.8c0 1.5.5 2.1 1.9 2.1v1.6h-8.6v-1.5zM20.9.5c1.4 0 2.6 1.2 2.6 2.6 0 1.4-1.2 2.6-2.6 2.6-1.4 0-2.6-1.2-2.6-2.6 0-1.4 1.1-2.6 2.6-2.6m5.5 8.2h-1.8V7.6c2.1-.6 4.7-2.3 5.5-4.8h1V7h3.3v1.7h-3.3v6.5c0 1.6.9 2.1 1.8 2.1.6 0 1.3-.2 1.7-.5l.5.9c-.8 1.3-2.7 2.3-4.6 2.3-2.8 0-4.1-1.7-4.1-4.5V8.7zm15.5-2.6c1.8 0 3.4.5 4.9 1.3L45.1 12H44c-.3-2.8-1.6-3.9-3-3.9-1.7 0-2.7 1.5-2.7 3.5 0 3 2.1 4.5 4.3 4.5 1.7 0 2.6-.7 3.2-2l1 .4c-.6 3.1-2 5.5-5.8 5.5-3.5 0-6-2.5-6-6.4.1-4.6 2.8-7.5 6.9-7.5"/><path d="M46.4 18.1c1.4 0 1.9-.6 1.9-2.1V4.4c0-.8-.6-1.2-1.4-1.2h-.6V1.4L52 0h1v8.9c.7-1.9 2.1-2.8 4-2.8 2.5 0 4.2 1.4 4.2 4.3v5.5c0 1.5.5 2.1 1.9 2.1v1.6h-7.9V18c1.2 0 1.2-.7 1.2-2v-5.5c0-1.2-.6-1.8-1.7-1.8-.9 0-1.6.6-1.8 1.5V16c0 1.3.1 2 1.2 2v1.6h-7.9v-1.5zm17.5 0c1.4 0 1.9-.6 1.9-2.1V8.7h-1.9V7.6c1.5 0 2-.4 2-1.5 0-2.6 2.3-6.1 7-6.1 1.5 0 3.1.5 4.5 1.1l-2 5-1-.2c.1-2.7-.8-4.4-2.4-4.4-1.3 0-2 1.1-2 2.5 0 1.2.3 2.2.5 3h2.8v1.7h-2.7v7.2c0 1.5.5 2.1 1.9 2.1v1.6h-8.6v-1.5z"/><path d="M73.2 13c0-4.5 3.2-7 6.9-7S87 8.5 87 13s-3.2 7-6.9 7-6.9-2.5-6.9-7m5.3 0c0 4.4.4 5.7 1.6 5.7 1.2 0 1.6-1.3 1.6-5.7s-.4-5.7-1.6-5.7c-1.2.1-1.6 1.4-1.6 5.7m8.8 5.1c1.4 0 1.9-.6 1.9-2.1v-5.2c0-.8-.6-1.3-1.4-1.3h-.6V7.8l5-1.5h1.4v2.1c0 1.1-.1 2.7-.1 3.3h.1c.4-4 2.2-5.7 4.3-5.7.4 0 .5 0 .8.1v4.6c-1.7-.3-4.7-.2-4.7 2.9v2.3c0 1.5.5 2.1 1.9 2.1v1.6h-8.6v-1.5z"/><path d="M98.3 18.1c1.4 0 1.9-.6 1.9-2.1V4.4c0-.8-.6-1.2-1.4-1.2h-.6V1.4L104 0h1v12.2h.2l2.3-1.1c1.1-.5 1.3-1 1.3-1.7 0-.9-.7-1.4-1.8-1.4V6.4h7v1.4c-1.5 1.8-2.9 2.5-4.5 3.3l3.1 4.2c1 1.3 1.6 2.7 2.6 2.7v1.6h-5.9l-4.1-6.6h-.2v3.3c0 1.1.1 1.6 1.2 1.6v1.6h-7.9v-1.4z"/></svg>