<svg xmlns="http://www.w3.org/2000/svg" viewBox="0 0 2301.7 412.7"><path fill="#cf1c23" d="M63.9 173.6h16.4c35.4 0 59-3.8 70.8-11.5 11.8-7.7 17.7-21.3 17.7-40.8 0-20.9-6.3-35.7-18.9-44.3-12.6-8.6-35.8-12.9-69.6-12.9H63.9v109.5zm-4 52.3v176.3H0V9.4h96.6c28.6 0 49.7 1.6 63.2 4.7s25.3 8.3 35.3 15.4c12.3 9.1 22 21.4 29 36.9s10.5 32.5 10.5 51.1-3.5 35.8-10.5 51.5c-7 15.8-16.6 28.1-29 37-10 7.2-21.8 12.3-35.3 15.3-13.5 3.1-34.6 4.6-63.2 4.6H59.9zm552.3-19.3c0-19.9-3.6-38.7-10.8-56.6-7.2-17.8-17.8-34-31.3-47.7-13-13.6-28.7-24.4-46-31.8-17.4-7.4-36.2-11.2-55.2-11.1-19.3 0-37.7 3.7-55.2 11-17.5 7.4-33.4 18.3-46.5 32-13.5 13.6-24 29.7-31.1 47.5-7.1 17.9-10.7 36.9-10.7 56.9 0 19.9 3.6 38.6 10.7 56.3 7.1 17.7 17.7 33.9 31.1 47.5 13.2 13.7 29 24.5 46.4 31.9 17.4 7.3 35.8 11 55.3 11 18.8.1 37.3-3.7 54.6-11 17.2-7.3 32.8-18 46.6-31.9 13.4-13.7 24-29.9 31.3-47.6 7.2-18 10.9-37.1 10.8-56.4m66.5 0c0 27.9-5.2 54.3-15.7 79.2-10.5 24.9-25.7 47.1-45.7 66.6-20.2 19.5-43 34.4-68.4 44.8-25.4 10.4-52 15.6-80 15.6-28.3 0-55.2-5.2-80.9-15.7-25.4-10.3-48.5-25.5-68-44.7-20-19.5-35.3-41.6-45.6-66.3-10.4-24.7-15.6-51.2-15.6-79.4 0-28.1 5.2-54.5 15.6-79.4 10.4-24.9 25.6-47.1 45.6-66.8 19.6-19.2 42.7-34.3 68.1-44.6C413.5 5.7 440.4.6 468.9.6c28.3 0 55 5.1 80.4 15.3 25.4 10.2 48.5 25.4 68 44.6 20 19.9 35.3 42.2 45.7 67.2 10.5 24.8 15.7 51.2 15.7 78.9m56.8 195.6V9.4h63.8v335.7h142.8v57.1H735.5zm243-392.8h63.9v392.8h-63.9V9.4zm266.1 54.2v338.6h-63.9V63.6h-104.4V9.4h272.1v54.2h-103.8zm137.2-54.2h63.8v392.8h-63.8V9.4zm454.5 95.5c-18.1-15.4-37.2-26.9-57.3-34.7-20.3-7.7-41.8-11.6-63.5-11.5-42.9 0-77.9 13.8-104.8 41.3-26.9 27.5-40.4 63.2-40.4 107 0 42.4 13.1 77.4 39.3 104.9 26.2 27.5 59.3 41.3 99.1 41.3 23.3 0 45.4-4.1 66.4-12.3 21-8.2 41.2-20.7 60.5-37.3v72.2c-17 12.3-36 21.6-56.1 27.7-20.3 6.1-42.1 9.1-65.8 9.1-30 0-57.8-4.9-83.3-14.7-25.2-9.6-48.1-24.4-67.2-43.5-19.2-18.8-34.2-41.4-44.1-66.4-10.3-25.5-15.4-52.7-15.4-81.5s5.1-55.9 15.4-81.2c10.1-25.1 25.3-47.8 44.7-66.7 19.1-19.1 41.9-34 67.1-43.9 25.2-10 52.5-14.9 81.9-14.9 23.1 0 45.1 3.3 66 10.1 20.9 6.7 41.2 16.9 60.9 30.5l-3.4 64.5zm398.9 101.7c0-19.9-3.6-38.7-10.9-56.6-7.2-17.8-17.8-34-31.3-47.7-13-13.6-28.7-24.4-46-31.8-17.4-7.4-36.2-11.2-55.1-11.1-19.3 0-37.7 3.7-55.2 11-17.5 7.4-33.4 18.3-46.5 32-13.5 13.6-24 29.7-31.1 47.5-7.1 17.9-10.7 36.9-10.7 56.9 0 19.9 3.6 38.6 10.7 56.3 7.2 17.7 17.7 33.9 31.1 47.5 13.2 13.7 29 24.5 46.4 31.9 17.4 7.3 35.8 11 55.3 11 18.8.1 37.3-3.7 54.6-11 17.2-7.3 32.8-18 46.6-31.9 13.4-13.7 24-29.9 31.3-47.6 7.1-18 10.8-37.1 10.8-56.4m66.5 0c0 27.9-5.2 54.3-15.7 79.2-10.5 24.9-25.7 47.1-45.8 66.6-20.2 19.5-43 34.4-68.4 44.8-25.4 10.4-52 15.6-80 15.6-28.3 0-55.2-5.2-80.9-15.7-25.4-10.3-48.5-25.5-68-44.7-20.1-19.5-35.3-41.6-45.6-66.3-10.4-24.7-15.6-51.2-15.6-79.4 0-28.1 5.2-54.5 15.6-79.4 10.4-24.9 25.6-47.1 45.6-66.8 19.6-19.2 42.7-34.3 68.1-44.6C2036.4 5.7 2063.3.6 2091.8.6c28.3 0 55 5.1 80.3 15.3 25.4 10.2 48.5 25.4 68 44.6 20.1 19.9 35.3 42.2 45.8 67.2 10.6 24.8 15.8 51.2 15.8 78.9"/></svg>