<svg xmlns="http://www.w3.org/2000/svg" xmlns:xlink="http://www.w3.org/1999/xlink" viewBox="0 0 1203 100"><path id="a" d="M59.3 55.5c-6.4 5.3-15.1 7.2-25 7.2H22.5v35.4H0V2.3h34.3c9.9 0 18.6 1.9 25 7.2 6.4 5.3 10 12.6 10 22.9 0 10.4-3.6 17.7-10 23.1zM41.9 22.3c-2.8-1.9-6-2.6-10.8-2.6h-8.7v25.7h8.7c4.9 0 8.1-.7 10.8-2.6 2.6-1.9 4.6-5.4 4.6-10.3s-1.9-8.2-4.6-10.2z"/><path d="M187.6 2.2c-26.9 0-47.4 18.1-47.4 48.2s20.5 48 47.4 48 47.4-17.9 47.4-48c.1-30.1-20.5-48.2-47.4-48.2zm0 76.7c-15.1 0-25.9-10.7-25.9-28.5s10.8-29.6 25.9-29.6 25.9 11.8 25.9 29.6-10.8 28.5-25.9 28.5z"/><use x="306.2" xlink:href="#a"/><path d="M503.3 90.4c-6.7 5.3-15.4 7.7-25.4 7.7-13.6 0-25.7-7.1-33.3-14.1l10.9-16c6.8 7.1 17.3 11.8 24.5 11.8 7.1 0 12.5-3.4 12.5-9.6 0-6.4-6.9-8.8-11-10.3s-11.1-3.9-14.3-5.3c-2.3-1.1-7.1-2.9-11.1-6.8-4.1-3.8-7.3-9.2-7.3-18.1 0-9 4.3-16 9.8-20.5 5.3-4.5 13.9-7.5 24.7-7.5 10.9 0 23.4 5.2 29.8 11.5l-9.4 15.4c-5.4-5.4-13.9-9.5-20.9-9.5-7.1 0-12.2 2.7-12.2 8.4s5.3 7.9 9.5 9.5c4.1 1.6 11 4.1 14 5.3 2.6 1 8.8 3.4 13 7.6 3.9 3.9 7.3 9.6 7.3 18.1-.1 9-4.3 17.1-11.1 22.4zm160.1-33.2c0 13.4-2.3 22.6-9.1 29.9-6.6 7.2-16.9 11.3-30.7 11.3-13.9 0-24.1-4.1-30.9-11.3-6.6-7.3-9-16.5-9-29.9V1.8h22.5v55.4c0 6.7.5 12 3.7 15.8 3 3.6 7.4 5.9 13.6 5.9s10.6-2.3 13.6-5.9c3.2-3.9 3.7-9.1 3.7-15.8V1.8h22.5v55.4zm159.4 25.1c-4.7 4.2-15.9 16-41.6 16-25.9 0-48.7-17.1-48.7-48.3 0-31.2 22.8-48.1 48.9-48.1 24.8 0 35.5 13 38.5 16.3l-14.5 12.6c-3.9-4.3-11.3-10.7-24-10.7-15 0-26.7 11-26.7 30s11.9 30 27.1 30c15.2 0 19.5-6 19.5-6V60.2h-19.7V43.5h41.1v38.8zm164.7 15.9h-24.4l-6.8-19.3h-34.2l-6.8 19.3H892l36.1-96h23.3l36.1 96zm-36.4-36.8L939.2 27l-11.9 34.4h23.8zm181.4 36.8h-26.1l-20.1-36.7h-7.1v36.7h-22.5V2.3h34.4c10.7 0 19 2.2 25.3 6.8 6.4 4.7 10.6 12.4 10.6 21.9 0 18.2-11.7 25.3-18.7 27.5l24.2 39.7zm-33.1-76c-2.8-2.1-6.4-2.5-11.5-2.5h-8.9v24.6h8.9c5.1 0 8.7-.6 11.5-2.6 2.9-2.1 4.9-4.7 4.9-9.7 0-4.9-1.9-7.7-4.9-9.8z"/><circle cx="1185.7" cy="81" r="17.3"/></svg>