<svg xmlns="http://www.w3.org/2000/svg" id="layer" x="0" y="0" version="1.1" viewBox="0 0 652 652" xml:space="preserve"><style>.st0{fill:#1e3e66}.st1{fill:#b72025}</style><path d="M351.5 320.8c0-7.4 0-22.7-29.5-22.7-6.5 0-15.3.6-22.3 4.2-8.9 4.7-10.2 11.3-11.2 16.5l23.1-.6c.8-4.3 2.4-5.8 8-5.8 7.1 0 8.3 2.9 8.4 7.1-3.7 1.1-6.4 1.7-13.2 2.6-10.9 1.4-17.6 2.4-23.2 8.1-4.4 4.4-5.3 9.6-5.3 13.3 0 10.6 6.8 20 22.4 20 11.6 0 17.4-4.1 20.5-6.2v4.8h24.3c-1.8-2.5-2.1-3.6-2.1-7.7l.1-33.6zm-24.7 19.9c-2.2 4.8-7.9 7.1-11.4 7.1-4.7 0-6.1-3.1-6.1-4.8 0-.7.2-3.6 5-5.5 2.2-.7 4.3-1.2 6.4-1.7 2.5-.7 4.9-1.6 7.3-2.4 0 2.1 0 4.7-1.2 7.3zm75.4-42.1c-13.7 0-18.3 7-20.4 9.8v-8.3h-23.4v62.1h24.7v-33.1c0-3.4.2-10.2 9-10.2 8.3 0 8.4 6.2 8.4 9.3v33.9h24.7v-39.2c0-4.7-.4-12.9-6.2-18.7-2-1.8-7-5.6-16.8-5.6z" class="st0"/><path d="M278.7 321.6c6.1-6.2 6.5-13.8 6.5-17 0-8.1-3.4-19.7-14.6-24.5-5.2-2.2-12.8-2.6-20.9-2.6h-42.2v84.8h26.9v-29.8h7.9l16.4 29.8h29.7l-20.6-34.2c4-1.6 7.6-2.9 10.9-6.5zm-33.2-6.6h-11.1v-19.8h11c4.7 0 13.1.2 13.1 10 0 9.6-8.6 9.8-13 9.8zm355-9.4v-5.8h-23.7v62.5h24.6V333c.1-4.1.4-13.5 14.9-13.5 1.7 0 3.4.1 5 .2v-20.9c-9.5.1-14.1.8-20.8 6.8zm-95.9-5.4h-30.2l-16.8 17.7v-40.3h-24.8v84.7h24.7v-17.4l6.5-6.2 13.5 23.6h28.2L481 322.6z" class="st0"/><path d="M563.6 306.9c-7.6-7.3-17.4-9.2-24.9-9.2-20.1 0-34.2 13.1-34.2 33.3 0 17.3 11.3 33.8 34.3 33.8 14.9 0 25.7-5.9 33-17l-20.4-8.5c-2.5 5-5.6 8-11.3 8-4.5 0-6.8-2.3-7.4-2.9-2.7-2.8-2.9-6-3-8.7h43.4c-.3-9.5-.4-19.8-9.5-28.8zm-33.7 15.7c.6-2.8 1.9-9.2 9.4-9.2 3.3 0 7.2 1.9 8.3 6.4.2 1 .2 1.9.4 2.9h-18.1zM139 294.8c1.2 1.9 2.2 3.8 3.1 5.9l13.1-12.2c-1.1-1.9-2.3-3.7-3.6-5.4L139 294.8z" class="st0"/><path d="M45.3 347.3c-1.1-1.9-2.2-3.9-3-5.9l-13.2 12.3c1.1 1.9 2.2 3.7 3.5 5.5l12.7-11.9z" class="st1"/><linearGradient id="SVGID_1_" x1="93.775" x2="141.415" y1="392.298" y2="360.702" gradientTransform="matrix(1 0 0 -1 0 652)" gradientUnits="userSpaceOnUse"><stop offset=".3" stop-color="#fff" stop-opacity="0"/><stop offset=".368" stop-color="#e1e6eb" stop-opacity=".098"/><stop offset=".537" stop-color="#9dabbc" stop-opacity=".344"/><stop offset=".69" stop-color="#667c97" stop-opacity=".566"/><stop offset=".822" stop-color="#3f5a7c" stop-opacity=".756"/><stop offset=".926" stop-color="#27466c" stop-opacity=".907"/><stop offset=".99" stop-color="#1e3e66"/></linearGradient><path fill="url(#SVGID_1_)" d="M99.6 256.3c-.1 0-3.5-.1-6.8.3-3.1.4-6.1 1.2-6.2 1.2-3 4.5-.6 16.3-.6 16.3.1 0 2.4-.7 5.4-1.1 3.1-.4 7-.3 7.1-.3 20.1 1 35.1 11.2 42.5 25.7l12.6-12.6c-11.3-17.2-31-27.8-54-29.5z"/><path d="M163.3 318.4c-.3-12.6-3.8-23.6-9.8-32.7L141 298.3c3.5 6.9 5.3 14.7 5 22.9-.5 19.3-10.8 35.7-26.3 43.5-.6.3-1.2 1.6-1.2-5.6 0-12.7.2-50.5.2-50.3 0 0 5.8 5.2 7.8 6.8.1.1 3.2 1.1 5.3-1.4 2.7-3.3 1.3-6.3.4-7.1-2.6-2.5-13.9-13.2-19.2-17.8-1.3-1.2-2.2-1.1-2.4-1.1-.2 0-1 0-2.2 1.1-4.4 4.2-15.4 14.1-19.5 17.8-.4.5-1.6 2.6.4 6.1 3 5.1 6.7 1.3 5.6 2.1 2.6-2 8.1-6.5 8.1-6.5l-.2 59.7c0 .5-.6 10.3 1.7 13.4 4.5 5.9 16.5.3 14.5 1 23.8-9.3 45.1-29.2 44.3-64.5z" class="st0"/><path d="M95.8 335.4l-.1.1s0-.1.1-.1z" class="st1"/><linearGradient id="SVGID_2_" x1="89.833" x2="40.05" y1="271.822" y2="297.819" gradientTransform="matrix(1 0 0 -1 0 652)" gradientUnits="userSpaceOnUse"><stop offset=".3" stop-color="#fff" stop-opacity="0"/><stop offset=".316" stop-color="#fdf8f9" stop-opacity=".023"/><stop offset=".504" stop-color="#e4acae" stop-opacity=".296"/><stop offset=".673" stop-color="#d17073" stop-opacity=".54"/><stop offset=".815" stop-color="#c34549" stop-opacity=".746"/><stop offset=".925" stop-color="#ba2a2f" stop-opacity=".906"/><stop offset=".99" stop-color="#b72025"/></linearGradient><path fill="url(#SVGID_2_)" d="M98.6 368.6c-.1 0-2.4.8-5.4 1.1-3.1.4-7 .3-7.1.3-20.1-1-35.1-11.2-42.5-25.7L31 356.9c11.2 17.2 31 27.7 53.9 29.5.1 0 3.5.1 6.8-.3 3.1-.4 6.1-1.2 6.2-1.2 3.1-4.6.7-16.3.7-16.3z"/><path d="M88.9 307.1l-.1.1s.1 0 .1-.1z" class="st1"/><path d="M38.6 321.4c.5-19.3 10.8-35.7 26.3-43.5.6-.3 1.2-1.6 1.2 5.6 0 12.7-.2 50.5-.2 50.3 0 0-5.8-5.2-7.8-6.8-.1-.1-3.3-1.1-5.3 1.4-2.6 3.3-1.3 6.3-.4 7.1 2.6 2.5 13.9 13.2 19.2 17.8 1.3 1.2 2.2 1.1 2.4 1.1.2 0 1 0 2.2-1.1 4.4-4.2 15.4-14.1 19.5-17.8.4-.5 1.6-2.6-.4-6.1-3-5.1-6.7-1.3-5.6-2.1-2.6 2-8.1 6.5-8.1 6.5l.2-59.7c0-.5.6-10.3-1.7-13.4-4.5-5.9-16.5-.3-14.5-1-23.8 9.4-45.1 29.3-44.4 64.6.3 12.6 3.8 23.6 9.8 32.7l12.6-12.6c-3.5-6.9-5.3-14.7-5-23z" class="st1"/></svg>