<svg xmlns="http://www.w3.org/2000/svg" viewBox="-28.224 -15 244.605 90"><path fill="none" d="M0 0v60"/><path fill="#CB3733" d="M164.852 27.697h-2.496V39.79h2.111v5.168h-7.277v-17.26h-2.642v-5.225h2.642v-7.25h5.166v7.25h2.496zm-17.819 0h-1.642v-5.223h6.87V39.79h2.143v5.224h-9.509V39.79h2.144V27.697zm0-7.309v-5.165h5.224v5.165zM2.385 27.698H.24v-5.224h7.368v2.378c1.378-1.26 4.343-2.642 7.983-2.642v5.34c-6.282.147-7.983 3.23-7.983 6.137v6.106h2.085v5.224H.241v-5.224h2.144V27.697zm62.198 0v-5.224h-6.987v1.583c-1.818-1.202-3.904-1.818-6.165-1.818-3.2 0-5.93 1.144-8.13 3.405-2.2 2.262-3.406 4.96-3.406 8.19 0 3.228 1.144 5.93 3.406 8.13 2.261 2.261 4.96 3.405 8.13 3.405 2.32 0 4.344-.557 6.165-1.819v1.438h6.987v-5.224H62.94V27.727h1.643zm-12.77 12.708c-3.729 0-6.665-3.024-6.665-6.664 0-3.728 3.024-6.664 6.664-6.664 3.728 0 6.547 3.024 6.547 6.664 0 3.64-2.907 6.664-6.547 6.664zm36.574-.616V12.727h-7.485v5.224h2.144v6.282c-1.877-1.26-3.962-1.938-6.429-1.938-3.2 0-5.93 1.143-8.13 3.405-2.203 2.261-3.406 4.96-3.406 8.13 0 3.17 1.144 5.93 3.406 8.13 2.261 2.262 4.96 3.406 8.13 3.406 2.379 0 4.52-.616 6.43-1.939v1.643h7.484v-5.224h-2.144zm-11.418.616c-3.728 0-6.664-3.024-6.664-6.664 0-3.728 3.024-6.664 6.664-6.664 3.64 0 6.546 3.024 6.546 6.664 0 3.64-2.877 6.664-6.546 6.664zm66.923-12.709v-5.223c-3.64 0-6.546 1.144-7.984 2.378v-2.378H118.65v5.223h2.144l-6.223 10.832V22.532h-6.664l-9.45 16.056v-10.89h2.144v-5.224h-9.45v5.223h2.143v17.258h7.427l8.687-14.677v14.677h7.31l10.127-17.258h3.846V39.79h-2.144v5.224h9.45V39.79h-2.144v-6.106c.055-2.904 1.698-5.87 8.04-5.987zm-105.756 7.69c.058-.498.117-.996.117-1.583 0-6.37-5.048-11.506-11.272-11.506S15.71 27.463 15.71 33.803 20.757 45.31 26.98 45.31c4.843 0 9.01-3.141 10.568-7.485h-5.4c-1.202 1.701-3.082 2.76-5.223 2.76-3.083 0-5.605-2.203-6.283-5.224-.003.027 17.493.027 17.493.027zm-11.213-8.394c2.7 0 5.047 1.76 5.989 4.227H20.966c.938-2.467 3.255-4.227 5.957-4.227zm161.117 8.395c.059-.499.118-.997.118-1.584 0-6.37-5.048-11.506-11.272-11.506s-11.272 5.165-11.272 11.506 5.048 11.506 11.272 11.506c4.842 0 9.01-3.141 10.567-7.485h-5.4c-1.202 1.701-3.082 2.76-5.223 2.76-3.083 0-5.605-2.203-6.282-5.224h17.495v.027zm-11.213-8.395c2.702 0 5.048 1.76 5.99 4.227H170.87c.907-2.467 3.256-4.227 5.957-4.227z"/></svg>