<svg xmlns="http://www.w3.org/2000/svg" id="Layer_1" viewBox="0 0 378 79"><style>.st1{fill:#ec2227}.st3{fill:#fff}</style><path d="M376.6 62.6c-.6.2-1.4.2-1.9-.1-.7-.4-1.2-1.2-1.1-2.1.1-.6.4-1.2 1-1.5.6-.5 1.3-.4 1.9-.2.8.3 1.4 1.1 1.4 2-.1.8-.6 1.6-1.3 1.9zm.9-2.1c-.1-.7-.6-1.2-1.2-1.5-.5-.2-1.1-.1-1.4.1-.6.4-1.1.9-1 1.8.1.6.5 1.2 1.1 1.4.6.2 1.4.1 1.9-.3.4-.3.6-.9.6-1.5z"/><path d="M376.1 61.1c.1.2.2.5.3.8-.5-.2-.6-.8-.9-1.1-.3 0-.3.1-.4.2 0 .2-.3.5 0 .7-.1.2-.4 0-.6.1.2-.7.5-1.4.7-2.1 0-.1-.1-.1 0-.2.5 0 1.2-.2 1.4.4 0 .2 0 .4-.1.5 0 .2-.7.2-.4.7zm.2-1.3c-.1-.2-.4-.2-.6-.2 0 .2-.1.4-.2.8h.6c.1-.2.3-.4.2-.6z"/><path fill="#07070c" d="M130.2 19.6l-.9-.9c-.4 1.9-.8 3.8-1.1 5.7 1.4-.7 2.7-1.5 4-2.4-.7-1-1.3-1.7-2-2.4L133 6.7c2.1-1 4.4-1.7 7-1.4 3.2.8 5.2 3.7 7.3 5.9 1.8 2.2 3.3 5.3 1.8 8.1-.5.8-1.1 1.2-1.7 1.8l1.2 1.3-.2 1.8h.3l12.8-7.8c.3-.3.8-.5 1.2-.5 1.2 1.4 2.3 2.5 3.6 3.8 2.9-1.5 7.3-2.1 10.2-.2 2.3 1.5 3.5 3.8 5.5 5.6l.2-.2c.8-1.1 1.9-2.4 3.1-3.2l.2-.2c5-4.1 13.1-5 19.3-2.4 2.1.7 3.7 2.4 5.3 3.8 1.3-1.8 3.1-3.2 5-4.1l10.4 13.4c-.3.9-.6 1.8-.8 2.6l-.2.2c-1.6-.3-3.1-.3-4.7.1-2.1.8-3.1 3-3.4 5l4.9 5.4c.9 1.6 1.6 3.5 3.2 4.6 2.7 1.5 7 2.2 9.8.5 2.1-1.1 3-3.4 3-5.7-.2-2.8-2.1-5-3.7-7.2l-5.9-6.6-1.4-1.5c-.2.8-.5 1.7-.8 2.5L215 18.7c2-1 4.2-1.5 6.6-1.5.4-2.7 1-5.4 2.4-7.7 2-3.5 5.9-6.4 10-7.2 3.1-.8 6.2-.3 9.1.4l-.1 14.7c-.8.5-1.4 1.2-1.7 2-1 2.9.8 5.6 2.8 7.3l6.7 7.5 2.3 2.3c.2-.7.3-1.5.4-2.2-1.3-1.7-2.8-3.1-4.2-4.7l.5-3.5c-1.1-1.4-2.4-2.7-3.6-4.1.2-1.7.8-3.3.7-5-.5-.1-1-.2-1.5-.2-.8 0-1.7.2-2.4.6l.1-14.6c1.5.4 3 .9 4.5 1.3.7.1 1.5 0 2.1-.5.4-.4.5-.9.6-1.5l.3-.1 6.9.1.2.1 5 5.6.1.3-1.6 8.5c.1.1.3 0 .4-.1l8.4-5.3.2-.1 5.4 6.1c-.1 1.3-.6 2.5-.7 3.8 1.6.2 3.1-.2 4.5-.5h.2L281 22c4.3-2.9 9.6-4.7 15.2-3.4 4.6 1.1 7.7 5.2 10.7 8.4h.3l9-5.7c2.6-1.7 5.5-3.4 8.1-5.2l.3.1c1.1 1.2 2 2.3 3.1 3.4.6-.1 1.2-.5 1.8-.7 2.5-1 6.1-1.4 8.4.1 2.6 1.8 4.1 4.3 6.5 6.5 4.2-5.4 11.1-8.9 18.5-7.5 3.7.7 6.2 3.6 8.9 6.1 2.7 3 5 6.3 5.7 10.3.1.9.4 1.6.3 2.6-1.6.8-3.4 1.5-5 2.3-.1.2.2.4.3.5 1.7 2 3.4 4 3.7 6.6.5 5.4-2.3 10-6.6 12.7-2.7 1.4-5.6 2.7-9.1 2.6-5.6-.1-10.3-3-13.7-7.1l-.1.1c-.6 2.1-.9 4.3-1.2 6.5l-.2.2-40.6-.1-2.7-3h-.2c-3.5 3-8.6 4.5-13.4 3.1-3.1-.8-5.8-2.4-8.1-4.4l-.3.1c-4.8 3.2-10.1 5.9-16.5 5.5-3.1-.4-5.5-2.5-7.4-4.9-1.8 2.7-3.7 5.3-6.4 7.3-.3 0-.3.3-.6.4-5.7 3.5-14.3 2.6-19.9-.4-.8-.3-1.7-.7-2.6-.8-.4 0-.7.3-.9.6v.9l-6.1 2.2-.2-.1c-1.2-1.3-2.3-2.5-3.5-3.8l-.2.1c-5.6 8.7-15 14.8-26 14.9-5.9.1-11.3-.9-15.6-4.2-3-2.2-5.4-5.3-7.6-8.2-1-1.6-.8-4.1-.2-5.8l-41.8-.1-25.2-.2h-.1c0 .2.2.3.3.5 1.3 2.2 2 5.4.8 7.9C99.1 73.6 94 76 89 76.6l-.2.1c-3.2.4-6.4.5-9.5.2l-1.7-15.4c2 0 4.1-.4 5.6-1.4-.7-.8-1.4-1.6-2.2-2.5h-.2c-3.5 2.4-8.6 2.9-12.9 1.7 1.7.9 3.4 1.4 5.3 1.8 1.3.2 2.9.4 4.4.4L79.3 77c-13.4-1-25.2-7.9-33.7-18-3.1-3.8-6.5-7.6-8.8-12-.7-1.2-1.3-2.4-2-3.7l-.1.1c-.4 2.3-.9 4.5-1.2 6.8l5.1 5.6c-.5 2.5-.9 5.1-1.4 7.6l-26.7-.1H8.1l-5.3-5.8 1.5-7.7.1-.5c2.6.1 5.8.6 7.6-1.4.4-.6.6-1.4.7-2.1l3.4-19.2v-.1c-1.2.4-2.4 1.1-3.9.9-5.1-.5-8-5.6-11-9-1.5-2.3-1.7-5.9-.3-8.3C3.3 5.2 9 3.4 14.2 2.4 22.7.3 32.3 0 41.4 1l-.6 14c-.3 0-.6 0-1 .1l-.3 1.6-1.5 8.5-.1.6c.4-.2.9-.2 1.3-.5 2.7-1.6 5.1-4.1 5.6-7.3 0-.8.2-1.7-.2-2.4-1.2-.3-2.5-.6-3.9-.5L41.4 1l2.1.3c4.9.7 9.4 2.6 12.9 6 2.6 2.4 4.7 5.3 6.7 8.2.6 1.1 1 2.3 1.3 3.5 1.1-.2 2-.8 3-1 1.9-.5 4.3-.9 6.5-.7.8.1.8.1 1.7.2 5 .6 8.4 4.9 11.5 8.4l.3.3c.3-1 .4-2.1.7-3.2l-2.3-2.6c-1.1-2-2.5-3.9-3.6-5.8v-.2l2.9-1.9 20-12.5.2.1 5.4 5.8.1.2c-.1.9-.4 2.1-.5 3.1.8-.4 1.6-.9 2.4-1.4L125 .1l.2.1 5.9 6.5v.8c.6-.3 1.1-.7 1.7-1l-2.6 13.1zm231.6 25.7l-.9-.6c-.8.4-1.7.5-2.4 1.1.1.2.3.3.4.4 1.1.1 2.2-.1 2.9-.9zM190.3 64.4l-3.8-.6c-.2.4-.5.8-.6 1.3 1.4-.1 3-.2 4.4-.7z"/><path d="M359.6 36.7l-7.7 3.6c-.2.7.1 1.5.3 2.1.8 2.7 2.8 5 5.4 6.1 2.1.7 4.5.3 6-1 .7-.6 1.5-1.4 1.9-2.3-.3-.6-.8-1.2-1.6-1.3-.8-.5-1.2-1.4-1-2.4.2-1.2 1.1-2.4 2.2-2.8 1.1-.5 2.7-.5 3.7.3 1.4 1 1.5 3.1 1.2 4.8-1 4.9-5.3 8.3-10.1 9.5-5 1-10.6.2-13.5-3.8-3.5-4.1-4.5-10.4-2.9-15.8 1.4-4.9 4.6-9.6 9.5-11.9 3-1.5 6.9-2.2 10.4-1.2 4.8 1.1 7.1 6 7.7 10.5v.2l-11.5 5.4zm2.3-8.7c-.6-1.6-1.9-3.3-3.8-3.5-1.9-.3-3.5.6-4.6 1.9-1.6 2-2.2 4.2-2.3 6.9-.1.8-.1 1.9.1 2.7.2.3.4.6.8.7 3.4-1.6 6.9-3.1 10.3-4.8-.1-1.2-.1-2.7-.5-3.9zm-22.2 25.7h-16.5c.1-1 .3-2 .5-2.9 1.7-.2 3.6-1 4.2-2.7l.4-1.5 2.1-12.9c0-1.8-1.3-3.2-2.8-4.1-1.6-.7-3.5-.2-4.7.8-1.7 1.3-2.9 3.3-3.2 5.5l-1.9 11.3c0 1.5.9 2.7 2.2 3.4l.6.2c0 1-.3 2.1-.4 3.1h-17l.5-2.8c.5-.2 1-.2 1.5-.3 1.5-.3 3-1 3.7-2.4l.4-1.5 1.6-9.5c.1-.9.2-2-.4-2.7-.8-.8-1.9-1.5-3.1-1-1.1.5-2.1 1.1-3 2-.9 6.4-3.7 12.8-9.3 16.5-3.1 2-7.8 2.7-11.5 1.3-2.9-1-5.2-2.9-7.3-5.1l-.3.1c-4.2 3.4-9.2 6.7-15.3 6.6-2.5-.1-5.1-1.5-5.9-3.8-.9-2.7-.7-6.2-.1-8.9l2.5-13.5c-.4-.4-.7-1.2-1.4-1.2v-.1l-3.4-.1.5-2.5 13.1-8 1.6-.9c-.3 2.2-.7 4.4-1.1 6.5.3.5.7.9 1.1 1.2h8.7c-.5 1.5-1.1 3-1.7 4.5-.6-.1-1.2-.4-1.9-.4-2.3-.1-4.6-.1-6.9-.1l-.2.5-1.7 10.3-.7 3.9c-.1.3-.1.6-.1.6-.3 2.2.8 4.2 2.4 5.4 2.1 1 4.3-.2 6.1-1 1.1-.7 2.2-1.3 3.2-2.1-.7-3.4-.8-7.6.3-10.8 2.3-7.3 8.8-12.8 16.6-13.8 3.6-.1 6.9.8 9.4 2.9 1.9 1.8 2.8 4.3 3.5 6.8l.9.9c3-1.9 6-3.8 9-5.6l7.1-4.5c.2-.1.5-.3.6-.3-.2 1.7-.6 3.4-.8 5.1.2.4.6.9 1 1.2l.3-.2c2.8-2.9 6.1-5.5 10.2-6.4 2.3-.4 4.6.2 6 1.9 1.7 2.5 1.1 6.1.5 9l-1.6 8.5-1.2 6.6c-.1 1.8 1 3.2 2.6 3.9l1.1.3c-.2.9-.4 1.8-.6 2.8zm-43.9-17c.2-2.4.7-4.8.4-7.4-.1-2-1.5-3.6-3.3-4.5-1.3-.5-2.9-.5-4 .5-2.8 2.1-3.4 5.8-4.4 9-.7 3.7-1.6 7.6-.9 11.5.3 2 1.6 4 3.6 4.5 1.5.4 2.9-.1 4-.9 2.7-2.5 3.2-6.2 4.1-9.6l.5-3.1z" class="st1"/><path d="M252.8 19.9l-.1.1-3.2-.1c.3-2.6.3-5.5-1.5-7.3-2.1-2.5-5.5-4.2-9-3.2-2.3.7-4.3 2.4-4.8 4.8-.8 3.6 1.4 6.5 3.4 8.9 4.3 5.3 9.1 10 12.8 15.5 2.1 3.5 1.6 8.8-.2 12.3-1.7 4.3-6 8-10.7 8.9-5.8 1.3-10.8-1.3-15.8-3-.8-.2-2-.5-2.7 0-.7.4-1.4 1.1-1.5 2-.7.4-1.4.6-2.2.8l-1.3-3.7-4-11.3v-.1c1.2-.4 2.4-.8 3.5-1.1 2.7 5.8 8.1 10.6 15 10.8 3.7.2 7.2-1.6 8.8-4.6 1.2-2.2 1.5-5.5.1-7.7-2.4-4.5-6.5-8-9.9-11.9-3.2-3.6-5.3-7.9-4.8-13.1.4-3.4 1.7-6.7 4.5-8.8 3.1-2.5 7.2-4 11.5-3.2 2.3.4 4.4 1.2 6.6 1.7 1.7.3 3.6.1 4.6-1.3l.4-.6 3.2.1.1.1-2.2 12.7-.6 2.3z" class="st1"/><path d="M218.4 27.3c-2.4-.2-4.8.2-6.4 1.8-2.4 2.3-2.4 5.9-4 8.6-2.2 4.2-6.3 7.1-11.1 7.5-3 .2-5.7-.4-8.3-1.3-.5.3-.5.9-.7 1.5-.5 1.5.1 3.1 1.1 4.1 1.4 1.7 4.2 1.2 6.4 1.2 4.5-.4 9.9-1.1 14.1.6 1.2.9 1.8 2.4 1.5 3.9-1.1 4.2-4.2 7.5-7.5 10.3-7.2 6.2-19.3 8.3-28.4 4.2-2.2-1-4.7-2.3-5.2-4.9-.4-2.9 1.7-5.2 3.7-6.8 1.7-1.3 3.7-2.3 5.6-3.2.2-.2-.4-.7-.5-.9-.2-.3-.2-.3-.5-.4h-17.4c0-.8.2-1.6.4-2.4 1.7-.4 3.5-1.1 4.3-2.7l.2-.9 2.3-13.4c.1-.9.1-2-.5-2.7-1.1-1.3-2.9-2.1-4.7-1.6-2.8 1-5.1 3.5-5.6 6.3l-1.8 10.6c0 1.7 1 3.3 2.6 3.9 0 .9-.2 1.9-.4 2.7H142c.1-.7.2-1.6.4-2.4 1.8-.5 3.6-1.3 4.1-3.2l2.1-11.9c-.2-1.2-1.2-2.2-2.3-2.5h-1.4c-.5-.8-1-1.6-1.5-2.5l.3-.3 15.9-9.5c-.2 2.6-.8 5-1.2 7.5.3.3.5.7.9.7 2.1-2.4 4.4-4.4 6.9-6.3 2.5-1.8 6.8-2.6 9.6-.8 1.7 1.3 2 3.2 1.8 5.3l-.1.6-2.9 18.9c0 1.4 1.3 2.9 2.8 3.4.7.3 1.6.5 2.4.4.3-2.9 2.2-5.8 5.2-6.6.4-.2.9-.3 1.3-.5-.4-.6-1.1-1.1-1.6-1.7-2.9-3.1-3.2-8.5-1.6-12.4 1.5-3.5 4.5-6.8 8.3-8 5.7-2 13.1-1.1 17.2 3.1.7.8 1.6 1.6 2.2 2.4.3 0 .3-.4.5-.6 1.6-3.4 5.2-5.8 9-5.9-.5 2.3-1.2 4.5-1.9 6.8zm-17.1 8.1c.7-2.7 1.6-6.4.2-9.1-1-1.6-2.6-2.7-4.6-2.5-2 .4-3.1 2.2-3.9 3.8-1.2 3.7-2.8 8.6-.4 12.2.9 1.2 2.1 2.1 3.8 1.8 2.2-.3 3.5-2.5 4.3-4.2l.6-2zm-.6 25.8c.3-1.3-.4-2.4-1.2-3.1-1.9-2-5.2-.9-7.7-.7-2.2.2-4.4.1-6.5-.4-1.6-.3-3.1-1-4.6-1.6-1.9 2.2-4.1 5-3 8.2.7 1.6 2.1 3.4 4 3.9 3.8 1.1 8.2.3 11.7-.9 2.2-.9 4.4-1.8 6.1-3.6.5-.5.8-1.2 1.2-1.8zM139 16c-1.9 1.5-4.9 2.3-7.3 1.2-1.1-1.1-1.2-3-.7-4.4 1.2-2.7 4.2-4.2 7.1-4.6 1.5 0 3.2.5 3.9 1.8.8 2.6-1.4 4.6-3 6zm.4 6.4l-1.3 7.9-2.3 13.2c-.2 1.7-1.1 4 .2 5.5.7 1.2 2 1.7 3.3 1.8 0 .8-.2 1.6-.3 2.3l-17.8-.1c.1-.8.2-1.5.4-2.3.9-.4 2.1-.4 3-1 .7-.5 1.5-1.2 1.9-2 .7-3.7 1.3-7.3 2-11.1 0-1.2-.9-2.4-1.9-2.8-.4-.1-.9 0-1.4-.1-.7-.9-1.2-1.9-1.7-3l16-9.5.2-.1c-.1.4-.1.5-.3 1.3zm-23.8 22.9c-.3 1.7.1 3.5 1.6 4.4.3.2.8.4 1.2.5 0 .9-.2 1.9-.4 2.8l-16.6-.2-.1-.1c.1-.9.2-1.7.3-2.6l.2-.2c1.6-.3 3.3-.8 4.2-2.2l.3-1 1.9-10.4 2.2-12.6c.2-1.3.9-2.9.1-4.2-.5-.7-1.2-1.4-2-1.5-.5-.1-1 .1-1.6 0-.5-.8-1-1.7-1.5-2.5l.3-.2 12.1-7.5 4.7-2.9-.7 4.7-6.2 35.7zm-35.8 1.3c-2.3 2.4-4.9 4.9-8.2 5.7-2.7.7-6 1.2-8.7.2-3.1-1-6-3.4-7.2-6.4-1.5-3.2-2-7.3-1.2-11.1.5-2.9 1.8-5.6 3.7-7.9 2.6-2.8 5.9-5.4 9.7-6.6 5-1.6 10.9-.6 14.5 3.1 3.5 4.3 4.1 11.7 1.6 16.8-1.2 2.2-2.6 4.3-4.2 6.2zm-4.1-19.9c-.7-1.3-1.9-2.6-3.5-2.8-1.6-.4-3 .5-4.1 1.4-3 3.8-4 8.6-4.6 13.4-.2 2.5-.7 5.6.3 7.9 1 1.4 2.2 3 4.3 2.7 4.7-.4 5.6-5.5 6.7-9.1.8-4.3 2.5-9.1.9-13.5z" class="st1"/><path d="M41.1 3.7c1.3.1 2.5.3 3.8.4 2.3.5 4.7.7 6.7 1.9 3.4 2.2 6.3 5.7 6.6 9.9.6 6.4-3.1 12-8.6 14.6-1.3.7-2.8 1.1-4.3 1.5.1 1.8.6 3.4.9 5.1 1.6 6.2 5 11.9 9.5 16.5 4.8 5 10.8 9.3 18.1 10.4 4.9.4 10.6.4 13.3-3.8.8-1.4.9-3.6-.2-4.9-1.2-1.9-3.4-2.6-5.6-2.7.1-.8.2-1.8.4-2.5l.1-.1c1.7-.1 3.3-.8 4.1-2.2.4-.9.5-2 .7-3l1.8-10.1 2.7-14.5c.1-1-.5-2-1.4-2.3-.7-.3-1.6-.5-2.3-.2-.6-.7-1.1-1.5-1.5-2.4.3-.5.8-.5 1.2-.9L102.2 5l-.1 1.2-7 39.4c-.1 1.5.3 3 1.6 3.9.4.3 1 .6 1.6.7l.1.1-.4 2.6-9.3.1c-.1.1 0 .2 0 .3.7.6 1.1 1.3 1.7 1.9 1.9.5 4 1.6 4.5 3.7.6 2.3-.2 4.5-1.7 6.1-5.4 5.4-14.4 5.5-21.8 4.3-6.2-1.3-12.3-3.2-17.4-7-6.9-4.7-12.3-11.4-16.1-18.7-1.2-2.6-2.1-5.3-3.1-8l-1.8-2c-1.4-.2-2.8-.3-4.2-.3-.1 0-.3.2-.3.3-.7 4.8-1.7 9.5-2.5 14.3.2 2.1 1.8 3.8 3.8 4.5.2.1.6.1.9.1-.1 1.1-.3 2.3-.5 3.4H6v-.1c.2-1.2.3-2.4.7-3.4 2.8-.1 5.9-.3 7.5-2.8.5-.8.7-1.7 1-2.7l3.3-18.1 3.8-20.1c-.4-.3-.7-1.2-1.5-1-3.6 0-6.7 1.2-9.6 3.1-.5.5.4.6.6 1 1 .9 1.7 2.2 1.5 3.6-.3 1.4-1.3 2.8-2.7 3.4-1.8.8-4.6.8-6-.6-1.7-1.6-1.9-4.6-1-6.6 1.7-3.8 6.2-5.1 10-6.2 4.7-1 9.5-1.8 14.5-2 4.4-.3 8.8-.1 13 .3m.4 5.1c-2.4-.9-5.2-1.1-8-1.1h-.1l-2 11-1.8 10v.3c.5.5.6.8 1.1 1 4.9 0 9.7-1.2 13-4.5 1.7-1.6 2.8-3.4 3.5-5.5 1-2.6.5-5.8-1.2-7.9-1.2-1.7-2.7-2.7-4.5-3.3" class="st1"/><path fill="#999b9e" d="M376.5 37.2c-1.4-1.4-2.7-2.9-4-4.4.3-.3.7-.4 1.2-.5 1.4 1.5 2.6 2.9 3.9 4.3-.2.3-.7.4-1.1.6zm-3-7.9l-.2-.9 3.4 3.8.4 1.2c-1.3-1.4-2.5-2.7-3.6-4.1zm3.1 20.4c-1.5-1.4-2.7-2.8-4.1-4.3l.3-.8c1.4 1.2 2.6 2.7 3.8 4.1v1zm-.2-4.4c-1.2-1.2-2.4-2.4-3.4-3.8V41c1.2 1.2 2.2 2.3 3.3 3.6 0 .3.1.5.1.7zm-1.2-7.5c-1.3-1.4-2.8-2.8-4-4.3.3-.2.6-.5.9-.4l3.9 4.2c-.2.4-.6.4-.8.5zm.2 15.4l-.2-.1-4.1-4.5c.1-.2.2-.5.4-.7 1.4 1.5 2.9 3 4.2 4.6 0 .2-.1.5-.3.7zm-1.7-14.7l-.3-.1c-1.2-1.4-2.6-2.7-3.8-4.2.3-.2.7-.6 1.1-.4 1.2 1.4 2.6 2.8 3.8 4.2-.2.3-.5.5-.8.5zm-.1 17.4l-.3-.2-4.2-4.6c.1-.2.4-.5.6-.6 1.6 1.5 3 3.2 4.4 4.8-.1.2-.2.4-.5.6zm-.9-17c-1.2-1.2-2.5-2.3-4-2.9l-.8-.9V35c.4-.2.8-.6 1.3-.4 1.4 1.3 2.5 2.7 3.8 4.2 0 0-.1.1-.3.1zM371.2 58c-1.6-1.6-3.1-3.3-4.5-4.9.2-.2.3-.4.6-.5 1.7 1.6 3.1 3.3 4.6 4.9-.2.3-.4.4-.7.5zm-2.1 1.4c-1.5-1.6-3.2-3.3-4.6-5 .2-.2.5-.3.8-.4 1.6 1.6 3.1 3.2 4.5 4.9-.2.3-.5.4-.7.5zm-2 .8c-1.5-1.7-3.1-3.4-4.5-5.1.3-.2.6-.3.9-.3 1.6 1.8 3.1 3.2 4.6 5.1-.3.1-.6.2-1 .3zm-.4-24.6c.2-.1.5-.5.8-.3l.3.3c-.3.1-.7 0-1.1 0zm-1 25l-4.7-5.1c.2-.1.4-.2.7-.2l.3.2c1.6 1.6 3 3.1 4.4 4.9-.2.1-.4.3-.7.2zm-1.5.5c-1.6-1.6-3.2-3.4-4.7-5.2.2-.2.6-.2.8-.2 1.6 1.5 3.3 3.3 4.7 5.1-.1.3-.5.2-.8.3zm-2 .1c-1.6-1.6-3.1-3.3-4.5-5 .2-.2.6-.2 1-.2 1.6 1.6 3.2 3.4 4.8 5.1-.5 0-.9.1-1.3.1zm-1.9-.1c-1.5-1.6-3.1-3.2-4.5-4.9.3 0 .8-.2 1.2.1 1.6 1.6 3.1 3.3 4.5 4.9-.4 0-.8-.1-1.2-.1zm1-23c.1 0 0 0 0 0zm-.8 1.5c-.3-.1-.5-.4-.8-.7.2-.3.6-.4.9-.5.7.2 0 .7-.1 1.2zm-.3 4.9c-1.3-1.3-2.5-2.6-3.6-3.9l-.2-.2c.4-.2.7-.5 1.2-.4 1 1.6 2.7 2.4 3.2 4.3-.2.1-.4.1-.6.2zm-.1-2.6c-.8-.7-1.5-1.5-2.1-2.3.3-.2.7-.3 1.1-.5.5.2.8.7 1.1 1-.1.6-.1 1.2-.1 1.8zm-.4-11.7c-1.1-1-2.1-2.2-3.1-3.3 0-.2.2 0 .3-.2h.5c.8.9 1.7 1.7 2.2 2.6l.1.9zm-1.2 15c-1.3-1.3-2.6-2.7-3.7-4.1.4-.2.7-.7 1.2-.5l3.6 4c-.2.4-.7.5-1.1.6zm-.1 15.5l-4.3-4.8.8.1c1.6 1.6 3.1 3.2 4.5 4.9-.3.1-.7 0-1-.2zm.9-32.8c-.3-.3-.5-.5-.7-.9.3.2.6.6.7.9zm-1.5 3.4c-.9-.9-1.8-2-2.7-2.9 0-.3.3-.5.5-.8 1.2 1 2 2.2 3 3.2 0 .3-.5.4-.8.5zm-3.4 26.8c-.8-.8-1.7-1.6-2.3-2.5l1 .3c1.5 1.7 3 3 4.3 4.8-1.5-.2-2.1-1.8-3-2.6zm1.1-25.8c-.4-.8-1.9-1.2-1.2-2.3h.1c.6.6 1.3 1.4 1.8 2-.2.2-.4.3-.7.3zm-.6 27.3c-1.8-.7-3-2.4-4.2-3.8l-1-1.1 1.3.5c1.3 1.5 2.7 2.9 3.9 4.4zm-8.2-1.8l-.2-.2-4.2-4.8c-.1-.5.1-.8.2-1.2 1.6 1.5 3.1 3.3 4.5 5l-.3 1.2zm-1.9 3.1c-1.5-1.8-3.1-3.3-4.6-5.2.3-.1.8-.1 1.1 0 1.5 1.7 3.1 3.4 4.5 5.1l-.1.1h-.9zm-.8 0c-.4-.1-.8.2-1.1-.2-1.5-1.6-3-3.3-4.4-4.9.2-.1.6 0 .9 0 1.6 1.6 3.2 3.2 4.6 5.1zm-.6-33.1c-.4-.3-.8-.8-1.2-1.2v-.9c.5.4 1 1 1.5 1.5l-.3.6zm-1.2 20.5c-1.1-1-2-2.2-3-3.4l.1-.8c1.2 1.3 2.8 2.5 3.4 4.2-.2.1-.4.1-.5 0zm-.8 12.5c-1.6-1.7-3.1-3.4-4.6-5.1h1c1.6 1.7 3.2 3.3 4.6 5.1l-.1.1-.9-.1zm.5-30.2c-.3-.3.1-.7.1-1.1.2 0 .1.1.2.2 0 .4-.2.7-.3.9zm-2.2 30.3c-1.7-1.7-3.2-3.4-4.7-5.2h1.1c1.5 1.7 3.1 3.5 4.5 5.1l-.9.1zm0-19.3l.2-.7c.6.2.4 1 .6 1.5l-.8-.8zm-2 19.2c-1.5-1.7-3.1-3.3-4.5-5.1h1.1c1.6 1.6 3.1 3.4 4.7 5.2-.4 0-.9.1-1.3-.1zm-.7 0c-.3 0-.7.1-1-.1-1.6-1.7-3.1-3.4-4.5-5.1h.8c1.6 1.7 3.1 3.5 4.7 5.2zm-1.7.1c-.4 0-.8.2-1.1-.2-1.5-1.6-3.1-3.3-4.5-5 .3-.1.7 0 1-.1 1.5 1.8 3.1 3.5 4.6 5.3zm-2.8 0l-4.7-5.2c.3-.1.7-.1 1.1-.1l4.7 5.2c-.3.1-.7.1-1.1.1zm-1.8 0c-1.6-1.7-3.3-3.5-4.7-5.2.3-.1.7 0 1 0 1.6 1.7 3.2 3.4 4.7 5.2v.1h-1zm-1.7-.1c-1.5-1.7-3.3-3.4-4.6-5.1h.9c1.7 1.7 3.1 3.4 4.7 5.2-.4 0-.8 0-1-.1zm-1.9.1c-1.7-1.7-3.2-3.4-4.8-5.2h1.2c1.7 1.7 3.2 3.4 4.7 5.2h-1.1zm.7-27c-.8-.6-1.4-1.4-2.1-2.2.4-.3 1.1 0 1.5.2.6.4.6 1.2.6 2zm-.4 2.1l-.3-.2-3.1-3.4c.1-.3.3-.4.6-.5l.3.1c.9 1 1.8 2 2.6 3 .1.4.1.7-.1 1zm-.5 2.9c-1.5-1.4-2.9-3.1-4.2-4.6.1-.3.3-.6.5-.9h.2l3.8 4.2c0 .5-.2.9-.3 1.3zm-.5 3.4c-1.6-1.6-3.1-3.3-4.7-5.1l.2-1c1.7 1.6 3.3 3.4 4.7 5.1l-.2 1zm-1.2 18.5c-1.7-1.7-3.2-3.4-4.8-5.2h1.2c1.6 1.7 3.3 3.4 4.7 5.2h-1.1zm.3-39.7l-.8-.9.1-.8c.5.3.8.9 1.2 1.3-.1.2-.3.4-.5.4zm.3 24.7c-1.7-1.6-3.1-3.3-4.6-5l.1-1h.1c1.5 1.7 3.2 3.3 4.6 5.1 0 .3-.1.6-.2.9zm-1.7 2.1h-.2c-1.1-1.3-2.3-2.4-3.3-3.7l.1-.9c1.4 1.3 2.7 2.9 4 4.3-.1.2-.4.2-.6.3zm-.6 12.9c-1.6-1.7-3.2-3.4-4.7-5.2h1.1l4.7 5.2c-.4.1-.8.1-1.1 0zm-1.6.1c-.5 0-.7-.6-1-.8-1.3-1.4-2.7-2.9-4-4.4h1.2c1.6 1.7 3.1 3.3 4.6 5.2-.2-.1-.5 0-.8 0zm-1.7-13.6v-.7c.5.4.8.8 1.2 1.3-.5 0-1-.2-1.2-.6zm-.2 13.6c-1.5-1.7-3.3-3.4-4.8-5.2h1c1.6 1.6 3.2 3.5 4.7 5.2h-.9zm-1.9 0c-1.6-1.7-3.1-3.4-4.7-5.2l.1-.1c.3 0 .8-.2 1.1 0 1.5 1.7 3.2 3.5 4.6 5.2-.3.1-.7.1-1.1.1zm-1.7-.1c-1.6-1.6-3.1-3.4-4.7-5.1.2-.2.7-.1 1-.1 1.6 1.7 3.1 3.4 4.7 5.2-.3.2-.7.1-1 0zm-1.7 0c-1.6-1.7-3.2-3.3-4.7-5.2.3 0 .8-.1 1.2 0 1.5 1.8 3.1 3.4 4.6 5.2-.4.1-.8.2-1.1 0zm-.7.1c-.4-.1-.9.1-1.2-.1-1.5-1.7-3-3.3-4.5-5.1h1.1c1.6 1.6 3 3.4 4.6 5.2zm-3.1-.2l-4.5-5c.3-.2.7 0 1.1-.1 1.7 1.6 3.2 3.3 4.7 5.2-.3 0-.9.1-1.3-.1zm-1.6.2c-1.5-1.8-3.1-3.4-4.5-5.1.2-.1.7-.1 1-.1 1.6 1.7 3.1 3.3 4.7 5.1-.3.2-.9.1-1.2.1zm-1.9 0c-1.6-1.7-3.2-3.4-4.6-5.1h1.1c1.6 1.7 3.2 3.4 4.7 5.1-.3.1-.8 0-1.2 0zm-1.5 0c-1.5-1.7-3.3-3.3-4.6-5.1.3-.1.7-.1.9 0 1.5 1.6 3.1 3.2 4.5 5-.2.1-.5.1-.8.1zm2.2-22.7c-.6-.5-.9-.9-1.4-1.5.3-.4.7-.6 1.2-.8.2 0 .3.1.3.2.3.8 0 1.4-.1 2.1zm-.5 3.3c-.7-.8-2.1-1.5-1.4-2.8.7.5 1.1 1.1 1.5 1.6l-.1 1.2zm-.7 3.6c-.6-.6-1.3-1.3-1.9-2.1l.3-.9h.1c.6.5 1.2 1.2 1.7 1.9l-.2 1.1zm-1.5 2.8l-.3-.1-1.5-1.7.4-.9c.8.7 1.4 1.5 2.1 2.2-.1.4-.5.4-.7.5zm-3.3 10.2c-1.4-1.6-3-3.3-4.3-4.9.1-.2.3-.3.5-.3l2.1 2.4c-.1.1-.1.4 0 .5l2 2.2-.3.1zm-1.2-5.4c-.5-.4-.8-.8-1.1-1.3l.5-.5.8.8c0 .4-.1.7-.2 1zm-.8 6.8c-1.6-1.6-2.9-3.3-4.4-4.9l.6-.3c1.5 1.6 3 3.2 4.3 4.9l-.5.3zm-2.2 1l-4.3-4.8c.2-.2.3-.3.6-.4l.3.1c1.4 1.6 2.9 3.2 4.2 4.8-.2.2-.5.3-.8.3zm-1.9.6c-1.5-1.5-3-3.2-4.3-4.9v-.1c.3-.1.7-.3.9-.1l4.2 4.8c-.2.2-.5.3-.8.3zm-.8.2c-.3.1-.9.2-1.1-.1-1.3-1.5-3-3.2-4.1-4.7.3 0 .6-.2 1-.1 1.4 1.5 2.8 3.1 4.2 4.9zm-1.9-29.6c-1.2-1.3-2.5-2.6-3.6-4 .1-.3.3-.5.7-.7 1.1 1.1 2.1 2.3 3.1 3.4l-.1 1.4-.1-.1zm.1-2.6c-.8-.8-1.5-1.5-2.1-2.4.8-.2 1.3.4 1.7.9.3.4.4 1 .4 1.5zm-1.1 32.3c-1.5-1.6-2.9-3.2-4.3-4.8h1.1c1.5 1.6 2.9 3.1 4.3 4.8-.3.1-.7 0-1.1 0zm.9-26.7c-1.7-1.6-3.2-3.4-4.7-5.1.2-.2.2-.5.4-.7 1.6 1.6 3 3.2 4.4 4.9 0 .4-.1.7-.1.9zm-.7 3.9l-5.1-5.6.2-.9c1.9 1.8 3.5 3.7 5.1 5.6l-.2.9zm-.8 3.2c-1.7-1.8-3.4-3.7-5-5.6l.2-.9h.1c1.8 1.9 3.5 3.8 5.1 5.7l-.2.9-.2-.1zm-1.6 19.3c-1.4-1.6-2.8-3.1-4-4.7.3 0 .8 0 1.2.1l4.1 4.7c-.4.2-.9 0-1.3-.1zm.7-16.2l-4.6-5.1.1-.8c1.7 1.7 3.2 3.5 4.9 5.4l-.2.5h-.2zm-1.4 2.2h-.2l-3.3-3.7v-1c1.4 1.4 2.6 2.8 3.9 4.2 0 .3-.2.4-.4.5zm-1.7 13.3c-1.4-1.5-2.7-3-4-4.5v-.1l1.2.3c1.4 1.4 2.8 3.1 4.1 4.7l-1.3-.4zm-3.2-1.6l-3.4-4c.4.2 1 .4 1.4.6 1.2 1.4 2.6 2.9 3.7 4.3l-1.7-.9zm-11-27.5c-.2-.1-.4-.2-.5-.5-.3-.2-.6-.6-.8-1 .6 0 1.2.2 1.6.6-.1.4-.2.7-.3.9zm-.6 1.8c-1.1-1-2.1-2.1-2.9-3.3h1.3c.7.7 1.4 1.4 2 2.1-.1.5-.3.8-.4 1.2zm-.6 1.7c-1.6-1.6-3-3.3-4.5-5 .3-.1.8-.1 1.2-.1l3.6 4c0 .5-.1.9-.3 1.1zm-.4 7.9c-1.8-1.9-3.7-4-5.5-6 0-.3.1-.7.2-1 1.8 1.9 3.6 3.8 5.2 5.8 0 .4.1.8.1 1.2zm-.1-4.4c-1.7-1.6-3.1-3.5-4.7-5.2 0-.3.1-.6.1-.9 1.7 1.6 3.1 3.3 4.7 5.1l-.1 1zm-1.6 6.7c-1.5-1.5-3-3.2-4.4-4.8l.1-.9h.1c1.7 1.8 3.3 3.6 4.9 5.4-.2.1-.5.5-.7.3zm-2.6 1.2c-.8-.8-1.5-1.6-2.3-2.5-.1-.3 0-.7.1-1 1.1 1 2 2.2 3 3.3-.2.2-.5.2-.8.2zm11.3 11.5c-1.6-1.6-3-3.3-4.5-4.9.2-.3.4-.4.7-.5l.2.1 4.4 4.8c-.2.3-.5.5-.8.5zm-2.2 1.3l-.2-.1-4.2-4.7c.1-.1.3-.3.5-.3h.2c1.4 1.6 2.9 3.1 4.3 4.8-.2.2-.4.2-.6.3zm-2 1c-1.5-1.6-3.1-3.1-4.4-4.8.2-.1.6-.5.7 0 1.4 1.5 2.8 3 4.1 4.6l-.4.2zm-1.9.8c-1.6-1.6-2.9-3.1-4.3-4.7.2-.2.5-.4.8-.4 1.6 1.5 3 3.1 4.4 4.7-.3.2-.6.3-.9.4zm-1.3.5h-.3c-1.3-1.6-2.8-3.1-4.2-4.7.2-.2.5-.2.8-.3 1.4 1.5 2.9 3.1 4.3 4.7-.1.1-.4.2-.6.3zm-.9.2c-.3.1-.7.4-1.1.2-1.4-1.6-2.9-3-4.2-4.6.3-.2.7-.3 1.1-.3 1.3 1.4 2.9 3.1 4.2 4.7zm-2.8.4c-1.5-1.6-2.8-3-4.2-4.6.2-.2.6-.2 1-.2l4.3 4.8c-.4.1-.9.2-1.1 0zm-1.4.3c-1.5-1.5-2.9-3.2-4.4-4.8.2-.1.5-.1.7-.1l4.3 4.8c-.1.1-.4.1-.6.1zm-2.4-.5c-1.3-1.5-2.7-2.9-4-4.5l1.2.1 4.3 4.7c-.5.2-1.1.2-1.5-.3zm-2.2-.6c-1.5-1.5-2.7-3-4.1-4.5.4 0 .8.2 1.3.4l4.2 4.6c-.5 0-1-.2-1.4-.5zm13-41.3c-1.6-1.7-3.1-3.4-4.6-5.2l.2-.8c1.7 1.7 3.1 3.4 4.7 5.2l-.1.8h-.2zm-5.2-1.5c0-.4.1-.8.2-1.1l3.4 3.8H272l-2.4-2.7zm-.5 2.5l.3.2h-.3zm-7-10.3c-1.6-1.5-3-3.1-4.4-4.8 0-.3.1-.6.2-.9 1.6 1.6 3 3.2 4.4 4.9l-.2.8zm-.7 3.3c-1.6-1.5-3-3.1-4.4-4.8.1-.3.1-.6.2-.9 1.6 1.6 2.9 3.1 4.3 4.7l-.1 1zm-.7 3.3c-1.6-1.3-2.8-3.1-4.2-4.6l.2-.9c1.5 1.5 3 3.1 4.3 4.7-.2.3-.1.6-.3.8zm-2.5 1.4l-2.3-2.7.2-.9c1 1.1 2 2.1 2.9 3.2-.2.2-.4.5-.8.4zM256 20c-.3-.2-.5-.5-.7-.7l.2-.9 1.1 1.2c-.1.2-.3.4-.6.4zm-1.9 11.4l-1.4-1.5c.5-.1.9-.1 1.4-.1l.2.1c.1.5 0 1-.2 1.5zm-.3 2.1c-1.2-1.2-2.3-2.4-3.4-3.7.4-.1 1 0 1.4 0l2.1 2.4-.1 1.3zm-2.1-11c-.1-.1-.2-.2-.2-.3l1 .1c-.2.1-.5.3-.8.2zm-1.2.9c-.5-.3-.9-.8-1.2-1.3l1.3.1.7.7c-.2.3-.5.4-.8.5zm-.6 1.8c-.9-1-1.9-2-2.7-3.1h1.2c.6.6 1.3 1.3 1.8 1.9l-.2 1.3-.1-.1zm-3.1-8.8c-1.6-1.6-3.2-3.3-4.6-5 .4 0 .7.1 1.1.3l3.7 4.2v.6h-.2zm-.1-1.9c-.7-.7-1.6-1.6-2.2-2.4.9.7 1.7 1.4 2.2 2.4zm-6.5-3.1c.3-.2.9-.2 1.2-.1 1.5 1.6 3 3.3 4.4 4.9l-1.1.1-4.5-4.9zm2.8 5.5c-1.6-1.5-3-3.2-4.4-4.8.2-.2.5-.4.8-.4 1.5 1.6 3 3.1 4.4 4.8l-.8.4zm-1.3 1.2c-1.6-1.5-3-3.1-4.4-4.8 0-.3.2-.5.4-.7h.2l4.3 4.8c-.2.3-.3.5-.5.7zm-5.1-2c-.1-.4-.1-.8.1-1.1 1.5 1.4 2.9 3.1 4.2 4.6l-.2 1-4.1-4.5zm19.1 42.6c-1.5-1.3-2.9-3.1-4.3-4.6l.3-.8c1.5 1.5 2.9 3.1 4.3 4.7-.1.2-.1.5-.3.7zm-2 2.8c-1.5-1.5-2.9-3.1-4.3-4.7 0-.3.3-.5.5-.7 1.5 1.4 2.8 3.1 4.3 4.6-.1.3-.3.6-.5.8zm-2.1 2.1c-1.5-1.5-3.1-3.2-4.4-4.9l.6-.5c1.7 1.6 3 3.2 4.4 4.8l-.6.6zm-2.1 1.5l-.2-.1-4.2-4.7c.1-.2.5-.4.7-.5 1.6 1.5 3 3.2 4.5 4.8-.2.1-.5.3-.8.5zm-2.1.8c-1.4-1.6-2.8-3.2-4.2-4.9l.9-.4c1.7 1.6 3 3.2 4.5 4.8-.4.3-.8.6-1.2.5zm-1.6.7c-1.5-1.5-3.1-3.1-4.4-4.9l.9-.3c1.6 1.6 3 3.2 4.4 4.9-.2.2-.6.2-.9.3zm-1.8.2c-1.5-1.4-2.9-3-4.2-4.6.2-.3.6-.2.9-.2l4.2 4.7c-.2.1-.6.1-.9.1zm-1.6.2c-1.4-1.5-2.9-3.1-4.2-4.7.2-.1.6-.1.8-.1 1.3 1.5 2.7 3.1 4.1 4.6v.1l-.7.1zm-1.8 0c-1.6-1.6-2.7-3.1-4.1-4.6.2-.1.6-.1.9-.1 1.4 1.6 2.9 3.1 4.2 4.7h-1zm-2-.1c-1.5-1.5-2.9-3.1-4.2-4.7l1 .1c1.5 1.6 2.8 3.1 4.1 4.6h-.9zm-1.7-.2c-.6-.2-.9-.7-1.2-1.1-1.2-1.3-2.2-2.5-3.3-3.8l1.1.2c1.5 1.5 2.9 3.1 4.2 4.7-.2.1-.6.1-.8 0zm-2.9-.9c-1.3-1.5-2.8-3-4.1-4.6.5.1.9.2 1.3.3 1.4 1.5 2.9 3.1 4.1 4.7l-1.3-.4zm-2.9-1.1c-1.3-1.5-2.8-3-4-4.5 1.8.2 2.5 2 3.8 3.1l1.7 2c-.5 0-1-.4-1.5-.6zm-3.2-1.2c-1.3-1.5-2.8-2.9-4-4.5.6 0 1.1.3 1.6.5l4 4.5c-.5-.1-1.1-.3-1.6-.5zm-3.1 2.4l-4.6-5.1v-.1c.5-.2 1-.4 1.5-.5 1.7 1.7 3.1 3.3 4.7 5.1-.5.3-1.1.4-1.6.6zm-2.1.7c-1.5-1.7-3.1-3.3-4.5-5v-.1c.4-.3.9-.4 1.3-.5 1.6 1.6 3.3 3.4 4.7 5.1-.5.2-.9.5-1.5.5zm-1.9.7c-1.6-1.7-3.2-3.4-4.7-5.1.4-.2.9-.4 1.4-.5 1.7 1.8 3.2 3.3 4.7 5.1-.4.2-.9.4-1.4.5zm5-38.2l-4.3-4.6.4-1c.7.8 1.6 1.5 2.9 3.8L226 29v.2l-.2-.1zm-.7 3.3c-1.5-1.6-3-3.1-4.4-4.8 0-.3.2-.6.2-.9l.2.1c1.5 1.5 3 3.1 4.3 4.7-.1.2-.1.6-.3.9zm-.9 2c-.6-.1-1.3-.1-1.8-.2l-4.3-4.8c.7-.1 1.2.2 1.8.3 1.5 1.5 2.9 3.1 4.3 4.7zm-4.1.1l-4.4-4.8c.2-.2.6-.2.9-.3h.5c1.6 1.6 2.9 3.2 4.4 4.8v.1l-1.4.2zm-2 1.1c-1.5-1.5-2.9-3.1-4.3-4.7.2-.2.4-.5.7-.5l.2.1 4.2 4.7c-.3.1-.6.2-.8.4zm-1.6 2.5c-1.4-1.5-2.9-3.1-4.3-4.6.2-.3.2-.7.5-.9 1.4 1.5 2.8 3.1 4.2 4.6-.1.4-.3.6-.4.9zm-2.1 2.6L211 37l.3-1.1c1.4 1.4 2.8 2.8 4.1 4.4-.3.3-.6.3-1 .4zm-3.6 1l-1.3-1.5c.1-.3.3-.6.5-1h.1c.7.8 1.3 1.3 1.9 2.2-.3.2-.8.4-1.2.3zm-2.8 6.1l-2.8-3.2c.1-.2.2-.3.4-.4 1.1.9 1.9 1.9 2.8 2.9.4.5.9.9 1.3 1.5l-1.7-.8zm-.6-5.1c.1-.3.2-.4.5-.6.9.5 1 1.7 1.3 2.6-.6-.6-1.2-1.3-1.8-2zm-3.9 4.4l-.9-1.1c.2-.1.4-.3.7-.4l1.4 1.5h-1.2zm-3.1-.1c-.1-.1-.1-.2-.1-.3.2-.1.6-.3.8-.1l.4.5c-.2.1-.8.2-1.1-.1zm-1.7.2l-.1-.1c.1-.1.3-.1.5-.1l.2.2c-.1.1-.4.1-.6 0zm-.8.1c-.2 0-.4.1-.5-.1.1 0 .4-.1.5.1zm-2.1.2c-.1 0-.2-.1-.3-.2.4 0 .8-.2 1 .2-.1 0-.4.1-.7 0zm-2.1-.4c.4.1 1-.1 1.2.5l-.7.1-.5-.6zm-.5.6c-.4.1-.8 0-1.2.1-.4-.4-.7-.8-1-1.2.7.3 1.9.2 2.2 1.1zm6-17.7l-2.8-3.1c0-.2.3-.4.4-.5.9.8 1.8 1.9 2.6 2.8v.9l-.2-.1zm.2-2.2c-.6-.5-1.2-1-1.5-1.7.6 0 1.1.4 1.3.9 0 .3.2.5.2.8zm-.5 5.6c-1.4-1.3-2.5-2.7-3.8-4.2.1-.2.1-.5.3-.7l3.7 4.1c-.1.3 0 .6-.2.8zm-.8 2.8c-1.3-1.3-2.5-2.7-3.8-4.1-.1-.3.1-.5.2-.7 1.3 1.3 2.6 2.7 3.8 4.2l-.2.6zM198 60c-.2-.3-.5-.5-.7-.8.3.1.7.4.7.8zm-.6 1.1l-.2-.1-1.7-1.9c.1-.2.4-.2.6-.1l1.6 1.7c0 .2-.1.4-.3.4zm-1-22.5c-1-.8-1.8-1.9-2.6-2.8l.1-1c1.2 1.1 2.1 2.2 3.1 3.4-.1.2-.4.3-.6.4zm.4 23.2c-.3.1-.5.4-.8.4-.9-.9-1.8-1.8-2.6-2.8.4-.1.9-.3 1.3-.1l2 2.3v.2zm-2.1 1.1c-1.2-1.1-2.1-2.2-3.1-3.4.4-.1.8-.1 1.2-.1 1 .9 1.9 2 2.8 2.9-.3.4-.6.5-.9.6zm-1.6.6c-1.2-1.3-2.5-2.6-3.6-3.9.4-.1.9 0 1.4 0l3.2 3.6c-.2.2-.6.3-1 .3zm-1.1.5h-.4c-1.4-1.4-2.7-3-4.1-4.5l1.2.1 3.9 4.2c0 .1-.4.1-.6.2zm-2.4-.2c-1.4-1.6-3-3-4.2-4.7l1.2.2c1.4 1.5 2.8 3 4.1 4.6l-1.1-.1zm-3.1-.7c-1.5-1.7-3.1-3.2-4.5-5l1.5.6 4.4 4.8c-.4 0-.9-.2-1.4-.4zm-2.1 2l-4.3-4.8c0-.3.1-.6.3-.7 1.8 1.8 3.4 3.6 5 5.5h-1zm-2-23c-1.4-1.3-2.6-2.7-3.8-4.2l.1-1c1 .9 2.1 2.2 2.6 3.5.5.6.9 1.1 1.1 1.7zM180.6 28l-.5-.5.1-1 .7.8c0 .2-.1.4-.3.7zm-.3 15.7l-.2-.1-2-2.3.1-.9c1 .9 1.7 1.8 2.6 2.8-.1.2-.4.4-.5.5zm-.5-12.6c-.2-.2 0-.7 0-1 .2.2 0 .7 0 1zm-.4 3.7c-.2 0-.3-.2-.3-.3l.1-.9h.1c.1.4.1.8.1 1.2zm-.8 11c-.5-.5-1.4-.8-1-1.6l.1-.3c.5.4.8.9 1.2 1.3l-.3.6zm37.8 18.1c-1.5-1.4-3-3.1-4.3-4.6 0-.4.2-.6.4-.9 1 .8 1.7 1.8 2.5 2.7 0 1.1 1 1.6 1.6 2.4-.1.2-.1.3-.2.4zm-1.6 2.3c-1.5-1.4-2.9-3.1-4.2-4.5.1-.2.2-.4.4-.6 1.5 1.5 2.8 3 4.2 4.6-.1.1-.2.3-.4.5zm-1.9 2.3c-1.6-1.5-2.9-3-4.3-4.5.2-.3.2-.5.6-.5l4.1 4.6-.4.4zm-2.4 2.3l-.2-.1-4.1-4.6c.1-.3.3-.4.6-.6 1.5 1.4 2.9 3.1 4.3 4.6 0 .3-.3.6-.6.7zm-1.9 1.6c-1.5-1.4-2.9-3.1-4.2-4.6 0-.3.2-.3.4-.5h.2l4.1 4.6c-.1.3-.3.5-.5.5zm-1.5 1.1c-1.5-1.5-3-3-4.3-4.6.1-.2.3-.3.5-.4 1.4 1.5 2.8 3.1 4.2 4.6 0 .2-.3.3-.4.4zm-1.5.9c-1.5-1.4-2.8-3-4.2-4.6l.6-.3c1.5 1.4 2.8 3.1 4.2 4.6l-.6.3zm-1.7.9c-1.4-1.5-2.9-3-4.2-4.6l.9-.5c1.4 1.6 2.9 3.1 4.1 4.6-.2.3-.5.5-.8.5zm-1.4.7c-1.5-1.5-2.9-3-4.2-4.6.2-.2.5-.3.8-.4 1.5 1.5 2.8 3 4.2 4.6-.2.3-.6.3-.8.4zm-.7.4c-.3.1-.6.4-1 .3-1.3-1.6-2.7-3.1-4-4.7.3-.2.7-.3 1-.3 1.3 1.5 2.7 3 4 4.7zm-2.2.7l-4.2-4.6c.2-.2.5-.3.8-.2l4.2 4.6c-.3.1-.5.2-.8.2zm-1.9.3c-1.3-1.5-2.7-2.9-3.9-4.4.4-.2.7-.4 1.2-.2 1.3 1.5 2.8 3 4.1 4.6-.5 0-1 .4-1.4 0zm-1.4.5c-1.4-1.5-2.9-3.1-4.2-4.7l.9-.2c1.5 1.5 2.9 3 4.3 4.7-.2.1-.7.2-1 .2zm-1.8.2c-1.2-1.5-2.7-3-3.9-4.5.3 0 .6-.3.9-.1l4.1 4.6c-.3.1-.7.1-1.1 0zm-.5.2c-.3.1-.7.1-.9 0l-4-4.5c.2-.1.7-.2.9 0 1.3 1.5 2.8 2.9 4 4.5zm-2.6.2c-1.5-1.5-2.9-3.1-4.2-4.6l1-.1c1.4 1.4 2.9 3 4.2 4.6l-1 .1zm-.8 0c-.3.1-.7.1-1.1.1-1.3-1.5-2.9-3.1-4.1-4.6.5 0 1.1-.2 1.4.2 1.2 1.4 2.6 2.8 3.8 4.3zm-2.9 0c-1.5-1.5-2.9-3-4.2-4.6.3-.1.8 0 1.2.1 1.5 1.5 2.8 3 4.2 4.6h-1.2zm-2.2-.3c-1.3-1.5-2.8-3-4.1-4.6l1.2.1c1.6 1.4 2.8 3.1 4.2 4.6-.4.2-.8 0-1.3-.1zm-2.2-.4c-1.3-1.4-2.7-2.9-3.9-4.4 2.5.4 3.6 2.9 5.3 4.6l-1.4-.2zm-1.1-.2c-.7-.2-1.4-.3-2-.7-1.2-1.5-2.7-3-3.9-4.5.7.2 1.3.4 2 .7 1.4 1.5 2.7 2.9 3.9 4.5zm-9.1-6.5l.9.4.6.3.3.3 3.6 4.1c-2.4-1-3.7-3.3-5.4-5.1zm-.5-15.6l.1-.1v.1zm-.9.6c-.3-.2-.4-.4-.6-.7.3-.1.6-.1.9 0 .5.3 0 .6-.3.7zm-.9.8c-.6-.3-1-.9-1.3-1.5h.8l.9 1.1c-.1.2-.2.2-.4.4zm-1.1.7c-.7-.6-1.4-1.5-2-2.2h1l1.6 1.7c-.2.3-.2.5-.6.5zm-.6 1l-.2-.1c-1.1-1-2-2-2.8-3.1h.9l2.4 2.7c0 .2-.2.3-.3.5zm-.8 1h-.2c-1.4-1.3-2.6-2.7-3.8-4.1l.1-.1h.9c1.1 1.2 2 2.3 3.2 3.6 0 .3-.1.4-.2.6zm-1.2.7l-4.4-4.8c.3-.1.6 0 1 0 1.4 1.5 2.9 3.1 4.2 4.7-.1.2-.5.1-.8.1zm-1.7 0c-1.4-1.5-3-3.2-4.3-4.8.3-.1.6 0 .9-.1 1.6 1.6 3 3.2 4.5 4.9h-1.1zm-1.8 0c-1.5-1.6-3.1-3.1-4.4-4.8v-.1h1c1.5 1.6 3.1 3.3 4.6 4.9-.2 0-.8-.1-1.2 0zm-1.6 0c-1.6-1.6-3.1-3.2-4.4-4.9h.9c1.5 1.7 3 3.2 4.4 4.8-.3.1-.6.1-.9.1zm-1.7 0c-1.5-1.6-3.1-3.2-4.4-4.9h.9c1.4 1.6 3 3.2 4.5 4.9h-1zm-1.9 0c-1.4-1.6-3.1-3.2-4.4-4.8v-.1h1.2c1.4 1.5 2.7 3.1 4.4 4.8.1.1-1.2.1-1.2.1zm-1.8-.1c-1.5-1.6-3-3.1-4.3-4.8h1.1l4.3 4.7v.1h-1.1zm-1.9.1c-1.4-1.7-3-3.1-4.3-4.9h1.2c1.5 1.6 2.9 3.2 4.4 4.8l-1.3.1zm-1.7 0c-1.4-1.6-3-3.2-4.3-4.8v-.1h1.1l4.4 4.9H153zm-1.8 0c-1.6-1.6-3-3.1-4.4-4.8v-.1h1.1l4.3 4.8h.1c.1.1-1.1.1-1.1.1zm-1.8 0c-1.4-1.6-3-3.3-4.3-4.9h1.1l4.4 4.9h-1.2zm-1.8 0c-1.4-1.6-3.1-3.2-4.4-4.9h1.1l4.4 4.9h-1.1zm-1.7 0c-1.5-1.6-3-3.2-4.4-4.9h1.1l4.4 4.8c-.3.2-.8.1-1.1.1zm-1.9 0c-1.5-1.6-3-3.2-4.3-4.9.3-.1.7-.1 1.1 0 1.4 1.6 2.9 3.2 4.4 4.9H144zm-1.8-.1c-1.5-1.6-2.9-3.1-4.3-4.8.2-.2.7-.1 1-.1l.4.4 4 4.5c-.3.1-.7.1-1.1 0zm-1.6.1c-1.6-1.5-3-3.2-4.4-4.9v-.1h1c1.6 1.6 2.9 3.2 4.5 4.9 0 .1-1.1.1-1.1.1zm-1.9 0c-1.5-1.6-3.1-3.1-4.4-4.9.3-.2.7 0 1-.1 1.5 1.6 3 3.2 4.5 4.9-.3.1-.7 0-1.1.1zm-1.8 0c-1.5-1.7-2.9-3.1-4.4-4.9.5 0 .9-.1 1.3.2 1.3 1.6 2.7 3.1 4.1 4.8h-1zm28.7-27h-.2l-1.5-1.7c.4-.1 1 0 1.2.3.5.4.6.9.5 1.4zm-.3 2.1c-.5-.3-.9-.9-1.3-1.3l-1.6-1.7c.1-.2.4-.2.6-.3.8.8 1.6 1.7 2.4 2.6l-.1.7zm-.7 3.1l-4-4.4c0-.4.3-.5.5-.8 1.3 1.2 2.5 2.7 3.8 4l-.2 1.1c0 .1-.1.1-.1.1zm-.4-17.5c-.7-.5-1.2-1.2-1.8-1.8l.2-.8c.7.6 1.4 1.5 2.1 2.3-.1.1-.3.2-.5.3zm-.3 20.9l-4.5-5c0-.3.1-.6.2-.9 1.7 1.6 3.1 3.3 4.6 5l-.2 1-.1-.1zm-.4 3.7l-4.6-5 .1-1c1.7 1.6 3.2 3.4 4.7 5.1 0 .3-.2.5-.2.9zM162 22.7c-.2-.1-.1-.4-.1-.6l.1-.3.5.5c-.1.1-.3.3-.5.4zm-.3 25.1l-.2-.1-3.3-3.7.1-.9c1.4 1.4 2.7 2.8 4 4.3-.1.3-.3.4-.6.4zm-3.8-1.1v-.2l1.2 1.3c-.6-.1-1-.5-1.2-1.1zM149 18.6c-1.6-1.6-3.2-3.3-4.7-5 .1-.3.2-.5.3-.7l4.6 5.1c.1.1 0 .4-.2.6zm-4-7.7l-.1-1 3.9 4.3.3 1.2-4.1-4.5zm2.6 14.1h-.2l-4.9-5.4.2-1c1.9 1.8 3.6 3.8 5.3 5.8.1.3-.2.4-.4.6zm-.5-4.4l-4.3-4.7c.1-.2.2-.5.5-.5 1.4 1.6 3.1 3.2 4.4 4.9-.2.1-.4.3-.6.3zm-1.5 17.2c-.6-.5-1.1-1.1-1.6-1.7.4-.4 1-.8 1.7-.8.5.3.2 1.1.1 1.6l-.2.9zm-.6-11.3c-1.1-1-2.2-2.3-3.2-3.4l.2-1.1c1.3 1.3 2.5 2.6 3.7 4l-.7.5zm.2 13.9h-.2l-5.2-5.8c0-.3 0-.6.2-.9h.1c1.8 1.9 3.6 3.8 5.3 5.8 0 .3-.2.6-.2.9zm-.7 3.2l-5.1-5.7c-.1-.3.1-.6.1-.9 1.8 1.8 3.6 3.8 5.3 5.8l-.1.9-.2-.1zm-.6 3.3c-1.8-1.8-3.5-3.8-5.2-5.7l.2-.8 5.2 5.6c.1.3-.1.6-.2.9zM142.6 28c-.5-.5-1-1-1.4-1.6l.2-.8 1.8 1.9c-.1.2-.3.4-.6.5zm-1.5 20c-1.1-1.1-2-2.1-3-3.3l.2-.9.3.2 3.5 4c-.3 0-.7.2-1 0zM134 20.9l-.9-.9c.4 0 1-.1 1.3.1.1.2.4.5.1.6-.1.1-.3.2-.5.2zm-4-12l-.2-.1-4.6-5 .2-.9c1.8 1.7 3.4 3.7 5.1 5.5-.1.2-.3.4-.5.5zm-1.2 11.5c-2-1.9-3.6-3.9-5.4-5.8l.2-.9c1.9 1.9 3.6 3.8 5.3 5.8-.1.2-.1.6-.1.9zm-.5-9.1l-.3-.2-3.4-3.8c0-.3.1-.6.2-.9 1.4 1.3 2.6 2.8 3.9 4.2-.1.2-.3.4-.4.7zm-.3 12.5c-1.8-1.8-3.4-3.8-5.2-5.7 0-.3 0-.7.1-1 1.9 1.8 3.6 3.8 5.3 5.8 0 .3 0 .7-.2.9zm-.4-8.9c-1.4-1.3-2.4-2.6-3.6-3.9l.2-1c1.2 1.2 2.3 2.4 3.4 3.7v1.2zM126 25.8l-3.8-4.2.1-.9h.1c1.4 1.7 3.1 3.1 4.3 4.8-.2.2-.4.4-.7.3zm-.5 12.3c-.5-.4-1.1-1-1.6-1.7h.1c.4-.4.7-.4 1.2-.6.3.1.3.1.4.2.6.6 0 1.4-.1 2.1zm-.4 2.6c-1.8-1.8-3.5-3.8-5.2-5.6l.2-1c1.7 1.8 3.5 3.7 5.1 5.6.1.3 0 .6-.1 1zm-.6 3.3c-1.8-1.7-3.6-3.7-5.2-5.6 0-.3.1-.7.2-.9 1.7 1.8 3.6 3.8 5.1 5.7l-.1.8zm-1-16.6l-2-2.2c.1-.3.1-.6.2-.9.8.7 1.8 1.8 2.6 2.7-.2.2-.5.3-.8.4zm.1 19.7h-.2l-4.7-5.2c0-.3 0-.6.2-.9 1.7 1.7 3.4 3.7 5 5.5 0 .2-.1.4-.3.6zm-2.5-18.3c-.2 0-.2-.3-.2-.5.1-.2.1-.5.2-.6.2.2.5.5.6.8-.1.2-.3.3-.6.3zm-.5 19.1l-2.4-2.7.2-.8h.1c1 1.2 2 2.1 3 3.4-.4.1-.7.2-.9.1zm14.6 12.3c-1.4-1.6-3-3.2-4.3-4.9.5-.1.7-.1 1 0 .4.2.9 1.1 1.5 1.6 1 1.1 1.9 2.1 2.9 3.3h-1.1zm-1.8.1c-1.6-1.6-3.1-3.2-4.4-4.9h1c1.5 1.7 3.1 3.4 4.5 4.9h-1.1zm-1.8 0c-1.6-1.6-3-3.2-4.5-4.9v-.1h1l4.6 4.9h-.4l-.7.1zm-1.8-.1c-1.5-1.5-3-3.2-4.4-4.9h1.1c1.5 1.7 2.9 3.3 4.5 4.9h-1.2zm-1.8 0c-1.5-1.6-3.1-3.1-4.5-4.9l.1-.1h1c1.4 1.6 3.1 3.3 4.5 4.9v.1H128zm-1.8 0c-1.6-1.6-3-3.2-4.4-4.9.2-.1.5 0 .8-.1.4 0 .8.6 1.1.9 1.2 1.4 2.4 2.7 3.6 4.1h-1.1zm-1.8 0c-1.5-1.6-3.1-3.1-4.4-4.9.3-.1.7 0 1 0 1.4 1.5 2.8 3 4.5 4.9-.4 0-.7.1-1.1 0zm-1.9 0c-1.5-1.7-3-3.2-4.3-4.9h1.1c1.5 1.7 2.7 2.9 4.2 4.6l.3.4-1.3-.1zm-1.8 0c-1.5-1.6-3.1-3.2-4.4-4.9h.9c1.1 1.3 2.4 2.6 3.7 4 .2.2.2.3.3.4.3.3.3.3.4.5h-.9zm-1.9-.1c-1.6-1.6-3-3.2-4.4-4.9h1.1c1.4 1.5 2.9 3.2 4.4 4.9h-1.1zm-1.6 0c-1.5-1.6-3-3.2-4.4-4.9.3-.1.7 0 1.1.1l4.3 4.8h-1zm-1.9 0c-1.4-1.6-3-3.2-4.3-4.9h1.1l4.4 4.9h-1.2zm-1.7 0c-1.5-1.6-3-3.2-4.5-4.9h.9c1.5 1.7 2.9 3.1 4.5 4.9h-.9zm-1.7 0c-1.6-1.6-3-3.2-4.4-4.9h1c1.5 1.6 2.9 3.2 4.3 4.9h-.9zm-1.8 0c-1.5-1.6-3-3.1-4.4-4.9h1c1.6 1.7 2.9 3.2 4.4 4.9h-1zm0-51.1c-1.7-1.7-3.5-3.8-5.1-5.5l.2-.9c1.7 1.7 3.4 3.7 5.1 5.5 0 .3 0 .6-.2.9zm-1.7 51c-1.6-1.6-3.1-3.2-4.5-4.9h1.2c1.4 1.6 2.9 3.2 4.3 4.8l-1 .1zm-.5-49.2L104.5 7c0-.4.1-.6.2-.9 1.4 1.4 2.7 2.8 4.1 4.3-.3.2-.6.4-.9.4zm.1 12c-.4-.2-.7-.6-1-.9l-.6-.8c.3-.4.9-.7 1.5-.7.2.1.4.2.4.3-.1.8-.2 1.4-.3 2.1zM106.7 60c-1.5-1.6-3.1-3.2-4.4-4.9.3-.1.7 0 1 0 1.6 1.7 3 3.2 4.5 4.8-.4.2-.8.2-1.1.1zm.8-34.7c-1.9-1.9-3.6-3.8-5.3-5.7l.2-1c1.8 1.8 3.6 3.9 5.3 5.7 0 .4-.1.7-.2 1zm-.5 3.4c0 .1-.1 0-.2 0l-5.2-5.8c.1-.3.1-.7.2-1 1.9 1.9 3.5 3.8 5.3 5.8.1.4 0 .7-.1 1zm-.6 3.4c-1.8-1.7-3.6-3.9-5.3-5.7-.1-.3.1-.6.1-.9 1.9 1.9 3.6 3.8 5.3 5.8 0 .3 0 .6-.1.8zm-.9-19.7c-.6-.5-1.1-1.1-1.6-1.7l.2-.9c.7.7 1.4 1.4 2.1 2.3-.3.1-.4.3-.7.3zm.3 23.1c-1.9-2-3.5-3.9-5.4-5.9l.2-.9c1.3 1.2 2.7 2.8 4 4.2l1.4 1.6-.2 1zm-.1 24.5c-.4-.1-.8.2-1.1-.1-1.4-1.6-2.9-3.1-4.2-4.8.4-.1.7 0 1.1 0L106 60h-.3zm-.5-21.1c-1.9-1.9-3.6-4-5.4-6l.2-.9c1.9 1.9 3.6 3.8 5.4 5.9 0 .4-.1.7-.2 1zm-.8 3.2l-5.2-5.7.2-.9h.1c1.8 2 3.7 3.9 5.4 6l-.1.9-.4-.3zm-.3 3.4c-2-1.8-3.6-3.9-5.4-5.8-.1-.4.1-.7.2-1 2 2 3.6 4 5.5 6l-.3.8zm0 14.6c-.4 0-.8.1-1.1-.1-1.4-1.5-2.9-3.2-4.3-4.8h1c1.4 1.5 3.1 3.3 4.4 4.9zm-.8-46.4l.1-.4c.1 0 .2.1.2.2-.1.1-.1.3-.3.2zM102 47.4c-1.3-1.4-2.6-2.9-3.9-4.3l.2-.9h.1c1.5 1.6 3.1 3.3 4.5 4.9-.3.3-.6.3-.9.3zm-2.7 10.4l-2.4-2.7c.3-.1.8-.1 1.1 0l4.3 4.8c-1.1.3-2.1-1-3-2.1zm.8 2.2c-.6-.3-.7-.9-1.1-1.3l-3.3-3.5c.1-.1.3 0 .5 0 1.5 1.6 2.9 3.1 4.3 4.8h-.4zM99 47.6c-.6-.2-.8-.8-1.2-1.2-.1-.2 0-.6 0-.8.7.7 1.3 1.3 1.9 2-.2.1-.5.1-.7 0zM88.5 22.2c-.7-.5-1-1-1.6-1.6.2-.3.7-.5 1-.8.2-.1.5-.3.7-.1l.2.2c0 .9-.2 1.6-.3 2.3zm-9.4 35.9l-.4-.3c-1.3-1.5-2.7-2.9-4-4.4l.7-.3c1.5 1.4 2.9 3.1 4.3 4.7-.2.1-.4.3-.6.3zm-.6-4.8c-.5-.4-1-.8-1.2-1.4.3-.1.7-.9 1-.3l.4.5c-.1.3 0 .8-.2 1.2zm-2 5.7c-1.5-1.5-2.8-3-4.2-4.6.1-.2.4-.2.7-.3 1.5 1.5 3 3.1 4.3 4.6l-.8.3zm-2.5.3l-4.1-4.5c.2-.2.5-.2.8-.2l.3.2 4 4.4c-.2.2-.7.1-1 .1zm-.3-29.1l-3.4-3.8c.1-.3.3-.3.6-.4l3 3.3v.9h-.2zm.1-2.3c-.7-.8-1.3-1.3-1.8-2.1 1 .1 1.4.8 1.7 1.6 0 .2.1.3.1.5zm-.2 5.2l-.3-.2-4.3-4.8c.2-.2.2-.9.7-.6l4.1 4.5c-.1.4-.1.8-.2 1.1zm-.6 3.7h-.2l-5-5.6.2-.8.2.1 4.9 5.5c0 .2 0 .5-.1.8zm.1 22.6h-1.2C70.5 58 69.3 56.6 68 55c.4-.1.8-.2 1.2 0 1.3 1.4 2.7 2.9 3.9 4.4zM72 40.8c-1.9-1.9-3.6-3.8-5.3-5.8.1-.4.1-.9.3-1.3l5.3 5.8c0 .5-.2.8-.3 1.3zM70.8 44l-.2-.2-4.5-4.9c0-.4.1-.8.2-1.2 1.7 1.7 3.3 3.6 4.9 5.4 0 .3-.3.6-.4.9zm-1.1 15.1c-1.2-1.4-2.5-2.7-3.6-4.1.3 0 .8-.1 1.1 0 1.3 1.3 2.6 2.8 3.8 4.2-.5.2-.9 0-1.3-.1zm-.8-13l-3.2-3.6c0-.4 0-.8.1-1.1 1.4 1.4 2.6 2.7 3.8 4.2-.2.3-.4.5-.7.5zM67 58.4c-.3-.3-.6-.7-1-.9l-.1-.3c-.7-.8-1.5-1.6-2.1-2.4l1.3.2c1.2 1.2 2.4 2.6 3.5 3.9-.5-.1-1.1-.2-1.6-.5zm-2.6-1l-2.9-3.2.7.2c1.1 1.2 2.1 2.3 3.1 3.5l-.9-.5zm-.9-40.5c-1.2-1.2-2.2-2.5-3.3-3.7l-.2-.9c1.3 1.5 2.9 2.7 3.5 4.6zm-.6 2.9c-.7-.6-1.3-1.4-2-2.1v-1.1h.1l2.6 2.9c-.2.2-.4.3-.7.3zM61.1 21c-.3.3-.7.4-.9.7 0-.4.2-.9.3-1.3.3.1.5.4.6.6zm40.6 44.1c-1.3-1.4-2.7-2.8-4.1-4.4v-.9c1.3 1.3 2.6 2.7 3.8 4.2.2.4.2.7.3 1.1zm-.4 3.2l-.3-.1-4-4.6c0-.3.1-.5.3-.7 1.5 1.5 2.8 3.1 4.2 4.7 0 .2-.1.5-.2.7zm-1.4 2.5c-1.5-1.5-2.9-3.2-4.3-4.7l.3-.6.2.1c1.5 1.6 2.8 3.1 4.1 4.7-.1.2-.1.3-.3.5zM98 72.7l-.2-.1c-1.4-1.6-2.8-3.1-4.1-4.7.2-.2.5-.7.7-.4 1.5 1.5 2.8 3.1 4.1 4.6 0 .3-.3.4-.5.6zm-2.1 1.4c-1.6-1.5-3-3.2-4.4-4.8.2-.2.5-.5.8-.5 1.5 1.5 2.8 3.2 4.3 4.8v.1l-.7.4zm-2 .8c-1.5-1.5-3-3.2-4.4-4.8.3-.3.7-.4 1.2-.5 1.5 1.6 2.9 3.2 4.2 4.8-.2.3-.6.4-1 .5zm-1.2.5h-.4c-1.4-1.6-2.9-3.1-4.2-4.7.3-.2.6-.3 1-.3 1.5 1.6 2.8 3.1 4.2 4.7-.2.2-.4.2-.6.3zm-2.1.5l-4-4.6c.2-.3.6-.4 1-.4 1.4 1.6 2.8 3.1 4.1 4.7-.3.1-.7.3-1.1.3zm-1.5.3c-1.3-1.6-3-3.1-4.1-4.7l.9-.2c1.4 1.5 2.9 3.1 4.2 4.7-.3.1-.7.1-1 .2zm-1.8.2c-1.3-1.5-2.8-3-4-4.6.3 0 .7-.2 1.1-.1l4 4.5c-.3.1-.7.2-1.1.2zm-1.9.1l-.3-.2c-1.2-1.5-2.7-2.9-3.8-4.4.4-.1.8-.2 1.3-.1l4.1 4.6c-.3.2-.9 0-1.3.1zm-.6-17.8c-1.3-1.2-2.4-2.4-3.5-3.8.4-.1.8-.1 1.2 0l2.6 2.8c0 .4-.1.7-.3 1zm.3-1.7c-.6-.6-1.2-1.1-1.6-1.7.7.3 1.5.8 1.6 1.7zm-1.6 19.6c-1.4-1.5-2.8-3-4-4.5.3-.1.7 0 1.1-.1l4.1 4.6c-.4.1-.8 0-1.2 0zm.3-16.8c-1.5-1.6-2.9-3.2-4.3-4.9.3-.1.7-.1 1.1 0 1.4 1.4 2.6 2.8 3.9 4.3-.1.2-.4.6-.7.6zm-2.1 16.8c-1.4-1.5-2.8-3-4.1-4.6.3-.1.7 0 1.1 0 1.3 1.5 2.9 2.9 4.1 4.6h-1.1zm-1.9-.1c-1.3-1.6-2.8-2.9-4-4.6l1 .1 4.1 4.5h-1.1zm-2.1-.2c-1.4-1.5-2.8-3-4-4.5l1.3.1c1.3 1.5 2.8 3 4 4.5l-1.3-.1zm-2.3-.4c-1.4-1.5-2.8-2.9-4-4.5.2-.1.6 0 .9.1l.6.1c1.3 1.5 2.8 3 4 4.5-.5 0-1-.1-1.5-.2zm-2.2-.4c-1.4-1.5-2.8-2.9-4-4.5l1.3.3 4.1 4.5c-.5 0-1-.2-1.4-.3zm-2.3-.6c-1.5-1.6-2.8-3-4.1-4.6.5.1 1.1.2 1.5.4 1.3 1.5 2.7 3 4 4.5l-1.4-.3zm-5-3.6c-.5-.4-1-1.1-1.4-1.6l1.4.4 4 4.5c-1.9-.1-2.8-2.2-4-3.3zm-.2 1.8l-3.8-4.4 1.2.4 3.9 4.5c-.4 0-.9-.3-1.3-.5zm-3.5-1.6l-3.6-4.1c1.7.3 2.6 2.3 3.8 3.4l1.2 1.4c-.4-.2-.9-.5-1.4-.7zm-4.1-2.4l-3.5-4c.4.2.8.5 1.2.8 1.2 1.3 2.5 2.7 3.6 4.1l-1.3-.9zm-5.6-37.2c-.1-.1-.2-.1-.2-.2l.3-.3-.1.5zm-.7 3h-.1l-1.7-2c.2-.2.4-.3.6-.3.5.6 1.8 1.2 1.2 2.3zm-2.1 4.6c-.2-.6-.5-1.3-.6-2 .9.9 1.7 1.8 2.5 2.7.1.5.1 1 .2 1.4l-2.1-2.1zm1.9-2.3c-1.2-1.1-2.3-2.3-3.4-3.6.3-.2.7-.5 1.1-.3l2.4 2.7-.1 1.2zm-6.8-22.3l-3.6-4.2c1.9.5 3.4 2.4 3.8 4.2h-.2zm-2.5-.3c-1.4-1.5-2.7-3-4-4.5l1.1.2c1.4 1.4 2.6 2.9 3.9 4.4-.3-.1-.7-.1-1-.1zm-1.1-.1c-.5 0-1.1.2-1.6-.1l-4.1-4.6c.5-.1 1.1 0 1.6 0 1.4 1.4 2.7 3 4 4.5v.2zm-2.1 3.3l-4.4-4.9.2-.9c1.6 1.6 3 3.3 4.5 5l-.3.8zm-.6 3.4l-.2-.1-4.3-4.9.2-.8c1.5 1.6 3.1 3.3 4.5 4.9 0 .3-.1.6-.2.9zm-.7 3.3l-4.4-4.9.2-.9.2.1c1.5 1.6 2.9 3.2 4.3 4.8l-.1.9h-.2zM37.7 60c-1.6-1.6-3.1-3.4-4.6-5.1.1-.5.2-1.1.3-1.6 1.7 1.6 3.2 3.4 4.6 5.2l-.3 1.5zm-2.1 3.1L31 57.9c.4-.1.9-.1 1.3 0l4.5 5.1c-.3 0-.8.3-1.2.1zm.4-36.6l-.2-.1-3-3.4c.1-.3.1-.6.2-.9 1.3 1.3 2.5 2.7 3.7 4.1-.2.2-.4.3-.7.3zM33.8 63c-1.7-1.7-3.2-3.4-4.6-5.2h1.2c1.7 1.7 3.1 3.4 4.6 5.1-.4.2-.8.1-1.2.1zm.5-19.2c-1.6-1.5-3-3.2-4.4-4.9l.2-.9c1.5 1.6 2.9 3.2 4.3 4.8l-.1 1zm-.6 3.5l-.2-.2-4.1-4.7.2-1c1.5 1.6 3 3.2 4.3 4.8 0 .5-.1.8-.2 1.1zm-1.1-20.5c-.4-.2-.3-.9-.2-1.3.4.3.8.8 1.1 1.2-.3.2-.7.2-.9.1zm-.5 23c-1.2-1.2-2.2-2.5-3.3-3.8.1-.3.1-.7.2-1 1.6 1.4 2.9 3.1 4.3 4.7-.4.1-.9.1-1.2.1zM32 63c-1.6-1.7-3.2-3.4-4.7-5.2h1.1c1.6 1.7 3.2 3.4 4.7 5.2-.3.1-.8.1-1.1 0zm-1.2-27.4c.3-.2.7-.1 1.1 0 .4.6.5 1.4.7 2l-1.8-2zM30.2 63c-1.5-1.7-3.2-3.4-4.7-5.2.3-.1.7-.1 1.1 0 1.6 1.6 3.2 3.4 4.6 5.1-.1.2-.6.2-1 .1zm-2-.1c-1.6-1.6-3.1-3.3-4.6-5.1.4-.1 1-.1 1.4 0 1.5 1.7 3.2 3.4 4.6 5.2-.5 0-1 .1-1.4-.1zm-1.8 0c-1.6-1.7-3-3.3-4.5-5 .2-.2.7-.1 1.1 0 1.6 1.6 3.2 3.4 4.6 5.1-.3.1-.8 0-1.2-.1zm-1.6.1c-1.7-1.7-3.3-3.4-4.8-5.2.5.1 1.1-.2 1.4.2 1.6 1.6 3.1 3.3 4.5 5h-1.1zm-1.7 0c-1.7-1.6-3.2-3.5-4.7-5.2.2-.1.6 0 .9 0 1.7 1.7 3.1 3.4 4.7 5.2h-.9zm-1.9-.1c-1.6-1.6-3.2-3.4-4.7-5.1v-.1c.5.1 1.2-.2 1.5.2 1.3 1.7 3 3.3 4.4 5-.3.1-.8.2-1.2 0zm-1.6 0l-4.7-5.1v-.1c.3-.1.7 0 1 0 1.5 1.7 3.3 3.4 4.7 5.2-.4.1-.7.2-1 0zm-.4-51.6c-.4-.3-.7-.7-1-1.1.4-.2.8-.2 1.3-.3-.1.5-.2 1-.3 1.4zm-.4 2.1c-.8-.7-1.8-1.7-2.5-2.7.3-.2.6-.4 1.1-.3l1.6 1.9c0 .3-.1.7-.2 1.1zm-1.1 49.4c-1.6-1.6-3.2-3.4-4.5-5.1.3-.1.7 0 1.1 0 1.6 1.7 3.2 3.4 4.8 5.2-.5.1-1.1.2-1.4-.1zm.7-47.5l-3.5-4c.2-.2.5-.4.7-.4 1.1 1.1 2.2 2.2 3.1 3.4l-.2 1h-.1zm-.6 3.6c-.6-.7-1.3-1.3-1.8-2.1l.1-.7c.7.5 1.4 1.3 1.9 2l-.2.8zm-.6 3.5c-1-.9-1.7-2-2.6-2.9.1-.2.2-.3.3-.5.9.7 1.7 1.8 2.5 2.7l-.2.7zm-1.1 40.5c-.5-.3-.7-.7-1.4-1.3l-.2-.3-3.2-3.6c.3-.1 1-.2 1.2.1 1.6 1.7 3.1 3.4 4.6 5.1-.2.1-.7.1-1 0zm.4-37.3c-1.2-1-2.3-2.5-3.4-3.7-.2 0-.2-.2-.2-.3-.2-.3-.6-.5-.5-.8.2-.1.4-.2.6-.2 1.3 1.3 2.5 2.8 3.7 4.2 0 .3 0 .6-.2.8zm-2.1 1c-1.5-1.6-2.9-3.2-4.2-4.9.2-.2.6-.2.9-.3 1.5 1.6 2.9 3.1 4.2 4.8-.2.3-.6.4-.9.4zM14 62.9c-1.6-1.7-3.2-3.4-4.7-5.2.4-.1.8 0 1.2 0l4.7 5.2c-.3.1-.8.1-1.2 0zm-1.8 0c-1.6-1.7-3.1-3.4-4.6-5.2.3-.1.7-.1 1.1 0 1.6 1.7 3.2 3.4 4.7 5.2-.4.1-.8.1-1.2 0zm1-36.1c-.4.1-.8.1-1.2 0-1.5-1.7-2.9-3.3-4.3-5 .5.1 1.1-.2 1.4.2 1.4 1.6 3 3.1 4.1 4.8zm-2.9 36.1c-1.5-1.7-3.3-3.4-4.6-5.2h1.2c1.7 1.7 3.2 3.4 4.7 5.2-.4.1-.9.1-1.3 0zM9.1 25.7c-1.3-1.5-2.8-2.9-4-4.5l1.6.4c1.4 1.6 2.9 3.2 4.2 4.9-.6-.1-1.2-.4-1.8-.8zm-.6 37.1c-1.5-1.6-3.1-3.4-4.5-5 .2-.2.7-.1 1.1-.1 1.6 1.6 3.3 3.4 4.7 5.2-.5 0-.9 0-1.3-.1z"/><path d="M74 39.2c-.5 2-1.2 4-1.9 5.9-.7 1.6-2.1 2.9-3.9 3.1-1.5.1-3-.3-3.8-1.6-1.4-2.4-.6-5.6-.4-8.3.5-4.1 1.5-7.9 3.4-11.5.9-1.4 2.1-2.8 4-2.7 1.4-.1 2.5.6 3.2 1.7 1.5 2.9.6 6.7.2 9.8l-.8 3.6zm-.8-2.3c.5-3.4 1.7-7.3.3-10.6-.4-.7-1.2-1.1-2.1-1.1-1.5 0-2.5 1.2-3.1 2.4-1.7 3.2-2.4 6.8-3 10.4l-.1.4c-.2 1.1-.3 1.3-.4 2.8-.1 1.7-.3 3.5.7 4.9.3.5.9.7 1.5.8 1.4.2 2.6-.5 3.3-1.5 1-1.8 1.7-3.7 2.2-5.6l.7-2.9zM46.5 16.4c.1 4-2.4 7.5-5.6 9.6-1 .6-2 1.2-3.1 1.6-2.4.8-5.1 1-7.8 1.1l.1-1.1L33 12.3l.8-4.1c2.5-.1 4.9.2 7.1.8 2.7.8 4.7 3.1 5.5 5.7 0 .5.1 1.1.1 1.7zM39 25.9c.1 0 .1-.1.2-.1 1.2-.7 2.3-1.4 3.3-2.5 2.4-2.4 3.8-6 2.5-9.3-1.3-3.7-5.6-4.5-9.3-4.7-.3 0-.7-.1-1 .1l-.5 2.4c-.5 2.4-.8 4.8-1.3 7.1l-1.4 7.6-.1.8h1.2c2.3 0 4.5-.4 6.4-1.4m159.8 12.5c-.7 1.2-1.8 2.2-3.3 2.2-1.1-.1-2.1-.6-2.8-1.4-1.5-2.2-.7-5.3-.4-7.8.6-2.4 1.3-4.9 3.3-6.5.8-.4 1.8-.7 2.8-.5 1.1.3 2.2 1.2 2.4 2.4.5 2.2.1 4.7-.3 6.8-.5 1.7-.8 3.4-1.7 4.8zm.7-6.4c.2-1.8.7-3.9-.2-5.5-.6-.8-1.6-1.2-2.5-.9-1.8.9-2.2 2.6-2.9 4.2-.6 2.5-1.3 5.3-.8 8 .3.7.9 1.3 1.6 1.4 1.1.3 2.1-.2 2.6-1 1.2-1.9 1.8-4 2.2-6.2zm-1.7 30.8c-3.1 2.3-6.8 3.5-10.8 4-2.7.2-5.4-.2-7.5-1.5-1.2-.9-1.9-2.3-1.8-3.9.3-2.2 1.5-4.2 3.1-5.6 2.8 1.5 6 2.2 9.4 2 2.3-.1 4.6-.7 6.9-.5.8.2 1.7.6 2.1 1.4.2.5.3 1.2.2 1.8-.3.9-.9 1.6-1.6 2.3zm.5-3.2c-.1-.3-.3-.4-.5-.6-1.6-.9-3.6 0-5.3-.1-2.8.1-5.7.2-8.3-.5-1.2-.3-2.2-.7-3.3-1.1-1.3 1.5-2.6 3.7-1.6 5.8.8 1.6 2.8 2.2 4.6 2.5 4.4.4 8.3-.9 11.7-2.7 1.1-.9 3-1.6 2.7-3.3zm94.1-14.2c-.6 1.5-1.5 3.2-3.2 3.8-1.3.3-2.9.1-3.8-.9-1.8-1.8-1.5-4.6-1.4-7.1.4-4.4 1.3-8.6 2.9-12.5.8-1.6 2-3.4 4.1-3.8 1.3-.1 2.6.3 3.3 1.3 1.3 2.4.8 5.7.6 8.5-.6 3.8-1.3 7.4-2.5 10.7zm-.5-19.2c-1.3-.4-2.4.4-3.2 1.3-1.9 3.1-2.6 6.9-3.2 10.6-.2 2.7-1 5.9.1 8.5.4.8 1.2 1.5 2.1 1.6 1 .1 1.7-.4 2.3-1.1 1.4-2 2.2-4.5 2.6-7 .5-2.6.9-5.3 1.1-8 .2-2.2.5-5-1.8-5.9zm60 9.4l-.2.1c-.2-3.8.2-8 3.5-10.1 1-.8 2.7-.7 3.9-.2 1.9 1.1 2.1 3.5 2.2 5.5l-.1.4-9.3 4.3zm8-4.8c0-1.5.1-3-.9-4.1-.9-.7-2.3-.6-3.2-.2-2.4 1.5-2.8 4.5-2.8 7.3h.1l6.8-3z" class="st3"/><path d="M135.8 45.4c-.2 1-.3 2.2.4 3 .9 1 2.2 1.5 3.6 1.5l.1.2-.6 3.5-19.3-.1-.1-.1.6-3.7c1.9 0 3.9-.6 4.7-2.4l.3-1 1.7-10c0-.7-.1-1.4-.7-1.8-.7-.6-1.7-.4-2.5-.1-.8-1.3-1.5-2.7-2.2-4l.1-.2 16.9-10.1 1.4-.8.1.1-.1 1-4.4 25zM122.2 9.5l-2.5 14.2c-.5 2.7-.9 5.5-1.5 8.2l-1.7 10.3c-.2 1.6-.7 3.2-.6 4.9.2 1.2 1.2 2 2.3 2.3.2.1.7 0 .7.4l-.6 3.7-.5.1-17.8-.2-.1-.2.6-4c1.7-.2 3.8-.6 4.5-2.4l.4-1.5 4.2-24c0-.9.2-2.1-.8-2.6-.8-.5-1.8-.3-2.6.1h-.3l-2.1-3.5.1-.2 19-11.9.2.1c.1 2.2-.6 4.1-.9 6.2zM237 2.4c-2.9.1-5.5 1-7.9 2.4-4.5 2.6-6.7 7.5-7.1 12.7l-.1.2c-2.5 0-4.9.5-6.9 1.5s-3.7 2.5-5 4.4h-.1c-4.1-5-11.2-6.5-17.6-4.9-6.2 1.4-11.6 6.8-12.5 13.1-.7 3.9.7 7.6 3.1 10.3.1.1.2.3 0 .4-1.9.7-3.6 2.3-4.6 4.1-.4.4-.2 1.6-1.1 1.3-.7-.4-.8-1.2-.8-1.9l2.7-18c.2-1.6.2-3.3-.4-4.7-1.1-2.5-3.5-4.2-6.3-4.4-4.6-.1-8.4 2.5-11.3 5.4-.1.1-.2.2-.4.1.4-2.5.8-5.1 1.3-7.6h-.2L151 23.2l-9.8 6-1.2.8-.1-.1 1.3-7.9c.3-1.8.7-3.6.9-5.3-.9.4-1.8 1-2.7 1.5-.1.1-.2.1-.3 0 1.8-1.3 3.5-2.9 4.5-4.9.8-1.5.7-3.8-.2-5.2-1.2-1.9-3.4-2.7-5.8-2.4-4.3.6-8.4 3.1-9.6 7.3-.5 1.4 0 3 .7 4.2 1.5 2 4.1 2.5 6.6 2.2 1-.1 1.9-.6 2.9-.7v.1c-1.9 1.3-3.9 2.4-5.8 3.6l-2 1.2L125 27l-4.9 2.9-.1-.1c-.1 0-.1-.2 0-.2l4.7-27.8.1-1-.2.1-21.8 13.7c-.2.1-.3.2-.5.1.7-4.6 1.6-9.1 2.3-13.7l-.6.3-13.3 8.2-6.5 4.1-1.4 1c1.1 1.8 2.3 3.7 3.5 5.5.7-.3 1.4-1.2 2.3-.8.3.2.4.5.3.9l-1.8 10c-.1 0-.1 0-.2-.1-.9-5.6-4.9-10.5-10.5-12-6.6-1.4-12.9.9-17.5 5h-.2c.2-.9.7-1.8.8-2.7 1-3.8 0-7.7-2.1-10.7-3.5-5.3-9.8-7.6-16-8.2-8-.9-16.6-.7-24.5.8-5.7 1.1-12.6 2.2-15.6 8.1-1.2 2.3-1.1 5.6.4 7.7 1.9 2.6 5.2 3.5 8.5 2.9 2.3-.8 4.4-2.3 4.9-4.8.5-1.9-.2-3.8-1.4-5.1 1.3-.8 2.7-1.3 4.2-1.6.6-.1 1.2-.3 1.8-.2l-.1 1.2L16.1 30l-2.9 16-.4 1.6c-1.5 2.7-5.1 2.2-8 2.2-.5 2.4-1 4.9-1.3 7.3l26.6.1 1.7-.1c.5-2.2.8-4.5 1.2-6.8-1.2-.2-2.5-.2-3.6-.6-1.2-.6-1.5-2.1-1.4-3.4l2-11.2.2-.2 2 .1c2.1 6.7 5.4 12.9 9.8 18.5 5 5.8 11.1 10.7 18.1 13.7 5.4 2.2 11.3 3.9 17.5 4 2.1.1 4.1 0 6.2-.4 4.9-.9 10.5-2.8 12.5-7.7 1-2.1.8-5.1-.4-7-.4-.8-1.1-1.2-1.7-1.8 0 0 .1-.1.1 0l27.3.2 52.2.1c.2 0 .4 0 .4.2-2.9 1.7-5.6 3.8-6.6 7-.7 2.4.4 4.7 2 6.2 2.9 2.4 6.5 3.7 10.2 4.5 8.9 1.6 17.9-.4 24.5-5.7 3.9-3.3 7.8-7.1 8.7-12.4l.1-.1c.9 2.3 1.7 4.7 2.6 7l.1.2c2-.5 3.8-1.4 5.7-2.1-.1-.4.1-.9.3-1.2.7-.5 1.7-.1 2.4.1 4.3 1.6 8.6 3.5 13.6 3.2 6.5-.3 12.5-5.2 14.5-11.1.1-.2.2-.6.4-.6.6 2.7 2.6 5.1 5.2 6.1 7 2.1 13.2-1.8 18.4-5.3h.2c2.6 2.3 5.4 4.2 8.8 4.9 4.6.9 9-.4 12.3-3.1 5-3.9 7.3-9.9 8.4-15.8l.3-.4c.7-.4 1.3-1.3 2.2-.9.2.2.4.5.4.8L307 46.4c-.1.4-.2.8-.4 1.2-1.1 1.4-3.1 1.2-4.8 1.3-.4 2.1-.7 4.2-1.1 6.3h3l37.3.1c.3-2.1.8-4.1 1.1-6.2-1-.1-2.2 0-3-.6-.8-.5-.8-1.5-.8-2.4.7-3.8 1.4-7.6 2-11.4.5-3.3 1.7-6.6 1-10.1-.6-2.6-2.6-5.4-5.4-5.9-4.9-.6-8.8 1.8-12.3 4.6l-.1-.1c.4-2.1.7-4.3 1-6.4l-18.4 11.6c-.1.1-.3.1-.4 0-1.3-3.9-4.2-7.5-8.3-8.9-7.4-2.4-14.7 1-19.4 6.1-.1.1-.2.3-.4.2l1.7-4.6c-3.4.8-7.3.5-11 .5l-.1-.2.7-4c.3-1.8.7-3.7.9-5.6l-3.7 2.2-11.1 7c-.2.1-.4.4-.7.2l.1-.9 2.5-14.5c.1-1.2.4-2.3.5-3.4-2.1-.1-4.5-.1-6.6 0-.2.7-.5 1.4-1.2 1.7-1 .9-2.5.1-3.6-.1-.9-.3-1.8-.6-2.7-.8-2-.6-4-1-6.3-.9zm103 51.9h-17.8l-.1-.2.7-4.3c1.5-.1 2.9-.5 3.8-1.7.5-.9.6-2 .8-3l1.9-11.9c.1-1.2-.5-2.4-1.5-2.9-1.5-.8-3.5-.4-4.7.6-1.5 1.1-2.3 2.9-2.8 4.7l-2 11.6c.1 1.1.9 1.9 1.8 2.3.4.1.8.1 1.2.3-.2 1.5-.5 3.2-.7 4.7H302c0-1.5.4-3 .6-4.5l.1-.1c1.7 0 3.5-.1 4.7-1.3l.5-1c.8-3.9 1.3-7.9 2.1-11.8-.1-.7-.4-1.3-1-1.6-1.7-.4-3.1.8-4.2 1.8-.5 3-1.4 5.9-2.6 8.6-1.2 2.6-3 4.7-5.2 6.8-2.8 2.3-6.3 3.5-10.2 3.1-4.2-.2-7.7-2.8-10.4-5.6-1.8 1.2-3.6 2.6-5.5 3.6-3.8 2.1-8.7 3.8-13.2 2.2-4.2-2-4.7-7-4.3-11.3l.4-2.4 2.5-12.9V28c-1.6-.1-3.2-.1-4.9-.1.2-1.2.4-2.5.7-3.7 5.4-3.4 10.8-6.8 16.4-10.2l-.1.7-1.3 7.6.2.1h9.9v.6l-2.4 6.1c-.4-.1-.7-.3-1.2-.5l-1.2-.2-6.4-.1-.2.2-2.5 14.9c-.1 1.7.6 3.4 2.1 4.1 2.1.8 3.9-.5 5.6-1.3l2.8-1.7c-1.6-7.1.5-14.3 5.6-19.1 4.5-4.4 11.4-7.5 17.9-4.9 4.1 1.7 6.4 5.4 7.5 9.5h.2l12.7-8c1.7-1 3.2-2.2 5-3.1l.1.2c-.3 2.2-.8 4.3-1.1 6.6.7-.3 1.3-1 2.1-1.5 3.6-2.9 8.3-6.4 13.3-4 2.7 1.9 3.6 5.5 3 8.9l-1.1 5.8-1.9 10c-.2 1.2-.6 2.8.4 3.8.8.8 2 .9 3.1 1.1l.1.1c-.3 1.4-.5 2.9-.7 4.4zm-86.8-34l-.2.1-4.8-.1c.2-2.5.7-5.6-.9-7.6-1.6-2.3-4.4-3.5-7.4-3.1-2.3.4-4.4 1.8-5.1 4-.5 1.7-.4 3.9.5 5.4 2.1 3.6 5.3 6.3 8.1 9.5 4.1 4.8 9.4 9.5 8.7 16.7-.6 5.9-4 11.9-9.8 14.1-3.6 1.6-8.6 1.7-12.4.3-2.6-.8-4.9-2-7.6-2.5-.9-.1-1.7.3-2.2 1-.2.3-.3.7-.4 1.1-1.2.5-2.4.9-3.6 1.3l-1.2-3.2-4.7-13.4.1-.1c1.7-.5 3.3-1.1 5-1.5 2.1 5.9 7.6 10.9 14.3 11.1 3.2.2 6.1-1 7.9-3.4 1.7-2.4 1.9-6.2.3-8.7-3.8-7.2-12.1-11.6-14-19.8-.8-2.5-.6-5.6.2-8.1 1.5-4.7 5.8-8.5 10.7-9.3 2.1-.4 4.6-.4 6.7.1 2.3.5 4.4 1.6 6.8 1.8 1.2.1 2.3-.6 2.8-1.6l.3-.6 4.4.1c0 .3 0 .7-.1 1l-2.4 15.4zm-34.5 7.4c-.4.1-.8-.1-1.2-.1-2.4-.1-4.6.7-5.9 2.5-1.7 2.3-1.9 5.3-3.3 7.7-2.4 4.3-6.8 7.6-12.1 7.7-2.7.2-5.1-.4-7.4-1.1-.7 1-.8 2.7-.2 3.7 1.1 1.5 3.1 1.3 4.9 1.2 4.3-.3 8.8-.9 13.1-.2 2.1.6 4.6 1.9 4.8 4.3.2 3.4-1.9 6-3.8 8.5-4.3 4.8-9.9 8.6-16.5 9.6-7.1 1.3-14.7.1-20.3-3.8-1.5-1.1-2.6-2.7-2.3-4.7.9-4.8 5.4-7 9.2-9.2l-2.1-.1-15.9-.1-.1-.1.7-3.7c1.6-.3 3.3-.7 4.1-2.3l.3-1.1 2.2-12.9c.1-1.1-.1-2.3-.8-3-.8-.8-2-1-3.2-.7-3 1.1-5.1 3.8-5.5 6.8l-1.6 9.8c0 .8.2 1.6.7 2.1.5.5 1.3.8 2 1l.1.2-.7 3.8h-17.2c.1-1.3.4-2.5.6-3.8 1.5-.2 3.1-.6 3.7-1.9l.4-1.1 1.9-11.2c0-.8-.3-1.5-.9-1.8-.7-.3-1.7-.3-2.3.2h-.3l-2.1-3.5.2-.2 18.2-11h.1v.8c-.4 2.6-.9 5.1-1.3 7.6.7-.4 1.1-1 1.7-1.6 3.3-3 6.5-6.1 11.3-6 2.3.2 4.5 1.4 5.6 3.5.6 1.3.7 2.9.5 4.4L175.6 43l-.5 3.5c0 .9.6 1.7 1.3 2.2.7.4 1.5.6 2.3.5.6-1.9 1.3-3.7 3-4.9.9-.6 2.1-1.1 3.2-1.5-.6-.8-1.4-1.7-2-2.6-2.7-3.5-2.3-9.2-.3-12.9 2.2-4.2 6.4-7.1 11.2-7.8 4.8-.7 9.8-.1 13.3 3 1 .9 2.1 2.1 3.1 3 1.6-2.7 4-5.1 7.1-5.9 1.2-.3 2.4-.5 3.7-.5l.1.1-2.4 8.5zm-78.6-12.2c-2.2 2.2-5.8 3.3-8.8 2.1-1.2-.5-1.8-1.8-1.9-3.1-.1-3.5 2.9-5.9 5.8-7.1 1.9-.6 4.8-1.2 6.3.5 1 .9 1.3 2.3 1.1 3.7-.4 1.7-1.5 2.9-2.5 3.9zM82.9 43.2c-2.9 4.4-7 8.6-12.4 9.8-3.3.9-7.2.5-10-1.2-4.9-2.7-7.7-8.2-7.6-13.9.1-.9.1-1.7.3-2.6 0-.2.2-1.5.3-1.8.5-1.8.5-1.6.8-2.4 1.8-4.4 5.5-7.6 9.5-10 2.9-1.6 6.1-2.4 9.6-2.4 4.9.2 9.5 3.3 11.2 7.8 1.8 4.2 1.7 10.1-.3 14.2l-1.4 2.5zM37.8 2.3c1.1.1 2.2.2 3.4.3 2.7.4 5.4.8 7.8 1.9.1 0 .2.1.4.1 4.1 1.6 7.3 4.9 8.8 9 1.5 5.3-.2 10.8-4.1 14.4-2.3 2.2-5.2 3.7-8.4 4.5 0 .9.2 1.7.3 2.6 1.3 7.1 5 13.6 10.2 18.7 6.6 6.3 15.7 11.1 25.8 8.9 2.2-.7 4.4-2.4 4.6-4.8 0-1.3-.3-2.6-1.4-3.4-.6-.5-1.3-.8-2.1-.9v-.1c-.9-.1-1.9-.1-2.9-.2V53l.7-3.9c.8-.2 1.9 0 2.7-.4.7-.3 1.2-.8 1.5-1.5l.8-4.1 4.2-23.3c0-.5 0-1-.3-1.4-.4-.4-1.2-.5-1.8-.4-.4.1-.9.2-1.3.3l-2.2-3.5v-.1L95 8.2l7.4-4.6.6-.3.1.1-.2 1.4L98.4 30l-2.7 16.1c-.1 1.2.6 2.2 1.6 2.7.5.3 1.2.4 1.8.5l.1.2-.6 3.7c-3 .1-5.7 0-8.6.2 2.3 1.1 5 2.7 5.6 5.4.7 3.1-.9 5.9-3.1 7.7-7.8 6-20.5 4.1-29.2 1.1-7.9-3.1-14.7-8-20.3-14.6-4.7-5.6-7.8-12.1-10.1-18.9-1.2-.1-2.5-.3-3.7-.1l-.4 1.8-2.1 11.9c0 1.6 1.2 2.8 2.7 3.4.7.2 1.4.3 2.2.4-.2 1.7-.6 3.2-.8 4.9l-.2.1H5.2c-.2 0-.6.1-.5-.2.3-1.7.5-3.5.9-5.1 3 .3 6.4 0 7.9-2.6l.3-1.2 7.3-38.9c0-.1 0-.1-.1-.1-3.5-.2-6.5.9-9.1 2.7.5.7 1.2 1.3 1.5 2.1.7 1.3.4 3.2-.5 4.3-1.3 1.9-3.9 2.7-6.4 2.2-2.1-.3-4-1.9-4.5-4-.6-3.6 1.2-6.8 4-8.6 2.5-1.8 5.5-2.4 8.4-3.2 7.4-1.7 15.5-2.1 23.4-1.6zm288.2 44c-.2.8-.7 1.6-1.5 1.9-1.4.5-3.4.6-4.7-.3-.5-.5-.5-1.3-.4-1.9l1.9-10.6c.5-1.6 1.4-3 2.9-4 .7-.4 1.7-.6 2.5-.2.5.2.9.5 1.2 1 .3.7.2 1.6.1 2.4l-2 11.7zm-53.9-4.2c.1.7.3 1.4.3 2.1-1.9 1.1-3.7 2.9-6.3 2.4-.7-.3-1.3-.9-1.5-1.7-.2-.8-.1-1.7-.1-2.6l2.3-13 .2-.1c2.3.3 5.4-.8 7.1 1-1.6 3.6-2.5 7.6-2 11.9zm-106.4-8.2c-.9 4.2-1.4 8.6-2.3 12.8-.5 1-1.6 1.6-2.8 1.6-1.2 0-2.7.1-3.2-1.2-.2-.6-.2-1.3-.2-2l1.7-9.6c.6-1.9 2.2-3.9 4.2-4.4.7-.2 1.6-.2 2 .3.8.7.7 1.7.6 2.5zm-21.3 11.6c-.1.9-.4 1.9-1.2 2.5-1.4.8-3.5.7-5 .2-.7-.4-1.1-1-1-1.8l.1-1 2.6-14.6h.1c1.2 1.6 2.2 3.3 3.5 4.9.7-.4 1.4-1 2.3-.6.2.2.3.5.4.7l-1.8 9.7zm-20.3 1.2c-.8 1.6-2.9 1.7-4.7 1.6-.7-.2-1.7-.5-1.9-1.3-.3-1.1.1-2.3.2-3.5.7-4.3 1.5-8.6 2.2-12.9.2-.1.2.2.3.2l3.1 5.1c.7-.2 1.3-.8 2.1-.5.6.3.4 1.1.4 1.7l-1.7 9.6zm-19.9-.7c-.2 1.3-1.7 1.8-2.9 2-1.3.2-3 .2-3.8-.7-.6-.7-.6-1.8-.4-2.7l1.5-8.8 3.6-20.2.1-.1c1.1 1.6 2.1 3.3 3.2 4.9l.2.2c.7-.3 1.5-1.2 2.4-.7.4.3.4.9.3 1.4L104.2 46zm-20.3.8c-.5.8-1.5.8-2.4.9-.1 0-.2 0-.3-.1v-.2c1.5-1.6 2.6-3.6 3.6-5.5-.1 1.8-.3 3.4-.9 4.9zm169-7.4l-.1.1c-.3-.3-.3-.9-.6-1.3-3.6-7.5-11.1-12.5-15.6-19.4-1.1-1.6-1.3-4.3-.1-5.9 1.1-1.6 3.1-2.4 5.3-2.1 2 .3 3.6 1.5 4.7 3 1.4 2.3.4 5.3.1 7.8 2.3.2 4.8.1 7 .2v.2l-3 1.9c-.4 1.7-.7 3.5-1 5.3l.2.1 4.7.1.1.1-1.1 6.1-.6 3.8zm-184 21c-6-2.2-10.9-6.6-15.1-11.5-3.4-4.6-5.8-10-6.5-15.8 2.2-.6 4.2-1.8 6-3.1-.2.9-.6 1.7-.8 2.6-.9 3.3-1.2 7.6 0 10.8 1.7 5.1 6 10.2 11.8 10.9 5.8.7 11.2-1.2 14.9-4.9.1.7-.1 1.5-.2 2.2-.2.9-.3 1.8-.4 2.7 2.5.2 5.7-.2 6.7 2.4.4 1.8-.7 3.4-2.1 4.2-1.8.9-3.8 1.2-5.9 1.2-3-.1-6-.8-8.4-1.7zM219.7 47c-1.7-1.8-2.8-4.1-3.6-6.3-2.4.6-4.8 1.4-7.2 2.2l2.7 8h-.1c-3-3.7-8.3-3.4-12.9-3.1-2.2.2-4.4.3-6.6.5-.9-.1-2.1-.2-2.4-1.3-.1-.4 0-.9.2-1.2 2.3.6 4.8 1.1 7.4.9 6.3-.5 11.5-4.9 13.4-10.5 1.1-2.7 1.7-6.7 5.5-7.2 1.2-.3 2.5-.1 3.6.1.9-3 1.8-6 2.6-9h.1c.7 3.8 2.8 7.5 5.2 10.2 3 3.3 6.1 6.4 8.6 9.9 1.7 2.4 2.5 6 .9 8.6-.7 1.2-1.8 2.1-3.1 2.7-1.3.5-2.5.7-3.8.7-4.2-.1-7.9-2.3-10.5-5.2z" class="st3"/><path d="M371.5 32.6l-11.4 5.3-6.5 3c-.2.8.4 1.4.6 2.1.9 1.9 2.6 3.8 5 3.8 1.3 0 2.5-.4 3.3-1.5v-.2c-1.1-.5-1.9-1.6-2.2-2.8-.4-2.3 1-4.1 2.6-5.2 1.4-1 3.5-1.3 5.2-.7 2.5 1 4 3.5 4 6.1-.2 3.5-2.1 6.4-4.6 8.7-4.4 3.8-10.9 5.3-16.8 3.3-6-2.1-10.1-8.1-10.5-14.5-.2-5.1 1.6-9.5 3.9-13.5 3.6-5.3 9.6-8.7 16.5-8.5 4.6.3 8.7 3.3 10.5 7.3.9 2 1.5 4.1 1.7 6.4l-1.3.9zm.2-1.1c-.6-4.3-2.4-8.5-6.1-10.7-4-2.7-10.2-1.6-14.1.7-4.7 2.5-7.5 7.3-9 12.2-1.8 5.4-.5 11.6 2.9 15.8 3.1 3.9 8.3 5.5 13.5 4.8 5.5-.8 10.2-4.3 11.7-9.7.6-2 .2-4.3-1.2-5.7-1.1-1.2-3.1-1.5-4.8-.9-1.5.8-2.9 2.2-2.8 4 .1 1 .7 2 1.7 2.5.3.2.9.1 1.2.5-1.1 2.1-3.4 3.5-6 3.2-3-.4-5-2.8-5.9-5.5-.2-.6-.4-1.2-.4-1.8l10.1-4.7 9.2-4.7z" class="st3"/></svg>