<svg xmlns="http://www.w3.org/2000/svg" viewBox="0 0 430 70"><path d="M69.2 61.1c2.9-1.9 5.7-4.1 5.7-8.5V25l-4.4-4.6-1.7 1.7 3.8 4v26.4c0 3.7-1.3 6.4-3.6 8.2l.2.4zM52.3 2.7V3c1.3.5 2.8 1.8 2.8 4.3V48l-1.6 1.6 6.1 5.2 1.8-1.5-4.9-4 .9-.8V7.7c0-3.2-2.9-4.8-5.1-5M56 63.9c7.8-.6 15.5-3.2 15.5-11.5v-26L68 22.9l-3.9 3.8v19.5l3.2 2.9-7.4 6.6h-.7L52 49.5l2-1.9V7.8c0-3-2.5-4.6-4.1-4.9v-.7c.7-.4 1.8-.6 3.2-.6 2.5 0 4.8 1.5 5.5 3.1h.2c1.5-2.2 3.9-3.1 6.2-3.2.7 0 1.5.1 2.3.3v.8c-1.3.4-3.2 2-3.2 5.9V25l9.6-9.2h.7c.7.7 4.9 4.5 5.7 5 .4.2.9.4 1.3.4.8 0 1.3-.3 2-.6v1c-.8.7-1.7 2-1.7 3.6v22.5c0 10-10.9 16-25.7 17.1v-.9zm44.3-43.4l-1.9 1.4c2.2 2.6 5.1 6 7.9 9.1l2-1.4c-2.9-3.1-5.7-6.5-8-9.1m-2.3 16l7.2-4.9c-2.5-2.9-5.1-5.8-7.2-8.2v13.1zm4.7 16.6c-4.3-2-8.2-3.5-11.7-5.4.2-1.3.3-2.8.3-7V24.4L89 25.6v15.2c0 4.2-.1 6.9-.4 8.1 3.4 1.9 8.2 3.9 12.6 5.8l1.5-1.6zM87.8 24.9c4.3-2.1 10.7-5.9 15-9h.8c2.8 2.9 6.9 7.6 10.4 10.7v.8L98 37.8v6.4c1.7 1 6.3 3.4 9.1 4.3l6.4-6.2.8.8-12.9 12.5h-.8c-4.3-1.9-10-4.3-13.6-6.3.4-1.3.8-4.7.8-8.8V24.9zM415.3 61c2.9-1.9 5.7-4.1 5.7-8.5V24.9l-4.4-4.6-1.7 1.7 3.8 4v26.4c0 3.7-1.4 6.4-3.6 8.2 0 .1.2.4.2.4zM398.5 2.6l-.1.3c1.3.5 2.9 1.8 2.9 4.3v40.6l-1.6 1.6 6.1 5.2 1.8-1.5-4.9-4 .9-.8V7.6c-.1-3.2-3-4.8-5.1-5m3.6 61.2c7.8-.6 15.5-3.2 15.5-11.5v-26l-3.5-3.6-3.9 3.8V46l3.2 2.9-7.4 6.6h-.7l-7.3-6.2 2-1.9V7.7c0-3-2.5-4.6-4.1-4.9v-.7c.7-.4 1.8-.6 3.2-.6 2.5 0 4.8 1.5 5.5 3.1h.2c1.5-2.2 3.9-3.1 6.2-3.2.7 0 1.5.1 2.3.3v.8c-1.3.4-3.1 2-3.1 5.9V25l9.6-9.2h.7c.7.7 4.9 4.5 5.7 5 .4.2.9.4 1.4.4.8 0 1.4-.3 2-.6V22c-.8.7-1.7 2-1.7 3.6v22.2c0 10-10.9 16-25.7 17.1l-.1-1.1zM195 20.5l-1.9 1.4c2.2 2.6 5.1 6 7.9 9.1l2-1.4c-2.8-3.1-5.7-6.6-8-9.1m-2.1 15.9l7.2-4.9c-2.5-2.9-5.1-5.8-7.2-8.2v13.1zm4.6 16.6c-4.3-2-8.2-3.5-11.7-5.4.2-1.3.3-2.8.3-7V24.3l-2.3 1.2v15.2c0 4.2-.1 6.9-.4 8.1 3.4 1.9 8.2 3.9 12.6 5.8l1.5-1.6zm-14.8-28.2c4.3-2.1 10.7-5.9 15-9h.8c2.8 2.9 6.9 7.6 10.4 10.7v.8l-16 10.4v6.4c1.6 1 6.3 3.4 9.1 4.3l6.4-6.2.8.8-12.9 12.5h-.8c-4.4-1.9-10-4.3-13.6-6.3.4-1.3.8-4.6.8-8.8V24.8zm39.6 28.1c-2.9-.8-5.8-2.7-5.8-6.7V9.8l-3.2-3.3-1.7 1.7 2.6 2.7v36.2c0 4.1 3.3 6.7 6.4 7.5l1.7-1.7zm1-46.2v38.5c0 1.6 1.6 3.2 3.1 3.5l2.3-2.3.7.8-8.2 8.4h-.4c-3.1-.7-7.6-3.5-7.6-8.3V11.5l-2.3-2.3-2.4 2.4-.7-.8 9.2-9.3h.6l5.7 5.2zm22.1 13.8l-1.9 1.4c2.2 2.6 5.1 6 7.9 9.1l2-1.4c-2.8-3.2-5.7-6.6-8-9.1m-2.2 15.9l7.2-4.9c-2.5-2.9-5.1-5.8-7.2-8.2v13.1zm4.6 16.6c-4.3-2-8.2-3.5-11.7-5.4.2-1.3.3-2.8.3-7V24.3l-2.3 1.2v15.2c0 4.2-.1 6.9-.4 8.1 3.4 1.9 8.2 3.9 12.6 5.8l1.5-1.6zM233 24.8c4.3-2.1 10.7-5.9 15-9h.8c2.8 2.9 6.9 7.6 10.4 10.7v.8l-15.9 10.4v6.4c1.6 1 6.3 3.4 9.1 4.3l6.4-6.2.8.8-13 12.5h-.8c-4.3-1.9-10-4.3-13.6-6.3.4-1.3.8-4.6.8-8.8V24.8zm80.9-1.8c1.3 1.2 3.1 2.9 4.6 4.2l1.5-1.7c-1.4-1.3-3.6-3.1-4.6-4.2-.1-.1-1.5 1.7-1.5 1.7zM310 52.9c-3-.8-5.8-2.7-5.8-6.7v-22l-3.1-3.2-1.8 1.7 2.6 2.7v21.8c0 4.1 3.3 6.7 6.4 7.5l1.7-1.8zm.9-26.5v18.9c0 1.7 1.5 3.1 3.1 3.4l2.3-2.2.7.8-8.2 8.4h-.5c-3.1-.7-7.5-3.5-7.5-8.3V25.8l-2.3-2.3-2.4 2.4-.8-.8 9.2-9.3h.7l5.8 5.7v3.1l7.4-8.8h.7c1.5 1.5 3.8 3.7 5.8 5.2v.1l-6.2 7.4h-.1c-1.7-1.5-4-3.6-5.3-4.9-.2.1-2.4 2.8-2.4 2.8zm31.8 20.3V35c-2.3-.6-4.7-1.6-7-2.7v14.5l4.1 2.5 2.9-2.6zM352 53c-2.8-1-5.8-3.1-5.8-7V25.7l-11.1-5.6c-.3.2-1.6 1.1-2 1.4l10.7 5.6v19.7c0 3.8 3.5 6.7 6.4 7.8L352 53zm-9.3-19.2v-6.1l-10.5-5.5c-.8.6-3.6 2.3-4.5 2.8 2.5 3.3 9 7.3 15 8.8m-6.3 19l-7.4-4.9V37l-2.2 1.7v10.6l7.9 5.3c0-.1 1.7-1.8 1.7-1.8zm-1.9 2.8l-8.9-5.9V38.1c2.2-1.6 6.9-4.8 9.1-6.4-3.5-1.9-6.5-4.2-8.3-6.4v-.8c5.3-3 9.1-5.8 12.3-8.7h.7s10.9 5.2 11.5 5.4c.6.3 1 .5 1.6.5.8 0 1.4-.2 2.2-.6v1.2c-.8.6-1.7 1.7-1.7 3.4v19.5c0 2 1.8 3.4 3.1 3.7l2.3-2.3.7.8-8.2 8.4h-.5c-3.2-.9-6.8-4-7.4-7.6l-7.9 7.7c-.1-.2-.6-.2-.6-.3zm-54-8.9V26.5l-7.4-3.2v23l4.6 3.1 2.8-2.7zm3.5-22.5l-10.9-4.6V22l8.5 3.7v22.2c0 4.8 2.1 10 5.3 14l1.7-1.7c-2.8-3.7-4.7-7.8-4.7-12.6l.1-23.4zm-11.7 30.3l1.8-1.6-7.8-5V24.1l-2.2 1.6V49l8.2 5.5zm-3.1 9.4c-2.9 0-5.4 1.3-6.9 3.3v.4c1.7-1 3.7-1.6 6.9-1.6 3.8 0 8.7 1.1 11.5 2.6l1.5-1.8c-3.3-1.6-8-2.9-13-2.9m-6.3-14.4V25l13-9.1h.8c2.5 1.1 10.9 4.6 11.9 5.1.4.1.9.3 1.4.3.8 0 1.6-.3 2.5-.7V22c-.8.7-1.8 2.2-1.8 3.4v20.8c0 4.9 1 7.7 3 9.7v.8c-2.9 2.9-9.5 9.7-12.4 13.3h-.5c-2.8-1.6-7.6-2.8-11.5-2.8-2.9 0-6.1.8-8.6 2.7l-.6-.5c2.2-5.2 7-10.5 13.1-10.5 3.8 0 8.8 1.6 13 3.9-2.9-3.3-5.5-9.4-5.6-14.5l-7.7 7.4h-.6l-9.4-6.2zm116.2-27.2l4 3.9v21.4l2.3-1.3V25l-4.5-4.5-1.8 1.8zm1.6 32.9c.4-.6 1.2-1.4 1.6-1.9l-7.9-1.7v2.2l6.3 1.4zm1.2-7.6V26.5l-3.5-3.6-3.9 3.7v19.5c1.7.4 6.5 1.3 7.4 1.5m-16.4 14.5l-1.6 1.5 5.9 5.1 1.8-1.6-4.6-3.9.8-.8v-38l-3.3-3.3-1.6 1.6 2.6 2.7v36.7zm8.9-37.1l9.6-9.1h.7c.7.7 5.1 4.6 5.8 5.1.4.2.9.3 1.3.3.8 0 1.4-.3 2-.6V22c-.8.6-1.7 2-1.7 3.6v23.5c-4.1 1-7.4 3.2-10.9 7.3h-.3l-6.4-1.3v5.2l3.3 3-7.8 6.5h-.4l-7.3-6.2 2-2.1v-8.7c-.8-.2-2.3-.4-3-.6v-1.1c.9-.4 3.2-2.6 3.2-4.5V25.9l-2.3-2.3-2.4 2.4-.8-.8 9.2-9.3h.7l5.8 5.7-.3 3.4zM22.9 36.4l-.1-10.2-2.3 1.6v9.5c0 1-.2 1.9-.5 2.6h.3c1.4-.9 2.6-2.3 2.6-3.5m-11.8-16c-3.3 3.3-6.4 7.9-6.4 13.7 0 13.8 9.3 20.8 21.1 20.8 7.3 0 12.5-4 15.5-7l-.2-.3c-3.4 2.8-8.1 5-15.3 5-9.5 0-18.7-5.8-18.7-18.6 0-5 1.9-10 4.3-13.4l-.3-.2zM36.4 15c-8.8 0-16.8-4.3-23.2-4.3-4.1 0-8.9 1.7-10.6 6.5l.3.1c1.9-3.3 6.4-4.4 10.3-4.4 6.4 0 14.4 4.4 23.2 4.4 7.1 0 11.2-2.4 11.9-8.1l-.4-.1c-1 4.3-4.4 5.9-11.5 5.9M3.5 34.1c0-9.4 7.1-15.9 13.7-18.8l.5.6c-2.4 2.8-4.1 5.5-4.1 11.2 0 6.5 1.7 11 4.4 14 .9-1 1.4-2.6 1.4-4v-9.7l11.9-8.5.5.7c-1 1.5-1.6 2.9-1.6 5.2V31c0 4.3-7.1 9-11.5 10.8 2.9 2.8 7 4 11.5 4 1.6 0 3.1-.1 4.4-.3V18.2c-3.9-.2-7.6-1.3-11-2.2-3.6-1.1-7.3-2-10.4-2-4.8 0-10.6 1.6-10.7 8.6 0 .6.1 1.3.2 2l-.9.3C1 22.7.5 20.6.5 18.5.4 10.1 6.6 2.7 16.6 2.7c4.2 0 8.2 1 11.6 2 3.7 1.1 7.4 2 11.2 2 1.9 0 3-1 3-2.8s-1-2.6-2.4-3l.2-.9c4.3.8 9 3.3 9 8.7 0 6.5-4.7 9.6-12.7 9.6h-.8v27c5.2-1 8.7-3.4 11.3-7.6l.8.5c-2.9 9.2-9.7 18-21.9 18-12.3-.1-22.4-7.3-22.4-22.1m149.8 2.3l-.1-10.2-2.3 1.6v9.5c0 1-.2 1.9-.5 2.6h.3c1.5-.9 2.6-2.3 2.6-3.5m-11.7-16c-3.3 3.3-6.4 7.9-6.4 13.7 0 13.9 9.3 20.8 21.1 20.8 7.3 0 12.5-4 15.4-7l-.2-.3c-3.4 2.8-8.1 5-15.2 5-9.5 0-18.7-5.8-18.7-18.6 0-5.1 1.8-10.1 4.2-13.5l-.2-.1zm25.3-5.4c-8.8 0-16.8-4.3-23.2-4.3-4.1 0-8.9 1.7-10.6 6.5l.3.1c1.9-3.3 6.4-4.4 10.3-4.4 6.4 0 14.4 4.4 23.2 4.4 7.1 0 11.2-2.4 11.9-8.1l-.4-.1c-1 4.3-4.4 5.9-11.5 5.9M134 34.1c0-9.4 7.1-15.9 13.7-18.8l.4.6c-2.4 2.8-4.1 5.5-4.1 11.2 0 6.5 1.7 11 4.4 14 .9-1 1.4-2.6 1.4-4v-9.7l11.9-8.5.5.7c-1.1 1.5-1.6 2.9-1.6 5.2V31c0 4.3-7.1 9-11.5 10.8 2.9 2.8 7 4 11.5 4 1.6 0 3.1-.1 4.4-.3V18.2c-3.9-.2-7.6-1.3-10.9-2.2-3.6-1.1-7.3-2-10.4-2-4.8 0-10.6 1.6-10.7 8.6 0 .6.1 1.3.1 2l-.9.3c-.8-2.2-1.3-4.3-1.3-6.4C130.8 10 137 2.6 147 2.6c4.2 0 8.2 1 11.6 2 3.7 1 7.4 2 11.2 2 1.9 0 3-1 3-2.8s-.9-2.7-2.3-3.1l.1-.9c4.3.8 9 3.3 9 8.7 0 6.5-4.7 9.6-12.6 9.6h-.8v27c5.2-1 8.7-3.4 11.3-7.6l.8.5c-2.9 9.2-9.7 18-21.9 18-12.3.1-22.4-7.1-22.4-21.9"/></svg>