<svg xmlns="http://www.w3.org/2000/svg" viewBox="0 0 79.375 64.842"><path fill="#0f75bf" stroke-width=".233" d="M0 64.842h79.375V0H0zm0 0"/><path fill="#fff" stroke-width=".233" d="M6.536 39.032c2.642-.06 3.423-.481 3.423-1.532V19.028h-.45c-2.313 0-4.056 2.403-6.338 6.728l-.481-.06.18-7.18h19.225l.15 7.18-.48.06c-2.283-4.325-4.026-6.728-6.339-6.728h-.42V37.5c0 1.05.75 1.473 3.424 1.532v.42H6.536zm16.339 0c2.433-.09 3.003-.45 3.003-1.532V20.47c0-1.082-.57-1.473-3.003-1.563v-.39h10.843v.39c-1.892.09-2.793.42-2.793 1.562v7.81h7.809v-7.81c0-1.141-.93-1.472-2.794-1.562v-.39h10.844v.39c-2.464.09-3.004.48-3.004 1.562V37.5c0 1.082.54 1.443 3.004 1.532v.42H35.94v-.42c1.864-.09 2.794-.39 2.794-1.532v-8.62h-7.809v8.62c0 1.142.901 1.443 2.793 1.532v.42H22.875zm24.75 0c2.433-.09 3.003-.481 3.003-1.532V20.47c0-1.052-.57-1.473-3.003-1.563v-.39h18.353l.09 7.42-.48.06c-2.374-4.987-3.365-6.969-7.149-6.969h-2.764v9.311h.99c2.374 0 3.815-1.111 4.627-4.054h.39v8.68h-.39c-.812-2.974-2.253-4.115-4.626-4.115h-.99v10.062h2.553c4.474 0 5.706-1.803 8.139-7.359l.481.061-.15 7.839H47.626zM2.657 62.503c2.434-.089 3.003-.45 3.003-1.531V43.94c0-1.082-.57-1.471-3.003-1.562v-.391h10.844v.39c-1.894.092-2.794.422-2.794 1.563v7.81h7.81v-7.81c0-1.141-.931-1.471-2.794-1.562v-.391h10.844v.39c-2.463.092-3.003.48-3.003 1.563v17.032c0 1.082.54 1.442 3.003 1.53v.422H15.723v-.421c1.863-.089 2.794-.39 2.794-1.531v-8.621h-7.81v8.621c0 1.14.9 1.442 2.794 1.53v.422H2.657zm24.54 0c2.493-.089 3.093-.48 3.093-1.531V43.94c0-1.051-.6-1.471-3.093-1.562v-.391H38.4v.39c-2.493.092-3.093.512-3.093 1.563v17.032c0 1.05.6 1.442 3.093 1.53v.422H27.197zm11.983 0c2.433-.089 3.005-.48 3.005-1.531V43.94c0-1.051-.572-1.471-3.005-1.562v-.391h11.025v.39c-2.494.092-2.974.48-2.974 1.563v18.443h1.35c4.507 0 5.918-1.683 8.682-7.63l.482.03-.272 8.14H39.18zm19.013 0c2.433-.089 3.004-.48 3.004-1.531V43.94c0-1.051-.571-1.471-3.004-1.562v-.391h11.023v.39c-2.492.092-2.973.48-2.973 1.563v18.443h1.351c4.507 0 5.919-1.683 8.682-7.63l.48.03-.27 8.14H58.194zm0 0"/></svg>