<svg xmlns="http://www.w3.org/2000/svg" viewBox="0 0 816 1056"><g fill-rule="evenodd"><path d="M288 408h240v240H288V408"/><path fill="#fff" d="M440.473 514.416v26.768h7.095v7.139h-21.815v-7.139h7.094v-26.768h-7.094v-7.14h21.815v7.14h-7.095m-119.689 8.428h4.903v8.895c.725-1.311 2.678-2.694 5.257-2.694 1.945 0 3.264.426 4.343 1.242 1.456 1.101 2.137 2.606 2.156 4.496v13.284h-4.903V536.82c0-3.073-.875-3.838-3.17-3.816-2.433-.022-3.683 2.078-3.683 4.54v10.522h-4.903v-25.223m-13.584 1.93h4.867v4.871h7.796v3.487h-7.796v7.977l4.589-4.543 3.425 3.446-8.073 8.056H307.2v-23.294m179.407-17.497H508.8v7.14h-14.567v9.927h8.234v7.14h-8.234v9.673h14.539v7.167h-22.165v-41.047m-62.166 0v41.047h-7.626v-17.279h-14.639v17.279h-7.627v-41.047h7.627v16.63h14.639v-9.49h-6.971v-7.14h14.597m24.407 0h14.63v7.14h-7.003V534.6l18.81-27.324h9.324l-28.837 41.047h-6.924v-41.047M346.95 529.045c1.906 0 3.76.367 5.198 1.398 2.959 2.118 3.573 5.966 3.604 9.594h-12.597c.016.411.046.759.096.994.452 2.197 1.942 3.418 3.734 3.484 1.27 0 3.06-.454 3.452-2.072h5.098c-.554 1.984-1.82 3.653-3.39 4.664-1.504 1.034-3.277 1.305-5.112 1.305-2.37 0-4.664-.667-6.245-2.176-1.661-1.587-2.621-4.273-2.621-7.507-.018-6.636 3.924-9.684 8.784-9.684zm3.731 7.834v-.018c-.08-2.712-2.008-3.918-3.729-3.918-1.41 0-2.705.81-3.395 2.633-.11.295-.2.761-.268 1.303h7.392"/><path fill="#11ee0e" d="M374.976 507.48c7.512 0 13.985 4.135 17.46 9.82.461.755.857 1.527 1.195 2.319h-8.562c-2.329-2.971-5.96-5.219-10.161-5.219-4.068 0-7.468 1.815-9.825 4.687-1.971 2.4-3.251 5.54-3.251 8.976 0 2.812.923 5.426 2.352 7.598 2.404 3.658 6.156 6.143 10.841 6.143 4.016 0 7.4-2.061 9.687-5.121h8.652c-.388.872-.83 1.768-1.323 2.564-3.51 5.657-9.704 9.477-16.881 9.477-7.376 0-13.403-3.741-17.19-9.244-2.25-3.27-3.585-7.204-3.585-11.437 0-5.171 2.015-9.895 5.119-13.508 3.713-4.323 9.065-7.055 15.472-7.055"/></g></svg>