<svg xmlns="http://www.w3.org/2000/svg" viewBox="0 0 400 44.86"><g fill-rule="evenodd"><path fill="#6cccd4" d="M189.083.094c-.091.038-.691.126-1.333.196-.985.107-1.192.185-1.331.502-.124.282-.304.375-.725.375-.408 0-.688.136-1.027.5-.288.308-.634.5-.902.5-.261 0-.583.173-.808.434-.205.239-.544.5-.752.58a1.07 1.07 0 0 0-.529.543c-.083.219-.312.439-.509.491-.197.051-.397.24-.443.419-.047.179-.267.408-.488.509-.222.101-.403.289-.403.418s-.182.354-.406.5a2.2 2.2 0 0 0-.636.728c-.126.253-.306.446-.4.429-.093-.018-.266.324-.385.761-.141.516-.34.849-.569.949-.25.11-.395.385-.496.947-.088.485-.231.792-.37.792-.335 0-.519.459-.653 1.635-.09.789-.221 1.152-.526 1.457l-.406.406.049 5.181c.042 4.484.084 5.207.311 5.376.333.247.654 1.166.654 1.874 0 .38.123.643.404.864.23.182.453.581.519.932.063.338.275.744.471.903.303.246.702 1.032.822 1.622.019.091.165.22.326.286.16.066.291.254.291.419 0 .164.179.433.398.597.218.165.491.632.605 1.04.119.426.307.741.441.741.128 0 .28.131.336.292.057.16.263.441.458.625.195.183.485.539.645.791.161.252.394.459.52.459.125 0 .275.186.332.414a.711.711 0 0 0 .518.518c.254.064.414.223.414.411 0 .169.262.562.583.874.321.311.584.651.584.755 0 .104.369.376.821.605.451.229.869.567.928.753.058.185.239.336.402.336.162 0 .381.188.485.417.104.229.266.417.359.417.092 0 .383.225.646.5s.601.5.752.5c.15 0 .273.107.273.237 0 .265.884.763 1.353.763.166 0 .38.144.474.321.461.861 5.437.96 6.308.126.257-.246.634-.447.838-.447.204 0 .412-.108.463-.24a.256.256 0 0 1 .328-.149c.143.055.236-.014.236-.174 0-.145.189-.312.42-.37.23-.057.55-.272.711-.476.161-.205.455-.459.653-.565.198-.106.408-.343.466-.526.058-.184.246-.334.417-.334.171 0 .36-.154.42-.342.059-.188.44-.504.847-.701.406-.197.711-.437.679-.533-.033-.095.155-.332.416-.526s.699-.663.974-1.042.573-.689.662-.689c.089 0 .209-.187.267-.417.062-.248.224-.416.4-.416.165 0 .379-.204.486-.463.105-.254.358-.535.562-.625.204-.089.394-.331.424-.537.029-.207.166-.375.305-.375.139 0 .369-.299.513-.667.144-.367.326-.667.404-.667.077 0 .141-.112.141-.25 0-.137.077-.25.17-.25.094 0 .261-.206.373-.458.111-.252.326-.55.477-.663.151-.112.327-.481.39-.819.064-.34.288-.751.5-.918.212-.166.435-.57.497-.898.061-.327.295-.755.519-.95a1.12 1.12 0 0 0 .407-.894c0-.344.164-.735.448-1.073.393-.467.456-.707.517-1.971.061-1.251.122-1.489.469-1.821.619-.591.607-4.349-.017-5.467a3.095 3.095 0 0 1-.417-1.508c0-.933-.443-2.715-.764-3.073-.129-.145-.236-.46-.236-.7 0-.555-.328-1.287-.577-1.287-.105 0-.326-.376-.491-.837-.166-.46-.443-.913-.616-1.006-.174-.092-.316-.25-.316-.349 0-.099-.225-.437-.5-.75s-.5-.642-.5-.73c0-.089-.11-.161-.245-.161-.136 0-.362-.225-.505-.5-.146-.283-.392-.5-.568-.5-.17 0-.348-.149-.396-.331-.048-.183-.271-.402-.497-.488-.225-.085-.45-.311-.5-.501-.05-.19-.229-.388-.398-.441-.526-.165-.809-.368-.768-.551.022-.097-.278-.266-.666-.377-.389-.111-.868-.38-1.066-.597-.202-.222-.64-.442-.996-.5-.35-.057-.761-.257-.913-.445-.484-.598-11.986-1.184-13.232-.675"/><path fill="#040404" d="M1.2 6.828c-1.288.312-1.313 3.246-.033 3.871.856.418 22.834.454 23.705.039 1.1-.525 1.485-2.788.621-3.652-.356-.357-22.895-.596-24.293-.258m30.351-.003c-.567.244-.569.316-.517 15.866.056 16.574-.078 15.172 1.465 15.376 1.289.171 2.321-.16 2.603-.836.342-.819.345-29.679.003-30.147-.262-.358-2.88-.548-3.554-.259m22.077.127c-.882.412-.854.204-.925 6.84l-.065 6.041-6.777.001c-7.155.001-7.918.068-8.09.71-.274 1.021-.076 2.456.338 2.456.132 0 .367.221.522.491.393.685.232.671 7.494.673l6.542.003.001 5.125c.001 6.027.092 7.387.5 7.493.156.041.388.31.516.599.428.965 2.589 1.039 3.071.106.14-.27.361-.49.493-.49.568 0 .605-1.034.553-15.37L57.75 7.509l-.355-.355c-.503-.503-2.854-.629-3.767-.202m12.999-.171c-1.007.163-.96-.571-.96 15.272 0 15.157.013 15.447.69 15.447.066 0 .251.131.412.292.444.442 2.314.365 2.795-.115.352-.352.353-.364.399-13.515L70.01 11h5.822c5.646 0 5.828.01 6.001.332.103.193.484.41.907.516.478.121.758.293.812.499.045.174.277.39.515.48.238.091.433.281.433.422 0 .142.188.344.417.448.229.104.416.324.416.489 0 .465.363 1.147.61 1.147.483 0 .303 4.41-.193 4.735-.229.15-.417.428-.417.618a.442.442 0 0 1-.333.432c-.183.048-.333.221-.333.385 0 .181-.197.366-.5.472-.275.096-.5.289-.5.43 0 .14-.185.302-.411.358-.226.057-.456.246-.511.42-.056.174-.152.319-.215.322-1.076.052-2.442.362-2.839.644-.634.452-4.403.537-4.645.106-.134-.24-.501-.335-1.085-.281-1.035.094-1.035 3.859-.001 3.859.07 0 .202.169.292.375.091.207.33.399.532.428.202.028.41.189.464.357.053.167.321.397.595.511.274.113.553.291.619.395.067.103.397.332.734.509.337.176.691.494.788.706.096.213.322.386.501.386s.371.144.427.319c.056.176.324.397.595.492.271.094.493.278.493.408 0 .13.368.389.817.576.497.207.86.476.928.689.063.198.252.349.436.349.186 0 .408.179.516.417.104.229.323.417.485.417.163 0 .339.138.393.306.053.169.302.413.553.542.25.129.547.357.659.507.112.149.5.39.862.535.362.145.704.408.76.585.208.655 3.162.787 3.78.169.718-.718.265-3.811-.558-3.811a.445.445 0 0 1-.411-.313c-.083-.318-.7-.687-1.148-.687-.135 0-.332-.189-.437-.421-.106-.231-.351-.46-.545-.509-.194-.048-.424-.253-.513-.454-.088-.201-.326-.39-.527-.418-.202-.029-.413-.194-.468-.368-.055-.173-.358-.408-.674-.523-.316-.114-.575-.264-.575-.333 0-.07-.334-.322-.742-.562-1.194-.7-1.232-1.579-.068-1.579.758 0 1.713-.357 1.918-.718.078-.137.329-.276.557-.307.255-.036.5-.235.635-.516.12-.252.329-.459.463-.459s.33-.187.434-.416c.105-.229.294-.417.421-.417s.353-.213.503-.473c.149-.26.425-.542.614-.625.234-.104.381-.38.464-.87.074-.441.267-.836.503-1.026.347-.282.387-.47.439-2.105.04-1.224.137-1.915.306-2.173.25-.382.17-1.061-.125-1.061-.085 0-.157-.582-.159-1.292-.005-1.589-.194-2.453-.62-2.834-.179-.16-.421-.602-.538-.982-.132-.427-.359-.758-.595-.865-.209-.096-.43-.328-.49-.517s-.218-.344-.352-.344c-.133 0-.314-.189-.402-.419a1.133 1.133 0 0 0-.569-.576c-.225-.085-.488-.302-.584-.481-.104-.195-.509-.411-1.01-.539-.479-.123-.836-.309-.836-.437 0-.569-.786-.625-9.167-.65-4.537-.013-8.455.009-8.706.05m30.9.101c-.983.376-.94-.267-.991 14.824-.048 14.363-.026 14.929.597 15.209.202.09.367.287.367.437 0 .937 2.872 1.09 3.114.166.044-.171.26-.392.479-.492.6-.273.588.054.538-15.312-.043-12.872-.075-14.396-.313-14.634-.359-.359-3.008-.498-3.791-.198m9.39-.092c-.275.04-.594.15-.709.245-.374.31-.181 2.632.219 2.632.222 0 .3.178.49 1.124.06.298.242.636.404.75.162.115.388.6.502 1.078.136.568.311.901.507.963.202.064.336.331.408.816.07.463.255.847.519 1.077.286.249.41.528.41.928 0 .41.116.665.411.896.266.21.45.568.522 1.018.063.395.248.791.427.917.182.127.368.532.439.952.086.512.229.778.478.888.265.117.382.362.462.965.087.654.185.837.517.964.313.118.41.277.41.668 0 .529.372 1.391.772 1.791.126.126.228.37.228.542 0 .408.356 1.211.606 1.371.108.068.295.508.415.977s.312.889.425.932c.113.044.322.477.463.963.141.486.362.924.491.973.128.05.287.407.353.794.066.392.284.859.492 1.053.205.192.423.622.485.954.061.333.297.806.524 1.051.241.259.413.645.413.925 0 .465.364 1.003.679 1.003.085 0 .154.112.154.25 0 .587.626.917 1.738.917 1.121 0 1.596-.24 1.596-.806 0-.155.168-.356.375-.446.264-.116.421-.387.532-.915.093-.448.311-.872.541-1.054.241-.19.385-.481.385-.779 0-.261.181-.69.403-.953.221-.264.456-.763.521-1.11.065-.347.296-.809.514-1.027.217-.217.395-.58.395-.806 0-.564.163-.938.408-.938.199 0 .592-1.024.592-1.543 0-.14.11-.297.245-.348.273-.105.755-1.145.755-1.629 0-.172.07-.313.155-.313.188 0 .678-.95.679-1.317.001-.147.225-.604.5-1.016.331-.498.498-.96.499-1.375 0-.434.074-.625.241-.625.341 0 .76-.659.76-1.197 0-.263.175-.63.416-.872a1.33 1.33 0 0 0 .417-.968c0-.412.095-.593.375-.715.283-.125.41-.372.518-1.008.105-.62.238-.885.5-1 .257-.113.384-.357.452-.87.061-.459.22-.801.444-.958.212-.148.395-.521.468-.953.067-.398.282-.861.49-1.054.204-.189.426-.639.493-1 .068-.36.257-.781.42-.934.876-.82.513-2.615-.577-2.852-1.985-.432-3.606.076-3.92 1.227-.132.486-.338.853-.508.907-.294.094-.482.555-.486 1.196-.001.201-.153.471-.338.6-.193.135-.421.596-.537 1.083-.119.5-.308.876-.46.916-.15.039-.351.432-.481.938-.123.48-.317.908-.431.951-.114.044-.301.395-.414.78-.114.384-.274.812-.356.949-.591.993-.819 1.56-.819 2.038 0 .409-.095.592-.372.714-.262.116-.406.368-.488.854-.067.4-.295.868-.544 1.117-.294.294-.429.609-.429 1.001 0 .422-.106.641-.406.837-.29.19-.438.482-.519 1.02-.062.414-.174.753-.249.753-.3 0-.659.552-.659 1.013 0 .308-.148.617-.4.837-.257.223-.44.611-.511 1.082-.071.476-.223.794-.432.906-.183.098-.403.493-.509.917-.229.906-.407.947-.56.127a2.822 2.822 0 0 0-.519-1.096c-.221-.263-.403-.692-.403-.954 0-.297-.144-.588-.384-.779-.23-.181-.448-.605-.542-1.053-.111-.528-.268-.799-.532-.915-.294-.129-.375-.301-.375-.799 0-.47-.113-.74-.431-1.035-.273-.253-.464-.645-.521-1.066-.053-.399-.248-.815-.485-1.038-.218-.205-.396-.499-.396-.655 0-.408-.653-1.826-.841-1.826-.088 0-.159-.176-.159-.391 0-.432-.454-1.442-.648-1.442-.067 0-.219-.376-.337-.835-.117-.459-.345-.928-.506-1.042-.16-.113-.344-.487-.408-.831-.064-.343-.3-.823-.525-1.066-.239-.258-.41-.642-.41-.925 0-.29-.162-.645-.406-.889-.223-.224-.469-.726-.545-1.118-.097-.494-.252-.761-.511-.875-.204-.091-.371-.299-.371-.464 0-1.484-1.404-2.057-4.083-1.665m35.231-.008c-.824.131-.815-.05-.815 15.289 0 16.219-.066 15.352 1.206 15.838.639.243 1.789.267 10.833.223l10.119-.049.367-.367c.306-.306.38-.606.443-1.797.12-2.297 1.093-2.086-9.577-2.086h-9.057V11l8.541-.001c9.563-.001 9.688-.013 9.952-.963.252-.909.216-2.58-.063-2.962-.224-.306-20.187-.571-21.949-.292M234 6.835c-1.264.141-1.667.283-1.667.588 0 .13-.371.303-.916.425-.548.122-.917.294-.917.426 0 .122-.244.326-.542.454a3.578 3.578 0 0 0-.89.568 4.506 4.506 0 0 1-.875.607c-.29.15-.526.381-.526.515 0 .133-.188.29-.418.347a.714.714 0 0 0-.522.516.91.91 0 0 1-.498.56c-.218.083-.396.257-.396.386 0 .376-.437 1.114-.817 1.38-.192.135-.349.42-.349.635 0 .214-.105.429-.232.478-.342.131-.768 1.084-.768 1.716 0 .324-.13.674-.315.849-.827.784-1.016 8.415-.229 9.252.254.271.418.731.517 1.452.104.759.242 1.132.493 1.325.191.148.435.623.543 1.056.129.525.302.82.519.889.178.057.396.291.483.521.088.231.304.457.481.503.177.046.345.244.373.438.028.195.236.446.461.557.225.112.467.36.538.55.07.19.261.396.423.456.163.061.397.252.521.424s.405.381.625.465c.22.084.4.259.4.39 0 .243.808.604 1.352.604.167 0 .381.146.477.326.192.357 1.111.671 1.971.673.392 0 .662.132.944.459l.394.458h8.224l.394-.458c.282-.327.552-.459.944-.459.849-.002 1.787-.316 2.011-.675.111-.178.31-.324.442-.324.475 0 1.347-.405 1.347-.626 0-.124.222-.302.493-.397.271-.094.533-.298.582-.451.049-.154.258-.354.465-.444.207-.091.445-.322.529-.513a1.13 1.13 0 0 1 .5-.5 1.16 1.16 0 0 0 .508-.517c.087-.2.331-.442.541-.538.223-.101.382-.321.382-.526 0-.201.131-.387.304-.432.299-.079.696-.899.696-1.437 0-.151.147-.353.326-.449.359-.192.672-1.111.673-1.977.001-.372.123-.655.368-.853.806-.653.864-6.507.065-6.507-.111 0-.384-.169-.605-.375l-.402-.375-9.722-.046c-12.211-.057-11.829-.151-11.67 2.885.115 2.189-.799 1.986 9.223 2.042l8.577.047v.739c0 .567-.077.779-.333.916-.183.098-.334.27-.334.381-.003.524-.373 1.453-.579 1.453-.127 0-.279.168-.337.375-.245.867-.471 1.291-.69 1.291-.129 0-.319.186-.422.414-.104.227-.316.454-.471.503-.156.049-.363.265-.461.479-.103.228-.376.43-.655.486-.263.052-.685.288-.939.523-.255.236-.567.429-.694.429-.128 0-.343.157-.478.35-.224.321-1.713.566-3.898.642-.115.004-.359.158-.542.341-.183.183-.333.261-.333.173 0-.335-.757-.54-2.44-.66-1.483-.106-1.775-.174-1.979-.466-.132-.188-.492-.389-.801-.447a2.044 2.044 0 0 1-.949-.519c-.214-.228-.475-.414-.579-.414-.104 0-.356-.225-.559-.5-.204-.275-.471-.5-.596-.5-.124 0-.266-.156-.316-.346a.673.673 0 0 0-.436-.436c-.19-.05-.345-.219-.345-.375 0-.157-.189-.462-.419-.678-.23-.217-.494-.675-.587-1.019-.096-.357-.299-.668-.472-.723-.688-.218-.772-8.054-.091-8.466.115-.069.341-.474.504-.899.162-.426.45-.941.638-1.145.847-.917 1.26-1.43 1.26-1.563 0-.08.15-.184.333-.232.184-.048.334-.207.334-.353s.078-.265.174-.265c.096 0 .356-.182.579-.405.222-.222.575-.429.784-.458a.783.783 0 0 0 .539-.418c.122-.278.359-.391 1-.478.925-.124 1.437-.338 1.64-.682.21-.355 5.784-.328 5.784.028 0 .309.469.5 1.615.656.653.09.93.217 1.129.521.145.221.371.402.504.402.132 0 .32.149.417.332.098.182.363.378.589.434.227.057.412.206.412.331 0 .126.216.34.48.476.264.137.523.36.575.496.278.724 2.791 1.044 3.511.446.754-.626.276-3.788-.69-4.568-.207-.167-.376-.402-.376-.522s-.21-.305-.467-.411a3.7 3.7 0 0 1-.902-.597c-.239-.222-.622-.45-.85-.507-.229-.058-.45-.237-.493-.398-.049-.188-.364-.367-.87-.494-.436-.11-.919-.355-1.072-.544-.463-.572-7.592-.873-11.179-.472m26.547.002a.871.871 0 0 0-.464.531c-.215.881-.006 30.276.217 30.499.388.388 20.877.399 21.342.012.417-.348.632-1.75.452-2.948-.227-1.518-.151-1.506-9.636-1.562l-8.125-.048V20.502c0-14.019.033-13.564-.976-13.731-.869-.144-2.377-.109-2.81.066m31.036-.019c-.701.071-1.198.237-1.663.558-.365.252-.785.457-.934.457-.148 0-.577.223-.952.495-.376.272-.874.543-1.108.601-.234.059-.426.204-.426.323 0 .118-.263.37-.583.559-.321.19-.584.451-.584.581 0 .13-.155.276-.345.326a.67.67 0 0 0-.435.431.697.697 0 0 1-.406.441c-.175.055-.431.32-.57.588-.139.269-.355.489-.481.489-.138 0-.311.34-.434.854-.139.58-.304.881-.512.935-.324.085-.398.247-.579 1.266-.062.351-.212.676-.334.723-1.033.396-.959 10.905.082 11.722.059.045.24.514.402 1.041.163.527.366.959.452.959.086 0 .268.269.406.598.137.329.401.638.585.686.185.048.336.223.336.388 0 .26.26.594 1.55 1.994.489.531 1.534 1.334 1.736 1.334.116 0 .412.225.657.5.294.33.604.5.911.5.286 0 .619.165.864.429.269.29.636.458 1.131.519.404.05.809.179.901.287.483.57 1.304.681 5.016.681 3.732 0 4.087-.049 4.901-.679.137-.106.587-.236.999-.288.521-.066.862-.226 1.117-.522.245-.285.537-.427.876-.427.49 0 1.174-.486 1.174-.834 0-.091.152-.166.338-.166.206 0 .399-.162.496-.417.087-.229.291-.417.454-.418.163 0 .423-.225.58-.5.156-.274.398-.499.538-.499s.301-.184.358-.41c.056-.226.245-.456.42-.512.174-.055.404-.262.51-.461.106-.198.362-.493.568-.656.222-.174.422-.568.488-.961.062-.366.208-.722.324-.791.299-.177.593-.787.593-1.229 0-.206.15-.534.333-.73.55-.585.702-2.032.638-6.079-.06-3.807-.085-3.97-.745-4.837-.104-.138-.243-.573-.307-.967-.065-.395-.285-.898-.49-1.119-.204-.22-.475-.715-.602-1.099-.126-.384-.35-.729-.496-.768-.146-.038-.349-.289-.451-.558-.101-.269-.285-.49-.407-.49-.123-.001-.351-.226-.507-.5-.156-.275-.388-.499-.515-.499s-.315-.186-.419-.412c-.103-.227-.377-.46-.61-.518-.238-.06-.422-.226-.422-.381 0-.177-.249-.353-.699-.493-.385-.12-.859-.39-1.053-.6-.195-.21-.649-.435-1.009-.5-.363-.066-.779-.278-.932-.475-.429-.552-7.031-.841-10.724-.47m24.638-.032c-.291.037-.629.186-.75.333-.318.383-.327 29.778-.01 30.334.397.693 1.053.734 10.813.681l9.255-.051.368-.427c.224-.261.657-.488 1.11-.583.516-.109.792-.269.905-.525.088-.202.313-.39.498-.416.185-.027.435-.255.556-.507.12-.252.325-.458.454-.458s.324-.168.434-.372c.109-.205.375-.51.589-.679.215-.169.39-.415.39-.547 0-.133.234-.655.52-1.162.845-1.497.754-6.743-.13-7.504-.116-.099-.289-.388-.385-.641-.096-.254-.318-.498-.493-.544-.174-.045-.362-.262-.417-.481a.714.714 0 0 0-.498-.499c-.219-.055-.438-.249-.485-.431a.642.642 0 0 0-.412-.417c-.178-.046-.489-.307-.691-.58l-.366-.495.36-.691c.198-.38.522-.859.72-1.063.889-.918.773-8.228-.13-8.228-.125 0-.307-.231-.406-.514-.099-.283-.315-.551-.481-.594-.166-.043-.374-.243-.462-.444a1.183 1.183 0 0 0-.525-.524c-.201-.088-.4-.294-.443-.458a.66.66 0 0 0-.385-.402c-.169-.058-.461-.285-.65-.504-.244-.286-.625-.446-1.333-.562-.931-.153-16.346-.192-17.52-.045m41.113.018c-.461.089-.643.243-.876.738-.162.343-.366.625-.455.625-.088 0-.28.412-.427.916-.146.504-.322.917-.389.917-.162 0-.687 1.198-.687 1.567 0 .159-.194.543-.432.855-.237.311-.472.868-.522 1.238-.049.371-.15.673-.223.673-.332 0-.656.577-.656 1.168 0 .493-.077.667-.328.747-.312.099-.669.96-.671 1.616-.001.154-.151.328-.334.386-.183.058-.378.307-.432.553-.215.969-.282 1.123-.598 1.373-.194.154-.366.553-.424.981-.067.497-.188.745-.392.798-.196.051-.365.366-.5.93-.113.469-.334.968-.492 1.109-.158.141-.382.612-.497 1.048-.115.435-.3.791-.411.791-.111 0-.29.396-.398.879-.116.519-.325.959-.511 1.075-.18.113-.362.486-.429.88-.064.376-.243.811-.399.966-.372.373-.684 1.114-.684 1.625 0 .225-.079.409-.175.409-.239 0-.817 1.312-.822 1.863-.002.297-.114.483-.333.552-.634.202-.933 3.222-.373 3.782.558.558 3.645.34 3.798-.269.053-.211.316-.546.584-.745.394-.291.487-.485.487-1.01 0-.501.076-.675.328-.755.282-.089.668-.942.671-1.483.001-.081.177-.31.391-.509.228-.21.437-.65.501-1.053.061-.38.212-.751.336-.824.322-.19.607-.792.607-1.283 0-.244.133-.493.317-.591.186-.1.406-.515.531-1.006.118-.46.274-.836.348-.836.188 0 .637-1.13.637-1.604 0-.223.099-.396.227-.396.194 0 .773-1.167.773-1.558 0-.072.178-.37.396-.661.218-.292.444-.8.503-1.129.058-.329.292-.774.52-.988.295-.276.414-.565.414-.997 0-.433.12-.721.414-.998.228-.214.464-.658.525-.987.061-.329.278-.756.484-.948.205-.193.425-.661.49-1.042.209-1.236 1.421-1.26 1.421-.028 0 .438.119.723.419 1.006.242.227.464.665.523 1.034s.257.762.468.928c.213.168.411.562.473.944.062.385.28.816.528 1.046.269.25.422.571.422.886 0 .285.212.787.5 1.185.275.38.5.818.5.974 0 .524.364 1.333.6 1.333.138 0 .233.17.233.417v.416l-2.875.004c-3.566.005-4.11.174-4.47 1.394-.125.423-.325.769-.445.769-.709 0-.612 1.602.113 1.855.262.091.512.3.555.464.118.452.78.514 5.482.514 3.308 0 4.333.049 4.383.209.035.114.111.485.167.824.064.387.214.651.404.711.202.064.367.389.502.992.141.632.293.92.513.978.224.059.345.3.429.86.081.543.231.854.495 1.027.209.136.417.394.464.572.172.656 3.234.945 3.818.359.463-.465.28-3.302-.245-3.789-.325-.301-.456-.586-.456-.99 0-.311-.071-.61-.157-.663-.086-.054-.32-.452-.52-.885s-.429-.918-.51-1.077a1.424 1.424 0 0 1-.147-.524.378.378 0 0 0-.231-.323c-.127-.049-.332-.481-.455-.961-.146-.569-.325-.897-.518-.948-.177-.046-.296-.234-.296-.467 0-.473-.322-1.221-.683-1.585-.146-.148-.317-.588-.379-.978-.082-.509-.206-.733-.442-.795-.204-.053-.329-.227-.329-.458 0-.59-.345-1.422-.589-1.422-.138 0-.268-.292-.338-.759-.078-.525-.231-.837-.492-1.008-.26-.17-.414-.483-.491-.994-.079-.53-.229-.822-.517-1.011-.3-.197-.406-.416-.406-.838 0-.385-.134-.706-.409-.981-.225-.225-.462-.69-.526-1.034a3.213 3.213 0 0 0-.507-1.141c-.215-.283-.392-.643-.392-.798 0-.338-.591-1.536-.831-1.685-.093-.057-.169-.238-.169-.402 0-.359-.475-1.349-.647-1.349-.068 0-.22-.379-.339-.843-.119-.465-.358-.932-.532-1.04a.734.734 0 0 1-.315-.553c0-.672-1.613-1.059-3.166-.76m21.459-.018c-1.006.153-.96-.579-.959 15.293.001 15.96-.018 15.641.964 15.914.698.194 20.01.217 20.702.025.41-.114.417-.145.456-2.025l.039-1.91-.789-.378c-.786-.376-.824-.377-8.581-.375l-7.792.003V20.449c0-10.054-.045-12.944-.208-13.154-.399-.515-2.209-.755-3.832-.509m-80.126 4.378c0 .221.912.588 1.813.731.486.077.839.254 1.054.527.179.228.497.411.714.411.218 0 .599.221.862.5.26.275.566.5.681.5.115 0 .209.071.209.157 0 .086.3.503.667.927.366.423.666.869.666.99 0 .122.15.26.334.308.222.058.333.227.333.51 0 .242.151.529.354.67.271.191.379.495.463 1.309.065.625.262 1.319.48 1.688.444.753.55 3.317.146 3.558-.308.184-.61 1.135-.61 1.924 0 .509-.072.676-.321.741-.222.058-.356.29-.434.749a1.885 1.885 0 0 1-.595 1.094c-.266.237-.483.525-.483.642 0 .116-.139.255-.308.309-.169.053-.393.283-.496.511-.104.227-.305.413-.446.413-.141 0-.34.182-.441.404-.101.222-.357.447-.569.501-.211.053-.432.246-.49.429-.058.183-.194.333-.303.334-.524.002-1.447.374-1.447.583 0 .804-7.731.78-8.483-.027-.183-.197-.634-.409-1.002-.471-.441-.075-.701-.218-.767-.424a.726.726 0 0 0-.428-.416c-.181-.058-.448-.286-.594-.509-.145-.222-.37-.404-.499-.404s-.32-.187-.424-.416c-.104-.229-.292-.417-.417-.417s-.297-.183-.382-.407c-.085-.223-.29-.478-.455-.567-.165-.088-.404-.511-.53-.94-.127-.429-.329-.818-.45-.865-.121-.046-.271-.424-.333-.839-.073-.487-.253-.878-.508-1.099-.502-.437-.63-4.783-.141-4.783.302 0 .491-.452.655-1.571.084-.576.241-.915.523-1.137.277-.218.402-.484.402-.856 0-.407.123-.631.5-.91.275-.203.5-.471.5-.595s.155-.266.345-.316a.677.677 0 0 0 .437-.438c.05-.191.27-.392.489-.447a.714.714 0 0 0 .498-.498c.08-.317.21-.399.636-.399.356 0 .668-.139.926-.414.214-.228.658-.459.987-.514.756-.127 1.682-.538 1.682-.746 0-.094 1.026-.159 2.5-.159 1.533 0 2.5.064 2.5.164m33.53.253c.104.229.253.416.33.416.308 0 1.446 1.332 1.553 1.818.063.285.258.595.434.69.479.256.463 1.758-.021 1.911-.202.064-.38.306-.437.595-.054.267-.202.486-.33.486s-.319.19-.425.421c-.105.231-.359.463-.564.514-.205.052-.407.225-.449.387-.092.352-1.384.509-4.225.51-3.277.003-3.666.329-3.528 2.956.108 2.057-.133 1.952 4.596 2.015l3.952.052 1.042.512c.573.282 1.042.615 1.042.74 0 .124.11.227.244.227s.323.148.42.329c.097.182.363.516.59.743.679.679.584 4.3-.118 4.484a.654.654 0 0 0-.417.426c-.049.187-.224.383-.389.435-.165.053-.414.269-.553.481-.203.31-.458.406-1.306.494-.58.06-1.13.207-1.221.326-.108.141-.314.176-.584.1-.229-.065-2.91-.126-5.958-.135l-5.542-.017V11h11.674l.19.417M11.394 13.536c-.856.275-.894.798-.894 12.217 0 10.255.052 11.247.591 11.247.123 0 .323.206.443.458.445.93 2.652.93 3.098 0 .121-.252.325-.458.455-.458.548 0 .58-.624.58-11.325 0-11.736-.007-11.823-.921-12.154-.628-.227-2.629-.218-3.352.015m137.358 6.544c-.274.121-.548.396-.609.611-.174.622-.159 1.946.024 2.059.091.057.166.249.166.427 0 .177.07.323.155.323.085 0 .286.131.446.292.297.297 13.075.556 14.51.295.89-.163 1.349-3.286.585-3.978-.41-.371-14.441-.398-15.277-.029"/></g></svg>