<svg xmlns="http://www.w3.org/2000/svg" id="layer" x="0" y="0" version="1.1" viewBox="0 0 652 652" xml:space="preserve"><style>.st0{fill:#1a98ee}</style><g id="Symbols"><g id="branding_x2F_ttr_x5F_primary_x5F_nav" transform="translate(-240 -12)"><g id="Header"><g id="logo" transform="translate(240 12)"><path id="Fill-1" d="M223.7 287.9h13.6v10.3c.3 3.3-.7 6.3-2.3 9-2.3 2.7-5 4.6-8.3 6l-3-5.6c2-.7 3.7-2 5-3.3 1-1 1.3-2.3 1.7-4H224V288h-.3z" class="st0"/><path id="Fill-3" d="M26.1 300.6h6v-10.3l20.6-6.6v16.9h10.6v14.6H52.7v23.3c0 1.3.3 2.7.7 4 .3 1.3 1.3 1.7 3 1.7 1 0 2.3-.3 3.3-.7 1.3-.3 2.7-.7 3.7-1.3V356l-3 1c-1.3.3-2.7.3-4 .7l-3.7.3H50c-3.3 0-6.6-.3-9.6-1.7-2.3-1-4-2.7-5.3-4.6-1.3-2.3-2-4.6-2.3-7.3-.3-3-.3-6-.7-9.6v-19.9h-6v-14.3z" class="st0"/><path id="Fill-5" d="M96.5 343.4c1.3 0 2.3-.3 3.3-1 1-1 2-2 2.3-3 .7-1.7 1.3-3 1.7-4.6.3-2 .7-4 .3-6 0-2-.3-4-.7-6-.3-1.7-1-3.3-1.7-4.6-.7-1.3-1.3-2.3-2.7-3.3-1-.7-2.3-1-3.7-1-1 0-2.3.3-3 1-1 1-2 2-2.3 3-.7 1.3-1 3-1.3 4.6-.3 2-.7 3.7-.7 5.6 0 3.7.7 7.6 2.3 11 1.2 2.3 3.6 4 6.2 4.3m0 14.3c-4 0-8-.7-11.6-1.7-3.7-1.3-7-3-10-5.6-3-2.7-5.3-5.6-7-9.3-1.7-4-2.7-8.6-2.7-12.9s1-8.3 2.7-12.3c1.7-3.3 4-6.6 7-9 3-2.3 6.3-4.3 9.6-5.6 3.7-1.3 7.6-2 11.3-2 4.3 0 8.3.7 12.3 2 3.7 1.3 7 3.3 10 6s5 5.6 6.6 9.3c1.7 4 2.3 8.3 2.3 12.6 0 4.3-.7 8.3-2.3 12.3-1.7 3.3-3.7 6.6-6.6 9-3 2.3-6.3 4.3-9.6 5.3-4 1.2-8 1.9-12 1.9" class="st0"/><path id="Fill-7" d="M162.3 356h-33.2v-14.6h4.6v-26.2h-4.3v-14.6h20.9l2.3 6.6 2-2c1-1 2-2 3-2.7 1.3-1 2.7-1.7 4-2.3 1.7-.7 3.3-1 5-1 2.3 0 4.6.3 7 1 1.7.3 3.3 1.3 4.6 2 1 .7 2.3 1.7 3 2.7.7 1 1.3 1.7 1.7 2.3 2-2 4.3-4 6.6-5.3 3-1.7 6.3-2.7 10-2.7 3.7-.3 7.6.7 11 2.3 2.7 1.3 4.6 3.3 6.3 6 1.3 2.7 2.3 5.3 2.7 8.3.3 3.3.7 6.6.7 10v15.3h5.3V356h-28.2v-35.5c0-1-.3-2-.7-3-.3-.7-.7-1.3-1.3-2s-1.3-.7-2.3-.7c-2-.3-3.7.7-4.6 2.3-1 2-1.3 4-1 6V341h6.6v15h-28.6v-28.2c0-3.3 0-6.6-.7-9.6-.3-2-2-3.3-4-3-1.3 0-3 .3-4 1.7-1 1.7-1.3 3.3-1.3 5v19.9h6.6V356h.3z" class="st0"/><path id="Fill-9" d="M237.6 356v-19.9h14.9c0 1.3.3 2.7 1.3 3.7s2 1.7 3.3 2.3c1.3.7 2.7 1 4 1.3 1 .3 2.3.3 3.3.3s2.3-.3 3.3-.7c1-.7 1.7-1.7 1.7-3 0-1-.7-2-2.3-2.7-2-.7-3.7-1.3-5.6-1.7-2.3-.7-5-1.3-7.6-2-2.7-.7-5.3-2-7.6-3.3-2.3-1.3-4.3-3.3-5.6-5.6-1.7-2.7-2.3-6-2.3-9 0-2.7.7-5 2-7.3 1.3-2 3-3.7 5-5 2-1.3 4-2.3 6.3-3 2-1 4-1.3 6-1.3 3.7 0 7 1 10.3 2.7 2.7 1.3 5 3.3 6.3 6l1-7.3h13.6v19.9h-14.6c0-1.3-.3-2.3-1-3.3s-1.7-2-2.7-2.7c-1-.7-2.3-1.3-3.7-2-1.3-.3-2.7-.7-4-.7-1 0-2.3.3-3 1-1 .7-1.3 2-1.3 3 0 1.3 1 2.7 2.3 3 2 1 4 1.7 6 2l7.6 2.3c2.7.7 5.3 2 7.6 3.3 2.3 1.3 4.3 3.3 6 5.6 1.7 2.3 2.3 5.3 2.3 8.3 0 2.3-.7 4.6-1.7 7-1 2-2.7 4-4.6 5.3-2 1.7-4.3 2.7-6.6 3.3-2.7.7-5.3 1-7.6 1-3.7 0-7.3-.7-10.6-2.3-2.7-1.3-5-3.3-6.6-5.6l-1 6.6-14.1.5z" class="st0"/><path id="Fill-11" d="M343.9 327.8c0 1.7.3 3.3.7 5 .3 1.7 1 3 1.7 4.3.7 1.3 1.3 2.3 2.7 3 1 .7 2 1.3 3.3 1.3 2.3 0 4.3-1.3 5.6-3.3 1.7-3 2.7-6 2.3-9.6 0-2-.3-4-.7-5.6-.3-1.7-1-3.3-1.7-4.6-.7-1.3-1.3-2.3-2.7-3-1-.7-2-1-3.3-1-2.3 0-4.6 1.7-5.6 3.7-2 2.8-2.6 6.1-2.3 9.8zm-16.3 28.9l3 2c1.3 1 3 1.7 4.6 2.3 1.7.7 3.7 1.3 5.6 2 2 .7 4.3.7 6.3.7s4.3-.3 6.3-1c1.3-.7 2.7-1.3 4-2.7 1-1 1.7-2 2-3.3.3-1.3.7-2.3.7-3.7v-3.7c-.3.7-1 1.3-1.7 1.7-.7.7-1.7 1.3-2.7 2-1.3.7-2.3 1.3-3.7 1.7-1.7.3-3.3.7-5 .7-4.3 0-8.3-.7-12.3-2.3-3.3-1.3-6-3.7-8.3-6.3-2-2.7-3.7-5.6-4.6-9-1-3.3-1.7-6.6-1.3-10.3 0-4 .7-8 1.7-11.6 1-3.3 3-6.3 5.3-9s5.3-4.6 8.6-5.6c3.7-1.3 7.6-2 11.6-2 2.3 0 4.6.7 7 1.7 1.7.7 3.3 1.7 5 3l2.3-3.3h26.6v14.6H382v33.2c0 4.3-.7 8.6-2 12.6-1.3 3.7-3.7 7-6.3 9.6-3 2.7-7 5-11 6.3-5 1.7-10 2.3-15.3 2.3-3 0-5.6-.3-8.6-1-2.3-.7-5-1.3-7.3-2.7-2-1-4-2-5.6-3.3l-4-3 5.7-12.6z" class="st0"/><path id="Fill-13" d="M393 300.6h26.9v26.9c0 3.7.3 7.3 1.3 10.6.7 2 2.7 3.3 4.6 3.3 2 0 3.7-1 5-2.3 1.3-1.7 2-4 2-6v-17.6h-7.3v-14.9h28.9v40.8h5.3v14.9h-20.9l-3-7-2.3 2.7c-2 2.3-4.6 4-7.6 5-2 .7-4 1-6 1-3.7 0-7.3-.3-10.6-1.7-2.7-1-5-2.7-7-5-2-2.7-3.3-5.3-3.7-8.6-.7-4-1-8-1-12v-15.3H393v-14.8z" class="st0"/><path id="Fill-15" d="M495.3 356h-30.9v-14.6h4.7v-26.6h-4.7v-14.2h25.9v41.1h5.3z" class="st0"/><path id="Fill-17" d="M521.5 327.8c0 1.7.3 3.3.7 5 .3 1.7 1 3 1.7 4.3.7 1.3 1.3 2.3 2.7 3 1 .7 2 1.3 3.3 1.3 2.3 0 4.3-1.3 5.6-3.3 1.7-3 2.7-6 2.3-9.6 0-2-.3-4-.7-5.6-.3-1.7-1-3.3-1.7-4.6-.7-1.3-1.3-2.3-2.7-3-1-.7-2-1-3.3-1-2.3 0-4.6 1.7-5.6 3.7-1.6 2.8-2.6 6.1-2.3 9.8zm16-40.5h-5v-14.6H560v69.1h5.3v14.6h-25.9l-2-4c-.7.7-1 1-1.7 1.3-1 .7-2 1.3-3 1.7-1.3.7-2.7 1-4 1.3-1.7.3-3.3.7-5.3.7-3.7 0-7.3-.7-10.6-2.3-3-1.7-6-3.7-8-6.3-2.3-2.7-4-6-5.3-9.3-1.3-3.7-2-7.3-2-11.3 0-4 .7-8 2-11.6 1.3-3.3 3.3-6.3 5.6-9 2.3-2.3 5-4.3 8.3-5.6 3-1.3 6.3-2 9.6-2 3 0 6.3.3 9.3 1.7 1.7.7 3.3 1.7 5 2.7v-17.1z" class="st0"/><path id="Fill-19" d="M598.2 313.8c-1.3 0-3 .3-4.3 1-1 .7-2 1.3-2.7 2.3-.7 1-1 2-1.3 3-.3 1-.3 1.7-.3 2.7h16.9c0-1 0-2.3-.3-3.3s-.7-2-1.3-3c-.7-1-1.3-1.7-2.3-2-1.4-.3-2.7-.7-4.4-.7zm27.6 34.6c-4 3.3-8.3 6-13.3 7.6-5 1.7-10.3 2.3-15.6 2-3.7 0-7-.7-10.3-1.7-3.3-1-6.6-3-9.3-5.3-3-2.7-5.3-5.6-7-9.3-2-4.3-2.7-9-2.7-13.6 0-4.3.7-8.3 2.3-12.3 1.3-3.3 3.7-6.6 6.3-9.3s6-4.6 9.6-5.6c3.7-1.3 7.6-2 12-2 4 0 8.3.7 12.3 2 3.3 1.3 6.3 3 9 5.6 2.3 2.3 4.3 5.3 5.3 8.3 1.3 3.3 1.7 7 1.7 10.6 0 1.3 0 3-.3 4.3l-1 4h-35.2c.3 1 .3 1.7.7 2.7.3 1 1 2 1.7 3 1 1 2 2 3.3 2.3 1.7.7 3.7 1 5.6 1h3.3c1.3 0 2.7-.3 3.7-.7 1.3-.3 3-1 4.3-1.7 1.7-.7 3-1.7 4.3-3l9.3 11.1z" class="st0"/></g></g></g></g></svg>