<svg xmlns="http://www.w3.org/2000/svg" id="layer" x="0" y="0" version="1.1" viewBox="-153 -46 652 652" xml:space="preserve"><style>.st0{fill:#d8383b}</style><g id="Symbols" transform="translate(-240 -16)"><g id="Header"><g id="logo"><path d="M86.9 249.9v23.6H67.4v-23.6H56.1v57.7h11.3v-24.2h19.5v24.2h11.3v-57.7zm42.1 16.9l7 21h-14.4l7.4-21zm-4.7-16.9l-21 57.7H115l3.5-10.2H139l3.4 10.2h11.8l-21-57.7h-8.9zm114.1 13.6c-2.1-2.5-5.2-3.8-8.4-3.6h-8.5v37.6h8.5c3.2.2 6.4-1.1 8.4-3.6 2.1-2.6 2.4-6.7 2.4-15.5.1-8.7-.3-12.3-2.4-14.9m7.9 38.6c-4.2 3.8-9.7 5.8-15.3 5.5h-20.8v-57.7H231c5.6-.3 11.1 1.7 15.3 5.5 6.5 6.5 5.7 14.4 5.7 23.1 0 8.7.7 17.1-5.8 23.6m67.5-52.2l-9 36.3-10.5-36.3h-8.4l-10.6 36.3-8.9-36.3h-11.7l15.4 57.7h9.4l10.6-35 10.6 35h9.4l15.5-57.7zm35 16.9l7 21h-14.3l7.3-21zm-4.7-16.9l-21 57.7h11.8l3.5-10.2h20.5l3.4 10.2H374l-21-57.7h-9zm56.9 10h-10.6v15.2h10.6c4.1.4 7.8-2.7 8.2-6.8v-.8c.1-4.2-3.3-7.6-7.4-7.6h-.8m8.8 47.6l-11.3-23h-8.1v23H379v-57.7h22.6c11.8 0 18.7 8 18.7 17.7.2 6.8-4.1 13-10.5 15.1l12.9 24.9h-13zm20.3-57.6v57.7h38v-10.1h-26.7v-14H464v-10h-22.7v-13.6H468v-10zm-239.9 32.8c6.5-2.2 10.7-8.3 10.5-15.1.2-8-5.2-15-13-16.9v12c1.1 1.4 1.7 3.1 1.7 4.8.1 4.2-3.3 7.6-7.4 7.6h-8.4v9.4h5.1l11.3 23H203l-12.9-24.8z" class="st0" transform="translate(240 12)"/><path d="M183.5 251.8v6.5c0 1.3-1.1 2.4-2.4 2.4h-1.5c-1 0-2.2-.6-2.3-1.4s-1.1-1.8-3-1.8c-3 0-4.9 1.6-4.9 3.1v2.5h-8.8v-2.6c0-2.8-3-3-3-3-5 .1-9.7 2-13.4 5.4l-1.4-1.4c8.4-13.6 17.3-12.8 20.3-12.8h6.4c1.6 0 3 3 5.3 3.2 1 0 1.9-.3 2.6-1 .2-1.1 1.1-1.9 2.3-1.8h1.4c1.4.2 2.5 1.3 2.4 2.7m-22.9 15l8.8.3 1.3 39c0 1.8-1.5 3.2-3.3 3.2h-4.7c-1.8 0-3.2-1.5-3.2-3.3v-.2l1.1-39z" class="st0" transform="translate(240 12)"/><path fill="#221f1f" d="M-115.4 307.2c-6.3.4-11.7-4.3-12.1-10.5v-22.3h-4.4v-7.9h4.4v-12.4h10.6v12.4h7.3v7.9h-7.3v20.1c0 2.4 1.1 3.8 3.6 3.8h3.7v9l-5.8-.1zm33.8-31.2c-1.3-1.3-3.1-1.9-4.9-1.9-1.8-.1-3.5.6-4.8 1.9-2.2 2.2-2.4 5.8-2.4 10.1s.2 8 2.4 10.2c1.3 1.3 3 1.9 4.8 1.9 1.8.1 3.6-.6 4.9-1.9 2.2-2.2 2.4-6 2.4-10.2s-.2-7.9-2.4-10.1m8.2 26.5c-3.4 3.5-8.2 5.3-13 5.2-4.9.2-9.6-1.7-13-5.2-3.8-3.9-4.7-8.8-4.7-16.4s1-12.3 4.7-16.3c3.4-3.5 8.1-5.3 13-5.2 4.9-.2 9.6 1.7 13 5.2 3.8 4 4.7 8.7 4.7 16.3s-1 12.5-4.7 16.4m59.9 4.7v-25.4c.4-3.8-2.4-7.3-6.2-7.7-3.8-.4-7.3 2.4-7.7 6.2 0 .4-.1.8 0 1.3v25.6h-10.5v-25.4c.4-3.8-2.5-7.2-6.3-7.6-3.8-.4-7.2 2.5-7.6 6.3v26.7h-10.5v-42h10.2v4c2.8-2.8 6.5-4.4 10.5-4.4 4.4-.2 8.5 1.8 11.1 5.3 3.2-3.5 7.8-5.5 12.5-5.3 3.8-.1 7.5 1.2 10.3 3.7 3.2 3.2 4.8 7.5 4.6 12v26.8l-10.4-.1zm16.1-57.3v18.3l10.9-8.3v-10zm25.6 57.8c-6.6 0-12.6-.7-18-6l6.8-6.9c3 2.8 7.1 4.2 11.2 4 3.6 0 7.4-1.2 7.4-4.4 0-2.1-1.1-3.5-4.4-3.9l-6.6-.6c-7.6-.7-12.2-4-12.2-11.8 0-8.7 7.6-13.4 16.2-13.4 6.5 0 12 1.1 16 4.9l-6.3 6.5c-2.8-2.1-6.3-3.1-9.8-2.8-4.2 0-6 1.9-6 4 0 1.5.6 3.3 4.4 3.6l6.6.7c8.3.8 12.5 5.2 12.5 12.3-.1 9.4-8 13.8-17.8 13.8" transform="translate(240 12)"/></g></g></g></svg>