<svg xmlns="http://www.w3.org/2000/svg" viewBox="0 0 192.756 192.756"><g fill-rule="evenodd" clip-rule="evenodd"><path fill="#fff" d="M0 0h192.756v192.756H0V0z"/><path d="M161.262 118.201V74.915h-6.287v43.286h6.287zm-25.237-43.286v2.335h-7.992v17.781h7.186v2.334h-7.186v20.836h-6.285V74.915h14.277zm-62.233 0v2.335h5.568v40.951h6.286V77.25h5.568v-2.335H73.792zm-1.257 43.286V74.915h-6.286v43.286h6.286zm19.398-43.286h6.376l5.388 22.181 5.209-22.181h2.065l-6.287 26.491v16.795h-6.286v-17.242l-6.465-26.044zm-83.429 0h6.645l4.491 31.61 5.478-31.61h2.065l-7.454 43.286h-4.938L8.504 74.915zm20.655 28.198h6.107l-2.694-19.757-3.413 19.757zm-2.694 15.088H24.4l7.454-43.287h5.837l6.466 43.287h-6.646l-1.797-12.752H28.71l-2.245 12.752zm19.308-43.286v43.286h1.976v-32.51l7.273 32.51h6.467V74.915h-1.976v34.036l-7.544-34.036h-6.196zm91.733 28.198h6.154l-2.695-19.757-3.459 19.757zm-2.647 15.088h-2.066l7.455-43.287h5.836l6.467 43.287h-6.646l-1.795-12.752h-7.006l-2.245 12.752zm37.537-41.76h1.438c1.887 0 2.873 1.167 2.873 3.053v12.573c0 1.347-.09 3.412-2.154 3.412h-2.156V76.441h-.001zm0 20.924h2.516c1.705 0 3.053.629 3.053 3.055v17.781h6.287V100.33c.09-2.785-2.426-3.862-4.67-3.952 1.166-.089 3.592-1.616 3.592-4.669V78.866c0-1.617-1.797-4.311-6.377-4.311h-10.686v43.646h6.285V97.365z"/></g></svg>