<svg xmlns="http://www.w3.org/2000/svg" viewBox="0 0 652 652"><path d="M619.9 289.9l-.9 3.9-7.8 2.1c-1.7.6-3.2 1.7-4.2 3.2l-35.7 45.5-13.5 44.6c-.7 2.3.2 3.7 1.7 3.9l9.4 2.3-1.3 3.9h-46.8l1.3-3.9 8.7-2.1c2.3-.5 4-2.4 4.4-4.7l13.4-45.1-11.7-44c-.5-2.1-1.1-3.9-3.4-4.5l-5.5-1.5.9-3.9h40l-.9 3.9-6.8 1.9c-2.4.7-2.9 1.9-2.3 4.2l9.6 37.4 28.5-37.9c.5-.6.8-1.4.9-2.1 0-.9-.7-1.4-1.7-1.7l-7.8-1.9 1.1-3.9 30.4.4z"/><path d="M526.8 314.7h-5.3l-4.7-14.2c-.4-2.2-2.5-3.7-4.7-3.4h-11.7l-27.3 92.1c-.7 2.3 0 3.7 2.1 4.2l7.8 2.1-1.3 3.9h-46l1.3-3.9 8.1-1.9c2.8-.2 5-2.4 5.3-5.1l27.3-91.4h-13.6c-2.1.2-4 1.4-5.1 3.2l-9.6 13.2h-5.3l8.5-26.4h3.4c.6 1.7 2.1 2.8 3.9 2.8h57.2c2.2.3 4.5-.8 5.5-2.8h3.6l.6 27.6zm-84.7-1.2h-5.3l-5.2-13.6c-.5-1.8-2.3-3-4.2-2.8h-21.7l-12.3 41.7H414c2.1 0 3.4-1.1 4.9-3.2l5.7-8.3h5.3l-9.8 33.2h-5.2l.2-11.7c0-2.1-1.3-2.8-3.4-2.8h-20.4l-13.7 46h30c3 .5 6.1-.8 7.8-3.4l11.9-14.9h5.7l-12.1 28.7H417c-1.1-2.1-2.6-3-6.4-3h-68.7l1.3-3.9 8.3-2.1c2.2-.6 3.8-2.4 4.2-4.6l26.4-89.1c.5-1.7 0-3.2-1.3-3.6l-7.4-2.3 1.1-3.9h59.3c2 .1 3.8-1 4.7-2.8h3.4l.2 26.4z"/><path d="M618.9 261.2c-53.5 11.5-108.1 17.2-162.9 17.2-129.7 0-220.6-17.7-259.2-26.8L34.6 405.2l-13.2 1.7 47.6-145c-14.4 5.8-29.5 9.7-44.9 11.5-3.9.3-3.9-1.8-2.1-2.8 10.3-5 18.1-13.9 21.7-24.7 23.4 5.7 41 1.3 62.4-6.6L62.9 361.5l114.8-124.8c69.4 14.4 140.1 21.8 210.9 22.1 55.9 0 105-8.8 130.1-19.1 35.5 21.1 76.1 19.5 99.3 17.9 3.4-.2 4 2.9.9 3.6z"/><path d="M369 289.9l-1.1 3.9-8.9 2.5c-1.7.5-2.9 1.9-3.2 3.6l-26.4 88.4c-.8 2.7-1.4 4.3 1.9 5.3l6.4 1.9-1.3 3.9h-42.3l1.3-3.9 6.2-1.9c2.7-.4 4.8-2.5 5.3-5.1l25.9-88.9c.6-1.3.1-2.9-1.3-3.5-.1 0-.1-.1-.2-.1l-7-2.3 1.1-3.9 43.6.1zm-63.1 27c0 16.6-13.2 31.2-34.7 30.2-4.2-.2-8.4-.8-12.4-1.9 0 20.3 6.2 41 18.3 41 7.4 0 9.6-6.2 10.6-11.5 0-.9.9-1.5 1.9-.4 3.5 3.3 5.4 7.9 5.3 12.7 0 12.5-7.8 18.1-19.8 18.1-30.1 0-31.5-43.3-26.6-69.9.3-1.5.9-1.7 1.9-1.1 4.4 2.6 9.4 3.8 14.5 3.6 9.7 0 18.9-7.8 18.9-21.7 0-13.9-11.7-22.5-28.7-22.5L227 388.8c-.3.8-.4 1.5-.4 2.3-.1 1.2.7 2.2 1.9 2.3l8.1 2.1-1.3 3.9H193l1.3-3.9 6.4-1.9c1.9-.6 2.9-1.8 3.9-4.9l28.1-95.2c-12.2 2.6-18.1 7.1-18.1 14-.2 2.8.5 5.5 2.1 7.8.4.6.6 1.4.6 2.1 0 1.6-1.4 3-5.3 3-6.3.4-11.7-4.3-12.2-10.6v-2c0-5.3 3.2-23.2 49.7-23.2 39.4 0 56.3 12.7 56.3 32.3h.1zm-136.5-7.6L125.8 363h38.7l4.9-53.7zm22.6 86.3l-1.3 3.9h-40l1.3-3.9 7-1.9c1.9-.5 3.3-2.3 3.2-4.2l1.7-18.5H119l-14.7 17.9c-.8.7-1.3 1.7-1.5 2.8 0 .9.5 1.6 1.7 1.9l6.8 2.1-1.3 3.9H76.5l1.5-3.9 7-1.7c2.7-.8 5.1-2.5 6.8-4.7l90.8-106.8 9.4-1.7-8.7 108.9c0 2.3 0 3.9 2.8 4.5-.1-.1 5.9 1.4 5.9 1.4z"/></svg>