<svg xmlns="http://www.w3.org/2000/svg" xmlns:xlink="http://www.w3.org/1999/xlink" fill="#fff" fill-rule="evenodd" stroke="#000" stroke-linecap="round" stroke-linejoin="round" viewBox="0 0 113 16"><use x=".5" y=".5" xlink:href="#a"/><symbol id="a" overflow="visible"><g fill-rule="nonzero" stroke="none"><path fill="#000" d="M13.286 0v2.807h-.56c-.28-.094-.374.094-.374.28L9.64 11.695l-.655 1.965c0 .094-.187.187-.28.187H4.397l-.094-.28-3.275-10.48c-.094-.28-.187-.28-.468-.28H0V0h5.988v2.807H4.772l1.965 7.766h.094l2.152-7.766H7.767V0zm9.45 3.742h4.023l.094 1.403c.28-.28.468-.56.655-.748 1.123-.936 2.433-1.123 3.836-.655 1.03.374 1.497 1.216 1.497 2.34v4.96h.842v2.807h-4.49V7.58c0-.56-.187-.842-.56-.936-.468-.094-.842 0-1.123.374l-.187.28-.094.28v3.462h.655v2.807h-5.146V11.04h.748v-4.5h-.748zM47.25 6.455h-.657V3.648h4.4v7.4h.842v2.807h-4.117v-1.03c-.187.187-.28.374-.468.468-1.03.936-2.807 1.123-4.023.56-.936-.468-1.403-1.216-1.403-2.245L41.73 6.93v-.374h-.842V3.74h4.5v5.988c0 .28 0 .56.094.748.094.374.468.56.842.56s.655-.187.842-.56c.094-.094.094-.28.094-.468zM22.082 9.45h-6.27c0 .56 0 1.123.28 1.6.187.374.655.56 1.03.56s.842-.187 1.03-.655c.094-.187.094-.374.187-.655H21.8c-.094 1.123-.56 2.058-1.497 2.713a4.724 4.724 0 0 1-2.152.842c-1.03.187-2.152.094-3.18-.187-1.403-.468-2.34-1.403-2.713-2.713a7.36 7.36 0 0 1 0-4.491c.56-1.778 1.87-2.807 3.742-3.088.842-.094 1.684-.094 2.526.187 1.87.56 2.9 1.778 3.275 3.742.187.748.187 1.403.28 2.152zm-6.175-1.965h2.433c0-.56 0-1.03-.56-1.3-.468-.28-.936-.28-1.3 0-.56.28-.56.748-.56 1.3zm54.92 1.965h-6.27c0 .56 0 1.123.28 1.6s.655.56 1.123.56a1.15 1.15 0 0 0 1.029-.655l.187-.56h3.462c-.187 2.058-1.684 3.462-3.742 3.65-1.03.094-1.965.094-2.9-.28-1.403-.468-2.34-1.403-2.807-2.807a7.06 7.06 0 0 1 0-4.397c.56-1.87 1.965-2.807 3.836-3.088.842-.094 1.778-.094 2.62.187 1.778.56 2.713 1.778 3.088 3.462.094.842.094 1.6.094 2.34zm-6.08-1.965h2.433c0-1.03-.468-1.6-1.3-1.497-.748.094-1.216.655-1.123 1.497zM34.152 3.648h1.123V1.683c0-.374.094-.468.468-.56l2.9-.655v3.18h1.6v2.807h-1.6v3.93c.094.655.56.936 1.123.842.094 0 .187 0 .374-.094v1.778c0 .842 0 .842-.842.936s-1.684.187-2.62 0c-1.216-.28-1.778-1.03-1.778-2.245V6.456h-.842c.094-.842.094-1.778.094-2.807zm18.44 10.198V11.04h.842v-4.5h-.842v-2.8h3.93c0 .468.094 1.03.094 1.6.094-.094.094-.187.094-.28.28-.842.936-1.3 1.778-1.403h1.3c.094 0 .187.094.187.187v3.088c-.468 0-1.03-.094-1.497 0-1.03.187-1.497.748-1.6 1.778v2.245H58v2.807l-5.427.094z"/><path fill="#ff0113" d="M78.906.1c.56.094 1.123.094 1.6.28 2.152.56 3.275 3.18 2.152 5.146-.28.468-.655.748-1.123 1.03-.187.094-.374.187-.655.374.094.094.187.094.28.094 1.497.468 2.152 1.6 2.245 2.994.187 2.058-1.123 3.555-3.18 3.742-.655.094-1.3.094-1.87.094H71.9v-2.807h1.216V2.814H71.9V.007L78.916.1zm-2.058 8.233v2.713c0 .094.094.187.187.187h1.6c.374 0 .748-.187.936-.56.468-.842 0-1.965-.936-2.152-.56-.187-1.123-.187-1.778-.187zm0-2.62c.56 0 1.03 0 1.6-.094.655-.094 1.03-.655 1.03-1.3s-.374-1.216-.936-1.3-1.123-.094-1.684-.094zm34.243.936h-1.403c-.094 0-.187.094-.187.187v3.544c0 .748.468 1.123 1.3.936h.187v2.245c0 .187 0 .28-.187.28-1.03.187-2.058.28-3.18.094-1.216-.28-1.778-.936-1.778-2.152v-5.24h-.374c-.56 0-.468.094-.468-.468v-2.34h1.123v-1.87c0-.655-.094-.56.56-.655l2.807-.655v3.18h1.684c-.094 1.03-.094 1.965-.094 2.9zm-11.04 1.03v-.936c0-.56-.374-.936-.842-.936s-.936.374-.936.842v.374h-3.368c-.094-1.3.56-2.433 1.778-2.994 1.778-.748 3.65-.748 5.427.094 1.123.56 1.684 1.403 1.684 2.62v4.2h.842v2.807h-4.2c0-.374-.094-.655-.094-1.123-.094.094-.187.187-.187.28-1.123 1.3-3.18 1.3-4.304.748-.842-.468-1.216-1.3-1.3-2.245-.094-2.058.936-3.368 3.088-3.742l2.245-.187c-.094.187 0 .187.187.187zm0 1.778h-.842c-.842.094-1.216.748-1.123 1.497.094.655.655 1.03 1.3.748.374-.094.56-.374.655-.748zm-5.988.094h-6.27c0 .655 0 1.216.374 1.684.28.374.655.468 1.123.468s.748-.28.936-.655l.187-.56h3.462c-.094 1.123-.56 2.058-1.497 2.713-1.123.842-2.34 1.03-3.65.936-.56 0-1.03-.094-1.6-.28-1.403-.374-2.245-1.3-2.713-2.62-.468-1.6-.56-3.18.094-4.772.655-1.684 1.965-2.62 3.742-2.807.842-.094 1.778 0 2.62.187 1.778.56 2.713 1.87 3.088 3.65l.094 2.058zm-3.65-1.87c0-.56-.094-1.123-.56-1.403s-.936-.28-1.403.094c-.374.28-.468.748-.468 1.3z"/></g></symbol></svg>