<svg xmlns="http://www.w3.org/2000/svg" width="797.244" height="67.556"><path fill="#1c1c21" d="M792.991 58.278c-2.319 0-4.252 1.933-4.252 4.543 0 2.609 1.933 4.543 4.252 4.543s4.253-1.934 4.253-4.543c0-2.61-1.934-4.543-4.253-4.543M639.13 67.073h19.521v-1.74l-2.124-.483c-1.934-.484-2.805-1.546-2.805-4.254V34.31h4.544c2.802 0 4.252.676 4.445 6.573l.484 12.37c.386 11.113 3.576 14.207 8.99 14.207 5.507 0 6.957-3.77 6.957-9.085v-2.224h-2.031v1.643c0 3.577-.481 6.09-1.836 6.09-1.255 0-1.353-.966-1.643-5.413l-.579-8.503c-.773-11.405-2.223-15.368-10.632-16.915 8.022-2.125 12.951-8.022 12.951-16.43 0-10.922-8.601-16.14-16.816-16.14H625.6v1.74l1.836.386c3.479.774 3.576 2.61 3.576 10.439v38.465c0 8.602-2.417 12.757-7.927 12.757-4.927 0-7.634-2.416-7.634-11.791V6.765c0-2.706.869-3.479 2.995-3.962l2.61-.58V.483h-20.198v1.74l2.124.58c1.934.58 2.61 1.353 2.61 4.058v44.942c0 10.147 5.896 15.753 14.885 15.753 8.988 0 13.433-5.606 13.433-16.043V9.568c0-5.22 1.065-7.055 5.315-7.055 3.383 0 4.835 1.16 4.835 4.348v53.735c0 2.708-.87 3.674-2.804 4.158l-2.126.58v1.739zm129.7-60.212c0-2.705.871-3.575 2.802-3.962l2.61-.58V.483H754.14v1.74l2.126.58c1.934.58 2.802 1.353 2.802 4.058v54.124c0 2.609-1.06 4.059-4.06 4.059-3.478 0-3.962-1.16-5.217-6.861L737.42.29h-3.868l-11.788 56.055c-1.355 6.281-2.032 7.733-4.642 8.505l-1.643.484v1.739H729.3v-1.74l-2.029-.387c-2.9-.58-3.672-2.125-2.222-9.471l6.958-35.856 7.634 37.982c1.16 5.509 1.065 6.573-3.092 7.345l-2.029.388v1.739h51.222V45.038h-1.836c-.966 10.147-2.995 19.716-11.21 19.716h-3.867V6.86zm-30.154 42.235v-2.608h-13.048l-.385 2.608h13.433zm-53.93-41.075V54.22c0 6.959 0 10.245-3.479 10.825l-1.74.29v1.739h14.207v-1.74c-6.185-.87-6.185-2.995-6.185-10.534V10.92l-2.319-2.126 23.679 58.278h4.057V13.338c0-7.925 0-9.665 3.868-10.73l1.352-.385V.483h-14.595v1.74l1.644.386c4.929.87 4.929 2.804 4.929 10.149V46.39l.967-.29L693.155.483h-13.821v1.74l1.352.386c1.549.484 2.418 2.224 4.06 5.412m-31.025-5.218h3.868c3.865 0 7.441 2.512 7.441 15.077 0 12.854-2.705 14.11-8.118 14.11h-3.19V2.803zM589.356 33.15c0 27.93-2.32 31.894-7.346 31.894-5.025 0-7.249-3.964-7.249-31.701 0-26.868 2.418-30.734 7.249-30.734 5.026 0 7.346 3.866 7.346 30.541m10.535.58c0-18.46-5.896-33.73-17.881-33.73-12.08 0-17.784 15.27-17.784 33.73 0 18.556 5.896 33.826 17.784 33.826 12.275 0 17.881-15.27 17.881-33.826M558.526 6.861c0-2.705.676-3.575 2.608-4.058l2.126-.58V.483h-20.005v1.74l2.415.58c1.932.483 2.997 1.16 2.997 3.962v46.488c0 6.475-.58 11.693-5.412 11.693-3.094 0-5.413-2.416-5.315-4.155.287-2.997 5.315-2.802 5.701-7.636.29-3.479-1.934-4.929-3.962-5.217-2.997-.388-6.668 2.125-6.767 7.15-.097 6.476 4.157 12.372 11.405 12.372 8.023 0 14.21-5.412 14.21-15.755V6.861zm-322.804 0c0-2.705.87-3.575 2.803-3.962l2.61-.58V.483h-20.103v1.74l2.127.58c1.932.58 2.802 1.353 2.802 4.058v54.124c0 2.609-1.064 4.059-4.06 4.059-3.479 0-4.059-1.16-5.315-6.861L204.215.29h-3.865l-11.791 56.055c-1.353 6.281-2.03 7.733-4.639 8.505l-1.644.484v1.739h13.821v-1.74l-2.03-.387c-2.898-.58-3.672-2.125-2.222-9.471l6.959-36.05 7.635 38.176c1.062 5.509 1.062 6.573-3.093 7.345l-2.03.388v1.739h51.32V45.038H250.8c-.966 10.147-2.996 19.716-11.211 19.716h-3.867V6.86zm269.065-4.058h2.128c5.994 0 8.022 9.567 8.699 19.716h1.835V.483h-35.083v22.036h1.836c.678-10.149 2.708-19.716 8.7-19.716h2.125v57.793c0 2.708-.868 3.674-2.802 4.158l-2.513.58v1.739h20.877v-1.74l-2.998-.675c-1.836-.484-2.804-1.064-2.804-4.062V2.803zm-44.166 30.83l2.995.097c4.35.096 5.605 1.74 6.478 12.275h1.835V19.136h-1.835c-1.065 8.409-2.225 11.984-6.38 12.082l-3.093.096V2.803h6.669c7.442 0 9.085 9.375 10.147 19.716h1.837V.483H445.93v1.74l2.126.58c2.222.58 2.803 1.933 2.803 4.156v53.637c0 2.708-.869 3.674-2.803 4.158l-2.126.58v1.739h34.309V45.038h-1.836c-1.16 10.05-2.417 19.716-11.114 19.716h-6.669V33.633zm-36.436 0l2.996.097c4.349.096 5.605 1.74 6.475 12.275h1.836V19.136h-1.836c-1.062 8.409-2.222 11.984-6.377 12.082l-3.094.096V2.803h6.669c7.442 0 9.085 9.567 10.147 19.716h1.836V.483H408.53v1.74l3.092.58c2.223.58 2.803 1.933 2.803 4.156v53.637c0 2.708-.87 3.674-2.803 4.158l-2.126.58v1.739h34.309V45.038h-1.835c-1.16 10.05-2.418 19.716-11.115 19.716h-6.669V33.633zm-39.723-30.83h2.9c3.865 0 7.442 2.512 7.442 15.077 0 12.66-2.705 14.11-8.118 14.11h-2.224V2.803zm-14.593 64.27h19.523v-1.74l-2.127-.483c-1.933-.484-2.803-1.546-2.803-4.254V34.31h3.577c2.802 0 4.252 1.16 4.446 6.573l.482 12.37c.388 11.113 3.577 14.207 8.99 14.207 5.508 0 6.957-3.77 6.957-9.085v-2.224h-2.029v1.643c0 3.577-.483 6.09-1.836 6.09-1.257 0-1.354-.966-1.643-5.413l-.581-8.503c-.773-11.695-2.319-15.368-10.63-16.915 8.021-2.125 12.95-8.022 12.95-16.43 0-10.922-8.601-16.14-16.816-16.14h-18.46v1.74l2.126.58c1.934.58 2.802 1.353 2.802 4.058v53.735c0 2.708-.868 3.674-2.802 4.158l-2.126.58v1.739zm-14.787-64.27h2.127c5.991 0 8.021 9.567 8.698 19.716h1.835V.483H332.66v22.036h1.836c.676-10.149 2.706-19.716 8.699-19.716h2.126v57.793c0 2.708-.871 3.674-2.802 4.158l-2.514.58v1.739h20.392v-1.74l-2.512-.58c-2.513-.58-2.803-2.512-2.803-4.157V2.803zm-22.326 46.97c0-19.813-21.745-25.032-21.745-39.432 0-3.092 1.16-7.732 5.991-7.732 6.96 0 9.57 8.989 10.73 19.91h1.835V.483h-1.16c-.483 2.126-1.353 3.093-2.608 3.093-2.224 0-3.384-3.48-8.699-3.48-8.215 0-13.821 6.863-13.821 15.85 0 16.334 21.746 23.195 21.746 38.273 0 6.861-3.19 10.727-7.539 10.727-6.475 0-10.727-7.633-11.887-19.908h-1.837v22.035h1.16c.967-3.19 2.223-3.48 3.285-3.48 1.838 0 3.77 3.867 9.375 3.867 8.603 0 15.174-7.441 15.174-17.687M269.452 6.86c0-2.705.87-3.575 2.803-3.962l2.61-.58V.483h-20.103v1.74l2.127.58c1.932.58 2.802 1.353 2.802 4.058v53.735c0 2.708-.87 3.674-2.802 4.158l-2.127.58v1.739h31.604V45.038h-1.837c-.965 10.147-2.995 19.716-11.21 19.716h-3.867V6.86zm-63.98 42.235v-2.608h-13.047l-.388 2.608h13.434zm-55.862 18.17h3.962l8.988-47.55h-1.353l9.858 47.55h3.48l11.791-56.055c1.256-5.896 1.933-7.925 4.253-8.506l1.836-.482V.483h-13.628v1.74l2.03.386c2.9.58 3.575 2.32 2.223 9.471l-7.635 37.596h1.16l-7.733-39.625c-.773-3.77-1.256-6.862 1.934-7.442l2.125-.386V.483H154.25v1.74l1.256.29c1.934.482 2.224 1.643 2.996 5.316l2.996 14.4-.58-8.699-6.668 35.18h.87l-7.829-38.659c-.87-3.962-1.16-6.958 1.932-7.538l1.452-.29V.483h-19.04v1.74l1.836.482c1.739.484 2.706 1.354 3.866 6.669l12.274 57.892zM98 33.633l2.996.097c4.349.096 5.605 1.74 6.475 12.275h1.836V19.136h-1.836c-1.062 8.409-2.222 11.984-6.379 12.082L98 31.314V2.803h6.669c7.441 0 9.085 9.567 10.147 19.716h1.836V.483H83.31v1.74l2.126.58c2.223.58 2.803 1.933 2.803 4.156v53.637c0 2.708-.87 3.674-2.803 4.158l-2.126.58v1.739h34.31V45.038h-1.838c-1.158 10.05-2.415 19.716-11.113 19.716H98V33.633zm-60.791 33.44H57.02v-1.74l-2.22-.483c-1.74-.386-2.9-1.546-2.9-4.254V34.214h14.593v26.382c0 2.708-1.158 3.868-2.898 4.254l-2.223.484v1.739h19.813v-1.74l-2.127-.58c-1.932-.483-2.803-1.547-2.803-4.252V6.861c0-2.705.871-3.575 2.803-4.058l2.127-.58V.483H61.37v1.74l2.223.58c1.642.483 2.898 1.16 2.898 3.962v24.839H51.9V6.765c0-2.706 1.063-3.479 2.9-3.962l2.222-.58V.483H37.21v1.74l2.126.58c1.934.58 2.802 1.353 2.802 4.058v53.735c0 2.708-.868 3.674-2.802 4.158l-2.126.58v1.739zM22.42 2.803h2.128c5.991 0 8.021 9.567 8.697 19.716h1.836V.483H0v22.036h1.836C2.512 12.37 4.542 2.803 10.534 2.803h2.126v57.793c0 2.708-.869 3.674-2.803 4.158l-2.512.58v1.739h20.876v-1.74l-2.996-.675c-1.836-.484-2.804-1.064-2.804-4.062V2.803z"/></svg>