<svg xmlns="http://www.w3.org/2000/svg" xmlns:xlink="http://www.w3.org/1999/xlink" viewBox="0 0 170 40"><defs><path id="a" d="M30.307.034H0v38.398h30.307V.034z"/></defs><g fill="none" fill-rule="evenodd"><path fill="#000" d="M38.85 28h15.9l.9-4.75h-.5c-.75 2.525-1.75 3.7-4.45 3.7h-8L54.6 11.1v-.35H39.975l-.35 4.525h.5c.35-3.175 2.225-3.475 5.025-3.475h5.575l-11.95 15.85.075.35zm20.89-7.975c.024-1.575 1.35-3.275 3-3.275 2.05 0 2.7 1.45 2.7 3.275h-5.7zm8.1.75c-.026-2.7-1.8-4.775-4.526-4.775-3.65 0-5.525 3.25-5.525 6.575 0 3.25 1.975 5.675 5.35 5.675 2.5 0 4.35-2.175 5.325-4.25l-.425-.275c-.85 1.3-2.15 2.625-4.325 2.625-2.725 0-4.025-2.45-4.025-5.25v-.325h8.15zM70.653 28h6.3v-.5c-1.85 0-2.125-.275-2.125-2.25v-5.825c0-.125.975-1.725 1.875-1.725.3 0 .475.175.675.35.2.175.45.35.85.35.625 0 1.2-.475 1.2-1.125 0-.825-.725-1.275-1.475-1.275-1.225 0-2.4 1.425-3.125 2.225V16h-.125c-1.275.45-2.675.85-4.05 1.2v.5c1.75 0 1.975.225 1.975 2.025V25.2c0 1.85-.075 2.2-1.975 2.3v.5zm12.964-6.7c0-2.225.85-4.55 3.4-4.55 3.025 0 3.8 3.725 3.8 6.4 0 1.85-.925 4.35-3.15 4.35-3.05 0-4.05-3.775-4.05-6.2zm9.6.875c0-3.775-2.2-6.175-6.025-6.175-3.4 0-5.975 2.8-5.975 6.175 0 3.45 2.475 6.075 5.975 6.075 3.4 0 6.025-2.675 6.025-6.075zM95.508 28h8.1v-.5c-2 0-2.7-.4-2.7-2.45v-5.625h8.925v5.625c0 2.05-.7 2.45-2.7 2.45v.5h8.1v-.5c-2 0-2.7-.4-2.7-2.45V13.7c0-2.05.7-2.45 2.7-2.45v-.5h-8.1v.5c2 0 2.7.4 2.7 2.45v4.675h-8.925V13.7c0-2.05.7-2.45 2.7-2.45v-.5h-8.1v.5c2 0 2.7.4 2.7 2.45v11.35c0 2.05-.7 2.45-2.7 2.45v.5zm23.964-7.975c.025-1.575 1.35-3.275 3-3.275 2.05 0 2.7 1.45 2.7 3.275h-5.7zm8.1.75c-.025-2.7-1.8-4.775-4.525-4.775-3.65 0-5.525 3.25-5.525 6.575 0 3.25 1.975 5.675 5.35 5.675 2.5 0 4.35-2.175 5.325-4.25l-.425-.275c-.85 1.3-2.15 2.625-4.325 2.625-2.725 0-4.025-2.45-4.025-5.25v-.325h8.15zm5.44.925c0-2.175.875-4.95 3.4-4.95 1.3 0 2.3.6 2.875 1.85.125.25.125.975.125 1.575v5.65c0 .375-1.15.875-2.525.875-2.7 0-3.875-2.675-3.875-5zm6.4-4.525c-.95-.8-1.75-1.175-3-1.175-3.175 0-5.6 3.05-5.6 6.475 0 5.25 3.8 5.775 5.025 5.775 1.35 0 2.55-.375 3.625-1.725h.05v1.725a30.08 30.08 0 0 1 3.625-1.05v-.5c-1.425 0-1.525-.35-1.525-1.8V10.125c-1.175.25-2.575.8-3.9 1.075v.5h.275c.7 0 1.425.15 1.425.975v4.5zm7.314 13.325c0-.85.9-1.975 1.25-2.1 6.825 0 7.425.35 7.4 1.6 0 1.8-2.675 2.6-4.025 2.6-1.4 0-4.625-.075-4.625-2.1zm3.55-13.75c1.875 0 2.45 2.85 2.45 4.275 0 1.175-.45 2.7-1.9 2.7-1.925 0-2.475-2.85-2.475-4.325 0-2.5 1.45-2.65 1.925-2.65zm6.075.175h-3c-.175-.05-.65-.925-2.85-.925-2.25 0-4.35 2-4.35 4.275 0 1.75.6 2.85 2.075 3.8-.65.55-1.9 1.75-1.9 2.675 0 .625.375 1.2.925 1.45-.725.7-1.975 2.05-1.975 3.125 0 1.975 2.475 2.525 4.025 2.525 2.825 0 7.2-1.375 7.2-4.725 0-2.625-3.475-2.35-5.3-2.425-2.55-.1-3.125-.3-3.125-1.25 0-.675.55-1.05.85-1.05.1 0 .4.075 1.45.075 2.625 0 4.55-1.725 4.55-4.35 0-.775-.275-1.525-.6-2.275h2.025v-.925zm4.39 3.1c.025-1.575 1.35-3.275 3-3.275 2.05 0 2.7 1.45 2.7 3.275h-5.7zm8.1.75c-.025-2.7-1.8-4.775-4.525-4.775-3.65 0-5.525 3.25-5.525 6.575 0 3.25 1.975 5.675 5.35 5.675 2.5 0 4.35-2.175 5.325-4.25l-.425-.275c-.85 1.3-2.15 2.625-4.325 2.625-2.725 0-4.025-2.45-4.025-5.25v-.325h8.15zM21.778 30.09c-.006-1.184-.132-8.418-2.566-8.542-.258-.013-3.852-.014-4.371-.014-.34 0-3.33 0-3.55.007-2.418.083-2.24 7.967-2.24 7.967s-.233-.014-.426 0c-.041-.191-1.174-4.643-1.515-8.64-.27-3.168.157-6.646.544-9.282l.364.011c.182 2.956 1.265 7.15 2.274 7.293.498.068.966.114 1.395.132.225.01 2.612.01 3.099.01.319 0 4.36-.001 4.649-.02 1.822-.116 2.282-7.09 2.282-7.09l.383-.002c.341 1.581 1.083 5.103 1.159 8.683.08 3.916-.705 7.84-1.082 9.487h-.399z"/><g transform="translate(0 .549)"><mask id="b" fill="#fff"><use xlink:href="#a"/></mask><path fill="#000" d="M20.318 34.416c-1.485 1.574-4.45 2.665-7.17 1.475-3.403-1.487-5.192-5.576-6.153-9.78a37.791 37.791 0 0 1-.382-1.901c-.664-3.805-.765-8.076-.16-11.853.53-3.325 1.61-6.266 3.332-8.171.82-.906 2.057-1.841 3.806-2.054 3.595-.437 5.792 1.55 7.17 3.722 1.056 1.663 1.902 3.948 2.489 6.525.972 4.265 1.225 9.336.523 13.732-.542 3.397-1.656 6.396-3.455 8.305M26.66 5.278c-2.395-3.276-6.57-5.6-11.926-5.2-2.603.195-4.68 1.083-6.408 2.246C3.36 5.666.261 11.822.016 19.717c-.18 5.803 1.19 10.242 3.68 13.48 2.457 3.196 6.515 5.572 11.928 5.196 4.571-.315 8.196-3.174 10.53-6.545 2.381-3.438 3.866-7.528 4.123-13.03.258-5.495-1.196-10.232-3.616-13.54" mask="url(#b)"/></g></g></svg>